<?xml version="1.0" standalone="no"?>
<!DOCTYPE svg PUBLIC "-//W3C//DTD SVG 20010904//EN"
 "http://www.w3.org/TR/2001/REC-SVG-20010904/DTD/svg10.dtd">
<svg version="1.0" xmlns="http://www.w3.org/2000/svg"
 width="259.000000pt" height="259.000000pt" viewBox="0 0 259.000000 259.000000"
 preserveAspectRatio="xMidYMid meet">
<metadata>
Created by potrace 1.11, written by Peter Selinger 2001-2013
</metadata>
<g transform="translate(0.000000,259.000000) scale(0.100000,-0.100000)"
fill="#000000" stroke="none">
<path d="M1240 2372 c0 -5 9 -17 21 -28 57 -51 166 -268 203 -401 21 -79 45
-208 54 -298 14 -144 6 -563 -13 -617 -2 -7 -7 -31 -10 -53 -14 -85 -18 -101
-45 -185 -45 -138 -96 -236 -172 -334 -21 -26 -35 -52 -32 -57 12 -21 162 81
248 167 155 157 267 404 293 649 13 120 6 331 -15 441 -37 185 -120 367 -229
499 -92 112 -303 263 -303 217z"/>
<path d="M858 1571 c-51 -26 -73 -64 -72 -125 0 -85 42 -132 127 -142 60 -8
118 22 141 71 20 42 15 121 -9 159 -31 47 -130 66 -187 37z"/>
<path d="M859 912 c-51 -27 -73 -64 -73 -126 0 -87 46 -136 133 -142 88 -5
135 36 147 129 8 55 -17 112 -57 133 -44 22 -112 25 -150 6z"/>
</g>
</svg>
