<svg width="450" height="352" viewBox="0 0 450 352" fill="none" xmlns="http://www.w3.org/2000/svg">
<rect width="450" height="420" fill="#F8C3DA"/>
<path d="M94.7323 218.306C97.0068 213.747 101.664 210.865 106.76 210.865H371.473C376.873 210.865 381.748 214.097 383.852 219.07L431.365 331.397C435.113 340.259 428.608 350.074 418.986 350.074H50.7253C40.7391 350.074 34.2402 339.569 38.698 330.633L94.7323 218.306Z" fill="white"/>
<path d="M111.245 223.026H368.861L410.463 331.833H56.8418L111.245 223.026Z" fill="#C3DCF3"/>
<ellipse cx="222.932" cy="277.11" rx="38.4023" ry="13.1208" fill="#4678B2"/>
<path d="M243.254 231.114C239.642 226.602 237.513 221.596 236.027 217.393C234.854 218.246 233.636 218.485 232.435 218.384C231.973 218.341 230.917 216.844 230.758 216.285L232.785 215.352C232.785 215.352 232.945 214.886 232.897 214.911C232.205 215.283 231.696 215.089 231.147 214.911C231.309 213.735 231.956 211.639 232.634 210.042C233.425 208.189 234.284 207.205 235.297 206.173C235.263 205.851 235.74 202.93 236.03 202.858C236.164 202.824 236.319 202.842 236.487 202.893C236.144 203.743 236 206.551 236.03 206.805C235.089 207.768 233.866 208.831 233.13 210.556C232.495 212.043 232.09 213.375 231.944 214.474C232.188 214.392 232.483 214.177 232.91 213.895C233.353 213.599 234.489 211.23 234.623 211.614C235.192 213.282 233.787 215.783 233.787 215.783L231.994 216.347C232.142 216.87 233.251 217.36 233.698 217.216C235.513 216.63 236.25 217.033 238 213.593C239.147 211.344 239.673 207.918 239.819 206.198C239.896 206.321 239.978 206.444 240.043 206.558C240.605 206.072 241.395 205.669 241.395 204.943C241.395 203.448 241.095 202.15 240.588 201.101C241.529 199.741 242.307 198.128 242.819 196.729C243.225 195.621 242.201 193.372 242.71 191.146C243.257 188.737 242.899 188.01 242.71 187.313C242.356 186.019 244.923 184.575 244.676 183.48C244.462 182.494 243.575 179.335 242.16 179.21C241.251 179.129 240.752 181.235 239.863 182.165C239.16 182.909 237.979 182.524 237.785 182.494C236.957 182.371 237.311 186.344 236.508 187.029C234.63 188.645 233.008 192.07 232.53 195.308C232.224 197.373 232.368 199.268 232.864 200.767C232.601 201.22 232.378 201.723 232.191 202.262C231.335 198.358 229.682 192.786 229.517 190.68C229.712 190.43 230.001 189.965 230.345 189.361C230.866 190.712 231.481 191.795 232.119 192.484C232.832 190.047 233.945 187.911 235.34 186.235C235.062 185.473 234.83 184.654 234.936 183.697C235.486 178.667 233.71 175.037 232.009 174.156C230.745 173.04 229.099 172.256 227.221 171.873C227.221 171.873 224.84 171.625 222.588 163.613C222.54 163.434 222.455 163.315 222.357 163.24C223.209 161.991 223.796 160.77 223.96 159.847C224.176 158.624 222.753 154.606 222.753 154.12C222.753 151.88 220.683 150.062 218.13 150.062C215.809 150.062 213.89 151.569 213.565 153.532C211.109 154.463 209.333 156.671 209.333 159.025C209.333 160.167 210.01 160.863 210.455 162.862C210.634 163.664 210.878 164.714 211.026 166.04C211.078 166.517 211.742 165.993 212.291 166.178C212.372 166.207 213.971 168.986 214.701 168.947C215.402 168.909 216.131 168.681 216.856 168.331L217.78 172.612C216.521 172.877 215.32 173.335 214.23 173.942C213.983 173.882 213.737 173.86 213.431 173.923C209.039 174.827 208.012 178.893 207.356 181.725C207.256 182.163 206.977 183.396 207.025 183.824C206.048 185.078 204.976 186.491 204.121 187.853C204.096 187.766 204.073 187.678 204.045 187.589C202.806 183.478 200.05 178.375 200.05 177.864C200.05 176.402 197.123 173.09 195.864 172.855C195.806 172.845 195.742 172.833 195.67 172.825C196.188 172.448 197.013 172.07 197.013 171.457C197.013 170.323 195.523 169.568 194.14 169.568C192.757 169.568 191.759 170.306 191.349 171.293C191.059 171.986 192.01 172.695 192.746 173.052C192.235 173.217 191.807 173.469 191.595 173.84C191.412 174.159 190.856 176.057 190.938 177.371C191.054 179.226 195.781 180 197.424 180.655C197.606 180.73 198.165 185.683 199.182 189.058C200.123 192.171 201.352 194.798 202.474 196.307C202.769 197.067 203.219 197.614 203.788 197.836C205.614 198.552 208.379 195.851 209.961 191.806C210.153 191.314 210.937 188.542 211.187 187.512C211.197 187.526 211.207 187.541 211.217 187.554C210.641 190.512 211.063 191.64 209.904 195.109C209.393 196.643 208.027 201.284 207.422 203.95C206.516 207.93 206.708 210.659 207.769 212.85C208.589 214.546 206.729 225.84 208.54 226.96C208.452 227.941 208.344 229.091 208.344 230.178C208.344 234.064 209.218 236.256 209.965 239.323C210.532 241.514 208.641 242.961 209.152 244.785C211.935 254.669 208.129 266.049 209.045 269.327H202.541V277.429H238.554V269.333H237.503C237.208 268.466 235.309 265.567 235.486 254.549C235.57 249.404 235.615 243.771 235.57 239.275C236.065 240.297 236.991 240.95 238.336 241.845C238.693 242.09 238.015 238.792 238.882 237.03C239.211 236.354 242.614 237.292 242.715 236.592C242.832 235.745 242.071 234.089 242.163 233.416C242.415 231.572 243.415 231.312 243.254 231.114ZM214.674 162.067C214.585 162.104 214.565 162.419 214.405 162.482C213.667 162.78 213.318 163.094 213.13 163.283C212.984 163.431 212.745 162.866 212.714 162.482C212.711 162.398 212.89 162.361 211.826 162.067C211.596 162.004 215.052 161.909 214.674 162.067ZM209.854 211.594C208.479 210.83 209.168 207.624 211.389 204.428C212.779 202.43 214.474 200.518 215.86 199.846C214.966 200.647 213.748 202.304 212.831 203.623C210.769 206.588 210.037 209.262 210.953 209.773C211.872 210.282 213.15 209.164 215.023 207.102C216.307 205.69 218.626 201.894 221.597 200.703L216.423 207.017C214.193 210.2 211.229 212.356 209.854 211.594ZM222.286 212.572C221.414 217.79 221.269 221.771 221.304 224.403C221.338 225.292 221.372 226.189 221.406 227.085C221.439 227.596 221.459 227.921 221.444 228.057C221.74 235.24 222.07 242.26 221.809 245.859C220.866 258.928 217.626 266.354 214.68 269.331H212.614C215.764 266.992 219.485 260.07 220.488 246.225C220.962 239.673 220.168 230.898 220.271 220.44C220.284 220.443 220.299 220.458 220.309 220.47C220.397 218.152 220.662 215.424 221.122 212.393C221.868 207.483 223.103 203.233 224.39 200.677C222.962 202.273 221.383 204.558 220.181 206.854C216.54 213.796 216.346 217.036 216.217 216.714C215.639 215.27 216.464 211.934 219.397 206.437C221.544 202.405 224.174 199.282 225.974 198.466C226.293 198.219 226.607 198.092 226.904 198.138C227.265 198.192 227.577 198.474 227.842 198.944C225.909 198.934 223.563 204.946 222.286 212.572ZM230.928 233.049C229.792 239.411 225.803 259.597 229.699 269.029C229.744 269.138 229.805 269.23 229.859 269.333H228.031C224.468 259.737 230.43 229.953 230.861 227.142C231.154 227.249 231.745 228.027 230.928 233.049Z" fill="#061121"/>
</svg>
