<svg width="381" height="463" viewBox="0 0 381 463" fill="none" xmlns="http://www.w3.org/2000/svg">
<rect width="381" height="463" fill="#FFDA4E"/>
<path d="M89.7465 268.189C85.799 266.459 85.4574 265.357 87.2269 260.01L95.4004 235.312C99.6978 222.327 95.2703 214.364 81.139 209.687C65.0979 204.379 53.9515 207.329 50.4967 217.768C49.949 219.423 49.8656 220.102 49.9123 222.095L65.4789 223.715C65.4771 222.867 65.4341 222.57 65.6026 222.061C66.5716 219.133 71.0641 217.936 75.6472 219.452C80.6123 221.096 81.9349 224.782 79.8283 231.148L78.1852 236.113L59.7793 235.389C50.2796 235.07 45.7881 236.691 41.9395 241.492C40.6709 243.191 39.6149 245.101 38.9408 247.138C35.8231 256.559 40.7616 265.539 50.8191 268.867C56.8026 270.847 62.4839 270.326 69.7708 267.087C70.7169 273.192 72.7145 275.265 80.3531 277.793L83.5358 278.847L89.7465 268.189ZM71.1071 257.501C68.3951 258.439 67.4628 258.696 66.2758 258.868C63.8596 259.34 61.3574 259.218 59.4477 258.586C55.6285 257.322 54.0952 254.272 55.3592 250.453C55.8648 248.925 56.4986 247.864 58.1481 245.867L74.9411 245.915L71.1071 257.501Z" fill="#E73229"/>
<path d="M199.244 109.525H168.471L142.868 185.349L142.13 190.273L141.391 185.349L118.25 109.525H87.4771L125.882 224H155.178L199.244 109.525Z" fill="#E73229"/>
<path d="M193.479 333.966L187.579 321.762C181.812 325.383 179.399 326.59 175.644 327.663C173.096 328.467 170.682 328.736 168.268 328.736C162.368 328.736 157.004 325.785 154.322 321.226C152.847 318.678 152.445 316.533 152.176 311.303H193.479V304.464C193.479 287.567 182.751 275.9 167.33 275.9C149.494 275.9 136.084 290.785 136.084 310.498C136.084 329.54 147.751 341.743 166.257 341.743C173.498 341.743 180.203 340.268 186.774 337.318C188.249 336.648 190.529 335.575 193.479 333.966ZM177.387 301.245H152.981C154.322 292.797 159.149 287.969 166.257 287.969C173.766 287.969 176.985 291.724 177.387 301.245Z" fill="#E73229"/>
<path d="M237.481 289.91L238.349 277.208C233.061 277.781 230.606 277.561 228.94 276.694C226.681 275.517 227.015 273.424 230.235 267.239L243.055 242.617L255.068 248.872L260.518 238.405L248.505 232.15L257.113 215.617L243.673 208.619L235.064 225.152L226.114 222.306L221.407 231.346L229.614 235.619L211.716 269.994C207.443 278.201 208.911 283.803 216.285 287.643C220.21 289.686 225.173 290.607 230.575 290.396C232.617 290.25 234.958 290.108 237.481 289.91Z" fill="#E73229"/>
<path d="M305.395 298.643H289.571L280.184 326.402L278.441 333.912L276.831 326.402L265.835 298.643H248.402L271.333 351.479C267.847 361.536 265.969 365.425 261.812 371.728C258.46 377.092 256.18 379.774 250.28 386.077L263.421 394.659C268.785 387.954 270.663 385.406 274.418 378.969C279.111 371.326 281.391 366.498 284.475 357.648L305.395 298.643Z" fill="#E73229"/>
</svg>
