<svg width="2292" height="549" viewBox="0 0 2292 549" fill="none" xmlns="http://www.w3.org/2000/svg">
<g clip-path="url(#clip0)">
<path opacity="0.21" d="M816.531 530.223C813.627 530.998 810.53 531.385 810.53 535.644C810.53 536.418 809.369 537.773 808.594 537.967C804.916 538.547 801.045 539.515 797.367 539.322C793.495 539.128 789.817 539.709 786.139 541.258C784.009 542.225 782.074 543 779.944 543.58C771.62 545.516 763.102 545.516 754.585 544.936C747.035 544.548 745.874 542.613 747.422 535.256C748.003 532.159 749.552 530.804 752.262 530.03C754.004 529.449 755.94 529.255 757.489 528.481C760.392 527.126 764.264 526.352 764.264 521.899C764.264 521.512 764.458 521.125 764.845 520.738C767.168 518.608 769.684 516.479 771.814 514.156C774.524 511.252 777.234 508.348 779.363 505.058C781.88 500.799 783.235 495.959 783.041 490.732C783.041 489.958 783.816 489.184 784.397 488.603C786.332 486.474 788.268 484.538 790.204 482.408C790.398 482.215 790.398 481.634 790.398 481.247C790.591 479.311 790.785 477.182 790.978 475.246C791.172 466.922 791.559 458.791 791.753 450.467C791.946 443.111 792.333 435.949 791.946 428.592C791.753 425.495 790.398 422.398 789.623 419.301C789.236 418.139 789.43 416.784 788.655 416.01C785.558 412.138 784.977 407.298 784.203 402.652C783.816 400.523 782.848 399.749 780.718 399.555C776.266 399.362 771.62 399.362 767.168 398.781C765.038 398.587 762.522 398.2 760.973 396.845C759.231 395.296 757.489 394.716 755.359 394.716C753.617 394.716 752.068 394.522 750.326 394.522C748.584 394.522 747.616 393.748 747.616 392.005C747.422 389.102 747.035 386.391 747.035 383.488C746.454 371.679 745.874 359.677 745.68 347.675C745.486 340.512 745.68 333.156 745.874 325.994C746.067 314.96 745.68 303.925 746.648 293.085C748.584 273.339 752.262 253.981 751.294 234.042C751.1 230.945 751.294 227.847 749.358 225.137C748.971 224.557 748.777 223.589 748.777 222.814C748.584 217.975 748.584 213.329 748.39 208.489C748.39 207.521 748.584 206.553 748.584 205.585C748.777 205.779 748.971 205.973 749.358 206.166C750.326 205.585 751.681 205.198 752.068 204.424C753.81 200.746 754.972 197.068 756.714 193.39C759.812 186.227 763.296 179.065 766.393 172.096C766.781 171.128 767.168 169.773 767.361 168.805C766.2 169.192 765.038 169.192 764.07 169.773C762.328 170.741 761.36 170.547 760.779 168.418C760.199 166.482 760.392 164.933 762.135 163.578C765.425 161.255 768.716 158.932 772.201 156.609C773.943 155.448 774.524 154.286 773.556 152.35C772.394 150.221 771.427 148.091 770.652 145.962C769.684 143.833 768.136 142.865 766.006 142.671C764.07 142.478 762.135 142.284 760.199 141.897C757.489 141.51 756.521 139.961 756.908 137.251C757.101 136.283 757.682 135.315 757.295 134.541C755.94 131.637 756.134 128.733 756.327 125.829C756.327 125.442 756.133 124.862 755.746 124.474C752.649 121.377 752.649 121.377 755.359 117.893C757.876 114.795 760.005 111.698 759.424 107.439C759.231 105.697 760.005 103.567 760.973 102.019C762.135 99.6958 763.877 97.5664 765.038 95.2434C766.587 92.3397 768.716 90.2103 771.814 89.4359C775.492 88.468 778.976 87.3065 782.848 86.9193C796.979 85.5643 806.465 90.2103 812.272 103.374C813.627 106.665 816.531 108.794 819.241 110.149C824.081 112.472 826.985 115.957 828.34 120.796C829.695 125.055 830.663 129.507 831.437 133.96C832.211 139.38 832.018 144.801 828.921 149.64C828.34 150.608 828.34 152.157 828.34 153.512C828.533 156.996 829.114 160.287 829.114 163.772C829.114 165.514 828.533 167.837 827.372 168.805C825.823 170.16 825.823 171.128 826.598 172.87C830.276 179.065 831.824 185.84 832.211 193.196C832.405 196.487 831.631 199.197 830.663 202.101C829.114 206.553 827.565 211.006 827.372 215.652C826.597 225.912 826.791 236.171 826.404 246.431C826.404 247.206 826.404 248.174 826.598 248.948C826.791 250.884 827.178 252.82 827.178 254.755C827.178 257.272 826.404 259.789 826.791 262.112C827.372 265.209 829.308 267.919 830.276 271.016C832.792 279.534 835.696 288.052 837.051 296.956C838.793 308.958 839.18 321.154 840.148 333.35C841.31 348.062 842.665 362.774 844.02 377.487C844.601 383.488 845.181 389.682 845.762 395.683C845.956 398.006 845.375 399.362 842.858 399.362C841.116 399.362 839.568 399.749 837.825 399.942C836.664 400.136 835.115 399.942 834.147 400.523C832.405 401.684 834.728 402.652 834.728 403.814C834.728 404.975 834.341 406.33 834.728 407.492C836.47 413.493 838.6 419.494 839.955 425.689C841.116 430.722 841.697 435.949 841.503 440.982C841.503 453.177 839.955 465.18 838.212 476.988C837.825 479.698 836.664 482.989 837.825 485.119C839.568 488.603 838.6 491.894 838.406 495.378C838.406 497.508 838.019 499.831 838.406 501.96C840.148 510.671 842.471 519.189 842.084 528.094C841.891 531.578 841.31 532.74 837.825 532.933C834.147 533.321 830.276 533.127 826.598 532.933C825.242 532.933 824.081 531.772 823.113 531.191C823.887 529.643 824.468 528.868 824.662 527.9C824.662 527.32 823.694 526.158 823.307 526.158C821.177 526.545 819.048 527.126 817.112 527.707C817.112 527.9 817.112 528.094 817.306 528.481C817.886 528.868 818.661 529.449 819.822 530.03C817.886 530.03 817.112 530.03 816.531 530.223ZM813.24 142.671C814.015 141.703 814.015 140.155 814.015 138.799C814.595 134.541 815.176 130.475 815.563 126.217C815.757 124.087 815.563 121.764 815.563 119.441C815.563 118.086 815.176 116.537 813.24 116.537C811.498 116.731 811.498 118.086 811.111 119.441C810.337 122.732 809.562 126.217 808.401 129.508C807.046 133.186 803.948 135.315 800.464 136.67C798.528 137.444 797.367 139.961 797.947 141.703C798.141 142.09 798.722 142.478 799.109 142.865C800.077 143.445 801.045 144.026 802.206 144.607C805.11 145.768 806.852 147.704 806.465 151.189C806.465 151.963 807.626 152.737 808.207 153.512C808.594 153.318 808.788 153.318 809.175 153.125C809.175 149.059 810.917 145.768 813.24 142.671Z" fill="black"/>
<path d="M936.359 192.229H118.279V546.678H936.359V192.229Z" fill="white" stroke="black" stroke-width="1.92421" stroke-miterlimit="10"/>
<path d="M2187.68 194.551H1369.6V549H2187.68V194.551Z" fill="#E7D2B5"/>
<path opacity="0.73" d="M1369.6 3.48633H2187.68L2186.71 462.858H1369.6V3.48633Z" fill="#B5B0C6"/>
<path d="M936.359 1.35352H118.279V546.869H936.359V1.35352Z" stroke="black" stroke-width="1.92421" stroke-miterlimit="10"/>
<path d="M669.408 300.052L650.824 237.719H562.357L543.58 300.052H490.344L576.489 25.9395H636.693L724.192 300.052H669.408ZM606.881 73.5608H604.752L571.649 195.131H640.952L606.881 73.5608Z" fill="#6EC6D9"/>
<path d="M829.114 300.052L829.308 90.7896H827.953L786.139 128.538L763.683 91.5639L838.212 25.9395H877.897V300.052H829.114Z" fill="#6EC6D9"/>
<path d="M47.2339 0.193359V546.87" stroke="black" stroke-width="0.577263" stroke-miterlimit="10"/>
<path d="M24.3914 304.12L20.5197 304.701C18.9711 303.152 17.4224 301.604 16.2609 300.442C14.9059 299.087 13.7444 298.119 12.7764 297.151C11.615 296.183 10.647 295.603 9.67913 295.022C8.71121 294.635 7.7433 294.248 6.96897 294.248C6.58181 294.248 6.19464 294.248 5.80748 294.441C5.42031 294.635 5.03315 294.635 4.83956 295.022C4.64598 295.215 4.25882 295.603 4.25882 295.99C4.25882 296.377 4.06523 296.764 4.06523 297.345C4.06523 298.313 4.25882 299.281 4.83956 300.055C5.22673 300.829 6.00106 301.604 6.96897 302.572L3.67807 304.895C3.09732 304.314 2.71016 303.733 2.32299 303.152C1.93583 302.572 1.54866 301.991 1.35508 301.41C1.1615 300.829 0.967913 300.249 0.77433 299.474C0 298.313 0 297.538 0 296.764C0 295.796 0.193583 294.828 0.387165 293.86C0.580748 293.086 1.1615 292.312 1.54866 291.731C2.12941 291.15 2.71016 290.569 3.67807 290.376C4.4524 289.989 5.42031 289.795 6.58181 289.795C7.54972 289.795 8.71121 289.989 9.67913 290.376C10.647 290.763 11.8085 291.344 12.7764 292.118C13.9379 292.892 15.0994 294.054 16.2609 295.215C17.616 296.571 18.9711 298.119 20.5197 299.861V289.602H24.1978V304.12H24.3914Z" fill="black"/>
<path d="M12.1957 266.758C13.9379 266.758 15.6802 266.951 17.2288 267.339C18.7775 267.726 20.1326 268.113 21.1005 268.887C22.262 269.662 23.0363 270.629 23.8106 271.597C24.585 272.565 24.7786 274.114 24.7786 275.663C24.7786 277.211 24.3914 278.566 23.8106 279.728C23.2299 280.889 22.262 281.857 21.1005 282.438C19.939 283.212 18.5839 283.599 17.2288 283.987C15.6802 284.374 14.1315 284.567 12.1957 284.567C10.4535 284.567 8.71121 284.374 7.35613 283.987C5.80747 283.599 4.64598 283.019 3.48448 282.438C2.32299 281.664 1.54866 280.696 0.967912 279.728C0.387165 278.566 0 277.211 0 275.663C0 274.114 0.387165 272.759 0.967912 271.597C1.54866 270.436 2.32299 269.468 3.48448 268.694C4.64598 267.919 5.80747 267.339 7.35613 267.145C8.90479 266.951 10.4535 266.758 12.1957 266.758ZM12.3893 271.21C11.2278 271.21 10.0663 271.21 9.09838 271.404C8.13046 271.597 7.16255 271.791 6.38822 271.985C5.61389 272.372 5.03314 272.759 4.4524 273.34C4.06523 273.92 3.67807 274.695 3.67807 275.663C3.67807 276.631 3.87165 277.405 4.4524 277.986C4.83956 278.566 5.61389 279.147 6.38822 279.341C7.16255 279.728 8.13046 279.921 9.09838 279.921C10.0663 280.115 11.2278 280.115 12.3893 280.115C13.7444 280.115 14.9059 280.115 15.8738 279.921C17.0353 279.728 17.8096 279.534 18.5839 279.147C19.3583 278.76 19.939 278.373 20.3262 277.792C20.7133 277.211 20.9069 276.437 20.9069 275.469C20.9069 274.501 20.7133 273.727 20.3262 273.146C19.939 272.565 19.3583 272.178 18.5839 271.791C17.8096 271.404 16.8417 271.21 15.8738 271.017C14.7123 271.21 13.5508 271.21 12.3893 271.21Z" fill="black"/>
<path d="M12.1957 243.527C13.9379 243.527 15.6802 243.721 17.2288 244.108C18.7775 244.495 20.1326 244.882 21.1005 245.657C22.262 246.431 23.0363 247.399 23.8106 248.367C24.585 249.335 24.7786 250.883 24.7786 252.432C24.7786 253.981 24.3914 255.336 23.8106 256.497C23.2299 257.659 22.262 258.627 21.1005 259.208C19.939 259.982 18.5839 260.369 17.2288 260.756C15.6802 261.143 14.1315 261.337 12.1957 261.337C10.4535 261.337 8.71121 261.143 7.35613 260.756C5.80747 260.369 4.64598 259.788 3.48448 259.208C2.32299 258.433 1.54866 257.465 0.967912 256.497C0.387165 255.336 0 253.981 0 252.432C0 250.883 0.387165 249.528 0.967912 248.367C1.54866 247.205 2.32299 246.237 3.48448 245.463C4.64598 244.689 5.80747 244.108 7.35613 243.915C8.90479 243.721 10.4535 243.527 12.1957 243.527ZM12.3893 247.98C11.2278 247.98 10.0663 247.98 9.09838 248.173C8.13046 248.367 7.16255 248.56 6.38822 248.754C5.61389 249.141 5.03314 249.528 4.4524 250.109C4.06523 250.69 3.67807 251.464 3.67807 252.432C3.67807 253.4 3.87165 254.174 4.4524 254.755C4.83956 255.336 5.61389 255.917 6.38822 256.11C7.16255 256.497 8.13046 256.691 9.09838 256.691C10.0663 256.885 11.2278 256.885 12.3893 256.885C13.7444 256.885 14.9059 256.885 15.8738 256.691C17.0353 256.497 17.8096 256.304 18.5839 255.917C19.3583 255.529 19.939 255.142 20.3262 254.562C20.7133 253.981 20.9069 253.206 20.9069 252.239C20.9069 251.271 20.7133 250.496 20.3262 249.916C19.939 249.335 19.3583 248.948 18.5839 248.56C17.8096 248.173 16.8417 247.98 15.8738 247.786C14.7123 247.98 13.5508 247.98 12.3893 247.98Z" fill="black"/>
<path d="M118.279 546.871H24.7786" stroke="black" stroke-width="0.577263" stroke-miterlimit="10"/>
<path d="M1040.12 27.1016H917.194" stroke="black" stroke-width="0.577263" stroke-miterlimit="10"/>
<path d="M1034.5 294.246H911.58" stroke="black" stroke-width="0.577263" stroke-miterlimit="10"/>
<path d="M118.279 192.229H936.552" stroke="black" stroke-width="2.92464" stroke-miterlimit="10" stroke-dasharray="32.91 32.91"/>
<path d="M118.279 0.193359H24.7786" stroke="black" stroke-width="0.577263" stroke-miterlimit="10"/>
<path d="M1013.79 188.357H993.466V188.55L997.144 192.616L993.466 194.745L987.077 187.583V183.711H1013.79V188.357Z" fill="black"/>
<path d="M1000.43 156.998C1002.37 156.998 1004.31 157.192 1005.85 157.579C1007.6 157.966 1008.95 158.547 1010.31 159.321C1011.47 160.095 1012.44 161.257 1013.21 162.418C1013.99 163.773 1014.18 165.129 1014.18 167.064C1014.18 168.807 1013.79 170.355 1013.21 171.71C1012.44 173.065 1011.47 174.033 1010.31 174.808C1009.15 175.582 1007.6 176.163 1005.85 176.55C1004.11 176.937 1002.37 177.131 1000.43 177.131C998.499 177.131 996.563 176.937 995.014 176.55C993.272 176.163 991.917 175.582 990.755 174.808C989.594 174.033 988.626 172.872 987.852 171.71C987.271 170.355 986.884 169 986.884 167.258C986.884 165.516 987.271 163.967 987.852 162.806C988.432 161.644 989.4 160.483 990.755 159.708C991.917 158.934 993.466 158.353 995.014 157.966C996.563 157.192 998.305 156.998 1000.43 156.998ZM1000.43 162.031C999.079 162.031 997.918 162.031 996.757 162.225C995.595 162.418 994.627 162.612 993.659 162.999C992.691 163.386 992.111 163.967 991.53 164.548C990.949 165.129 990.755 166.096 990.755 167.064C990.755 168.032 990.949 169 991.53 169.581C992.111 170.162 992.691 170.742 993.659 171.13C994.627 171.517 995.595 171.71 996.757 171.904C997.918 172.097 999.079 172.097 1000.43 172.097C1001.79 172.097 1003.14 172.097 1004.31 171.904C1005.47 171.71 1006.44 171.517 1007.4 171.13C1008.18 170.742 1008.95 170.162 1009.34 169.581C1009.92 169 1010.11 168.032 1010.11 167.064C1010.11 166.096 1009.92 165.129 1009.34 164.548C1008.76 163.967 1008.18 163.386 1007.4 162.999C1006.63 162.612 1005.47 162.418 1004.31 162.225C1003.14 162.031 1001.79 162.031 1000.43 162.031Z" fill="black"/>
<path d="M1000.43 131.25C1002.37 131.25 1004.31 131.444 1005.86 131.831C1007.6 132.218 1008.95 132.799 1010.31 133.573C1011.47 134.347 1012.44 135.509 1013.21 136.67C1013.99 138.025 1014.18 139.38 1014.18 141.316C1014.18 143.059 1013.79 144.607 1013.21 145.962C1012.44 147.317 1011.47 148.285 1010.31 149.06C1009.15 149.834 1007.6 150.415 1005.86 150.802C1004.11 151.189 1002.37 151.383 1000.43 151.383C998.499 151.383 996.563 151.189 995.015 150.802C993.272 150.415 991.917 149.834 990.756 149.06C989.594 148.285 988.626 147.124 987.852 145.962C987.271 144.607 986.884 143.252 986.884 141.51C986.884 139.768 987.271 138.219 987.852 137.057C988.433 135.896 989.401 134.734 990.756 133.96C991.917 133.186 993.466 132.605 995.015 132.218C996.563 131.444 998.305 131.25 1000.43 131.25ZM1000.43 136.09C999.08 136.09 997.918 136.09 996.757 136.283C995.595 136.477 994.627 136.67 993.659 137.057C992.692 137.445 992.111 138.025 991.53 138.606C990.949 139.187 990.756 140.155 990.756 141.123C990.756 142.091 990.949 143.059 991.53 143.639C992.111 144.22 992.692 144.801 993.659 145.188C994.627 145.575 995.595 145.769 996.757 145.962C997.918 146.156 999.08 146.156 1000.43 146.156C1001.79 146.156 1003.14 146.156 1004.31 145.962C1005.47 145.769 1006.44 145.575 1007.4 145.188C1008.18 144.801 1008.95 144.22 1009.34 143.639C1009.92 143.059 1010.11 142.091 1010.11 141.123C1010.11 140.155 1009.92 139.187 1009.34 138.606C1008.76 138.025 1008.18 137.445 1007.4 137.057C1006.63 136.67 1005.47 136.477 1004.31 136.283C1003.14 136.283 1001.79 136.09 1000.43 136.09Z" fill="black"/>
<path d="M1024.44 27.6836V294.247" stroke="black" stroke-width="0.577263" stroke-miterlimit="10"/>
<path d="M1920.53 298.312L1901.95 235.978H1813.48L1794.7 298.312H1741.47L1827.42 24.3926H1887.62L1975.32 298.505H1920.53V298.312ZM1858.01 71.8203H1855.88L1822.77 193.39H1892.08L1858.01 71.8203Z" fill="#28A3B7"/>
<path d="M2080.24 298.312L2080.43 89.0494H2079.08L2037.26 126.798L2014.81 89.8237L2089.14 24.1992H2128.83V298.312H2080.24Z" fill="#28A3B7"/>
<path d="M2291.44 29.4238H2168.51" stroke="black" stroke-width="0.577263" stroke-miterlimit="10"/>
<path d="M2285.63 296.375H2162.7" stroke="black" stroke-width="0.577263" stroke-miterlimit="10"/>
<path d="M2264.92 190.677H2244.59V190.871L2248.27 194.936L2244.59 197.065L2238.2 189.903V186.031H2264.92V190.677Z" fill="black"/>
<path d="M2251.56 159.32C2253.49 159.32 2255.43 159.514 2256.98 159.901C2258.72 160.288 2260.08 160.869 2261.43 161.643C2262.59 162.418 2263.56 163.579 2264.33 164.741C2265.11 166.096 2265.3 167.451 2265.3 169.387C2265.3 171.129 2264.92 172.678 2264.33 174.033C2263.56 175.388 2262.59 176.356 2261.43 177.13C2260.27 177.904 2258.72 178.485 2256.98 178.872C2255.24 179.259 2253.49 179.453 2251.56 179.453C2249.62 179.453 2247.69 179.259 2246.14 178.872C2244.4 178.485 2243.04 177.904 2241.88 177.13C2240.72 176.356 2239.75 175.194 2238.98 174.033C2238.39 172.678 2238.01 171.322 2238.01 169.58C2238.01 167.838 2238.39 166.289 2238.98 165.128C2239.56 163.966 2240.52 162.805 2241.88 162.03C2243.04 161.256 2244.59 160.675 2246.14 160.288C2247.69 159.514 2249.43 159.32 2251.56 159.32ZM2251.56 164.16C2250.2 164.16 2249.04 164.16 2247.88 164.353C2246.72 164.547 2245.75 164.741 2244.78 165.128C2243.82 165.515 2243.23 166.096 2242.65 166.676C2242.07 167.257 2241.88 168.225 2241.88 169.193C2241.88 170.161 2242.07 171.129 2242.65 171.71C2243.23 172.29 2243.82 172.871 2244.78 173.258C2245.75 173.645 2246.72 173.839 2247.88 174.033C2249.04 174.226 2250.2 174.226 2251.56 174.226C2252.91 174.226 2254.27 174.226 2255.43 174.033C2256.59 173.839 2257.56 173.645 2258.53 173.258C2259.3 172.871 2260.08 172.29 2260.46 171.71C2261.04 171.129 2261.24 170.161 2261.24 169.193C2261.24 168.225 2261.04 167.257 2260.46 166.676C2259.88 166.096 2259.3 165.515 2258.53 165.128C2257.75 164.741 2256.59 164.547 2255.43 164.353C2254.27 164.353 2253.11 164.16 2251.56 164.16Z" fill="black"/>
<path d="M2251.56 133.379C2253.49 133.379 2255.43 133.572 2256.98 133.96C2258.72 134.347 2260.08 134.928 2261.43 135.702C2262.59 136.476 2263.56 137.638 2264.34 138.799C2265.11 140.154 2265.3 141.509 2265.3 143.445C2265.3 145.187 2264.92 146.736 2264.34 148.091C2263.56 149.446 2262.59 150.414 2261.43 151.188C2260.27 151.963 2258.72 152.544 2256.98 152.931C2255.24 153.318 2253.49 153.511 2251.56 153.511C2249.62 153.511 2247.69 153.318 2246.14 152.931C2244.4 152.544 2243.04 151.963 2241.88 151.188C2240.72 150.414 2239.75 149.253 2238.98 148.091C2238.2 146.93 2238.01 145.381 2238.01 143.639C2238.01 141.897 2238.4 140.348 2238.98 139.186C2239.56 137.831 2240.52 136.863 2241.88 136.089C2243.04 135.315 2244.59 134.734 2246.14 134.347C2247.69 133.572 2249.43 133.379 2251.56 133.379ZM2251.56 138.412C2250.2 138.412 2249.04 138.412 2247.88 138.606C2246.72 138.799 2245.75 138.993 2244.78 139.38C2243.82 139.767 2243.24 140.348 2242.65 140.929C2242.07 141.509 2241.88 142.477 2241.88 143.445C2241.88 144.413 2242.07 145.381 2242.65 145.962C2243.24 146.543 2243.82 147.123 2244.78 147.51C2245.75 147.898 2246.72 148.091 2247.88 148.285C2249.04 148.478 2250.2 148.478 2251.56 148.478C2252.91 148.478 2254.27 148.478 2255.43 148.285C2256.59 148.091 2257.56 147.898 2258.53 147.51C2259.3 147.123 2260.08 146.543 2260.46 145.962C2261.04 145.381 2261.24 144.413 2261.24 143.445C2261.24 142.477 2261.04 141.509 2260.46 140.929C2259.88 140.348 2259.3 139.767 2258.53 139.38C2257.75 138.993 2256.59 138.799 2255.43 138.606C2254.27 138.412 2253.11 138.412 2251.56 138.412Z" fill="black"/>
<path d="M2275.56 29.8125V296.376" stroke="black" stroke-width="0.577263" stroke-miterlimit="10"/>
<path d="M936.552 463.047H118.279" stroke="black" stroke-width="1.92421" stroke-miterlimit="10"/>
<path d="M150.801 462.854V1.35352" stroke="#9D9D9C" stroke-width="1.09084" stroke-miterlimit="10"/>
<path d="M176.934 462.854V1.35352" stroke="#9D9D9C" stroke-width="1.09084" stroke-miterlimit="10"/>
<path d="M202.874 462.854V1.35352" stroke="#9D9D9C" stroke-width="1.09084" stroke-miterlimit="10"/>
<path d="M228.814 462.854V1.35352" stroke="#9D9D9C" stroke-width="1.09084" stroke-miterlimit="10"/>
<path d="M254.948 462.854V1.35352" stroke="#9D9D9C" stroke-width="1.09084" stroke-miterlimit="10"/>
<path d="M280.888 462.854V1.35352" stroke="#9D9D9C" stroke-width="1.09084" stroke-miterlimit="10"/>
<path d="M307.021 462.854V1.35352" stroke="#9D9D9C" stroke-width="1.09084" stroke-miterlimit="10"/>
<path d="M332.962 462.854V1.35352" stroke="#9D9D9C" stroke-width="1.09084" stroke-miterlimit="10"/>
<path d="M358.902 462.854V1.35352" stroke="#9D9D9C" stroke-width="1.09084" stroke-miterlimit="10"/>
<path d="M385.035 462.854V1.35352" stroke="#9D9D9C" stroke-width="1.09084" stroke-miterlimit="10"/>
<path d="M410.975 462.854V1.35352" stroke="#9D9D9C" stroke-width="1.09084" stroke-miterlimit="10"/>
<path d="M437.109 462.854V1.35352" stroke="#9D9D9C" stroke-width="1.09084" stroke-miterlimit="10"/>
<path d="M463.049 462.854V1.35352" stroke="#9D9D9C" stroke-width="1.09084" stroke-miterlimit="10"/>
<path d="M488.989 462.854V1.35352" stroke="#9D9D9C" stroke-width="1.09084" stroke-miterlimit="10"/>
<path d="M515.123 462.854V1.35352" stroke="#9D9D9C" stroke-width="1.09084" stroke-miterlimit="10"/>
<path d="M541.063 462.854V1.35352" stroke="#9D9D9C" stroke-width="1.09084" stroke-miterlimit="10"/>
<path d="M567.003 462.854V1.35352" stroke="#9D9D9C" stroke-width="1.09084" stroke-miterlimit="10"/>
<path d="M593.137 462.854V1.35352" stroke="#9D9D9C" stroke-width="1.09084" stroke-miterlimit="10"/>
<path d="M619.076 462.854V1.35352" stroke="#9D9D9C" stroke-width="1.09084" stroke-miterlimit="10"/>
<path d="M645.21 462.854V1.35352" stroke="#9D9D9C" stroke-width="1.09084" stroke-miterlimit="10"/>
<path d="M671.15 462.854V1.35352" stroke="#9D9D9C" stroke-width="1.09084" stroke-miterlimit="10"/>
<path d="M697.09 462.854V1.35352" stroke="#9D9D9C" stroke-width="1.09084" stroke-miterlimit="10"/>
<path d="M723.224 462.854V1.35352" stroke="#9D9D9C" stroke-width="1.09084" stroke-miterlimit="10"/>
<path d="M749.164 462.854V1.35352" stroke="#9D9D9C" stroke-width="1.09084" stroke-miterlimit="10"/>
<path d="M775.298 462.854V1.35352" stroke="#9D9D9C" stroke-width="1.09084" stroke-miterlimit="10"/>
<path d="M801.238 462.854V1.35352" stroke="#9D9D9C" stroke-width="1.09084" stroke-miterlimit="10"/>
<path d="M827.178 462.854V1.35352" stroke="#9D9D9C" stroke-width="1.09084" stroke-miterlimit="10"/>
<path d="M853.311 462.854V1.35352" stroke="#9D9D9C" stroke-width="1.09084" stroke-miterlimit="10"/>
<path d="M879.252 462.854V1.35352" stroke="#9D9D9C" stroke-width="1.09084" stroke-miterlimit="10"/>
<path d="M905.385 462.854V1.35352" stroke="#9D9D9C" stroke-width="1.09084" stroke-miterlimit="10"/>
<path d="M931.325 462.854V1.35352" stroke="#9D9D9C" stroke-width="1.09084" stroke-miterlimit="10"/>
<path d="M301.408 529.836C302.569 529.062 303.15 528.675 303.924 528.288C303.924 528.094 303.924 527.901 304.118 527.513C301.989 526.933 300.053 526.352 297.923 525.965C297.536 525.965 296.568 527.126 296.568 527.707C296.762 528.675 297.343 529.643 298.117 530.998C297.149 531.579 295.988 532.74 294.632 532.74C290.954 532.934 287.083 532.934 283.405 532.74C279.92 532.353 279.339 531.385 279.146 527.901C278.759 518.996 281.082 510.478 282.824 501.767C283.211 499.638 282.824 497.315 282.824 495.185C282.63 491.701 281.662 488.603 283.405 484.925C284.373 482.796 283.405 479.505 283.017 476.795C281.275 464.793 279.727 452.791 279.727 440.788C279.727 435.755 280.307 430.529 281.275 425.495C282.63 419.301 284.76 413.3 286.502 407.299C286.889 406.137 286.502 404.782 286.502 403.621C286.502 402.459 289.019 401.491 287.083 400.33C286.115 399.749 284.76 399.942 283.405 399.749C281.662 399.555 280.114 399.168 278.372 399.168C275.855 398.975 275.081 397.813 275.468 395.49C276.049 389.489 276.823 383.294 277.21 377.293C278.565 362.581 279.92 347.869 281.082 333.157C282.05 320.961 282.437 308.765 284.179 296.763C285.534 288.052 288.438 279.534 290.954 270.823C291.729 267.726 293.665 265.015 294.439 261.918C295.02 259.595 294.052 257.079 294.052 254.562C294.052 252.626 294.439 250.69 294.632 248.755C294.632 247.98 294.826 247.012 294.826 246.238C294.632 235.978 294.632 225.718 293.858 215.458C293.471 210.812 291.922 206.36 290.567 201.908C289.599 199.004 288.825 196.1 289.019 193.003C289.406 185.84 290.954 179.065 294.632 172.677C295.6 171.128 295.6 170.16 293.858 168.611C292.697 167.45 292.116 165.32 292.116 163.578C292.116 160.094 292.697 156.803 292.89 153.318C292.89 151.963 292.89 150.415 292.309 149.447C289.212 144.414 289.019 139.187 289.793 133.767C290.567 129.314 291.535 124.862 292.89 120.603C294.439 115.763 297.149 112.279 301.989 109.956C304.699 108.601 307.602 106.471 308.958 103.181C314.765 90.0169 324.251 85.3709 338.382 86.726C342.06 87.1132 345.738 88.2746 349.416 89.2426C352.514 90.0169 354.643 92.1463 356.192 95.05C357.353 97.373 359.095 99.5024 360.257 101.825C361.031 103.568 361.999 105.503 361.806 107.246C361.225 111.698 363.548 114.795 365.871 117.699C368.581 121.184 368.581 121.184 365.484 124.281C365.096 124.668 364.903 125.055 364.903 125.636C364.903 128.54 365.29 131.444 363.935 134.347C363.548 134.928 364.129 136.09 364.322 137.057C364.903 139.768 363.741 141.316 361.031 141.703C359.095 142.091 357.16 142.284 355.224 142.478C353.094 142.671 351.546 143.639 350.578 145.769C349.61 147.898 348.642 150.027 347.674 152.157C346.706 154.093 347.287 155.254 349.029 156.416C352.514 158.739 355.805 161.062 359.095 163.385C360.838 164.546 361.031 166.288 360.451 168.224C359.87 170.16 358.902 170.547 357.16 169.579C356.192 168.999 354.837 168.805 353.869 168.611C354.256 169.773 354.449 170.934 354.837 171.902C358.128 179.065 361.418 186.034 364.516 193.196C366.064 196.874 367.419 200.553 369.162 204.231C369.549 205.005 370.904 205.392 371.872 205.973C372.065 205.779 372.259 205.586 372.646 205.392C372.646 206.36 372.84 207.328 372.84 208.296C372.84 213.135 372.646 217.781 372.453 222.621C372.453 223.395 372.453 224.363 371.872 224.944C369.742 227.654 369.936 230.751 369.936 233.849C368.968 253.788 372.646 273.146 374.582 292.891C375.744 303.732 375.163 314.96 375.356 325.8C375.55 332.963 375.744 340.319 375.55 347.482C375.356 359.484 374.776 371.292 374.195 383.294C374.001 386.198 373.808 388.908 373.614 391.812C373.421 393.554 372.646 394.329 370.904 394.329C369.162 394.329 367.613 394.329 365.871 394.522C363.741 394.522 361.999 395.103 360.257 396.652C358.708 398.007 356.192 398.394 354.062 398.587C349.61 398.975 345.157 399.168 340.511 399.362C338.382 399.362 337.414 400.33 337.027 402.459C336.059 407.105 335.478 411.751 332.575 415.816C331.994 416.591 331.994 417.946 331.607 419.107C330.832 422.204 329.477 425.302 329.284 428.399C329.09 435.562 329.477 442.918 329.477 450.274C329.671 458.598 329.864 466.728 330.252 475.052C330.252 476.988 330.639 479.118 330.832 481.054C330.832 481.441 330.832 482.021 331.026 482.215C332.962 484.344 334.898 486.28 336.833 488.41C337.414 488.99 338.189 489.958 338.189 490.539C337.995 495.766 339.35 500.412 341.867 504.864C343.802 508.155 346.706 511.059 349.416 513.963C351.546 516.286 354.062 518.415 356.385 520.544C356.579 520.738 356.966 521.319 356.966 521.706C356.966 526.352 360.644 526.933 363.741 528.288C365.29 529.062 367.226 529.449 368.968 529.836C371.678 530.611 373.227 532.159 373.808 535.063C375.356 542.419 374.195 544.355 366.645 544.742C358.128 545.129 349.61 545.323 341.286 543.387C339.156 542.806 337.027 541.838 335.091 541.064C331.607 539.515 327.929 538.935 323.863 539.128C320.185 539.322 316.314 538.548 312.636 537.773C311.861 537.58 310.7 536.418 310.7 535.45C310.7 531.385 307.602 530.804 304.699 530.03C303.15 530.03 302.569 530.03 301.408 529.836ZM311.281 153.125C311.668 153.318 311.861 153.318 312.248 153.512C312.829 152.738 313.991 151.77 313.991 151.189C313.604 147.704 315.152 145.769 318.25 144.607C319.217 144.22 320.379 143.446 321.347 142.865C321.734 142.671 322.315 142.284 322.508 141.703C323.089 139.768 321.734 137.445 319.992 136.67C316.507 135.315 313.41 133.186 312.055 129.508C310.893 126.217 310.119 122.926 309.345 119.441C308.958 118.086 309.151 116.731 307.215 116.538C305.279 116.344 304.892 117.893 304.892 119.441C304.699 121.764 304.699 123.894 304.892 126.217C305.279 130.476 305.86 134.541 306.441 138.8C306.635 140.155 306.635 141.703 307.215 142.671C309.538 145.769 311.087 149.06 311.281 153.125Z" fill="black"/>
</g>
<defs>
<clipPath id="clip0">
<rect width="2291.44" height="549" fill="white"/>
</clipPath>
</defs>
</svg>
