<svg width="168" height="73" viewBox="0 0 168 73" fill="none" xmlns="http://www.w3.org/2000/svg">
<g filter="url(#filter0_d)">
<rect x="5.57617" y="3" width="30.5345" height="62.7721" rx="4.43419" fill="black"/>
</g>
<path fill-rule="evenodd" clip-rule="evenodd" d="M13.3621 4.33838H9.87068C8.23805 4.33838 6.91455 5.66188 6.91455 7.2945V61.3951C6.91455 63.0278 8.23806 64.3513 9.87068 64.3513H31.7283C33.3609 64.3513 34.6844 63.0278 34.6844 61.3951V7.29451C34.6844 5.66188 33.3609 4.33838 31.7283 4.33838H28.3208V4.83107C28.3208 5.75622 27.5708 6.50621 26.6457 6.50621H15.0373C14.1121 6.50621 13.3621 5.75622 13.3621 4.83107V4.33838Z" fill="#68C4D9"/>
<rect x="10.1848" y="11.4824" width="21.3165" height="10.9463" fill="#9EEDFF"/>
<rect x="10.1848" y="24.7334" width="21.3165" height="10.9463" fill="white"/>
<path d="M18.8528 32.3164C18.8003 32.214 18.7622 32.0867 18.7386 31.9344C18.4629 32.2416 18.1045 32.3952 17.6634 32.3952C17.2459 32.3952 16.8994 32.2744 16.6237 32.0328C16.3506 31.7913 16.2141 31.4867 16.2141 31.1192C16.2141 30.6676 16.3808 30.321 16.7143 30.0794C17.0503 29.8379 17.5348 29.7158 18.1675 29.7132H18.6913V29.469C18.6913 29.2721 18.6401 29.1145 18.5377 28.9964C18.4379 28.8782 18.2791 28.8192 18.0612 28.8192C17.8695 28.8192 17.7185 28.8651 17.6083 28.957C17.5006 29.0489 17.4468 29.1749 17.4468 29.3351H16.3086C16.3086 29.0883 16.3848 28.8599 16.537 28.6498C16.6893 28.4398 16.9046 28.2757 17.1829 28.1575C17.4612 28.0367 17.7737 27.9764 18.1203 27.9764C18.6454 27.9764 19.0615 28.1089 19.3687 28.3741C19.6785 28.6367 19.8334 29.0069 19.8334 29.4847V31.3318C19.8361 31.7362 19.8925 32.042 20.0028 32.2495V32.3164H18.8528ZM17.9115 31.5248C18.0796 31.5248 18.2345 31.488 18.3762 31.4145C18.518 31.3384 18.623 31.2373 18.6913 31.1113V30.3787H18.266C17.6962 30.3787 17.393 30.5757 17.3562 30.9695L17.3523 31.0364C17.3523 31.1782 17.4022 31.2951 17.5019 31.387C17.6017 31.4789 17.7382 31.5248 17.9115 31.5248ZM24.0199 31.1349H21.9483L21.5545 32.3164H20.2982L22.4327 26.5822H23.5276L25.674 32.3164H24.4177L24.0199 31.1349ZM22.2673 30.1779H23.7009L22.9802 28.0315L22.2673 30.1779Z" fill="black"/>
<rect x="10.1848" y="37.9844" width="21.3165" height="10.9463" fill="white"/>
<rect x="10.1848" y="51.2354" width="21.3165" height="10.9463" fill="white"/>
<g filter="url(#filter1_d)">
<rect x="70" y="2" width="30.5345" height="62.7721" rx="4.43419" fill="black"/>
</g>
<path fill-rule="evenodd" clip-rule="evenodd" d="M77.7863 3.33838H74.2945C72.6619 3.33838 71.3384 4.66188 71.3384 6.2945V60.3951C71.3384 62.0278 72.6619 63.3513 74.2945 63.3513H96.1521C97.7847 63.3513 99.1082 62.0278 99.1082 60.3951V6.29451C99.1082 4.66188 97.7847 3.33838 96.1521 3.33838H92.7449V3.83106C92.7449 4.75621 91.995 5.5062 91.0698 5.5062H79.4614C78.5362 5.5062 77.7863 4.75621 77.7863 3.83106V3.33838Z" fill="#68C4D9"/>
<rect x="74.6091" y="25.6211" width="21.3165" height="16.7076" fill="white"/>
<path d="M85.9853 35.4836H84.365L84.1354 28.6714H86.2149L85.9853 35.4836ZM85.1751 36.5503C85.5037 36.5503 85.767 36.6471 85.9651 36.8406C86.1676 37.0342 86.2689 37.2817 86.2689 37.5833C86.2689 37.8803 86.1676 38.1256 85.9651 38.3192C85.767 38.5127 85.5037 38.6095 85.1751 38.6095C84.8511 38.6095 84.5878 38.5127 84.3852 38.3192C84.1872 38.1256 84.0882 37.8803 84.0882 37.5833C84.0882 37.2862 84.1872 37.0409 84.3852 36.8474C84.5878 36.6493 84.8511 36.5503 85.1751 36.5503Z" fill="black"/>
<g filter="url(#filter2_d)">
<rect x="134" y="2" width="30.5345" height="62.7721" rx="4.43419" fill="black"/>
</g>
<path fill-rule="evenodd" clip-rule="evenodd" d="M138.295 3.33789C136.662 3.33789 135.338 4.66139 135.338 6.29402V60.3947C135.338 62.0273 136.662 63.3508 138.295 63.3508H160.152C161.785 63.3508 163.108 62.0273 163.108 60.3947V6.29402C163.108 4.66139 161.785 3.33789 160.152 3.33789H138.295ZM156.745 3.33812H141.786V3.83093C141.786 4.75609 142.536 5.50607 143.461 5.50607H155.07C155.995 5.50607 156.745 4.75609 156.745 3.83093V3.33812Z" fill="#68C4D9"/>
<rect x="138.609" y="23.3164" width="21.3165" height="22.4688" fill="white"/>
<path d="M151.394 27.5394C151.331 27.476 151.257 27.4264 151.175 27.3937C151.094 27.3609 151.006 27.3458 150.919 27.3491C150.832 27.3466 150.747 27.3621 150.666 27.3949C150.586 27.4276 150.513 27.4768 150.452 27.5394C150.39 27.6015 150.34 27.6759 150.307 27.7581C150.273 27.8404 150.256 27.9288 150.257 28.018V32.1095H140.913V37.5567H150.257V41.6483C150.258 41.8279 150.329 41.9997 150.452 42.1267C150.575 42.2538 150.742 42.326 150.917 42.3278C151.102 42.3207 151.279 42.2456 151.415 42.1161L158.01 35.301C158.071 35.2404 158.119 35.1676 158.151 35.0871C158.183 35.0066 158.198 34.9201 158.197 34.8331C158.2 34.7428 158.185 34.6527 158.153 34.5686C158.121 34.4844 158.072 34.4079 158.01 34.3439L151.394 27.5394Z" fill="black"/>
<defs>
<filter id="filter0_d" x="0.223512" y="1.54018" width="38.8068" height="71.0444" filterUnits="userSpaceOnUse" color-interpolation-filters="sRGB">
<feFlood flood-opacity="0" result="BackgroundImageFix"/>
<feColorMatrix in="SourceAlpha" type="matrix" values="0 0 0 0 0 0 0 0 0 0 0 0 0 0 0 0 0 0 127 0"/>
<feOffset dx="-1.21651" dy="2.67633"/>
<feGaussianBlur stdDeviation="2.06807"/>
<feColorMatrix type="matrix" values="0 0 0 0 0 0 0 0 0 0 0 0 0 0 0 0 0 0 0.1 0"/>
<feBlend mode="normal" in2="BackgroundImageFix" result="effect1_dropShadow"/>
<feBlend mode="normal" in="SourceGraphic" in2="effect1_dropShadow" result="shape"/>
</filter>
<filter id="filter1_d" x="64.6473" y="0.540184" width="38.8068" height="71.0444" filterUnits="userSpaceOnUse" color-interpolation-filters="sRGB">
<feFlood flood-opacity="0" result="BackgroundImageFix"/>
<feColorMatrix in="SourceAlpha" type="matrix" values="0 0 0 0 0 0 0 0 0 0 0 0 0 0 0 0 0 0 127 0"/>
<feOffset dx="-1.21651" dy="2.67633"/>
<feGaussianBlur stdDeviation="2.06807"/>
<feColorMatrix type="matrix" values="0 0 0 0 0 0 0 0 0 0 0 0 0 0 0 0 0 0 0.1 0"/>
<feBlend mode="normal" in2="BackgroundImageFix" result="effect1_dropShadow"/>
<feBlend mode="normal" in="SourceGraphic" in2="effect1_dropShadow" result="shape"/>
</filter>
<filter id="filter2_d" x="128.647" y="0.540184" width="38.8068" height="71.0444" filterUnits="userSpaceOnUse" color-interpolation-filters="sRGB">
<feFlood flood-opacity="0" result="BackgroundImageFix"/>
<feColorMatrix in="SourceAlpha" type="matrix" values="0 0 0 0 0 0 0 0 0 0 0 0 0 0 0 0 0 0 127 0"/>
<feOffset dx="-1.21651" dy="2.67633"/>
<feGaussianBlur stdDeviation="2.06807"/>
<feColorMatrix type="matrix" values="0 0 0 0 0 0 0 0 0 0 0 0 0 0 0 0 0 0 0.1 0"/>
<feBlend mode="normal" in2="BackgroundImageFix" result="effect1_dropShadow"/>
<feBlend mode="normal" in="SourceGraphic" in2="effect1_dropShadow" result="shape"/>
</filter>
</defs>
</svg>
