<svg width="686" height="322" viewBox="0 0 686 322" fill="none" xmlns="http://www.w3.org/2000/svg">
<circle cx="490" cy="147" r="147" fill="#68C4D9" fill-opacity="0.33"/>
<circle cx="489.5" cy="143.5" r="95.5" fill="#68C4D9" fill-opacity="0.42"/>
<g filter="url(#filter0_d)">
<path d="M511.78 184H468.44C456.12 184 446 173.88 446 161.56V118.44C446 106.12 456.12 96 468.44 96H511.78C524.1 96 534.22 106.12 534.22 118.44V161.78C534 174.1 524.1 184 511.78 184Z" fill="white" stroke="#68C4D9" stroke-width="3.89247" stroke-miterlimit="10"/>
<path d="M518.853 160.9C518.853 161.162 518.641 161.374 518.379 161.374C518.118 161.374 517.906 161.162 517.906 160.9C517.906 160.638 518.118 160.426 518.379 160.426C518.641 160.426 518.853 160.638 518.853 160.9Z" fill="black" stroke="black" stroke-width="3.89247"/>
<path d="M513.794 166.18C513.794 166.442 513.581 166.654 513.32 166.654C513.058 166.654 512.846 166.442 512.846 166.18C512.846 165.919 513.058 165.706 513.32 165.706C513.581 165.706 513.794 165.919 513.794 166.18Z" fill="black" stroke="black" stroke-width="3.89247"/>
<path d="M518.414 170.8C518.414 171.062 518.202 171.274 517.94 171.274C517.678 171.274 517.466 171.062 517.466 170.8C517.466 170.539 517.678 170.327 517.94 170.327C518.202 170.327 518.414 170.539 518.414 170.8Z" fill="black" stroke="black" stroke-width="3.89247"/>
<path d="M508.514 171.46C508.514 171.721 508.302 171.933 508.041 171.933C507.779 171.933 507.567 171.721 507.567 171.46C507.567 171.198 507.779 170.986 508.041 170.986C508.302 170.986 508.514 171.198 508.514 171.46Z" fill="black" stroke="black" stroke-width="3.89247"/>
</g>
<g filter="url(#filter1_d)">
<rect x="655" y="111" width="27.9743" height="57.509" rx="4.06241" fill="black"/>
</g>
<path fill-rule="evenodd" clip-rule="evenodd" d="M658.934 112.226C657.439 112.226 656.226 113.439 656.226 114.934V164.499C656.226 165.995 657.439 167.207 658.934 167.207H678.959C680.455 167.207 681.668 165.995 681.668 164.499V114.934C681.668 113.439 680.455 112.226 678.959 112.226H658.934ZM675.837 112.226H662.133V112.678C662.133 113.525 662.82 114.212 663.668 114.212H674.303C675.15 114.212 675.837 113.525 675.837 112.678V112.226Z" fill="#F56A65"/>
<path d="M663.95 142.533C663.904 142.442 663.863 142.295 663.828 142.091C663.49 142.444 663.076 142.62 662.587 142.62C662.112 142.62 661.725 142.485 661.425 142.214C661.125 141.943 660.975 141.608 660.975 141.209C660.975 140.705 661.161 140.319 661.534 140.051C661.91 139.78 662.446 139.645 663.142 139.645H663.793V139.334C663.793 139.09 663.724 138.895 663.588 138.749C663.451 138.6 663.242 138.526 662.963 138.526C662.721 138.526 662.523 138.587 662.369 138.71C662.214 138.829 662.137 138.982 662.137 139.168H661.075C661.075 138.909 661.161 138.667 661.333 138.443C661.505 138.216 661.738 138.038 662.032 137.91C662.329 137.782 662.66 137.718 663.024 137.718C663.577 137.718 664.019 137.858 664.348 138.137C664.677 138.414 664.846 138.804 664.855 139.308V141.44C664.855 141.866 664.914 142.205 665.034 142.458V142.533H663.95ZM662.784 141.768C662.993 141.768 663.19 141.717 663.373 141.615C663.56 141.513 663.7 141.376 663.793 141.204V140.313H663.221C662.827 140.313 662.532 140.382 662.334 140.519C662.136 140.655 662.036 140.849 662.036 141.1C662.036 141.304 662.103 141.467 662.237 141.589C662.374 141.708 662.556 141.768 662.784 141.768ZM670.106 140.217C670.106 140.948 669.94 141.532 669.608 141.969C669.276 142.403 668.831 142.62 668.271 142.62C667.753 142.62 667.338 142.45 667.026 142.109V144.35H665.964V137.805H666.943L666.987 138.286C667.298 137.907 667.722 137.718 668.258 137.718C668.835 137.718 669.286 137.933 669.613 138.365C669.942 138.793 670.106 139.388 670.106 140.152V140.217ZM669.049 140.125C669.049 139.653 668.954 139.279 668.765 139.002C668.579 138.726 668.311 138.587 667.961 138.587C667.527 138.587 667.215 138.766 667.026 139.125V141.222C667.218 141.589 667.533 141.772 667.97 141.772C668.308 141.772 668.571 141.637 668.761 141.366C668.953 141.092 669.049 140.679 669.049 140.125ZM675.148 140.217C675.148 140.948 674.982 141.532 674.65 141.969C674.318 142.403 673.873 142.62 673.313 142.62C672.795 142.62 672.38 142.45 672.068 142.109V144.35H671.006V137.805H671.985L672.029 138.286C672.34 137.907 672.764 137.718 673.3 137.718C673.877 137.718 674.328 137.933 674.655 138.365C674.984 138.793 675.148 139.388 675.148 140.152V140.217ZM674.091 140.125C674.091 139.653 673.996 139.279 673.807 139.002C673.621 138.726 673.353 138.587 673.003 138.587C672.569 138.587 672.257 138.766 672.068 139.125V141.222C672.26 141.589 672.575 141.772 673.012 141.772C673.35 141.772 673.613 141.637 673.803 141.366C673.995 141.092 674.091 140.679 674.091 140.125Z" fill="white"/>
<g filter="url(#filter2_d)">
<rect x="404" y="114" width="27.9743" height="57.509" rx="4.06241" fill="black"/>
</g>
<path fill-rule="evenodd" clip-rule="evenodd" d="M407.934 115.226C406.439 115.226 405.226 116.439 405.226 117.934V167.499C405.226 168.995 406.439 170.207 407.934 170.207H427.959C429.455 170.207 430.668 168.995 430.668 167.499V117.934C430.668 116.439 429.455 115.226 427.959 115.226H407.934ZM424.837 115.226H411.133V115.678C411.133 116.525 411.82 117.212 412.668 117.212H423.303C424.15 117.212 424.837 116.525 424.837 115.678V115.226Z" fill="#F56A65"/>
<path d="M412.95 145.533C412.904 145.442 412.863 145.295 412.828 145.091C412.49 145.444 412.076 145.62 411.587 145.62C411.112 145.62 410.725 145.485 410.425 145.214C410.125 144.943 409.975 144.608 409.975 144.209C409.975 143.705 410.161 143.319 410.534 143.051C410.91 142.78 411.446 142.645 412.142 142.645H412.793V142.334C412.793 142.09 412.724 141.895 412.588 141.749C412.451 141.6 412.242 141.526 411.963 141.526C411.721 141.526 411.523 141.587 411.369 141.71C411.214 141.829 411.137 141.982 411.137 142.168H410.075C410.075 141.909 410.161 141.667 410.333 141.443C410.505 141.216 410.738 141.038 411.032 140.91C411.329 140.782 411.66 140.718 412.024 140.718C412.577 140.718 413.019 140.858 413.348 141.137C413.677 141.414 413.846 141.804 413.855 142.308V144.44C413.855 144.866 413.914 145.205 414.034 145.458V145.533H412.95ZM411.784 144.768C411.993 144.768 412.19 144.717 412.373 144.615C412.56 144.513 412.7 144.376 412.793 144.204V143.313H412.221C411.827 143.313 411.532 143.382 411.334 143.519C411.136 143.655 411.036 143.849 411.036 144.1C411.036 144.304 411.103 144.467 411.237 144.589C411.374 144.708 411.556 144.768 411.784 144.768ZM419.106 143.217C419.106 143.948 418.94 144.532 418.608 144.969C418.276 145.403 417.831 145.62 417.271 145.62C416.753 145.62 416.338 145.45 416.026 145.109V147.35H414.964V140.805H415.943L415.987 141.286C416.298 140.907 416.722 140.718 417.258 140.718C417.835 140.718 418.286 140.933 418.613 141.365C418.942 141.793 419.106 142.388 419.106 143.152V143.217ZM418.049 143.125C418.049 142.653 417.954 142.279 417.765 142.002C417.579 141.726 417.311 141.587 416.961 141.587C416.527 141.587 416.215 141.766 416.026 142.125V144.222C416.218 144.589 416.533 144.772 416.97 144.772C417.308 144.772 417.571 144.637 417.761 144.366C417.953 144.092 418.049 143.679 418.049 143.125ZM424.148 143.217C424.148 143.948 423.982 144.532 423.65 144.969C423.318 145.403 422.873 145.62 422.313 145.62C421.795 145.62 421.38 145.45 421.068 145.109V147.35H420.006V140.805H420.985L421.029 141.286C421.34 140.907 421.764 140.718 422.3 140.718C422.877 140.718 423.328 140.933 423.655 141.365C423.984 141.793 424.148 142.388 424.148 143.152V143.217ZM423.091 143.125C423.091 142.653 422.996 142.279 422.807 142.002C422.621 141.726 422.353 141.587 422.003 141.587C421.569 141.587 421.257 141.766 421.068 142.125V144.222C421.26 144.589 421.575 144.772 422.012 144.772C422.35 144.772 422.613 144.637 422.803 144.366C422.995 144.092 423.091 143.679 423.091 143.125Z" fill="white"/>
<path d="M436.746 315.525L436.143 319H435.428L436.91 310.469L439.688 310.475C440.484 310.498 441.1 310.734 441.533 311.184C441.967 311.629 442.15 312.227 442.084 312.977C442.006 313.773 441.684 314.398 441.117 314.852C440.551 315.305 439.812 315.531 438.902 315.531L436.746 315.525ZM436.852 314.916L438.932 314.922C439.607 314.922 440.164 314.75 440.602 314.406C441.039 314.062 441.295 313.588 441.369 312.982C441.432 312.404 441.307 311.949 440.994 311.617C440.686 311.281 440.244 311.105 439.67 311.09L437.52 311.084L436.852 314.916ZM446.373 313.252C446.221 313.221 446.066 313.203 445.91 313.199C445.465 313.199 445.057 313.336 444.686 313.609C444.314 313.879 444.066 314.223 443.941 314.641L443.191 319H442.5L443.602 312.66H444.287L444.076 313.668C444.307 313.293 444.584 313.008 444.908 312.812C445.236 312.617 445.596 312.523 445.986 312.531C446.123 312.531 446.283 312.559 446.467 312.613L446.373 313.252ZM446.525 315.771C446.596 315.158 446.783 314.598 447.088 314.09C447.393 313.578 447.771 313.189 448.225 312.924C448.682 312.658 449.176 312.531 449.707 312.543C450.23 312.551 450.676 312.695 451.043 312.977C451.414 313.254 451.684 313.635 451.852 314.119C452.023 314.6 452.082 315.133 452.027 315.719L452.016 315.83C451.898 316.83 451.543 317.633 450.949 318.238C450.359 318.844 449.65 319.137 448.822 319.117C448.111 319.105 447.543 318.844 447.117 318.332C446.691 317.82 446.482 317.145 446.49 316.305L446.508 315.971L446.525 315.771ZM447.205 315.971C447.154 316.436 447.188 316.865 447.305 317.26C447.426 317.65 447.617 317.957 447.879 318.18C448.141 318.402 448.467 318.52 448.857 318.531C449.279 318.539 449.664 318.432 450.012 318.209C450.363 317.986 450.652 317.672 450.879 317.266C451.105 316.859 451.252 316.41 451.318 315.918L451.336 315.725C451.406 314.971 451.289 314.355 450.984 313.879C450.684 313.398 450.246 313.152 449.672 313.141C449.047 313.121 448.506 313.363 448.049 313.867C447.596 314.367 447.318 315.033 447.217 315.865L447.205 315.971ZM455.379 315.221L457.436 312.66H458.303L455.701 315.807L457.359 319H456.586L455.262 316.328L453.094 319H452.238L454.945 315.736L453.357 312.66H454.131L455.379 315.221ZM459.311 319H458.607L459.715 312.66H460.412L459.311 319ZM459.908 310.826C459.928 310.572 460.096 310.412 460.412 310.346C460.564 310.373 460.672 310.422 460.734 310.492C460.801 310.559 460.844 310.67 460.863 310.826C460.824 310.975 460.768 311.084 460.693 311.154C460.619 311.221 460.508 311.27 460.359 311.301C460.043 311.254 459.893 311.096 459.908 310.826ZM462.943 312.66L462.744 313.691C463.314 312.91 464.031 312.527 464.895 312.543C465.34 312.551 465.709 312.662 466.002 312.877C466.299 313.092 466.482 313.391 466.553 313.773C466.842 313.379 467.178 313.074 467.561 312.859C467.947 312.641 468.367 312.535 468.82 312.543C469.422 312.555 469.867 312.754 470.156 313.141C470.449 313.523 470.57 314.055 470.52 314.734L470.508 314.869L469.811 319H469.113L469.805 314.857C469.828 314.627 469.83 314.408 469.811 314.201C469.732 313.51 469.338 313.158 468.627 313.146C468.15 313.139 467.711 313.295 467.309 313.615C466.91 313.932 466.66 314.328 466.559 314.805L465.832 319H465.135L465.838 314.805C465.951 313.727 465.555 313.174 464.648 313.146C464.199 313.139 463.781 313.279 463.395 313.568C463.008 313.857 462.748 314.217 462.615 314.646L461.865 319H461.168L462.27 312.66H462.943ZM472.365 319H471.662L472.77 312.66H473.467L472.365 319ZM472.963 310.826C472.982 310.572 473.15 310.412 473.467 310.346C473.619 310.373 473.727 310.422 473.789 310.492C473.855 310.559 473.898 310.67 473.918 310.826C473.879 310.975 473.822 311.084 473.748 311.154C473.674 311.221 473.562 311.27 473.414 311.301C473.098 311.254 472.947 311.096 472.963 310.826ZM476.713 311.037L476.432 312.66H477.703L477.604 313.234H476.332L475.629 317.465L475.617 317.828C475.617 318.254 475.812 318.473 476.203 318.484C476.324 318.488 476.514 318.475 476.771 318.443L476.742 319.018C476.512 319.084 476.277 319.113 476.039 319.105C475.629 319.098 475.33 318.955 475.143 318.678C474.955 318.396 474.887 317.99 474.938 317.459L475.635 313.234H474.498L474.604 312.66H475.729L476.016 311.037H476.713ZM480.176 317.969L482.889 312.66H483.668L479.801 320.02C479.516 320.59 479.213 320.994 478.893 321.232C478.576 321.471 478.223 321.586 477.832 321.578C477.684 321.57 477.496 321.539 477.27 321.484L477.34 320.91L477.691 320.951C478.348 320.979 478.865 320.592 479.244 319.791L479.689 318.906L478.465 312.66H479.197L480.176 317.969ZM488.309 312.66L488.098 313.744C488.379 313.354 488.703 313.055 489.07 312.848C489.441 312.637 489.838 312.535 490.26 312.543C490.869 312.559 491.312 312.771 491.59 313.182C491.867 313.592 491.965 314.156 491.883 314.875L491.191 319H490.5L491.191 314.863C491.215 314.641 491.219 314.426 491.203 314.219C491.137 313.523 490.758 313.166 490.066 313.146C489.656 313.139 489.273 313.262 488.918 313.516C488.562 313.766 488.25 314.145 487.98 314.652L487.23 319H486.539L487.641 312.66H488.309ZM493.166 315.771C493.236 315.158 493.424 314.598 493.729 314.09C494.033 313.578 494.412 313.189 494.865 312.924C495.322 312.658 495.816 312.531 496.348 312.543C496.871 312.551 497.316 312.695 497.684 312.977C498.055 313.254 498.324 313.635 498.492 314.119C498.664 314.6 498.723 315.133 498.668 315.719L498.656 315.83C498.539 316.83 498.184 317.633 497.59 318.238C497 318.844 496.291 319.137 495.463 319.117C494.752 319.105 494.184 318.844 493.758 318.332C493.332 317.82 493.123 317.145 493.131 316.305L493.148 315.971L493.166 315.771ZM493.846 315.971C493.795 316.436 493.828 316.865 493.945 317.26C494.066 317.65 494.258 317.957 494.52 318.18C494.781 318.402 495.107 318.52 495.498 318.531C495.92 318.539 496.305 318.432 496.652 318.209C497.004 317.986 497.293 317.672 497.52 317.266C497.746 316.859 497.893 316.41 497.959 315.918L497.977 315.725C498.047 314.971 497.93 314.355 497.625 313.879C497.324 313.398 496.887 313.152 496.312 313.141C495.688 313.121 495.146 313.363 494.689 313.867C494.236 314.367 493.959 315.033 493.857 315.865L493.846 315.971ZM502.037 311.037L501.756 312.66H503.027L502.928 313.234H501.656L500.953 317.465L500.941 317.828C500.941 318.254 501.137 318.473 501.527 318.484C501.648 318.488 501.838 318.475 502.096 318.443L502.066 319.018C501.836 319.084 501.602 319.113 501.363 319.105C500.953 319.098 500.654 318.955 500.467 318.678C500.279 318.396 500.211 317.99 500.262 317.459L500.959 313.234H499.822L499.928 312.66H501.053L501.34 311.037H502.037ZM504.158 319H503.455L504.562 312.66H505.26L504.158 319ZM504.756 310.826C504.775 310.572 504.943 310.412 505.26 310.346C505.412 310.373 505.52 310.422 505.582 310.492C505.648 310.559 505.691 310.67 505.711 310.826C505.672 310.975 505.615 311.084 505.541 311.154C505.467 311.221 505.355 311.27 505.207 311.301C504.891 311.254 504.74 311.096 504.756 310.826ZM506.461 319L507.463 313.234H506.438L506.537 312.66H507.562L507.656 311.951C507.762 311.283 508.021 310.768 508.436 310.404C508.85 310.041 509.377 309.863 510.018 309.871C510.49 309.879 511.016 309.998 511.594 310.229L511.412 310.826C510.947 310.615 510.49 310.506 510.041 310.498C509.564 310.494 509.184 310.623 508.898 310.885C508.613 311.146 508.434 311.502 508.359 311.951L508.254 312.66H509.695L509.596 313.234H508.16L507.158 319H506.461ZM510.457 319H509.754L510.861 312.66H511.559L510.457 319ZM514.822 318.531C515.283 318.547 515.689 318.42 516.041 318.15C516.396 317.877 516.633 317.51 516.75 317.049H517.412C517.295 317.678 516.986 318.186 516.486 318.572C515.99 318.955 515.424 319.139 514.787 319.123C514.275 319.111 513.846 318.971 513.498 318.701C513.15 318.432 512.898 318.059 512.742 317.582C512.59 317.105 512.541 316.568 512.596 315.971L512.619 315.719C512.666 315.309 512.766 314.91 512.918 314.523C513.074 314.137 513.281 313.795 513.539 313.498C513.797 313.197 514.104 312.961 514.459 312.789C514.818 312.613 515.223 312.531 515.672 312.543C516.32 312.559 516.836 312.777 517.219 313.199C517.602 313.621 517.781 314.156 517.758 314.805L517.096 314.799C517.104 314.311 516.977 313.916 516.715 313.615C516.453 313.314 516.096 313.156 515.643 313.141C515.158 313.125 514.73 313.266 514.359 313.562C513.988 313.859 513.709 314.279 513.521 314.822C513.334 315.365 513.246 315.941 513.258 316.551C513.27 317.18 513.41 317.664 513.68 318.004C513.949 318.34 514.33 318.516 514.822 318.531ZM522.369 319C522.35 318.852 522.344 318.703 522.352 318.555L522.404 318.115C522.111 318.432 521.775 318.68 521.396 318.859C521.021 319.039 520.615 319.125 520.178 319.117C519.643 319.109 519.207 318.941 518.871 318.613C518.539 318.281 518.391 317.865 518.426 317.365C518.457 316.947 518.6 316.586 518.854 316.281C519.111 315.973 519.477 315.734 519.949 315.566C520.422 315.395 520.951 315.309 521.537 315.309L522.832 315.314L522.938 314.588C522.984 314.154 522.891 313.807 522.656 313.545C522.422 313.283 522.076 313.145 521.619 313.129C521.158 313.121 520.756 313.236 520.412 313.475C520.072 313.709 519.859 314.02 519.773 314.406H519.088C519.166 313.852 519.451 313.4 519.943 313.053C520.436 312.701 521.018 312.529 521.689 312.537C522.342 312.553 522.844 312.75 523.195 313.129C523.551 313.508 523.695 314 523.629 314.605L523.102 317.793L523.055 318.303C523.043 318.514 523.059 318.723 523.102 318.93L523.09 319H522.369ZM520.295 318.502C520.725 318.518 521.135 318.416 521.525 318.197C521.92 317.975 522.246 317.66 522.504 317.254L522.744 315.854L521.625 315.848C520.914 315.848 520.334 315.975 519.885 316.229C519.436 316.479 519.188 316.838 519.141 317.307C519.105 317.65 519.195 317.934 519.41 318.156C519.629 318.379 519.924 318.494 520.295 318.502ZM527.174 311.037L526.893 312.66H528.164L528.064 313.234H526.793L526.09 317.465L526.078 317.828C526.078 318.254 526.273 318.473 526.664 318.484C526.785 318.488 526.975 318.475 527.232 318.443L527.203 319.018C526.973 319.084 526.738 319.113 526.5 319.105C526.09 319.098 525.791 318.955 525.604 318.678C525.416 318.396 525.348 317.99 525.398 317.459L526.096 313.234H524.959L525.064 312.66H526.189L526.477 311.037H527.174ZM529.295 319H528.592L529.699 312.66H530.396L529.295 319ZM529.893 310.826C529.912 310.572 530.08 310.412 530.396 310.346C530.549 310.373 530.656 310.422 530.719 310.492C530.785 310.559 530.828 310.67 530.848 310.826C530.809 310.975 530.752 311.084 530.678 311.154C530.604 311.221 530.492 311.27 530.344 311.301C530.027 311.254 529.877 311.096 529.893 310.826ZM531.357 315.771C531.428 315.158 531.615 314.598 531.92 314.09C532.225 313.578 532.604 313.189 533.057 312.924C533.514 312.658 534.008 312.531 534.539 312.543C535.062 312.551 535.508 312.695 535.875 312.977C536.246 313.254 536.516 313.635 536.684 314.119C536.855 314.6 536.914 315.133 536.859 315.719L536.848 315.83C536.73 316.83 536.375 317.633 535.781 318.238C535.191 318.844 534.482 319.137 533.654 319.117C532.943 319.105 532.375 318.844 531.949 318.332C531.523 317.82 531.314 317.145 531.322 316.305L531.34 315.971L531.357 315.771ZM532.037 315.971C531.986 316.436 532.02 316.865 532.137 317.26C532.258 317.65 532.449 317.957 532.711 318.18C532.973 318.402 533.299 318.52 533.689 318.531C534.111 318.539 534.496 318.432 534.844 318.209C535.195 317.986 535.484 317.672 535.711 317.266C535.938 316.859 536.084 316.41 536.15 315.918L536.168 315.725C536.238 314.971 536.121 314.355 535.816 313.879C535.516 313.398 535.078 313.152 534.504 313.141C533.879 313.121 533.338 313.363 532.881 313.867C532.428 314.367 532.15 315.033 532.049 315.865L532.037 315.971ZM539.543 312.66L539.332 313.744C539.613 313.354 539.938 313.055 540.305 312.848C540.676 312.637 541.072 312.535 541.494 312.543C542.104 312.559 542.547 312.771 542.824 313.182C543.102 313.592 543.199 314.156 543.117 314.875L542.426 319H541.734L542.426 314.863C542.449 314.641 542.453 314.426 542.438 314.219C542.371 313.523 541.992 313.166 541.301 313.146C540.891 313.139 540.508 313.262 540.152 313.516C539.797 313.766 539.484 314.145 539.215 314.652L538.465 319H537.773L538.875 312.66H539.543ZM548.238 317.348C548.301 316.809 547.973 316.418 547.254 316.176L546.246 315.877C545.32 315.564 544.883 315.043 544.934 314.312C544.961 313.785 545.203 313.357 545.66 313.029C546.121 312.697 546.668 312.535 547.301 312.543C547.922 312.551 548.426 312.727 548.812 313.07C549.199 313.41 549.379 313.865 549.352 314.436H548.66C548.684 314.057 548.564 313.748 548.303 313.51C548.045 313.271 547.701 313.148 547.271 313.141C546.826 313.141 546.451 313.246 546.146 313.457C545.842 313.664 545.67 313.939 545.631 314.283C545.572 314.787 545.881 315.141 546.557 315.344L547.289 315.555L547.682 315.689C548.564 316.021 548.98 316.562 548.93 317.312C548.898 317.82 548.678 318.238 548.268 318.566C547.861 318.891 547.336 319.072 546.691 319.111L546.451 319.117C546.025 319.109 545.641 319.027 545.297 318.871C544.953 318.711 544.689 318.488 544.506 318.203C544.322 317.918 544.242 317.59 544.266 317.219L544.963 317.225C544.963 317.623 545.098 317.938 545.367 318.168C545.637 318.398 546.008 318.518 546.48 318.525C546.949 318.525 547.348 318.42 547.676 318.209C548.004 317.994 548.191 317.707 548.238 317.348Z" fill="#555555"/>
<g filter="url(#filter3_d)">
<path d="M123.791 151.88H100.209C93.5062 151.88 88 146.374 88 139.671V116.209C88 109.506 93.5062 104 100.209 104H123.791C130.494 104 136 109.506 136 116.209V139.791C135.88 146.494 130.494 151.88 123.791 151.88Z" fill="white" stroke="#68C4D9" stroke-width="2.11787" stroke-miterlimit="10"/>
<path d="M127.381 140.629C128.109 140.629 128.698 140.039 128.698 139.312C128.698 138.585 128.109 137.995 127.381 137.995C126.654 137.995 126.065 138.585 126.065 139.312C126.065 140.039 126.654 140.629 127.381 140.629Z" fill="black"/>
<path d="M124.628 143.502C125.355 143.502 125.945 142.912 125.945 142.185C125.945 141.458 125.355 140.868 124.628 140.868C123.901 140.868 123.312 141.458 123.312 142.185C123.312 142.912 123.901 143.502 124.628 143.502Z" fill="black"/>
<path d="M127.142 146.015C127.869 146.015 128.459 145.426 128.459 144.699C128.459 143.971 127.869 143.382 127.142 143.382C126.415 143.382 125.825 143.971 125.825 144.699C125.825 145.426 126.415 146.015 127.142 146.015Z" fill="black"/>
<path d="M121.756 146.374C122.483 146.374 123.072 145.784 123.072 145.057C123.072 144.33 122.483 143.74 121.756 143.74C121.028 143.74 120.439 144.33 120.439 145.057C120.439 145.784 121.028 146.374 121.756 146.374Z" fill="black"/>
</g>
<g filter="url(#filter4_d)">
<path d="M211.791 283.88H188.209C181.506 283.88 176 278.374 176 271.671V248.209C176 241.506 181.506 236 188.209 236H211.791C218.494 236 224 241.506 224 248.209V271.791C223.88 278.494 218.494 283.88 211.791 283.88Z" fill="white" stroke="#68C4D9" stroke-width="2.11787" stroke-miterlimit="10"/>
<path d="M215.381 272.629C216.109 272.629 216.698 272.039 216.698 271.312C216.698 270.585 216.109 269.995 215.381 269.995C214.654 269.995 214.065 270.585 214.065 271.312C214.065 272.039 214.654 272.629 215.381 272.629Z" fill="black"/>
<path d="M212.628 275.502C213.355 275.502 213.945 274.912 213.945 274.185C213.945 273.458 213.355 272.868 212.628 272.868C211.901 272.868 211.312 273.458 211.312 274.185C211.312 274.912 211.901 275.502 212.628 275.502Z" fill="black"/>
<path d="M215.142 278.015C215.869 278.015 216.459 277.426 216.459 276.699C216.459 275.971 215.869 275.382 215.142 275.382C214.415 275.382 213.825 275.971 213.825 276.699C213.825 277.426 214.415 278.015 215.142 278.015Z" fill="black"/>
<path d="M209.756 278.374C210.483 278.374 211.072 277.784 211.072 277.057C211.072 276.33 210.483 275.74 209.756 275.74C209.028 275.74 208.439 276.33 208.439 277.057C208.439 277.784 209.028 278.374 209.756 278.374Z" fill="black"/>
</g>
<g filter="url(#filter5_d)">
<path d="M40.7905 283.88H17.2095C10.5062 283.88 5 278.374 5 271.671V248.209C5 241.506 10.5062 236 17.2095 236H40.7905C47.4938 236 53 241.506 53 248.209V271.791C52.8803 278.494 47.4938 283.88 40.7905 283.88Z" fill="white" stroke="#68C4D9" stroke-width="2.11787" stroke-miterlimit="10"/>
<path d="M44.3814 272.629C45.1086 272.629 45.6981 272.039 45.6981 271.312C45.6981 270.585 45.1086 269.995 44.3814 269.995C43.6542 269.995 43.0647 270.585 43.0647 271.312C43.0647 272.039 43.6542 272.629 44.3814 272.629Z" fill="black"/>
<path d="M41.6282 275.502C42.3554 275.502 42.9449 274.912 42.9449 274.185C42.9449 273.458 42.3554 272.868 41.6282 272.868C40.901 272.868 40.3115 273.458 40.3115 274.185C40.3115 274.912 40.901 275.502 41.6282 275.502Z" fill="black"/>
<path d="M44.1421 278.015C44.8693 278.015 45.4589 277.426 45.4589 276.699C45.4589 275.971 44.8693 275.382 44.1421 275.382C43.4149 275.382 42.8254 275.971 42.8254 276.699C42.8254 277.426 43.4149 278.015 44.1421 278.015Z" fill="black"/>
<path d="M38.7557 278.374C39.4829 278.374 40.0724 277.784 40.0724 277.057C40.0724 276.33 39.4829 275.74 38.7557 275.74C38.0285 275.74 37.439 276.33 37.439 277.057C37.439 277.784 38.0285 278.374 38.7557 278.374Z" fill="black"/>
</g>
<g filter="url(#filter6_d)">
<rect x="99" y="178" width="27.9743" height="57.509" rx="4.06241" fill="black"/>
</g>
<path fill-rule="evenodd" clip-rule="evenodd" d="M102.934 179.226C101.439 179.226 100.226 180.439 100.226 181.934V231.499C100.226 232.995 101.439 234.207 102.934 234.207H122.959C124.455 234.207 125.668 232.995 125.668 231.499V181.934C125.668 180.439 124.455 179.226 122.959 179.226H102.934ZM119.837 179.226H106.133V179.678C106.133 180.525 106.82 181.212 107.668 181.212H118.303C119.15 181.212 119.837 180.525 119.837 179.678V179.226Z" fill="#F56A65"/>
<path d="M117.925 200.652C116.756 198.947 114.952 198 112.982 198C110.978 198 109.191 198.982 108.056 200.67C106.937 202.358 106.686 204.493 107.405 206.371C107.505 206.595 107.605 206.853 107.755 207.094L112.197 214.535C112.364 214.828 112.665 215 112.998 215C113.332 215 113.616 214.828 113.8 214.535L118.258 207.043C118.409 206.767 118.542 206.526 118.626 206.285C119.31 204.425 119.043 202.306 117.925 200.652ZM112.982 207.129C111.295 207.129 109.926 205.699 109.926 203.977C109.926 202.254 111.295 200.807 112.982 200.807C114.668 200.807 116.038 202.237 116.038 203.959C116.038 205.682 114.668 207.129 112.982 207.129Z" fill="white"/>
<line x1="84.8198" y1="154.573" x2="33.8198" y2="227.573" stroke="#68C4D9" stroke-width="2" stroke-dasharray="10 10"/>
<line x1="139.82" y1="150.428" x2="192.82" y2="226.428" stroke="#68C4D9" stroke-width="2" stroke-dasharray="10 10"/>
<line x1="70.9895" y1="260" x2="165.989" y2="259" stroke="#68C4D9" stroke-width="2" stroke-dasharray="10 10"/>
<path d="M60.4297 311.084H57.5996L56.2227 319H55.5078L56.8848 311.084H54.0488L54.1602 310.469H60.541L60.4297 311.084ZM63.7051 313.252C63.5527 313.221 63.3984 313.203 63.2422 313.199C62.7969 313.199 62.3887 313.336 62.0176 313.609C61.6465 313.879 61.3984 314.223 61.2734 314.641L60.5234 319H59.832L60.9336 312.66H61.6191L61.4082 313.668C61.6387 313.293 61.916 313.008 62.2402 312.812C62.5684 312.617 62.9277 312.523 63.3184 312.531C63.4551 312.531 63.6152 312.559 63.7988 312.613L63.7051 313.252ZM64.584 319H63.8809L64.9883 312.66H65.6855L64.584 319ZM65.1816 310.826C65.2012 310.572 65.3691 310.412 65.6855 310.346C65.8379 310.373 65.9453 310.422 66.0078 310.492C66.0742 310.559 66.1172 310.67 66.1367 310.826C66.0977 310.975 66.041 311.084 65.9668 311.154C65.8926 311.221 65.7812 311.27 65.6328 311.301C65.3164 311.254 65.166 311.096 65.1816 310.826ZM70.4199 319C70.4004 318.852 70.3945 318.703 70.4023 318.555L70.4551 318.115C70.1621 318.432 69.8262 318.68 69.4473 318.859C69.0723 319.039 68.666 319.125 68.2285 319.117C67.6934 319.109 67.2578 318.941 66.9219 318.613C66.5898 318.281 66.4414 317.865 66.4766 317.365C66.5078 316.947 66.6504 316.586 66.9043 316.281C67.1621 315.973 67.5273 315.734 68 315.566C68.4727 315.395 69.002 315.309 69.5879 315.309L70.8828 315.314L70.9883 314.588C71.0352 314.154 70.9414 313.807 70.707 313.545C70.4727 313.283 70.127 313.145 69.6699 313.129C69.209 313.121 68.8066 313.236 68.4629 313.475C68.123 313.709 67.9102 314.02 67.8242 314.406H67.1387C67.2168 313.852 67.502 313.4 67.9941 313.053C68.4863 312.701 69.0684 312.529 69.7402 312.537C70.3926 312.553 70.8945 312.75 71.2461 313.129C71.6016 313.508 71.7461 314 71.6797 314.605L71.1523 317.793L71.1055 318.303C71.0938 318.514 71.1094 318.723 71.1523 318.93L71.1406 319H70.4199ZM68.3457 318.502C68.7754 318.518 69.1855 318.416 69.5762 318.197C69.9707 317.975 70.2969 317.66 70.5547 317.254L70.7949 315.854L69.6758 315.848C68.9648 315.848 68.3848 315.975 67.9355 316.229C67.4863 316.479 67.2383 316.838 67.1914 317.307C67.1562 317.65 67.2461 317.934 67.4609 318.156C67.6797 318.379 67.9746 318.494 68.3457 318.502ZM74.5391 312.66L74.3281 313.744C74.6094 313.354 74.9336 313.055 75.3008 312.848C75.6719 312.637 76.0684 312.535 76.4902 312.543C77.0996 312.559 77.543 312.771 77.8203 313.182C78.0977 313.592 78.1953 314.156 78.1133 314.875L77.4219 319H76.7305L77.4219 314.863C77.4453 314.641 77.4492 314.426 77.4336 314.219C77.3672 313.523 76.9883 313.166 76.2969 313.146C75.8867 313.139 75.5039 313.262 75.1484 313.516C74.793 313.766 74.4805 314.145 74.2109 314.652L73.4609 319H72.7695L73.8711 312.66H74.5391ZM82.3848 312.537C82.7637 312.549 83.1094 312.639 83.4219 312.807C83.7344 312.975 83.9805 313.23 84.1602 313.574L84.377 312.66H85.0273L83.9609 318.889C83.8867 319.42 83.7188 319.889 83.457 320.295C83.1953 320.701 82.8594 321.012 82.4492 321.227C82.043 321.445 81.5898 321.547 81.0898 321.531C80.6914 321.523 80.3105 321.424 79.9473 321.232C79.5801 321.037 79.2852 320.766 79.0625 320.418L79.4961 320.008C79.8984 320.613 80.4238 320.924 81.0723 320.939C81.6504 320.955 82.1328 320.779 82.5195 320.412C82.9102 320.049 83.1562 319.553 83.2578 318.924L83.4102 318.186C82.8477 318.83 82.1699 319.141 81.377 319.117C80.7832 319.102 80.3203 318.875 79.9883 318.438C79.6602 317.996 79.4883 317.396 79.4727 316.639C79.4492 315.939 79.5664 315.248 79.8242 314.564C80.082 313.881 80.4316 313.369 80.873 313.029C81.3184 312.686 81.8223 312.521 82.3848 312.537ZM80.2051 315.936L80.1699 316.48C80.1582 317.121 80.2695 317.617 80.5039 317.969C80.7383 318.316 81.084 318.498 81.541 318.514C81.9316 318.529 82.2969 318.438 82.6367 318.238C82.9766 318.039 83.2695 317.744 83.5156 317.354L84.0137 314.395C83.9082 314.016 83.7246 313.717 83.4629 313.498C83.2051 313.275 82.873 313.158 82.4668 313.146C81.8691 313.127 81.373 313.357 80.9785 313.838C80.5879 314.318 80.3301 315.018 80.2051 315.936ZM89.9492 318.203C89.4453 318.836 88.75 319.141 87.8633 319.117C87.2656 319.105 86.8203 318.891 86.5273 318.473C86.2344 318.051 86.1289 317.467 86.2109 316.721L86.8906 312.66H87.582L86.9082 316.738C86.8848 316.949 86.8828 317.158 86.9023 317.365C86.9297 317.725 87.0371 318.002 87.2246 318.197C87.4121 318.393 87.6699 318.496 87.998 318.508C88.4668 318.527 88.9004 318.42 89.2988 318.186C89.6973 317.947 89.9551 317.637 90.0723 317.254L90.8574 312.66H91.5605L90.459 319H89.7793L89.9492 318.203ZM92.9785 319H92.2754L93.8398 310H94.543L92.9785 319ZM98.8145 319C98.7949 318.852 98.7891 318.703 98.7969 318.555L98.8496 318.115C98.5566 318.432 98.2207 318.68 97.8418 318.859C97.4668 319.039 97.0605 319.125 96.623 319.117C96.0879 319.109 95.6523 318.941 95.3164 318.613C94.9844 318.281 94.8359 317.865 94.8711 317.365C94.9023 316.947 95.0449 316.586 95.2988 316.281C95.5566 315.973 95.9219 315.734 96.3945 315.566C96.8672 315.395 97.3965 315.309 97.9824 315.309L99.2773 315.314L99.3828 314.588C99.4297 314.154 99.3359 313.807 99.1016 313.545C98.8672 313.283 98.5215 313.145 98.0645 313.129C97.6035 313.121 97.2012 313.236 96.8574 313.475C96.5176 313.709 96.3047 314.02 96.2188 314.406H95.5332C95.6113 313.852 95.8965 313.4 96.3887 313.053C96.8809 312.701 97.4629 312.529 98.1348 312.537C98.7871 312.553 99.2891 312.75 99.6406 313.129C99.9961 313.508 100.141 314 100.074 314.605L99.5469 317.793L99.5 318.303C99.4883 318.514 99.5039 318.723 99.5469 318.93L99.5352 319H98.8145ZM96.7402 318.502C97.1699 318.518 97.5801 318.416 97.9707 318.197C98.3652 317.975 98.6914 317.66 98.9492 317.254L99.1895 315.854L98.0703 315.848C97.3594 315.848 96.7793 315.975 96.3301 316.229C95.8809 316.479 95.6328 316.838 95.5859 317.307C95.5508 317.65 95.6406 317.934 95.8555 318.156C96.0742 318.379 96.3691 318.494 96.7402 318.502ZM103.619 311.037L103.338 312.66H104.609L104.51 313.234H103.238L102.535 317.465L102.523 317.828C102.523 318.254 102.719 318.473 103.109 318.484C103.23 318.488 103.42 318.475 103.678 318.443L103.648 319.018C103.418 319.084 103.184 319.113 102.945 319.105C102.535 319.098 102.236 318.955 102.049 318.678C101.861 318.396 101.793 317.99 101.844 317.459L102.541 313.234H101.404L101.51 312.66H102.635L102.922 311.037H103.619ZM105.74 319H105.037L106.145 312.66H106.842L105.74 319ZM106.338 310.826C106.357 310.572 106.525 310.412 106.842 310.346C106.994 310.373 107.102 310.422 107.164 310.492C107.23 310.559 107.273 310.67 107.293 310.826C107.254 310.975 107.197 311.084 107.123 311.154C107.049 311.221 106.938 311.27 106.789 311.301C106.473 311.254 106.322 311.096 106.338 310.826ZM107.803 315.771C107.873 315.158 108.061 314.598 108.365 314.09C108.67 313.578 109.049 313.189 109.502 312.924C109.959 312.658 110.453 312.531 110.984 312.543C111.508 312.551 111.953 312.695 112.32 312.977C112.691 313.254 112.961 313.635 113.129 314.119C113.301 314.6 113.359 315.133 113.305 315.719L113.293 315.83C113.176 316.83 112.82 317.633 112.227 318.238C111.637 318.844 110.928 319.137 110.1 319.117C109.389 319.105 108.82 318.844 108.395 318.332C107.969 317.82 107.76 317.145 107.768 316.305L107.785 315.971L107.803 315.771ZM108.482 315.971C108.432 316.436 108.465 316.865 108.582 317.26C108.703 317.65 108.895 317.957 109.156 318.18C109.418 318.402 109.744 318.52 110.135 318.531C110.557 318.539 110.941 318.432 111.289 318.209C111.641 317.986 111.93 317.672 112.156 317.266C112.383 316.859 112.529 316.41 112.596 315.918L112.613 315.725C112.684 314.971 112.566 314.355 112.262 313.879C111.961 313.398 111.523 313.152 110.949 313.141C110.324 313.121 109.783 313.363 109.326 313.867C108.873 314.367 108.596 315.033 108.494 315.865L108.482 315.971ZM115.988 312.66L115.777 313.744C116.059 313.354 116.383 313.055 116.75 312.848C117.121 312.637 117.518 312.535 117.939 312.543C118.549 312.559 118.992 312.771 119.27 313.182C119.547 313.592 119.645 314.156 119.562 314.875L118.871 319H118.18L118.871 314.863C118.895 314.641 118.898 314.426 118.883 314.219C118.816 313.523 118.438 313.166 117.746 313.146C117.336 313.139 116.953 313.262 116.598 313.516C116.242 313.766 115.93 314.145 115.66 314.652L114.91 319H114.219L115.32 312.66H115.988ZM126.301 315.531H123.564L123.67 314.939H126.406L126.301 315.531ZM131.492 315.121L127.754 313.346L127.877 312.654L132.312 314.875L132.213 315.443L127.004 317.67L127.139 316.902L131.492 315.121ZM136.725 319H136.021L137.586 310H138.289L136.725 319ZM138.787 315.771C138.857 315.158 139.045 314.598 139.35 314.09C139.654 313.578 140.033 313.189 140.486 312.924C140.943 312.658 141.438 312.531 141.969 312.543C142.492 312.551 142.938 312.695 143.305 312.977C143.676 313.254 143.945 313.635 144.113 314.119C144.285 314.6 144.344 315.133 144.289 315.719L144.277 315.83C144.16 316.83 143.805 317.633 143.211 318.238C142.621 318.844 141.912 319.137 141.084 319.117C140.373 319.105 139.805 318.844 139.379 318.332C138.953 317.82 138.744 317.145 138.752 316.305L138.77 315.971L138.787 315.771ZM139.467 315.971C139.416 316.436 139.449 316.865 139.566 317.26C139.688 317.65 139.879 317.957 140.141 318.18C140.402 318.402 140.729 318.52 141.119 318.531C141.541 318.539 141.926 318.432 142.273 318.209C142.625 317.986 142.914 317.672 143.141 317.266C143.367 316.859 143.514 316.41 143.58 315.918L143.598 315.725C143.668 314.971 143.551 314.355 143.246 313.879C142.945 313.398 142.508 313.152 141.934 313.141C141.309 313.121 140.768 313.363 140.311 313.867C139.857 314.367 139.58 315.033 139.479 315.865L139.467 315.971ZM147.658 318.531C148.119 318.547 148.525 318.42 148.877 318.15C149.232 317.877 149.469 317.51 149.586 317.049H150.248C150.131 317.678 149.822 318.186 149.322 318.572C148.826 318.955 148.26 319.139 147.623 319.123C147.111 319.111 146.682 318.971 146.334 318.701C145.986 318.432 145.734 318.059 145.578 317.582C145.426 317.105 145.377 316.568 145.432 315.971L145.455 315.719C145.502 315.309 145.602 314.91 145.754 314.523C145.91 314.137 146.117 313.795 146.375 313.498C146.633 313.197 146.939 312.961 147.295 312.789C147.654 312.613 148.059 312.531 148.508 312.543C149.156 312.559 149.672 312.777 150.055 313.199C150.438 313.621 150.617 314.156 150.594 314.805L149.932 314.799C149.939 314.311 149.812 313.916 149.551 313.615C149.289 313.314 148.932 313.156 148.479 313.141C147.994 313.125 147.566 313.266 147.195 313.562C146.824 313.859 146.545 314.279 146.357 314.822C146.17 315.365 146.082 315.941 146.094 316.551C146.105 317.18 146.246 317.664 146.516 318.004C146.785 318.34 147.166 318.516 147.658 318.531ZM155.205 319C155.186 318.852 155.18 318.703 155.188 318.555L155.24 318.115C154.947 318.432 154.611 318.68 154.232 318.859C153.857 319.039 153.451 319.125 153.014 319.117C152.479 319.109 152.043 318.941 151.707 318.613C151.375 318.281 151.227 317.865 151.262 317.365C151.293 316.947 151.436 316.586 151.689 316.281C151.947 315.973 152.312 315.734 152.785 315.566C153.258 315.395 153.787 315.309 154.373 315.309L155.668 315.314L155.773 314.588C155.82 314.154 155.727 313.807 155.492 313.545C155.258 313.283 154.912 313.145 154.455 313.129C153.994 313.121 153.592 313.236 153.248 313.475C152.908 313.709 152.695 314.02 152.609 314.406H151.924C152.002 313.852 152.287 313.4 152.779 313.053C153.271 312.701 153.854 312.529 154.525 312.537C155.178 312.553 155.68 312.75 156.031 313.129C156.387 313.508 156.531 314 156.465 314.605L155.938 317.793L155.891 318.303C155.879 318.514 155.895 318.723 155.938 318.93L155.926 319H155.205ZM153.131 318.502C153.561 318.518 153.971 318.416 154.361 318.197C154.756 317.975 155.082 317.66 155.34 317.254L155.58 315.854L154.461 315.848C153.75 315.848 153.17 315.975 152.721 316.229C152.271 316.479 152.023 316.838 151.977 317.307C151.941 317.65 152.031 317.934 152.246 318.156C152.465 318.379 152.76 318.494 153.131 318.502ZM160.01 311.037L159.729 312.66H161L160.9 313.234H159.629L158.926 317.465L158.914 317.828C158.914 318.254 159.109 318.473 159.5 318.484C159.621 318.488 159.811 318.475 160.068 318.443L160.039 319.018C159.809 319.084 159.574 319.113 159.336 319.105C158.926 319.098 158.627 318.955 158.439 318.678C158.252 318.396 158.184 317.99 158.234 317.459L158.932 313.234H157.795L157.9 312.66H159.025L159.312 311.037H160.01ZM162.131 319H161.428L162.535 312.66H163.232L162.131 319ZM162.729 310.826C162.748 310.572 162.916 310.412 163.232 310.346C163.385 310.373 163.492 310.422 163.555 310.492C163.621 310.559 163.664 310.67 163.684 310.826C163.645 310.975 163.588 311.084 163.514 311.154C163.439 311.221 163.328 311.27 163.18 311.301C162.863 311.254 162.713 311.096 162.729 310.826ZM164.193 315.771C164.264 315.158 164.451 314.598 164.756 314.09C165.061 313.578 165.439 313.189 165.893 312.924C166.35 312.658 166.844 312.531 167.375 312.543C167.898 312.551 168.344 312.695 168.711 312.977C169.082 313.254 169.352 313.635 169.52 314.119C169.691 314.6 169.75 315.133 169.695 315.719L169.684 315.83C169.566 316.83 169.211 317.633 168.617 318.238C168.027 318.844 167.318 319.137 166.49 319.117C165.779 319.105 165.211 318.844 164.785 318.332C164.359 317.82 164.15 317.145 164.158 316.305L164.176 315.971L164.193 315.771ZM164.873 315.971C164.822 316.436 164.855 316.865 164.973 317.26C165.094 317.65 165.285 317.957 165.547 318.18C165.809 318.402 166.135 318.52 166.525 318.531C166.947 318.539 167.332 318.432 167.68 318.209C168.031 317.986 168.32 317.672 168.547 317.266C168.773 316.859 168.92 316.41 168.986 315.918L169.004 315.725C169.074 314.971 168.957 314.355 168.652 313.879C168.352 313.398 167.914 313.152 167.34 313.141C166.715 313.121 166.174 313.363 165.717 313.867C165.264 314.367 164.986 315.033 164.885 315.865L164.873 315.971ZM172.379 312.66L172.168 313.744C172.449 313.354 172.773 313.055 173.141 312.848C173.512 312.637 173.908 312.535 174.33 312.543C174.939 312.559 175.383 312.771 175.66 313.182C175.938 313.592 176.035 314.156 175.953 314.875L175.262 319H174.57L175.262 314.863C175.285 314.641 175.289 314.426 175.273 314.219C175.207 313.523 174.828 313.166 174.137 313.146C173.727 313.139 173.344 313.262 172.988 313.516C172.633 313.766 172.32 314.145 172.051 314.652L171.301 319H170.609L171.711 312.66H172.379Z" fill="#555555"/>
<defs>
<filter id="filter0_d" x="437.899" y="88.5827" width="108.526" height="108.305" filterUnits="userSpaceOnUse" color-interpolation-filters="sRGB">
<feFlood flood-opacity="0" result="BackgroundImageFix"/>
<feColorMatrix in="SourceAlpha" type="matrix" values="0 0 0 0 0 0 0 0 0 0 0 0 0 0 0 0 0 0 127 0"/>
<feOffset dx="2.05163" dy="2.7355"/>
<feGaussianBlur stdDeviation="4.10326"/>
<feColorMatrix type="matrix" values="0 0 0 0 0 0 0 0 0 0 0 0 0 0 0 0 0 0 0.25 0"/>
<feBlend mode="normal" in2="BackgroundImageFix" result="effect1_dropShadow"/>
<feBlend mode="normal" in="SourceGraphic" in2="effect1_dropShadow" result="shape"/>
</filter>
<filter id="filter1_d" x="650.096" y="109.663" width="35.553" height="65.0877" filterUnits="userSpaceOnUse" color-interpolation-filters="sRGB">
<feFlood flood-opacity="0" result="BackgroundImageFix"/>
<feColorMatrix in="SourceAlpha" type="matrix" values="0 0 0 0 0 0 0 0 0 0 0 0 0 0 0 0 0 0 127 0"/>
<feOffset dx="-1.11451" dy="2.45193"/>
<feGaussianBlur stdDeviation="1.89467"/>
<feColorMatrix type="matrix" values="0 0 0 0 0 0 0 0 0 0 0 0 0 0 0 0 0 0 0.1 0"/>
<feBlend mode="normal" in2="BackgroundImageFix" result="effect1_dropShadow"/>
<feBlend mode="normal" in="SourceGraphic" in2="effect1_dropShadow" result="shape"/>
</filter>
<filter id="filter2_d" x="399.096" y="112.663" width="35.553" height="65.0877" filterUnits="userSpaceOnUse" color-interpolation-filters="sRGB">
<feFlood flood-opacity="0" result="BackgroundImageFix"/>
<feColorMatrix in="SourceAlpha" type="matrix" values="0 0 0 0 0 0 0 0 0 0 0 0 0 0 0 0 0 0 127 0"/>
<feOffset dx="-1.11451" dy="2.45193"/>
<feGaussianBlur stdDeviation="1.89467"/>
<feColorMatrix type="matrix" values="0 0 0 0 0 0 0 0 0 0 0 0 0 0 0 0 0 0 0.1 0"/>
<feBlend mode="normal" in2="BackgroundImageFix" result="effect1_dropShadow"/>
<feBlend mode="normal" in="SourceGraphic" in2="effect1_dropShadow" result="shape"/>
</filter>
<filter id="filter3_d" x="83.5923" y="99.9642" width="59.0481" height="58.9284" filterUnits="userSpaceOnUse" color-interpolation-filters="sRGB">
<feFlood flood-opacity="0" result="BackgroundImageFix"/>
<feColorMatrix in="SourceAlpha" type="matrix" values="0 0 0 0 0 0 0 0 0 0 0 0 0 0 0 0 0 0 127 0"/>
<feOffset dx="1.11628" dy="1.48837"/>
<feGaussianBlur stdDeviation="2.23256"/>
<feColorMatrix type="matrix" values="0 0 0 0 0 0 0 0 0 0 0 0 0 0 0 0 0 0 0.25 0"/>
<feBlend mode="normal" in2="BackgroundImageFix" result="effect1_dropShadow"/>
<feBlend mode="normal" in="SourceGraphic" in2="effect1_dropShadow" result="shape"/>
</filter>
<filter id="filter4_d" x="171.592" y="231.964" width="59.0481" height="58.9284" filterUnits="userSpaceOnUse" color-interpolation-filters="sRGB">
<feFlood flood-opacity="0" result="BackgroundImageFix"/>
<feColorMatrix in="SourceAlpha" type="matrix" values="0 0 0 0 0 0 0 0 0 0 0 0 0 0 0 0 0 0 127 0"/>
<feOffset dx="1.11628" dy="1.48837"/>
<feGaussianBlur stdDeviation="2.23256"/>
<feColorMatrix type="matrix" values="0 0 0 0 0 0 0 0 0 0 0 0 0 0 0 0 0 0 0.25 0"/>
<feBlend mode="normal" in2="BackgroundImageFix" result="effect1_dropShadow"/>
<feBlend mode="normal" in="SourceGraphic" in2="effect1_dropShadow" result="shape"/>
</filter>
<filter id="filter5_d" x="0.592325" y="231.964" width="59.0481" height="58.9284" filterUnits="userSpaceOnUse" color-interpolation-filters="sRGB">
<feFlood flood-opacity="0" result="BackgroundImageFix"/>
<feColorMatrix in="SourceAlpha" type="matrix" values="0 0 0 0 0 0 0 0 0 0 0 0 0 0 0 0 0 0 127 0"/>
<feOffset dx="1.11628" dy="1.48837"/>
<feGaussianBlur stdDeviation="2.23256"/>
<feColorMatrix type="matrix" values="0 0 0 0 0 0 0 0 0 0 0 0 0 0 0 0 0 0 0.25 0"/>
<feBlend mode="normal" in2="BackgroundImageFix" result="effect1_dropShadow"/>
<feBlend mode="normal" in="SourceGraphic" in2="effect1_dropShadow" result="shape"/>
</filter>
<filter id="filter6_d" x="94.0961" y="176.663" width="35.553" height="65.0877" filterUnits="userSpaceOnUse" color-interpolation-filters="sRGB">
<feFlood flood-opacity="0" result="BackgroundImageFix"/>
<feColorMatrix in="SourceAlpha" type="matrix" values="0 0 0 0 0 0 0 0 0 0 0 0 0 0 0 0 0 0 127 0"/>
<feOffset dx="-1.11451" dy="2.45193"/>
<feGaussianBlur stdDeviation="1.89467"/>
<feColorMatrix type="matrix" values="0 0 0 0 0 0 0 0 0 0 0 0 0 0 0 0 0 0 0.1 0"/>
<feBlend mode="normal" in2="BackgroundImageFix" result="effect1_dropShadow"/>
<feBlend mode="normal" in="SourceGraphic" in2="effect1_dropShadow" result="shape"/>
</filter>
</defs>
</svg>
