<svg width="236" height="236" viewBox="0 0 236 236" fill="none" xmlns="http://www.w3.org/2000/svg">
<path d="M236 0H0V236H236V0Z" fill="white"/>
<path d="M22.42 15.3408H15.34V22.4208H22.42V15.3408Z" fill="black"/>
<path d="M29.5 15.3408H22.42V22.4208H29.5V15.3408Z" fill="black"/>
<path d="M36.58 15.3408H29.5V22.4208H36.58V15.3408Z" fill="black"/>
<path d="M43.66 15.3408H36.58V22.4208H43.66V15.3408Z" fill="black"/>
<path d="M50.74 15.3408H43.66V22.4208H50.74V15.3408Z" fill="black"/>
<path d="M57.82 15.3408H50.74V22.4208H57.82V15.3408Z" fill="black"/>
<path d="M64.9 15.3408H57.82V22.4208H64.9V15.3408Z" fill="black"/>
<path d="M86.14 15.3408H79.06V22.4208H86.14V15.3408Z" fill="black"/>
<path d="M107.38 15.3408H100.3V22.4208H107.38V15.3408Z" fill="black"/>
<path d="M128.62 15.3408H121.54V22.4208H128.62V15.3408Z" fill="black"/>
<path d="M149.86 15.3408H142.78V22.4208H149.86V15.3408Z" fill="black"/>
<path d="M156.94 15.3408H149.86V22.4208H156.94V15.3408Z" fill="black"/>
<path d="M178.18 15.3408H171.1V22.4208H178.18V15.3408Z" fill="black"/>
<path d="M185.26 15.3408H178.18V22.4208H185.26V15.3408Z" fill="black"/>
<path d="M192.34 15.3408H185.26V22.4208H192.34V15.3408Z" fill="black"/>
<path d="M199.42 15.3408H192.34V22.4208H199.42V15.3408Z" fill="black"/>
<path d="M206.5 15.3408H199.42V22.4208H206.5V15.3408Z" fill="black"/>
<path d="M213.58 15.3408H206.5V22.4208H213.58V15.3408Z" fill="black"/>
<path d="M220.66 15.3408H213.58V22.4208H220.66V15.3408Z" fill="black"/>
<path d="M22.42 22.4199H15.34V29.4999H22.42V22.4199Z" fill="black"/>
<path d="M64.9 22.4199H57.82V29.4999H64.9V22.4199Z" fill="black"/>
<path d="M79.06 22.4199H71.98V29.4999H79.06V22.4199Z" fill="black"/>
<path d="M100.3 22.4199H93.22V29.4999H100.3V22.4199Z" fill="black"/>
<path d="M107.38 22.4199H100.3V29.4999H107.38V22.4199Z" fill="black"/>
<path d="M128.62 22.4199H121.54V29.4999H128.62V22.4199Z" fill="black"/>
<path d="M149.86 22.4199H142.78V29.4999H149.86V22.4199Z" fill="black"/>
<path d="M178.18 22.4199H171.1V29.4999H178.18V22.4199Z" fill="black"/>
<path d="M220.66 22.4199H213.58V29.4999H220.66V22.4199Z" fill="black"/>
<path d="M22.42 29.5H15.34V36.58H22.42V29.5Z" fill="black"/>
<path d="M36.58 29.5H29.5V36.58H36.58V29.5Z" fill="black"/>
<path d="M43.66 29.5H36.58V36.58H43.66V29.5Z" fill="black"/>
<path d="M50.74 29.5H43.66V36.58H50.74V29.5Z" fill="black"/>
<path d="M64.9 29.5H57.82V36.58H64.9V29.5Z" fill="black"/>
<path d="M79.06 29.5H71.98V36.58H79.06V29.5Z" fill="black"/>
<path d="M86.14 29.5H79.06V36.58H86.14V29.5Z" fill="black"/>
<path d="M93.22 29.5H86.14V36.58H93.22V29.5Z" fill="black"/>
<path d="M100.3 29.5H93.22V36.58H100.3V29.5Z" fill="black"/>
<path d="M107.38 29.5H100.3V36.58H107.38V29.5Z" fill="black"/>
<path d="M128.62 29.5H121.54V36.58H128.62V29.5Z" fill="black"/>
<path d="M142.78 29.5H135.7V36.58H142.78V29.5Z" fill="black"/>
<path d="M156.94 29.5H149.86V36.58H156.94V29.5Z" fill="black"/>
<path d="M164.02 29.5H156.94V36.58H164.02V29.5Z" fill="black"/>
<path d="M178.18 29.5H171.1V36.58H178.18V29.5Z" fill="black"/>
<path d="M192.34 29.5H185.26V36.58H192.34V29.5Z" fill="black"/>
<path d="M199.42 29.5H192.34V36.58H199.42V29.5Z" fill="black"/>
<path d="M206.5 29.5H199.42V36.58H206.5V29.5Z" fill="black"/>
<path d="M220.66 29.5H213.58V36.58H220.66V29.5Z" fill="black"/>
<path d="M22.42 36.5801H15.34V43.6601H22.42V36.5801Z" fill="black"/>
<path d="M36.58 36.5801H29.5V43.6601H36.58V36.5801Z" fill="black"/>
<path d="M43.66 36.5801H36.58V43.6601H43.66V36.5801Z" fill="black"/>
<path d="M50.74 36.5801H43.66V43.6601H50.74V36.5801Z" fill="black"/>
<path d="M64.9 36.5801H57.82V43.6601H64.9V36.5801Z" fill="black"/>
<path d="M86.14 36.5801H79.06V43.6601H86.14V36.5801Z" fill="black"/>
<path d="M93.22 36.5801H86.14V43.6601H93.22V36.5801Z" fill="black"/>
<path d="M100.3 36.5801H93.22V43.6601H100.3V36.5801Z" fill="black"/>
<path d="M121.54 36.5801H114.46V43.6601H121.54V36.5801Z" fill="black"/>
<path d="M135.7 36.5801H128.62V43.6601H135.7V36.5801Z" fill="black"/>
<path d="M149.86 36.5801H142.78V43.6601H149.86V36.5801Z" fill="black"/>
<path d="M178.18 36.5801H171.1V43.6601H178.18V36.5801Z" fill="black"/>
<path d="M192.34 36.5801H185.26V43.6601H192.34V36.5801Z" fill="black"/>
<path d="M199.42 36.5801H192.34V43.6601H199.42V36.5801Z" fill="black"/>
<path d="M206.5 36.5801H199.42V43.6601H206.5V36.5801Z" fill="black"/>
<path d="M220.66 36.5801H213.58V43.6601H220.66V36.5801Z" fill="black"/>
<path d="M22.42 43.6592H15.34V50.7392H22.42V43.6592Z" fill="black"/>
<path d="M36.58 43.6592H29.5V50.7392H36.58V43.6592Z" fill="black"/>
<path d="M43.66 43.6592H36.58V50.7392H43.66V43.6592Z" fill="black"/>
<path d="M50.74 43.6592H43.66V50.7392H50.74V43.6592Z" fill="black"/>
<path d="M64.9 43.6592H57.82V50.7392H64.9V43.6592Z" fill="black"/>
<path d="M79.06 43.6592H71.98V50.7392H79.06V43.6592Z" fill="black"/>
<path d="M114.46 43.6592H107.38V50.7392H114.46V43.6592Z" fill="black"/>
<path d="M135.7 43.6592H128.62V50.7392H135.7V43.6592Z" fill="black"/>
<path d="M142.78 43.6592H135.7V50.7392H142.78V43.6592Z" fill="black"/>
<path d="M149.86 43.6592H142.78V50.7392H149.86V43.6592Z" fill="black"/>
<path d="M164.02 43.6592H156.94V50.7392H164.02V43.6592Z" fill="black"/>
<path d="M178.18 43.6592H171.1V50.7392H178.18V43.6592Z" fill="black"/>
<path d="M192.34 43.6592H185.26V50.7392H192.34V43.6592Z" fill="black"/>
<path d="M199.42 43.6592H192.34V50.7392H199.42V43.6592Z" fill="black"/>
<path d="M206.5 43.6592H199.42V50.7392H206.5V43.6592Z" fill="black"/>
<path d="M220.66 43.6592H213.58V50.7392H220.66V43.6592Z" fill="black"/>
<path d="M22.42 50.7402H15.34V57.8202H22.42V50.7402Z" fill="black"/>
<path d="M64.9 50.7402H57.82V57.8202H64.9V50.7402Z" fill="black"/>
<path d="M79.06 50.7402H71.98V57.8202H79.06V50.7402Z" fill="black"/>
<path d="M86.14 50.7402H79.06V57.8202H86.14V50.7402Z" fill="black"/>
<path d="M100.3 50.7402H93.22V57.8202H100.3V50.7402Z" fill="black"/>
<path d="M121.54 50.7402H114.46V57.8202H121.54V50.7402Z" fill="black"/>
<path d="M128.62 50.7402H121.54V57.8202H128.62V50.7402Z" fill="black"/>
<path d="M135.7 50.7402H128.62V57.8202H135.7V50.7402Z" fill="black"/>
<path d="M156.94 50.7402H149.86V57.8202H156.94V50.7402Z" fill="black"/>
<path d="M178.18 50.7402H171.1V57.8202H178.18V50.7402Z" fill="black"/>
<path d="M220.66 50.7402H213.58V57.8202H220.66V50.7402Z" fill="black"/>
<path d="M22.42 57.8203H15.34V64.9003H22.42V57.8203Z" fill="black"/>
<path d="M29.5 57.8203H22.42V64.9003H29.5V57.8203Z" fill="black"/>
<path d="M36.58 57.8203H29.5V64.9003H36.58V57.8203Z" fill="black"/>
<path d="M43.66 57.8203H36.58V64.9003H43.66V57.8203Z" fill="black"/>
<path d="M50.74 57.8203H43.66V64.9003H50.74V57.8203Z" fill="black"/>
<path d="M57.82 57.8203H50.74V64.9003H57.82V57.8203Z" fill="black"/>
<path d="M64.9 57.8203H57.82V64.9003H64.9V57.8203Z" fill="black"/>
<path d="M79.06 57.8203H71.98V64.9003H79.06V57.8203Z" fill="black"/>
<path d="M93.22 57.8203H86.14V64.9003H93.22V57.8203Z" fill="black"/>
<path d="M107.38 57.8203H100.3V64.9003H107.38V57.8203Z" fill="black"/>
<path d="M121.54 57.8203H114.46V64.9003H121.54V57.8203Z" fill="black"/>
<path d="M135.7 57.8203H128.62V64.9003H135.7V57.8203Z" fill="black"/>
<path d="M149.86 57.8203H142.78V64.9003H149.86V57.8203Z" fill="black"/>
<path d="M164.02 57.8203H156.94V64.9003H164.02V57.8203Z" fill="black"/>
<path d="M178.18 57.8203H171.1V64.9003H178.18V57.8203Z" fill="black"/>
<path d="M185.26 57.8203H178.18V64.9003H185.26V57.8203Z" fill="black"/>
<path d="M192.34 57.8203H185.26V64.9003H192.34V57.8203Z" fill="black"/>
<path d="M199.42 57.8203H192.34V64.9003H199.42V57.8203Z" fill="black"/>
<path d="M206.5 57.8203H199.42V64.9003H206.5V57.8203Z" fill="black"/>
<path d="M213.58 57.8203H206.5V64.9003H213.58V57.8203Z" fill="black"/>
<path d="M220.66 57.8203H213.58V64.9003H220.66V57.8203Z" fill="black"/>
<path d="M79.06 64.9004H71.98V71.9804H79.06V64.9004Z" fill="black"/>
<path d="M86.14 64.9004H79.06V71.9804H86.14V64.9004Z" fill="black"/>
<path d="M107.38 64.9004H100.3V71.9804H107.38V64.9004Z" fill="black"/>
<path d="M128.62 64.9004H121.54V71.9804H128.62V64.9004Z" fill="black"/>
<path d="M142.78 64.9004H135.7V71.9804H142.78V64.9004Z" fill="black"/>
<path d="M149.86 64.9004H142.78V71.9804H149.86V64.9004Z" fill="black"/>
<path d="M164.02 64.9004H156.94V71.9804H164.02V64.9004Z" fill="black"/>
<path d="M22.42 71.9795H15.34V79.0595H22.42V71.9795Z" fill="black"/>
<path d="M29.5 71.9795H22.42V79.0595H29.5V71.9795Z" fill="black"/>
<path d="M43.66 71.9795H36.58V79.0595H43.66V71.9795Z" fill="black"/>
<path d="M64.9 71.9795H57.82V79.0595H64.9V71.9795Z" fill="black"/>
<path d="M71.98 71.9795H64.9V79.0595H71.98V71.9795Z" fill="black"/>
<path d="M93.22 71.9795H86.14V79.0595H93.22V71.9795Z" fill="black"/>
<path d="M114.46 71.9795H107.38V79.0595H114.46V71.9795Z" fill="black"/>
<path d="M121.54 71.9795H114.46V79.0595H121.54V71.9795Z" fill="black"/>
<path d="M128.62 71.9795H121.54V79.0595H128.62V71.9795Z" fill="black"/>
<path d="M135.7 71.9795H128.62V79.0595H135.7V71.9795Z" fill="black"/>
<path d="M178.18 71.9795H171.1V79.0595H178.18V71.9795Z" fill="black"/>
<path d="M185.26 71.9795H178.18V79.0595H185.26V71.9795Z" fill="black"/>
<path d="M192.34 71.9795H185.26V79.0595H192.34V71.9795Z" fill="black"/>
<path d="M206.5 71.9795H199.42V79.0595H206.5V71.9795Z" fill="black"/>
<path d="M213.58 71.9795H206.5V79.0595H213.58V71.9795Z" fill="black"/>
<path d="M43.66 79.0596H36.58V86.1396H43.66V79.0596Z" fill="black"/>
<path d="M50.74 79.0596H43.66V86.1396H50.74V79.0596Z" fill="black"/>
<path d="M57.82 79.0596H50.74V86.1396H57.82V79.0596Z" fill="black"/>
<path d="M79.06 79.0596H71.98V86.1396H79.06V79.0596Z" fill="black"/>
<path d="M93.22 79.0596H86.14V86.1396H93.22V79.0596Z" fill="black"/>
<path d="M100.3 79.0596H93.22V86.1396H100.3V79.0596Z" fill="black"/>
<path d="M128.62 79.0596H121.54V86.1396H128.62V79.0596Z" fill="black"/>
<path d="M135.7 79.0596H128.62V86.1396H135.7V79.0596Z" fill="black"/>
<path d="M142.78 79.0596H135.7V86.1396H142.78V79.0596Z" fill="black"/>
<path d="M149.86 79.0596H142.78V86.1396H149.86V79.0596Z" fill="black"/>
<path d="M164.02 79.0596H156.94V86.1396H164.02V79.0596Z" fill="black"/>
<path d="M178.18 79.0596H171.1V86.1396H178.18V79.0596Z" fill="black"/>
<path d="M199.42 79.0596H192.34V86.1396H199.42V79.0596Z" fill="black"/>
<path d="M220.66 79.0596H213.58V86.1396H220.66V79.0596Z" fill="black"/>
<path d="M22.42 86.1406H15.34V93.2206H22.42V86.1406Z" fill="black"/>
<path d="M36.58 86.1406H29.5V93.2206H36.58V86.1406Z" fill="black"/>
<path d="M43.66 86.1406H36.58V93.2206H43.66V86.1406Z" fill="black"/>
<path d="M50.74 86.1406H43.66V93.2206H50.74V86.1406Z" fill="black"/>
<path d="M64.9 86.1406H57.82V93.2206H64.9V86.1406Z" fill="black"/>
<path d="M86.14 86.1406H79.06V93.2206H86.14V86.1406Z" fill="black"/>
<path d="M93.22 86.1406H86.14V93.2206H93.22V86.1406Z" fill="black"/>
<path d="M156.94 86.1406H149.86V93.2206H156.94V86.1406Z" fill="black"/>
<path d="M164.02 86.1406H156.94V93.2206H164.02V86.1406Z" fill="black"/>
<path d="M185.26 86.1406H178.18V93.2206H185.26V86.1406Z" fill="black"/>
<path d="M192.34 86.1406H185.26V93.2206H192.34V86.1406Z" fill="black"/>
<path d="M199.42 86.1406H192.34V93.2206H199.42V86.1406Z" fill="black"/>
<path d="M206.5 86.1406H199.42V93.2206H206.5V86.1406Z" fill="black"/>
<path d="M213.58 86.1406H206.5V93.2206H213.58V86.1406Z" fill="black"/>
<path d="M22.42 93.2197H15.34V100.3H22.42V93.2197Z" fill="black"/>
<path d="M50.74 93.2197H43.66V100.3H50.74V93.2197Z" fill="black"/>
<path d="M57.82 93.2197H50.74V100.3H57.82V93.2197Z" fill="black"/>
<path d="M71.98 93.2197H64.9V100.3H71.98V93.2197Z" fill="black"/>
<path d="M79.06 93.2197H71.98V100.3H79.06V93.2197Z" fill="black"/>
<path d="M114.46 93.2197H107.38V100.3H114.46V93.2197Z" fill="black"/>
<path d="M135.7 93.2197H128.62V100.3H135.7V93.2197Z" fill="black"/>
<path d="M164.02 93.2197H156.94V100.3H164.02V93.2197Z" fill="black"/>
<path d="M178.18 93.2197H171.1V100.3H178.18V93.2197Z" fill="black"/>
<path d="M185.26 93.2197H178.18V100.3H185.26V93.2197Z" fill="black"/>
<path d="M206.5 93.2197H199.42V100.3H206.5V93.2197Z" fill="black"/>
<path d="M213.58 93.2197H206.5V100.3H213.58V93.2197Z" fill="black"/>
<path d="M29.5 100.3H22.42V107.38H29.5V100.3Z" fill="black"/>
<path d="M36.58 100.3H29.5V107.38H36.58V100.3Z" fill="black"/>
<path d="M64.9 100.3H57.82V107.38H64.9V100.3Z" fill="black"/>
<path d="M107.38 100.3H100.3V107.38H107.38V100.3Z" fill="black"/>
<path d="M114.46 100.3H107.38V107.38H114.46V100.3Z" fill="black"/>
<path d="M135.7 100.3H128.62V107.38H135.7V100.3Z" fill="black"/>
<path d="M142.78 100.3H135.7V107.38H142.78V100.3Z" fill="black"/>
<path d="M171.1 100.3H164.02V107.38H171.1V100.3Z" fill="black"/>
<path d="M178.18 100.3H171.1V107.38H178.18V100.3Z" fill="black"/>
<path d="M199.42 100.3H192.34V107.38H199.42V100.3Z" fill="black"/>
<path d="M213.58 100.3H206.5V107.38H213.58V100.3Z" fill="black"/>
<path d="M220.66 100.3H213.58V107.38H220.66V100.3Z" fill="black"/>
<path d="M22.42 107.38H15.34V114.46H22.42V107.38Z" fill="black"/>
<path d="M43.66 107.38H36.58V114.46H43.66V107.38Z" fill="black"/>
<path d="M71.98 107.38H64.9V114.46H71.98V107.38Z" fill="black"/>
<path d="M86.14 107.38H79.06V114.46H86.14V107.38Z" fill="black"/>
<path d="M93.22 107.38H86.14V114.46H93.22V107.38Z" fill="black"/>
<path d="M100.3 107.38H93.22V114.46H100.3V107.38Z" fill="black"/>
<path d="M107.38 107.38H100.3V114.46H107.38V107.38Z" fill="black"/>
<path d="M121.54 107.38H114.46V114.46H121.54V107.38Z" fill="black"/>
<path d="M128.62 107.38H121.54V114.46H128.62V107.38Z" fill="black"/>
<path d="M156.94 107.38H149.86V114.46H156.94V107.38Z" fill="black"/>
<path d="M164.02 107.38H156.94V114.46H164.02V107.38Z" fill="black"/>
<path d="M171.1 107.38H164.02V114.46H171.1V107.38Z" fill="black"/>
<path d="M22.42 114.461H15.34V121.541H22.42V114.461Z" fill="black"/>
<path d="M29.5 114.461H22.42V121.541H29.5V114.461Z" fill="black"/>
<path d="M43.66 114.461H36.58V121.541H43.66V114.461Z" fill="black"/>
<path d="M50.74 114.461H43.66V121.541H50.74V114.461Z" fill="black"/>
<path d="M64.9 114.461H57.82V121.541H64.9V114.461Z" fill="black"/>
<path d="M71.98 114.461H64.9V121.541H71.98V114.461Z" fill="black"/>
<path d="M79.06 114.461H71.98V121.541H79.06V114.461Z" fill="black"/>
<path d="M86.14 114.461H79.06V121.541H86.14V114.461Z" fill="black"/>
<path d="M107.38 114.461H100.3V121.541H107.38V114.461Z" fill="black"/>
<path d="M121.54 114.461H114.46V121.541H121.54V114.461Z" fill="black"/>
<path d="M135.7 114.461H128.62V121.541H135.7V114.461Z" fill="black"/>
<path d="M142.78 114.461H135.7V121.541H142.78V114.461Z" fill="black"/>
<path d="M149.86 114.461H142.78V121.541H149.86V114.461Z" fill="black"/>
<path d="M164.02 114.461H156.94V121.541H164.02V114.461Z" fill="black"/>
<path d="M178.18 114.461H171.1V121.541H178.18V114.461Z" fill="black"/>
<path d="M185.26 114.461H178.18V121.541H185.26V114.461Z" fill="black"/>
<path d="M199.42 114.461H192.34V121.541H199.42V114.461Z" fill="black"/>
<path d="M206.5 114.461H199.42V121.541H206.5V114.461Z" fill="black"/>
<path d="M213.58 114.461H206.5V121.541H213.58V114.461Z" fill="black"/>
<path d="M220.66 114.461H213.58V121.541H220.66V114.461Z" fill="black"/>
<path d="M22.42 121.539H15.34V128.619H22.42V121.539Z" fill="black"/>
<path d="M29.5 121.539H22.42V128.619H29.5V121.539Z" fill="black"/>
<path d="M36.58 121.539H29.5V128.619H36.58V121.539Z" fill="black"/>
<path d="M43.66 121.539H36.58V128.619H43.66V121.539Z" fill="black"/>
<path d="M57.82 121.539H50.74V128.619H57.82V121.539Z" fill="black"/>
<path d="M71.98 121.539H64.9V128.619H71.98V121.539Z" fill="black"/>
<path d="M79.06 121.539H71.98V128.619H79.06V121.539Z" fill="black"/>
<path d="M107.38 121.539H100.3V128.619H107.38V121.539Z" fill="black"/>
<path d="M114.46 121.539H107.38V128.619H114.46V121.539Z" fill="black"/>
<path d="M128.62 121.539H121.54V128.619H128.62V121.539Z" fill="black"/>
<path d="M135.7 121.539H128.62V128.619H135.7V121.539Z" fill="black"/>
<path d="M142.78 121.539H135.7V128.619H142.78V121.539Z" fill="black"/>
<path d="M156.94 121.539H149.86V128.619H156.94V121.539Z" fill="black"/>
<path d="M164.02 121.539H156.94V128.619H164.02V121.539Z" fill="black"/>
<path d="M185.26 121.539H178.18V128.619H185.26V121.539Z" fill="black"/>
<path d="M199.42 121.539H192.34V128.619H199.42V121.539Z" fill="black"/>
<path d="M213.58 121.539H206.5V128.619H213.58V121.539Z" fill="black"/>
<path d="M22.42 128.62H15.34V135.7H22.42V128.62Z" fill="black"/>
<path d="M43.66 128.62H36.58V135.7H43.66V128.62Z" fill="black"/>
<path d="M50.74 128.62H43.66V135.7H50.74V128.62Z" fill="black"/>
<path d="M64.9 128.62H57.82V135.7H64.9V128.62Z" fill="black"/>
<path d="M79.06 128.62H71.98V135.7H79.06V128.62Z" fill="black"/>
<path d="M86.14 128.62H79.06V135.7H86.14V128.62Z" fill="black"/>
<path d="M100.3 128.62H93.22V135.7H100.3V128.62Z" fill="black"/>
<path d="M107.38 128.62H100.3V135.7H107.38V128.62Z" fill="black"/>
<path d="M135.7 128.62H128.62V135.7H135.7V128.62Z" fill="black"/>
<path d="M142.78 128.62H135.7V135.7H142.78V128.62Z" fill="black"/>
<path d="M156.94 128.62H149.86V135.7H156.94V128.62Z" fill="black"/>
<path d="M164.02 128.62H156.94V135.7H164.02V128.62Z" fill="black"/>
<path d="M171.1 128.62H164.02V135.7H171.1V128.62Z" fill="black"/>
<path d="M185.26 128.62H178.18V135.7H185.26V128.62Z" fill="black"/>
<path d="M213.58 128.62H206.5V135.7H213.58V128.62Z" fill="black"/>
<path d="M57.82 135.7H50.74V142.78H57.82V135.7Z" fill="black"/>
<path d="M79.06 135.7H71.98V142.78H79.06V135.7Z" fill="black"/>
<path d="M93.22 135.7H86.14V142.78H93.22V135.7Z" fill="black"/>
<path d="M121.54 135.7H114.46V142.78H121.54V135.7Z" fill="black"/>
<path d="M128.62 135.7H121.54V142.78H128.62V135.7Z" fill="black"/>
<path d="M135.7 135.7H128.62V142.78H135.7V135.7Z" fill="black"/>
<path d="M149.86 135.7H142.78V142.78H149.86V135.7Z" fill="black"/>
<path d="M178.18 135.7H171.1V142.78H178.18V135.7Z" fill="black"/>
<path d="M185.26 135.7H178.18V142.78H185.26V135.7Z" fill="black"/>
<path d="M199.42 135.7H192.34V142.78H199.42V135.7Z" fill="black"/>
<path d="M220.66 135.7H213.58V142.78H220.66V135.7Z" fill="black"/>
<path d="M22.42 142.78H15.34V149.86H22.42V142.78Z" fill="black"/>
<path d="M36.58 142.78H29.5V149.86H36.58V142.78Z" fill="black"/>
<path d="M43.66 142.78H36.58V149.86H43.66V142.78Z" fill="black"/>
<path d="M64.9 142.78H57.82V149.86H64.9V142.78Z" fill="black"/>
<path d="M71.98 142.78H64.9V149.86H71.98V142.78Z" fill="black"/>
<path d="M93.22 142.78H86.14V149.86H93.22V142.78Z" fill="black"/>
<path d="M114.46 142.78H107.38V149.86H114.46V142.78Z" fill="black"/>
<path d="M164.02 142.78H156.94V149.86H164.02V142.78Z" fill="black"/>
<path d="M178.18 142.78H171.1V149.86H178.18V142.78Z" fill="black"/>
<path d="M185.26 142.78H178.18V149.86H185.26V142.78Z" fill="black"/>
<path d="M192.34 142.78H185.26V149.86H192.34V142.78Z" fill="black"/>
<path d="M213.58 142.78H206.5V149.86H213.58V142.78Z" fill="black"/>
<path d="M220.66 142.78H213.58V149.86H220.66V142.78Z" fill="black"/>
<path d="M36.58 149.859H29.5V156.939H36.58V149.859Z" fill="black"/>
<path d="M50.74 149.859H43.66V156.939H50.74V149.859Z" fill="black"/>
<path d="M57.82 149.859H50.74V156.939H57.82V149.859Z" fill="black"/>
<path d="M107.38 149.859H100.3V156.939H107.38V149.859Z" fill="black"/>
<path d="M121.54 149.859H114.46V156.939H121.54V149.859Z" fill="black"/>
<path d="M142.78 149.859H135.7V156.939H142.78V149.859Z" fill="black"/>
<path d="M149.86 149.859H142.78V156.939H149.86V149.859Z" fill="black"/>
<path d="M213.58 149.859H206.5V156.939H213.58V149.859Z" fill="black"/>
<path d="M220.66 149.859H213.58V156.939H220.66V149.859Z" fill="black"/>
<path d="M22.42 156.94H15.34V164.02H22.42V156.94Z" fill="black"/>
<path d="M43.66 156.94H36.58V164.02H43.66V156.94Z" fill="black"/>
<path d="M50.74 156.94H43.66V164.02H50.74V156.94Z" fill="black"/>
<path d="M57.82 156.94H50.74V164.02H57.82V156.94Z" fill="black"/>
<path d="M64.9 156.94H57.82V164.02H64.9V156.94Z" fill="black"/>
<path d="M79.06 156.94H71.98V164.02H79.06V156.94Z" fill="black"/>
<path d="M86.14 156.94H79.06V164.02H86.14V156.94Z" fill="black"/>
<path d="M107.38 156.94H100.3V164.02H107.38V156.94Z" fill="black"/>
<path d="M114.46 156.94H107.38V164.02H114.46V156.94Z" fill="black"/>
<path d="M121.54 156.94H114.46V164.02H121.54V156.94Z" fill="black"/>
<path d="M128.62 156.94H121.54V164.02H128.62V156.94Z" fill="black"/>
<path d="M135.7 156.94H128.62V164.02H135.7V156.94Z" fill="black"/>
<path d="M164.02 156.94H156.94V164.02H164.02V156.94Z" fill="black"/>
<path d="M171.1 156.94H164.02V164.02H171.1V156.94Z" fill="black"/>
<path d="M178.18 156.94H171.1V164.02H178.18V156.94Z" fill="black"/>
<path d="M185.26 156.94H178.18V164.02H185.26V156.94Z" fill="black"/>
<path d="M192.34 156.94H185.26V164.02H192.34V156.94Z" fill="black"/>
<path d="M206.5 156.94H199.42V164.02H206.5V156.94Z" fill="black"/>
<path d="M79.06 164.021H71.98V171.101H79.06V164.021Z" fill="black"/>
<path d="M86.14 164.021H79.06V171.101H86.14V164.021Z" fill="black"/>
<path d="M93.22 164.021H86.14V171.101H93.22V164.021Z" fill="black"/>
<path d="M114.46 164.021H107.38V171.101H114.46V164.021Z" fill="black"/>
<path d="M121.54 164.021H114.46V171.101H121.54V164.021Z" fill="black"/>
<path d="M142.78 164.021H135.7V171.101H142.78V164.021Z" fill="black"/>
<path d="M164.02 164.021H156.94V171.101H164.02V164.021Z" fill="black"/>
<path d="M192.34 164.021H185.26V171.101H192.34V164.021Z" fill="black"/>
<path d="M206.5 164.021H199.42V171.101H206.5V164.021Z" fill="black"/>
<path d="M213.58 164.021H206.5V171.101H213.58V164.021Z" fill="black"/>
<path d="M220.66 164.021H213.58V171.101H220.66V164.021Z" fill="black"/>
<path d="M22.42 171.1H15.34V178.18H22.42V171.1Z" fill="black"/>
<path d="M29.5 171.1H22.42V178.18H29.5V171.1Z" fill="black"/>
<path d="M36.58 171.1H29.5V178.18H36.58V171.1Z" fill="black"/>
<path d="M43.66 171.1H36.58V178.18H43.66V171.1Z" fill="black"/>
<path d="M50.74 171.1H43.66V178.18H50.74V171.1Z" fill="black"/>
<path d="M57.82 171.1H50.74V178.18H57.82V171.1Z" fill="black"/>
<path d="M64.9 171.1H57.82V178.18H64.9V171.1Z" fill="black"/>
<path d="M79.06 171.1H71.98V178.18H79.06V171.1Z" fill="black"/>
<path d="M114.46 171.1H107.38V178.18H114.46V171.1Z" fill="black"/>
<path d="M135.7 171.1H128.62V178.18H135.7V171.1Z" fill="black"/>
<path d="M142.78 171.1H135.7V178.18H142.78V171.1Z" fill="black"/>
<path d="M149.86 171.1H142.78V178.18H149.86V171.1Z" fill="black"/>
<path d="M164.02 171.1H156.94V178.18H164.02V171.1Z" fill="black"/>
<path d="M178.18 171.1H171.1V178.18H178.18V171.1Z" fill="black"/>
<path d="M192.34 171.1H185.26V178.18H192.34V171.1Z" fill="black"/>
<path d="M213.58 171.1H206.5V178.18H213.58V171.1Z" fill="black"/>
<path d="M22.42 178.18H15.34V185.26H22.42V178.18Z" fill="black"/>
<path d="M64.9 178.18H57.82V185.26H64.9V178.18Z" fill="black"/>
<path d="M86.14 178.18H79.06V185.26H86.14V178.18Z" fill="black"/>
<path d="M93.22 178.18H86.14V185.26H93.22V178.18Z" fill="black"/>
<path d="M107.38 178.18H100.3V185.26H107.38V178.18Z" fill="black"/>
<path d="M114.46 178.18H107.38V185.26H114.46V178.18Z" fill="black"/>
<path d="M121.54 178.18H114.46V185.26H121.54V178.18Z" fill="black"/>
<path d="M135.7 178.18H128.62V185.26H135.7V178.18Z" fill="black"/>
<path d="M164.02 178.18H156.94V185.26H164.02V178.18Z" fill="black"/>
<path d="M192.34 178.18H185.26V185.26H192.34V178.18Z" fill="black"/>
<path d="M199.42 178.18H192.34V185.26H199.42V178.18Z" fill="black"/>
<path d="M206.5 178.18H199.42V185.26H206.5V178.18Z" fill="black"/>
<path d="M213.58 178.18H206.5V185.26H213.58V178.18Z" fill="black"/>
<path d="M220.66 178.18H213.58V185.26H220.66V178.18Z" fill="black"/>
<path d="M22.42 185.26H15.34V192.34H22.42V185.26Z" fill="black"/>
<path d="M36.58 185.26H29.5V192.34H36.58V185.26Z" fill="black"/>
<path d="M43.66 185.26H36.58V192.34H43.66V185.26Z" fill="black"/>
<path d="M50.74 185.26H43.66V192.34H50.74V185.26Z" fill="black"/>
<path d="M64.9 185.26H57.82V192.34H64.9V185.26Z" fill="black"/>
<path d="M107.38 185.26H100.3V192.34H107.38V185.26Z" fill="black"/>
<path d="M114.46 185.26H107.38V192.34H114.46V185.26Z" fill="black"/>
<path d="M128.62 185.26H121.54V192.34H128.62V185.26Z" fill="black"/>
<path d="M135.7 185.26H128.62V192.34H135.7V185.26Z" fill="black"/>
<path d="M142.78 185.26H135.7V192.34H142.78V185.26Z" fill="black"/>
<path d="M149.86 185.26H142.78V192.34H149.86V185.26Z" fill="black"/>
<path d="M164.02 185.26H156.94V192.34H164.02V185.26Z" fill="black"/>
<path d="M171.1 185.26H164.02V192.34H171.1V185.26Z" fill="black"/>
<path d="M178.18 185.26H171.1V192.34H178.18V185.26Z" fill="black"/>
<path d="M185.26 185.26H178.18V192.34H185.26V185.26Z" fill="black"/>
<path d="M192.34 185.26H185.26V192.34H192.34V185.26Z" fill="black"/>
<path d="M213.58 185.26H206.5V192.34H213.58V185.26Z" fill="black"/>
<path d="M22.42 192.341H15.34V199.421H22.42V192.341Z" fill="black"/>
<path d="M36.58 192.341H29.5V199.421H36.58V192.341Z" fill="black"/>
<path d="M43.66 192.341H36.58V199.421H43.66V192.341Z" fill="black"/>
<path d="M50.74 192.341H43.66V199.421H50.74V192.341Z" fill="black"/>
<path d="M64.9 192.341H57.82V199.421H64.9V192.341Z" fill="black"/>
<path d="M79.06 192.341H71.98V199.421H79.06V192.341Z" fill="black"/>
<path d="M93.22 192.341H86.14V199.421H93.22V192.341Z" fill="black"/>
<path d="M107.38 192.341H100.3V199.421H107.38V192.341Z" fill="black"/>
<path d="M114.46 192.341H107.38V199.421H114.46V192.341Z" fill="black"/>
<path d="M121.54 192.341H114.46V199.421H121.54V192.341Z" fill="black"/>
<path d="M156.94 192.341H149.86V199.421H156.94V192.341Z" fill="black"/>
<path d="M178.18 192.341H171.1V199.421H178.18V192.341Z" fill="black"/>
<path d="M185.26 192.341H178.18V199.421H185.26V192.341Z" fill="black"/>
<path d="M192.34 192.341H185.26V199.421H192.34V192.341Z" fill="black"/>
<path d="M199.42 192.341H192.34V199.421H199.42V192.341Z" fill="black"/>
<path d="M206.5 192.341H199.42V199.421H206.5V192.341Z" fill="black"/>
<path d="M213.58 192.341H206.5V199.421H213.58V192.341Z" fill="black"/>
<path d="M22.42 199.42H15.34V206.5H22.42V199.42Z" fill="black"/>
<path d="M36.58 199.42H29.5V206.5H36.58V199.42Z" fill="black"/>
<path d="M43.66 199.42H36.58V206.5H43.66V199.42Z" fill="black"/>
<path d="M50.74 199.42H43.66V206.5H50.74V199.42Z" fill="black"/>
<path d="M64.9 199.42H57.82V206.5H64.9V199.42Z" fill="black"/>
<path d="M86.14 199.42H79.06V206.5H86.14V199.42Z" fill="black"/>
<path d="M100.3 199.42H93.22V206.5H100.3V199.42Z" fill="black"/>
<path d="M107.38 199.42H100.3V206.5H107.38V199.42Z" fill="black"/>
<path d="M156.94 199.42H149.86V206.5H156.94V199.42Z" fill="black"/>
<path d="M164.02 199.42H156.94V206.5H164.02V199.42Z" fill="black"/>
<path d="M192.34 199.42H185.26V206.5H192.34V199.42Z" fill="black"/>
<path d="M199.42 199.42H192.34V206.5H199.42V199.42Z" fill="black"/>
<path d="M206.5 199.42H199.42V206.5H206.5V199.42Z" fill="black"/>
<path d="M220.66 199.42H213.58V206.5H220.66V199.42Z" fill="black"/>
<path d="M22.42 206.5H15.34V213.58H22.42V206.5Z" fill="black"/>
<path d="M64.9 206.5H57.82V213.58H64.9V206.5Z" fill="black"/>
<path d="M79.06 206.5H71.98V213.58H79.06V206.5Z" fill="black"/>
<path d="M86.14 206.5H79.06V213.58H86.14V206.5Z" fill="black"/>
<path d="M100.3 206.5H93.22V213.58H100.3V206.5Z" fill="black"/>
<path d="M114.46 206.5H107.38V213.58H114.46V206.5Z" fill="black"/>
<path d="M121.54 206.5H114.46V213.58H121.54V206.5Z" fill="black"/>
<path d="M128.62 206.5H121.54V213.58H128.62V206.5Z" fill="black"/>
<path d="M142.78 206.5H135.7V213.58H142.78V206.5Z" fill="black"/>
<path d="M156.94 206.5H149.86V213.58H156.94V206.5Z" fill="black"/>
<path d="M164.02 206.5H156.94V213.58H164.02V206.5Z" fill="black"/>
<path d="M185.26 206.5H178.18V213.58H185.26V206.5Z" fill="black"/>
<path d="M213.58 206.5H206.5V213.58H213.58V206.5Z" fill="black"/>
<path d="M22.42 213.58H15.34V220.66H22.42V213.58Z" fill="black"/>
<path d="M29.5 213.58H22.42V220.66H29.5V213.58Z" fill="black"/>
<path d="M36.58 213.58H29.5V220.66H36.58V213.58Z" fill="black"/>
<path d="M43.66 213.58H36.58V220.66H43.66V213.58Z" fill="black"/>
<path d="M50.74 213.58H43.66V220.66H50.74V213.58Z" fill="black"/>
<path d="M57.82 213.58H50.74V220.66H57.82V213.58Z" fill="black"/>
<path d="M64.9 213.58H57.82V220.66H64.9V213.58Z" fill="black"/>
<path d="M79.06 213.58H71.98V220.66H79.06V213.58Z" fill="black"/>
<path d="M93.22 213.58H86.14V220.66H93.22V213.58Z" fill="black"/>
<path d="M128.62 213.58H121.54V220.66H128.62V213.58Z" fill="black"/>
<path d="M142.78 213.58H135.7V220.66H142.78V213.58Z" fill="black"/>
<path d="M164.02 213.58H156.94V220.66H164.02V213.58Z" fill="black"/>
<path d="M171.1 213.58H164.02V220.66H171.1V213.58Z" fill="black"/>
<path d="M185.26 213.58H178.18V220.66H185.26V213.58Z" fill="black"/>
<path d="M192.34 213.58H185.26V220.66H192.34V213.58Z" fill="black"/>
<path d="M213.58 213.58H206.5V220.66H213.58V213.58Z" fill="black"/>
</svg>
