<svg width="597" height="412" viewBox="0 0 597 412" fill="none" xmlns="http://www.w3.org/2000/svg">
<rect x="471.374" y="104.503" width="125.626" height="257.922" fill="#68C4D9" fill-opacity="0.47"/>
<rect x="2.22351" y="113.396" width="27.7933" height="30.0168" fill="#68C4D9"/>
<path d="M16.5819 135.631C16.4631 135.569 16.3635 135.468 16.2957 135.342C15.1927 133.588 14.0814 131.84 12.9843 130.08C12.5665 129.405 12.3135 128.618 12.2506 127.799C12.0654 125.664 13.0924 123.611 14.8342 122.764C16.5249 121.941 18.1218 122.192 19.5514 123.509C19.9824 123.902 20.34 124.388 20.6037 124.937C20.8673 125.487 21.0318 126.089 21.0877 126.71C21.2298 127.958 20.939 129.219 20.2756 130.232C19.2078 131.922 18.1392 133.615 17.0699 135.311C17.0004 135.45 16.8947 135.562 16.7671 135.631H16.5819ZM18.1551 127.312C18.1562 126.984 18.0709 126.662 17.9099 126.388C17.7488 126.114 17.5193 125.9 17.2501 125.772C16.9809 125.644 16.6841 125.609 16.3969 125.67C16.1098 125.731 15.8452 125.886 15.6365 126.116C15.4277 126.346 15.284 126.64 15.2236 126.961C15.1632 127.283 15.1886 127.617 15.2968 127.922C15.4049 128.227 15.591 128.489 15.8315 128.676C16.0719 128.862 16.3562 128.965 16.6484 128.97C16.8443 128.973 17.0388 128.932 17.2206 128.85C17.4025 128.768 17.5681 128.647 17.7081 128.493C17.8481 128.339 17.9596 128.155 18.0363 127.952C18.113 127.75 18.1534 127.532 18.1551 127.312V127.312Z" fill="white"/>
<rect x="37.7988" y="113.396" width="27.7933" height="30.0168" fill="#68C4D9"/>
<path d="M51.5896 135.631C51.4559 135.569 51.3439 135.468 51.2677 135.342C50.0268 133.588 48.7766 131.84 47.5424 130.08C47.0723 129.405 46.7877 128.618 46.7169 127.799C46.5085 125.664 47.6639 123.611 49.6234 122.764C51.5255 121.941 53.322 122.192 54.9303 123.509C55.4152 123.902 55.8175 124.388 56.1141 124.937C56.4107 125.487 56.5958 126.089 56.6587 126.71C56.8185 127.958 56.4914 129.219 55.745 130.232C54.5438 131.922 53.3416 133.615 52.1386 135.311C52.0604 135.45 51.9415 135.562 51.798 135.631H51.5896ZM53.3594 127.312C53.3607 126.984 53.2647 126.662 53.0836 126.388C52.9024 126.114 52.6442 125.9 52.3413 125.772C52.0385 125.644 51.7045 125.609 51.3815 125.67C51.0585 125.731 50.7609 125.886 50.526 126.116C50.2911 126.346 50.1295 126.64 50.0615 126.961C49.9935 127.283 50.0222 127.617 50.1438 127.922C50.2655 128.227 50.4748 128.489 50.7454 128.676C51.0159 128.862 51.3357 128.965 51.6644 128.97C51.8848 128.973 52.1036 128.932 52.3082 128.85C52.5127 128.768 52.6991 128.647 52.8566 128.493C53.0141 128.339 53.1395 128.155 53.2258 127.952C53.3121 127.75 53.3575 127.532 53.3594 127.312V127.312Z" fill="white"/>
<rect x="2.22351" y="148.972" width="27.7933" height="30.0168" fill="#68C4D9"/>
<path d="M16.5819 170.095C16.4631 170.032 16.3635 169.931 16.2957 169.805C15.1927 168.051 14.0814 166.303 12.9843 164.544C12.5665 163.868 12.3135 163.082 12.2506 162.262C12.0654 160.128 13.0924 158.075 14.8342 157.228C16.5249 156.404 18.1218 156.655 19.5514 157.972C19.9824 158.366 20.34 158.851 20.6037 159.401C20.8673 159.95 21.0318 160.553 21.0877 161.174C21.2298 162.421 20.939 163.683 20.2756 164.696C19.2078 166.386 18.1392 168.078 17.0699 169.775C17.0004 169.913 16.8947 170.025 16.7671 170.095H16.5819ZM18.1551 161.775C18.1562 161.447 18.0709 161.126 17.9099 160.852C17.7488 160.578 17.5193 160.363 17.2501 160.235C16.9809 160.108 16.6841 160.072 16.3969 160.133C16.1098 160.194 15.8452 160.35 15.6365 160.58C15.4277 160.809 15.284 161.103 15.2236 161.425C15.1632 161.746 15.1886 162.08 15.2968 162.385C15.4049 162.69 15.591 162.952 15.8315 163.139C16.0719 163.326 16.3562 163.428 16.6484 163.434C16.8443 163.436 17.0388 163.395 17.2206 163.313C17.4025 163.232 17.5681 163.11 17.7081 162.956C17.8481 162.802 17.9596 162.618 18.0363 162.416C18.113 162.213 18.1534 161.996 18.1551 161.775V161.775Z" fill="white"/>
<rect x="37.7988" y="148.972" width="27.7933" height="30.0168" fill="#68C4D9"/>
<path d="M51.5896 170.095C51.4559 170.032 51.3439 169.931 51.2677 169.805C50.0268 168.051 48.7766 166.303 47.5424 164.544C47.0723 163.868 46.7877 163.082 46.7169 162.262C46.5085 160.128 47.6639 158.075 49.6234 157.228C51.5255 156.404 53.322 156.655 54.9303 157.972C55.4152 158.366 55.8175 158.851 56.1141 159.401C56.4107 159.95 56.5958 160.553 56.6587 161.174C56.8185 162.421 56.4914 163.683 55.745 164.696C54.5438 166.386 53.3416 168.078 52.1386 169.775C52.0604 169.913 51.9415 170.025 51.798 170.095H51.5896ZM53.3594 161.775C53.3607 161.447 53.2647 161.126 53.0836 160.852C52.9024 160.578 52.6442 160.363 52.3413 160.235C52.0385 160.108 51.7045 160.072 51.3815 160.133C51.0585 160.194 50.7609 160.35 50.526 160.58C50.2911 160.809 50.1295 161.103 50.0615 161.425C49.9935 161.746 50.0222 162.08 50.1438 162.385C50.2655 162.69 50.4748 162.952 50.7454 163.139C51.0159 163.326 51.3357 163.428 51.6644 163.434C51.8848 163.436 52.1036 163.395 52.3082 163.313C52.5127 163.232 52.6991 163.11 52.8566 162.956C53.0141 162.802 53.1395 162.618 53.2258 162.416C53.3121 162.213 53.3575 161.996 53.3594 161.775V161.775Z" fill="white"/>
<rect x="346.86" y="97.8325" width="27.7933" height="30.0168" fill="#68C4D9"/>
<path d="M360.651 118.955C360.517 118.893 360.405 118.792 360.329 118.666C359.088 116.911 357.838 115.164 356.604 113.404C356.134 112.729 355.849 111.942 355.778 111.123C355.57 108.988 356.725 106.935 358.685 106.088C360.587 105.265 362.383 105.516 363.992 106.832C364.477 107.226 364.879 107.712 365.176 108.261C365.472 108.81 365.657 109.413 365.72 110.034C365.88 111.282 365.553 112.543 364.806 113.556C363.605 115.246 362.403 116.939 361.2 118.635C361.122 118.774 361.003 118.885 360.859 118.955H360.651ZM362.421 110.636C362.422 110.307 362.326 109.986 362.145 109.712C361.964 109.438 361.706 109.223 361.403 109.096C361.1 108.968 360.766 108.932 360.443 108.994C360.12 109.055 359.822 109.21 359.587 109.44C359.353 109.67 359.191 109.964 359.123 110.285C359.055 110.606 359.084 110.94 359.205 111.245C359.327 111.551 359.536 111.813 359.807 111.999C360.077 112.186 360.397 112.288 360.726 112.294C360.946 112.297 361.165 112.256 361.37 112.174C361.574 112.092 361.761 111.97 361.918 111.816C362.075 111.662 362.201 111.479 362.287 111.276C362.374 111.073 362.419 110.856 362.421 110.636V110.636Z" fill="white"/>
<path d="M233.009 138.388H218.321C216.351 138.388 214.799 139.94 214.799 141.91V156.597C214.799 158.568 216.351 160.12 218.321 160.12H233.009C234.979 160.12 236.531 158.568 236.531 156.597V141.91C236.531 140 234.979 138.388 233.009 138.388ZM225.665 154.627C222.74 154.627 220.292 152.239 220.292 149.254C220.292 146.269 222.68 143.88 225.665 143.88C228.65 143.88 231.038 146.269 231.038 149.254C231.038 152.239 228.591 154.627 225.665 154.627Z" fill="#68C4D9"/>
<path d="M247.099 141.493C247.099 137.97 245.726 134.627 243.218 132.119C240.71 129.611 237.367 128.238 233.844 128.238V130.447C236.77 130.447 239.576 131.582 241.666 133.671C243.755 135.761 244.89 138.507 244.89 141.493H247.099Z" fill="#68C4D9"/>
<path d="M246.442 128.895C243.099 125.552 238.621 123.701 233.844 123.701V125.91C238.024 125.91 241.964 127.522 244.89 130.507C247.815 133.432 249.487 137.373 249.487 141.552H251.696C251.696 136.716 249.845 132.238 246.442 128.895Z" fill="#68C4D9"/>
<path d="M233.844 132.417V134.627C235.695 134.627 237.367 135.343 238.681 136.656C239.994 137.97 240.71 139.642 240.71 141.493H242.92C242.92 139.045 241.964 136.776 240.293 135.104C238.561 133.373 236.292 132.417 233.844 132.417Z" fill="#68C4D9"/>
<path d="M204.709 156.896C204.709 160.419 206.082 163.762 208.59 166.27C211.097 168.778 214.441 170.151 217.963 170.151V167.942C215.038 167.942 212.232 166.807 210.142 164.718C208.052 162.628 206.918 159.882 206.918 156.896H204.709V156.896Z" fill="#68C4D9"/>
<path d="M205.366 169.494C208.709 172.837 213.187 174.688 217.963 174.688V172.479C213.784 172.479 209.843 170.867 206.918 167.882C203.992 164.956 202.321 161.016 202.321 156.836H200.112C200.112 161.672 201.963 166.15 205.366 169.494Z" fill="#68C4D9"/>
<path d="M217.963 165.972V163.762C216.112 163.762 214.441 163.046 213.127 161.733C211.814 160.419 211.097 158.747 211.097 156.896H208.888C208.888 159.344 209.843 161.613 211.515 163.285C213.247 165.016 215.515 165.972 217.963 165.972Z" fill="#68C4D9"/>
<path d="M218.202 127.999C214.679 127.999 211.336 129.372 208.828 131.88C206.321 134.387 204.948 137.731 204.948 141.253H207.157C207.157 138.328 208.291 135.522 210.381 133.432C212.47 131.342 215.217 130.208 218.202 130.208V127.999Z" fill="#68C4D9"/>
<path d="M205.606 128.656C202.262 131.999 200.411 136.477 200.411 141.253H202.62C202.62 137.074 204.232 133.134 207.218 130.208C210.143 127.283 214.083 125.611 218.263 125.611V123.402C213.427 123.402 208.949 125.253 205.606 128.656Z" fill="#68C4D9"/>
<path d="M209.127 141.254H211.336C211.336 139.403 212.053 137.731 213.366 136.418C214.68 135.104 216.351 134.388 218.202 134.388V132.179C215.754 132.179 213.486 133.134 211.814 134.806C210.082 136.537 209.127 138.806 209.127 141.254Z" fill="#68C4D9"/>
<path d="M233.606 170.39C237.128 170.39 240.472 169.016 242.979 166.509C245.487 164.001 246.86 160.658 246.86 157.135H244.651C244.651 160.061 243.517 162.867 241.427 164.956C239.337 167.046 236.591 168.181 233.606 168.181V170.39V170.39Z" fill="#68C4D9"/>
<path d="M246.203 169.733C249.547 166.389 251.398 161.912 251.398 157.135H249.188C249.188 161.315 247.576 165.255 244.591 168.181C241.666 171.106 237.725 172.778 233.546 172.778V174.987C238.382 174.987 242.86 173.136 246.203 169.733Z" fill="#68C4D9"/>
<path d="M242.681 157.135H240.472C240.472 158.986 239.755 160.658 238.442 161.971C237.128 163.285 235.457 164.001 233.606 164.001V166.21C236.054 166.21 238.322 165.255 239.994 163.583C241.725 161.852 242.681 159.583 242.681 157.135Z" fill="#68C4D9"/>
<path d="M75.0419 11.1173C78.4189 11.1173 81.1564 8.62862 81.1564 5.55866C81.1564 2.4887 78.4189 0 75.0419 0C71.6649 0 68.9274 2.4887 68.9274 5.55866C68.9274 8.62862 71.6649 11.1173 75.0419 11.1173Z" fill="#C4C4C4"/>
<path d="M68.3323 67.9257C68.3323 69.7054 69.8024 71.1509 71.6124 71.1509C73.426 71.1509 74.8939 69.7054 74.8939 67.9257L74.8968 40.8681H76.3575L76.3482 67.9257C76.3482 69.7054 77.8168 71.1509 79.6283 71.1509C81.4397 71.1509 82.9076 69.7054 82.9076 67.9257L82.9219 21.2775H84.3605V38.4679C84.3605 41.9264 88.9485 41.9264 88.9385 38.4679V20.9108C88.9385 17.0906 86.6552 13.3465 82.1095 13.3465L68.9949 13.3408C64.8522 13.3408 62.257 16.6619 62.257 20.8058V38.4686C62.257 41.9018 66.8701 41.9018 66.8701 38.4686V21.2782H68.3388L68.3323 67.9257Z" fill="#C4C4C4"/>
<path d="M73.5808 19.5664H76.2175L77.5358 28.5711L74.8986 31.1289L72.2625 28.5711L73.5808 19.5664Z" fill="white"/>
<path d="M74.24 18.2878L72.9216 17.0094V14.4526H76.8766V17.0094L75.5583 18.2878H74.24Z" fill="white"/>
<path d="M534.187 261.257C537.564 261.257 540.302 258.769 540.302 255.699C540.302 252.629 537.564 250.14 534.187 250.14C530.81 250.14 528.073 252.629 528.073 255.699C528.073 258.769 530.81 261.257 534.187 261.257Z" fill="#F56A65"/>
<path d="M527.478 318.066C527.478 319.846 528.948 321.291 530.758 321.291C532.571 321.291 534.039 319.846 534.039 318.066L534.042 291.008H535.503L535.493 318.066C535.493 319.846 536.962 321.291 538.774 321.291C540.585 321.291 542.053 319.846 542.053 318.066L542.067 271.418H543.506V288.608C543.506 292.067 548.094 292.067 548.084 288.608V271.051C548.084 267.231 545.8 263.487 541.255 263.487L528.14 263.481C523.997 263.481 521.402 266.802 521.402 270.946V288.609C521.402 292.042 526.015 292.042 526.015 288.609V271.418H527.484L527.478 318.066Z" fill="#F56A65"/>
<path d="M133.391 113.396V134.98H165.648V177.952C143.784 177.952 121.92 177.952 100.056 177.952V113.396H133.391ZM111.331 158.919H106.233V164.119H111.331V158.919ZM111.331 127.328H106.233V132.43H111.331V127.328ZM127.214 127.328H122.116V132.43H127.214V127.328ZM111.331 143.124H106.233V148.225H111.331V143.124ZM127.214 143.124H122.116V148.225H127.214V143.124ZM127.214 158.919H122.116V164.119H127.214V158.919ZM152.608 175.303V161.862H143.686V175.303H152.608Z" fill="#C4C4C4"/>
<path d="M138.411 345.749C138.411 348.463 135.973 350.751 132.852 350.751C129.731 350.751 127.293 348.463 127.293 345.749C127.293 343.034 129.731 340.746 132.852 340.746C135.973 340.746 138.411 343.034 138.411 345.749Z" stroke="#F56A65" stroke-width="1.11173"/>
<path d="M132.707 380.502H132.151L132.151 381.058L132.148 408.116C132.148 409.58 130.938 410.785 129.423 410.785C127.911 410.785 126.698 409.58 126.698 408.116C126.698 408.116 126.698 408.116 126.698 408.116L126.705 361.468L126.705 360.912H126.149H124.68H124.124V361.468V378.659C124.124 379.386 123.884 379.882 123.568 380.195C123.247 380.514 122.814 380.678 122.374 380.678C121.933 380.678 121.501 380.514 121.179 380.195C120.864 379.882 120.623 379.386 120.623 378.659V360.996C120.623 359.037 121.236 357.306 122.303 356.073C123.363 354.848 124.894 354.087 126.805 354.087C126.805 354.087 126.805 354.087 126.805 354.087L139.919 354.092H139.92C142.022 354.092 143.571 354.951 144.606 356.235C145.652 357.533 146.193 359.294 146.193 361.101L146.193 378.658L146.193 378.659C146.195 379.395 145.956 379.897 145.643 380.212C145.325 380.532 144.898 380.696 144.463 380.696C144.029 380.696 143.601 380.532 143.282 380.211C142.967 379.895 142.727 379.394 142.727 378.658V361.467V360.912H142.171H140.732H140.176L140.176 361.467L140.162 408.116V408.116C140.162 409.58 138.951 410.785 137.438 410.785C135.925 410.785 134.714 409.58 134.714 408.116C134.714 408.116 134.714 408.116 134.714 408.116L134.724 381.058L134.724 380.502H134.168H132.707Z" stroke="#F56A65" stroke-width="1.11173"/>
<g filter="url(#filter0_d)">
<rect x="516.955" y="132.296" width="31.0999" height="63.9345" rx="4.5163" fill="black"/>
</g>
<path fill-rule="evenodd" clip-rule="evenodd" d="M524.885 133.659H521.329C519.666 133.659 518.318 135.007 518.318 136.67V191.772C518.318 193.435 519.666 194.783 521.329 194.783H543.591C545.254 194.783 546.602 193.435 546.602 191.772V136.67C546.602 135.007 545.254 133.659 543.591 133.659H540.121V134.16C540.121 135.102 539.357 135.866 538.415 135.866H526.591C525.649 135.866 524.885 135.102 524.885 134.16V133.659Z" fill="#F56A65"/>
<path d="M528.347 160.559V165.285C528.347 166.036 528.106 166.632 527.623 167.072C527.144 167.509 526.505 167.728 525.705 167.728C524.895 167.728 524.252 167.513 523.776 167.082C523.3 166.648 523.062 166.047 523.062 165.28V160.559H524.286V165.29C524.286 165.762 524.406 166.123 524.646 166.373C524.885 166.622 525.238 166.747 525.705 166.747C526.65 166.747 527.123 166.248 527.123 165.251V160.559H528.347ZM535.084 166.713C534.828 167.046 534.474 167.299 534.021 167.471C533.567 167.642 533.052 167.728 532.476 167.728C531.883 167.728 531.359 167.594 530.902 167.325C530.445 167.056 530.093 166.672 529.843 166.174C529.597 165.672 529.469 165.087 529.459 164.42V163.866C529.459 162.798 529.715 161.964 530.227 161.365C530.739 160.763 531.453 160.461 532.369 160.461C533.156 160.461 533.781 160.656 534.244 161.044C534.707 161.433 534.986 161.993 535.079 162.725H533.875C533.739 161.873 533.245 161.447 532.393 161.447C531.843 161.447 531.423 161.647 531.135 162.045C530.85 162.44 530.703 163.021 530.693 163.789V164.333C530.693 165.097 530.854 165.691 531.174 166.115C531.498 166.536 531.946 166.747 532.52 166.747C533.148 166.747 533.595 166.604 533.86 166.319V164.935H532.403V164.002H535.084V166.713ZM542.079 164.279C542.079 164.972 541.959 165.581 541.719 166.106C541.48 166.627 541.137 167.029 540.69 167.31C540.246 167.589 539.734 167.728 539.155 167.728C538.582 167.728 538.07 167.589 537.62 167.31C537.173 167.029 536.826 166.629 536.58 166.111C536.337 165.592 536.214 164.995 536.211 164.318V163.92C536.211 163.23 536.333 162.621 536.575 162.093C536.822 161.566 537.166 161.162 537.61 160.884C538.057 160.602 538.569 160.461 539.145 160.461C539.721 160.461 540.231 160.601 540.675 160.879C541.122 161.154 541.467 161.553 541.71 162.074C541.953 162.592 542.076 163.196 542.079 163.886V164.279ZM540.85 163.91C540.85 163.126 540.701 162.526 540.403 162.108C540.108 161.69 539.689 161.481 539.145 161.481C538.614 161.481 538.198 161.69 537.897 162.108C537.599 162.523 537.447 163.11 537.44 163.871V164.279C537.44 165.056 537.591 165.657 537.892 166.081C538.196 166.506 538.617 166.718 539.155 166.718C539.699 166.718 540.117 166.51 540.408 166.096C540.703 165.681 540.85 165.076 540.85 164.279V163.91Z" fill="white"/>
<g filter="url(#filter1_d)">
<rect x="117.844" y="254.586" width="31.0999" height="63.9345" rx="4.5163" stroke="#F56A65" stroke-width="1.11173"/>
</g>
<path fill-rule="evenodd" clip-rule="evenodd" d="M125.773 255.949H122.217C120.555 255.949 119.207 257.297 119.207 258.96V314.063C119.207 315.725 120.555 317.073 122.217 317.073H144.48C146.143 317.073 147.491 315.725 147.491 314.063V258.96C147.491 257.297 146.143 255.949 144.48 255.949H141.009V256.451C141.009 257.393 140.245 258.157 139.303 258.157H127.48C126.537 258.157 125.773 257.393 125.773 256.451V255.949Z" fill="#F56A65" fill-opacity="0.38"/>
<path d="M125.773 255.949H125.885V255.838H125.773V255.949ZM141.009 255.949V255.838H140.898V255.949H141.009ZM122.217 256.06H125.773V255.838H122.217V256.06ZM119.318 258.96C119.318 257.359 120.616 256.06 122.217 256.06V255.838C120.493 255.838 119.095 257.236 119.095 258.96H119.318ZM119.318 314.063V258.96H119.095V314.063H119.318ZM122.217 316.962C120.616 316.962 119.318 315.664 119.318 314.063H119.095C119.095 315.787 120.493 317.185 122.217 317.185V316.962ZM144.48 316.962H122.217V317.185H144.48V316.962ZM147.379 314.063C147.379 315.664 146.081 316.962 144.48 316.962V317.185C146.204 317.185 147.602 315.787 147.602 314.063H147.379ZM147.379 258.96V314.063H147.602V258.96H147.379ZM144.48 256.06C146.081 256.06 147.379 257.359 147.379 258.96H147.602C147.602 257.236 146.204 255.838 144.48 255.838V256.06ZM141.009 256.06H144.48V255.838H141.009V256.06ZM140.898 255.949V256.451H141.12V255.949H140.898ZM140.898 256.451C140.898 257.331 140.184 258.046 139.303 258.046V258.268C140.307 258.268 141.12 257.454 141.12 256.451H140.898ZM139.303 258.046H127.48V258.268H139.303V258.046ZM127.48 258.046C126.599 258.046 125.885 257.331 125.885 256.451H125.662C125.662 257.454 126.476 258.268 127.48 258.268V258.046ZM125.885 256.451V255.949H125.662V256.451H125.885Z" fill="#F56A65"/>
<path d="M129.235 282.85V287.576C129.235 288.327 128.994 288.923 128.512 289.363C128.032 289.8 127.393 290.019 126.593 290.019C125.783 290.019 125.141 289.804 124.664 289.373C124.188 288.939 123.95 288.338 123.95 287.571V282.85H125.175V287.581C125.175 288.053 125.294 288.414 125.534 288.664C125.774 288.913 126.127 289.038 126.593 289.038C127.538 289.038 128.011 288.539 128.011 287.542V282.85H129.235ZM135.972 289.004C135.717 289.337 135.362 289.59 134.909 289.762C134.455 289.933 133.94 290.019 133.364 290.019C132.771 290.019 132.247 289.885 131.79 289.616C131.334 289.347 130.981 288.963 130.731 288.465C130.485 287.963 130.357 287.378 130.348 286.711V286.157C130.348 285.089 130.603 284.255 131.115 283.656C131.627 283.054 132.341 282.752 133.257 282.752C134.044 282.752 134.669 282.947 135.132 283.335C135.595 283.724 135.874 284.284 135.968 285.016H134.763C134.627 284.164 134.133 283.738 133.281 283.738C132.731 283.738 132.312 283.938 132.023 284.336C131.738 284.731 131.591 285.312 131.581 286.08V286.624C131.581 287.388 131.742 287.982 132.062 288.406C132.386 288.827 132.835 289.038 133.408 289.038C134.036 289.038 134.483 288.895 134.748 288.61V287.226H133.291V286.293H135.972V289.004ZM142.967 286.57C142.967 287.263 142.847 287.872 142.608 288.397C142.368 288.918 142.025 289.32 141.578 289.601C141.134 289.88 140.623 290.019 140.043 290.019C139.47 290.019 138.958 289.88 138.508 289.601C138.061 289.32 137.715 288.92 137.469 288.402C137.226 287.883 137.103 287.286 137.099 286.609V286.211C137.099 285.521 137.221 284.912 137.464 284.384C137.71 283.857 138.055 283.453 138.498 283.175C138.945 282.893 139.457 282.752 140.033 282.752C140.61 282.752 141.12 282.892 141.563 283.17C142.01 283.445 142.355 283.844 142.598 284.365C142.841 284.883 142.964 285.487 142.967 286.177V286.57ZM141.738 286.201C141.738 285.417 141.589 284.817 141.291 284.399C140.997 283.981 140.577 283.772 140.033 283.772C139.502 283.772 139.086 283.981 138.785 284.399C138.487 284.814 138.335 285.401 138.328 286.162V286.57C138.328 287.347 138.479 287.948 138.78 288.372C139.084 288.797 139.505 289.009 140.043 289.009C140.587 289.009 141.005 288.801 141.296 288.387C141.591 287.972 141.738 287.367 141.738 286.57V286.201Z" fill="#F56A65"/>
<path d="M502.985 81.0458H499.558L498.907 83H496.829L500.36 73.5155H502.171L505.721 83H503.643L502.985 81.0458ZM500.086 79.4629H502.457L501.265 75.9127L500.086 79.4629ZM506.607 83V73.5155H509.525C510.359 73.5155 511.103 73.7044 511.759 74.0823C512.419 74.4557 512.934 74.9899 513.303 75.6847C513.672 76.3752 513.857 77.1612 513.857 78.0428V78.4792C513.857 79.3608 513.674 80.1447 513.31 80.8308C512.949 81.517 512.439 82.0489 511.779 82.4268C511.119 82.8046 510.374 82.9957 509.544 83H506.607ZM508.561 75.0985V81.4301H509.505C510.27 81.4301 510.854 81.1804 511.258 80.681C511.662 80.1816 511.868 79.4672 511.876 78.5379V78.0363C511.876 77.0722 511.677 76.3426 511.277 75.8476C510.878 75.3482 510.294 75.0985 509.525 75.0985H508.561ZM520.495 81.0458H517.068L516.417 83H514.339L517.869 73.5155H519.68L523.23 83H521.152L520.495 81.0458ZM517.596 79.4629H519.967L518.775 75.9127L517.596 79.4629ZM526.071 79.6583V83H524.116V73.5155H527.816C528.529 73.5155 529.154 73.6458 529.692 73.9064C530.235 74.1669 530.652 74.5382 530.943 75.0203C531.234 75.498 531.38 76.043 531.38 76.6553C531.38 77.5847 531.06 78.3186 530.422 78.8571C529.788 79.3912 528.909 79.6583 527.784 79.6583H526.071ZM526.071 78.0754H527.816C528.333 78.0754 528.726 77.9538 528.995 77.7106C529.269 77.4674 529.406 77.12 529.406 76.6683C529.406 76.2037 529.269 75.828 528.995 75.5414C528.722 75.2548 528.344 75.1071 527.862 75.0985H526.071V78.0754ZM539.867 75.0985H536.962V83H535.008V75.0985H532.142V73.5155H539.867V75.0985ZM545.561 81.0458H542.134L541.483 83H539.405L542.935 73.5155H544.746L548.297 83H546.219L545.561 81.0458ZM542.662 79.4629H545.033L543.841 75.9127L542.662 79.4629ZM549.182 83V73.5155H552.505C553.655 73.5155 554.528 73.737 555.123 74.18C555.718 74.6186 556.016 75.2635 556.016 76.1146C556.016 76.5793 555.896 76.9897 555.657 77.3458C555.419 77.6976 555.086 77.956 554.661 78.121C555.147 78.2426 555.529 78.4879 555.807 78.8571C556.09 79.2262 556.231 79.6778 556.231 80.212C556.231 81.124 555.94 81.8144 555.358 82.2835C554.776 82.7525 553.946 82.9913 552.869 83H549.182ZM551.137 78.8701V81.4301H552.811C553.271 81.4301 553.629 81.3215 553.886 81.1044C554.146 80.8829 554.276 80.5789 554.276 80.1924C554.276 79.3239 553.827 78.8831 552.928 78.8701H551.137ZM551.137 77.4891H552.583C553.569 77.4717 554.061 77.0787 554.061 76.3101C554.061 75.8801 553.936 75.5718 553.684 75.3851C553.436 75.194 553.043 75.0985 552.505 75.0985H551.137V77.4891ZM559.657 81.4301H563.807V83H557.703V73.5155H559.657V81.4301ZM570.64 78.8896H566.888V81.4301H571.291V83H564.933V73.5155H571.278V75.0985H566.888V77.3588H570.64V78.8896ZM502.848 100H500.894V90.5155H502.848V100ZM512.378 100H510.424L506.62 93.7595V100H504.665V90.5155H506.62L510.43 96.769V90.5155H512.378V100ZM521.029 92.0985H518.123V100H516.169V92.0985H513.303V90.5155H521.029V92.0985ZM527.855 95.8896H524.103V98.4301H528.507V100H522.149V90.5155H528.494V92.0985H524.103V94.3588H527.855V95.8896ZM533.164 96.528H531.608V100H529.653V90.5155H533.177C534.298 90.5155 535.162 90.7652 535.77 91.2647C536.378 91.7641 536.682 92.4698 536.682 93.3817C536.682 94.0288 536.541 94.5695 536.259 95.0037C535.981 95.4336 535.557 95.7767 534.988 96.0329L537.04 99.9088V100H534.943L533.164 96.528ZM531.608 94.9451H533.184C533.675 94.9451 534.055 94.8213 534.324 94.5738C534.593 94.3219 534.728 93.9767 534.728 93.5381C534.728 93.0908 534.6 92.739 534.343 92.4828C534.092 92.2266 533.703 92.0985 533.177 92.0985H531.608V94.9451ZM543.88 96.1241H540.128V100H538.174V90.5155H544.349V92.0985H540.128V94.5477H543.88V96.1241ZM549.586 98.0458H546.16L545.509 100H543.431L546.961 90.5155H548.772L552.322 100H550.244L549.586 98.0458ZM546.688 96.4629H549.059L547.867 92.9127L546.688 96.4629ZM560.51 96.8407C560.437 97.8612 560.059 98.6646 559.377 99.2509C558.7 99.8371 557.805 100.13 556.693 100.13C555.477 100.13 554.52 99.7221 553.82 98.9056C553.126 98.0849 552.778 96.9601 552.778 95.5314V94.9516C552.778 94.0396 552.939 93.2362 553.26 92.5414C553.582 91.8466 554.04 91.3146 554.635 90.9455C555.234 90.572 555.929 90.3853 556.719 90.3853C557.814 90.3853 558.695 90.6784 559.364 91.2647C560.033 91.8509 560.419 92.6739 560.523 93.7335H558.569C558.521 93.1212 558.35 92.6782 558.055 92.4046C557.764 92.1267 557.319 91.9877 556.719 91.9877C556.068 91.9877 555.579 92.2222 555.254 92.6912C554.932 93.1559 554.767 93.879 554.758 94.8604V95.577C554.758 96.6018 554.913 97.351 555.221 97.8243C555.534 98.2977 556.024 98.5343 556.693 98.5343C557.297 98.5343 557.746 98.3975 558.042 98.124C558.341 97.846 558.513 97.4183 558.556 96.8407H560.51ZM567.5 95.8896H563.748V98.4301H568.151V100H561.794V90.5155H568.138V92.0985H563.748V94.3588H567.5V95.8896Z" fill="#555555"/>
<path d="M195.76 108.721V99.2362H199.082C200.233 99.2362 201.106 99.4577 201.701 99.9007C202.296 100.339 202.594 100.984 202.594 101.835C202.594 102.3 202.474 102.71 202.235 103.067C201.996 103.418 201.664 103.677 201.239 103.842C201.725 103.963 202.107 104.209 202.385 104.578C202.667 104.947 202.809 105.399 202.809 105.933C202.809 106.845 202.518 107.535 201.936 108.004C201.354 108.473 200.524 108.712 199.447 108.721H195.76ZM197.715 104.591V107.151H199.389C199.849 107.151 200.207 107.042 200.463 106.825C200.724 106.604 200.854 106.3 200.854 105.913C200.854 105.045 200.405 104.604 199.506 104.591H197.715ZM197.715 103.21H199.161C200.146 103.192 200.639 102.799 200.639 102.031C200.639 101.601 200.513 101.293 200.262 101.106C200.014 100.915 199.621 100.819 199.082 100.819H197.715V103.21ZM209.987 104.61H206.235V107.151H210.638V108.721H204.281V99.2362H210.625V100.819H206.235V103.08H209.987V104.61ZM217.139 106.766H213.713L213.062 108.721H210.984L214.514 99.2362H216.325L219.875 108.721H217.797L217.139 106.766ZM214.241 105.184H216.612L215.42 101.633L214.241 105.184ZM228.063 105.561C227.99 106.582 227.612 107.385 226.93 107.972C226.253 108.558 225.358 108.851 224.246 108.851C223.03 108.851 222.073 108.443 221.374 107.626C220.679 106.806 220.331 105.681 220.331 104.252V103.672C220.331 102.76 220.492 101.957 220.813 101.262C221.135 100.567 221.593 100.035 222.188 99.6662C222.787 99.2927 223.482 99.106 224.272 99.106C225.367 99.106 226.248 99.3991 226.917 99.9854C227.586 100.572 227.972 101.395 228.077 102.454H226.122C226.075 101.842 225.903 101.399 225.608 101.125C225.317 100.847 224.872 100.708 224.272 100.708C223.621 100.708 223.132 100.943 222.807 101.412C222.485 101.877 222.32 102.6 222.312 103.581V104.298C222.312 105.323 222.466 106.072 222.774 106.545C223.087 107.018 223.577 107.255 224.246 107.255C224.85 107.255 225.299 107.118 225.595 106.845C225.894 106.567 226.066 106.139 226.109 105.561H228.063ZM237.138 104.193C237.138 105.127 236.973 105.946 236.643 106.649C236.312 107.353 235.839 107.896 235.222 108.278C234.61 108.66 233.907 108.851 233.112 108.851C232.326 108.851 231.625 108.662 231.008 108.284C230.391 107.906 229.913 107.368 229.575 106.669C229.236 105.965 229.064 105.158 229.06 104.246V103.777C229.06 102.843 229.227 102.022 229.562 101.314C229.9 100.602 230.376 100.057 230.988 99.6792C231.605 99.297 232.308 99.106 233.099 99.106C233.889 99.106 234.591 99.297 235.203 99.6792C235.82 100.057 236.295 100.602 236.629 101.314C236.968 102.022 237.138 102.841 237.138 103.77V104.193ZM235.157 103.764C235.157 102.769 234.979 102.013 234.623 101.497C234.267 100.98 233.759 100.721 233.099 100.721C232.443 100.721 231.937 100.978 231.581 101.49C231.225 101.998 231.045 102.745 231.04 103.731V104.193C231.04 105.162 231.218 105.913 231.575 106.447C231.931 106.981 232.443 107.249 233.112 107.249C233.768 107.249 234.271 106.992 234.623 106.48C234.975 105.963 235.153 105.212 235.157 104.226V103.764ZM246.27 108.721H244.316L240.512 102.48V108.721H238.558V99.2362H240.512L244.323 105.49V99.2362H246.27V108.721ZM252.895 106.232C252.895 105.863 252.765 105.581 252.504 105.386C252.244 105.186 251.775 104.977 251.097 104.76C250.42 104.539 249.883 104.322 249.488 104.109C248.411 103.527 247.873 102.743 247.873 101.757C247.873 101.245 248.016 100.789 248.303 100.389C248.594 99.9854 249.008 99.6705 249.547 99.4447C250.09 99.2189 250.698 99.106 251.371 99.106C252.048 99.106 252.652 99.2297 253.182 99.4773C253.711 99.7205 254.122 100.066 254.413 100.513C254.708 100.96 254.856 101.468 254.856 102.037H252.902C252.902 101.603 252.765 101.266 252.491 101.028C252.218 100.784 251.833 100.663 251.338 100.663C250.861 100.663 250.489 100.765 250.224 100.969C249.959 101.169 249.827 101.434 249.827 101.764C249.827 102.072 249.981 102.33 250.289 102.539C250.602 102.747 251.06 102.943 251.664 103.125C252.776 103.46 253.586 103.874 254.094 104.369C254.602 104.864 254.856 105.481 254.856 106.219C254.856 107.04 254.545 107.685 253.924 108.154C253.303 108.619 252.467 108.851 251.416 108.851C250.687 108.851 250.022 108.719 249.423 108.454C248.824 108.184 248.366 107.817 248.049 107.353C247.736 106.888 247.58 106.35 247.58 105.737H249.54C249.54 106.784 250.166 107.307 251.416 107.307C251.881 107.307 252.244 107.214 252.504 107.027C252.765 106.836 252.895 106.571 252.895 106.232Z" fill="#555555"/>
<path d="M527.43 338.677V345.966C527.43 347.177 527.05 348.134 526.29 348.838C525.535 349.543 524.501 349.895 523.189 349.895C521.897 349.895 520.871 349.553 520.111 348.869C519.351 348.185 518.964 347.245 518.949 346.049V338.677H521.229V345.981C521.229 346.705 521.401 347.235 521.745 347.569C522.095 347.898 522.576 348.063 523.189 348.063C524.471 348.063 525.122 347.389 525.142 346.042V338.677H527.43ZM535.037 346.84C535.037 346.409 534.885 346.08 534.581 345.852C534.277 345.619 533.73 345.375 532.94 345.122C532.149 344.864 531.524 344.61 531.063 344.362C529.806 343.683 529.178 342.769 529.178 341.619C529.178 341.021 529.345 340.489 529.679 340.023C530.019 339.551 530.503 339.184 531.131 338.921C531.764 338.657 532.474 338.525 533.259 338.525C534.049 338.525 534.753 338.67 535.372 338.959C535.99 339.242 536.468 339.645 536.808 340.167C537.152 340.689 537.325 341.282 537.325 341.945H535.045C535.045 341.439 534.885 341.046 534.566 340.767C534.247 340.484 533.798 340.342 533.221 340.342C532.664 340.342 532.23 340.461 531.921 340.699C531.612 340.932 531.458 341.241 531.458 341.626C531.458 341.986 531.638 342.287 531.997 342.531C532.362 342.774 532.897 343.002 533.601 343.215C534.898 343.605 535.843 344.088 536.436 344.666C537.028 345.244 537.325 345.963 537.325 346.824C537.325 347.782 536.962 348.534 536.238 349.081C535.513 349.624 534.538 349.895 533.312 349.895C532.461 349.895 531.686 349.74 530.987 349.431C530.287 349.117 529.753 348.689 529.383 348.147C529.018 347.605 528.836 346.976 528.836 346.262H531.123C531.123 347.483 531.853 348.094 533.312 348.094C533.854 348.094 534.277 347.985 534.581 347.767C534.885 347.544 535.037 347.235 535.037 346.84ZM545.532 344.947H541.155V347.911H546.292V349.743H538.875V338.677H546.277V340.524H541.155V343.161H545.532V344.947ZM551.726 345.692H549.91V349.743H547.63V338.677H551.741C553.049 338.677 554.057 338.969 554.766 339.551C555.475 340.134 555.83 340.957 555.83 342.021C555.83 342.776 555.665 343.407 555.336 343.914C555.012 344.415 554.518 344.816 553.854 345.114L556.248 349.636V349.743H553.801L551.726 345.692ZM549.91 343.845H551.749C552.322 343.845 552.765 343.701 553.079 343.412C553.393 343.118 553.55 342.715 553.55 342.204C553.55 341.682 553.401 341.272 553.102 340.973C552.808 340.674 552.354 340.524 551.741 340.524H549.91V343.845Z" fill="#555555"/>
<path d="M171.413 370.824C171.413 370.455 171.283 370.173 171.022 369.977C170.762 369.778 170.293 369.569 169.615 369.352C168.938 369.13 168.401 368.913 168.006 368.701C166.929 368.119 166.391 367.335 166.391 366.349C166.391 365.837 166.534 365.381 166.821 364.981C167.112 364.577 167.526 364.262 168.065 364.036C168.608 363.811 169.216 363.698 169.889 363.698C170.566 363.698 171.17 363.822 171.7 364.069C172.229 364.312 172.64 364.657 172.931 365.105C173.226 365.552 173.374 366.06 173.374 366.629H171.42C171.42 366.195 171.283 365.858 171.009 365.619C170.736 365.376 170.351 365.255 169.856 365.255C169.378 365.255 169.007 365.357 168.742 365.561C168.477 365.761 168.345 366.025 168.345 366.355C168.345 366.664 168.499 366.922 168.807 367.131C169.12 367.339 169.578 367.535 170.182 367.717C171.294 368.051 172.103 368.466 172.612 368.961C173.12 369.456 173.374 370.073 173.374 370.811C173.374 371.632 173.063 372.277 172.442 372.746C171.821 373.21 170.985 373.443 169.934 373.443C169.205 373.443 168.54 373.31 167.941 373.045C167.342 372.776 166.884 372.409 166.567 371.945C166.254 371.48 166.098 370.941 166.098 370.329H168.058C168.058 371.376 168.684 371.899 169.934 371.899C170.399 371.899 170.762 371.806 171.022 371.619C171.283 371.428 171.413 371.163 171.413 370.824ZM181.881 363.828V370.075C181.881 371.113 181.555 371.934 180.904 372.537C180.257 373.141 179.371 373.443 178.246 373.443C177.139 373.443 176.259 373.15 175.608 372.563C174.957 371.977 174.624 371.172 174.611 370.147V363.828H176.566V370.088C176.566 370.709 176.713 371.163 177.009 371.449C177.308 371.732 177.721 371.873 178.246 371.873C179.345 371.873 179.903 371.295 179.92 370.14V363.828H181.881ZM185.438 369.971V373.312H183.484V363.828H187.184C187.896 363.828 188.521 363.958 189.06 364.219C189.602 364.479 190.019 364.851 190.31 365.333C190.601 365.81 190.747 366.355 190.747 366.968C190.747 367.897 190.428 368.631 189.789 369.17C189.155 369.704 188.276 369.971 187.151 369.971H185.438ZM185.438 368.388H187.184C187.7 368.388 188.093 368.266 188.363 368.023C188.636 367.78 188.773 367.432 188.773 366.981C188.773 366.516 188.636 366.141 188.363 365.854C188.089 365.567 187.711 365.42 187.229 365.411H185.438V368.388ZM194.049 369.971V373.312H192.095V363.828H195.795C196.507 363.828 197.133 363.958 197.671 364.219C198.214 364.479 198.631 364.851 198.922 365.333C199.213 365.81 199.358 366.355 199.358 366.968C199.358 367.897 199.039 368.631 198.401 369.17C197.767 369.704 196.887 369.971 195.763 369.971H194.049ZM194.049 368.388H195.795C196.312 368.388 196.705 368.266 196.974 368.023C197.248 367.78 197.385 367.432 197.385 366.981C197.385 366.516 197.248 366.141 196.974 365.854C196.701 365.567 196.323 365.42 195.841 365.411H194.049V368.388ZM208.498 368.785C208.498 369.719 208.332 370.538 208.002 371.241C207.672 371.945 207.199 372.487 206.582 372.87C205.97 373.252 205.267 373.443 204.472 373.443C203.686 373.443 202.984 373.254 202.368 372.876C201.751 372.498 201.273 371.96 200.935 371.261C200.596 370.557 200.424 369.749 200.42 368.837V368.368C200.42 367.435 200.587 366.614 200.922 365.906C201.26 365.194 201.736 364.649 202.348 364.271C202.965 363.889 203.668 363.698 204.459 363.698C205.249 363.698 205.951 363.889 206.563 364.271C207.18 364.649 207.655 365.194 207.989 365.906C208.328 366.614 208.498 367.432 208.498 368.362V368.785ZM206.517 368.355C206.517 367.361 206.339 366.605 205.983 366.088C205.627 365.572 205.119 365.313 204.459 365.313C203.803 365.313 203.297 365.569 202.941 366.082C202.585 366.59 202.405 367.337 202.4 368.323V368.785C202.4 369.754 202.578 370.505 202.935 371.039C203.291 371.573 203.803 371.84 204.472 371.84C205.128 371.84 205.631 371.584 205.983 371.072C206.335 370.555 206.513 369.804 206.517 368.818V368.355ZM213.429 369.841H211.872V373.312H209.918V363.828H213.442C214.562 363.828 215.426 364.078 216.034 364.577C216.642 365.077 216.946 365.782 216.946 366.694C216.946 367.341 216.805 367.882 216.523 368.316C216.245 368.746 215.821 369.089 215.253 369.345L217.305 373.221V373.312H215.207L213.429 369.841ZM211.872 368.258H213.448C213.939 368.258 214.319 368.134 214.588 367.886C214.857 367.634 214.992 367.289 214.992 366.851C214.992 366.403 214.864 366.052 214.608 365.795C214.356 365.539 213.967 365.411 213.442 365.411H211.872V368.258ZM225.252 365.411H222.346V373.312H220.392V365.411H217.526V363.828H225.252V365.411ZM168.449 386.971V390.312H166.495V380.828H170.195C170.907 380.828 171.532 380.958 172.071 381.219C172.614 381.479 173.031 381.851 173.322 382.333C173.613 382.81 173.758 383.355 173.758 383.968C173.758 384.897 173.439 385.631 172.801 386.17C172.166 386.704 171.287 386.971 170.162 386.971H168.449ZM168.449 385.388H170.195C170.712 385.388 171.105 385.266 171.374 385.023C171.648 384.78 171.784 384.432 171.784 383.981C171.784 383.516 171.648 383.141 171.374 382.854C171.1 382.567 170.723 382.42 170.24 382.411H168.449V385.388ZM180.813 386.202H177.061V388.743H181.464V390.312H175.106V380.828H181.451V382.411H177.061V384.671H180.813V386.202ZM186.122 386.841H184.565V390.312H182.611V380.828H186.135C187.255 380.828 188.119 381.078 188.727 381.577C189.335 382.077 189.639 382.782 189.639 383.694C189.639 384.341 189.498 384.882 189.216 385.316C188.938 385.746 188.515 386.089 187.946 386.345L189.998 390.221V390.312H187.9L186.122 386.841ZM184.565 385.258H186.141C186.632 385.258 187.012 385.134 187.281 384.886C187.55 384.634 187.685 384.289 187.685 383.851C187.685 383.403 187.557 383.052 187.301 382.795C187.049 382.539 186.66 382.411 186.135 382.411H184.565V385.258ZM196.049 387.824C196.049 387.455 195.919 387.173 195.658 386.977C195.398 386.778 194.929 386.569 194.251 386.352C193.574 386.13 193.037 385.913 192.642 385.701C191.565 385.119 191.027 384.335 191.027 383.349C191.027 382.837 191.17 382.381 191.457 381.981C191.748 381.577 192.162 381.262 192.701 381.036C193.244 380.811 193.852 380.698 194.525 380.698C195.202 380.698 195.806 380.822 196.336 381.069C196.866 381.312 197.276 381.657 197.567 382.105C197.862 382.552 198.01 383.06 198.01 383.629H196.056C196.056 383.195 195.919 382.858 195.645 382.619C195.372 382.376 194.987 382.255 194.492 382.255C194.015 382.255 193.643 382.357 193.378 382.561C193.113 382.761 192.981 383.025 192.981 383.355C192.981 383.664 193.135 383.922 193.444 384.131C193.756 384.339 194.214 384.535 194.818 384.717C195.93 385.051 196.74 385.466 197.248 385.961C197.756 386.456 198.01 387.073 198.01 387.811C198.01 388.632 197.699 389.277 197.078 389.746C196.457 390.21 195.621 390.443 194.57 390.443C193.841 390.443 193.176 390.31 192.577 390.045C191.978 389.776 191.52 389.409 191.203 388.945C190.89 388.48 190.734 387.941 190.734 387.329H192.694C192.694 388.376 193.32 388.899 194.57 388.899C195.035 388.899 195.398 388.806 195.658 388.619C195.919 388.428 196.049 388.163 196.049 387.824ZM207.13 385.785C207.13 386.719 206.965 387.538 206.634 388.241C206.304 388.945 205.831 389.487 205.214 389.87C204.602 390.252 203.899 390.443 203.104 390.443C202.318 390.443 201.617 390.254 201 389.876C200.383 389.498 199.905 388.96 199.567 388.261C199.228 387.557 199.056 386.749 199.052 385.837V385.368C199.052 384.435 199.219 383.614 199.554 382.906C199.892 382.194 200.368 381.649 200.98 381.271C201.597 380.889 202.3 380.698 203.091 380.698C203.881 380.698 204.583 380.889 205.195 381.271C205.812 381.649 206.287 382.194 206.621 382.906C206.96 383.614 207.13 384.432 207.13 385.362V385.785ZM205.149 385.355C205.149 384.361 204.971 383.605 204.615 383.088C204.259 382.572 203.751 382.313 203.091 382.313C202.435 382.313 201.929 382.569 201.573 383.082C201.217 383.59 201.037 384.337 201.032 385.323V385.785C201.032 386.754 201.21 387.505 201.567 388.039C201.923 388.573 202.435 388.84 203.104 388.84C203.76 388.84 204.263 388.584 204.615 388.072C204.967 387.555 205.145 386.804 205.149 385.818V385.355ZM216.262 390.312H214.308L210.504 384.072V390.312H208.55V380.828H210.504L214.315 387.082V380.828H216.262V390.312Z" fill="#555555"/>
<path d="M120.137 192.094V195.436H118.182V185.951H121.882C122.595 185.951 123.22 186.081 123.758 186.342C124.301 186.602 124.718 186.974 125.009 187.456C125.3 187.934 125.446 188.479 125.446 189.091C125.446 190.02 125.126 190.754 124.488 191.293C123.854 191.827 122.975 192.094 121.85 192.094H120.137ZM120.137 190.511H121.882C122.399 190.511 122.792 190.389 123.061 190.146C123.335 189.903 123.472 189.556 123.472 189.104C123.472 188.639 123.335 188.264 123.061 187.977C122.788 187.69 122.41 187.543 121.928 187.534H120.137V190.511ZM128.748 193.866H132.898V195.436H126.794V185.951H128.748V193.866ZM139.509 193.481H136.083L135.432 195.436H133.354L136.884 185.951H138.695L142.245 195.436H140.167L139.509 193.481ZM136.611 191.898H138.982L137.79 188.348L136.611 191.898ZM150.433 192.276C150.36 193.297 149.982 194.1 149.3 194.686C148.623 195.273 147.728 195.566 146.616 195.566C145.4 195.566 144.443 195.158 143.743 194.341C143.049 193.52 142.701 192.396 142.701 190.967V190.387C142.701 189.475 142.862 188.672 143.183 187.977C143.505 187.282 143.963 186.75 144.558 186.381C145.157 186.008 145.852 185.821 146.642 185.821C147.737 185.821 148.618 186.114 149.287 186.7C149.956 187.286 150.342 188.109 150.446 189.169H148.492C148.444 188.557 148.273 188.114 147.978 187.84C147.687 187.562 147.242 187.423 146.642 187.423C145.991 187.423 145.502 187.658 145.177 188.127C144.855 188.591 144.69 189.315 144.682 190.296V191.013C144.682 192.037 144.836 192.786 145.144 193.26C145.457 193.733 145.947 193.97 146.616 193.97C147.22 193.97 147.669 193.833 147.965 193.559C148.264 193.282 148.436 192.854 148.479 192.276H150.433ZM157.423 191.325H153.671V193.866H158.074V195.436H151.717V185.951H158.061V187.534H153.671V189.794H157.423V191.325Z" fill="#555555"/>
<path d="M30.5487 201.264H27.1223L26.4709 203.218H24.393L27.9236 193.733H29.7345L33.2846 203.218H31.2067L30.5487 201.264ZM27.65 199.681H30.0211L28.829 196.13L27.65 199.681ZM36.0336 203.218H34.1445V196.17H36.0336V203.218ZM34.0338 194.346C34.0338 194.063 34.1271 193.831 34.3139 193.649C34.5049 193.466 34.7633 193.375 35.089 193.375C35.4104 193.375 35.6666 193.466 35.8577 193.649C36.0488 193.831 36.1443 194.063 36.1443 194.346C36.1443 194.632 36.0466 194.867 35.8512 195.049C35.6601 195.232 35.4061 195.323 35.089 195.323C34.772 195.323 34.5158 195.232 34.3204 195.049C34.1293 194.867 34.0338 194.632 34.0338 194.346ZM37.2973 199.642C37.2973 198.543 37.5427 197.668 38.0334 197.016C38.5285 196.365 39.2037 196.039 40.0593 196.039C40.7454 196.039 41.3121 196.296 41.7594 196.808V193.212H43.6485V203.218H41.9483L41.8571 202.469C41.3881 203.055 40.7845 203.348 40.0462 203.348C39.2168 203.348 38.5502 203.022 38.0464 202.371C37.547 201.715 37.2973 200.805 37.2973 199.642ZM39.1799 199.778C39.1799 200.438 39.2949 200.944 39.5251 201.296C39.7553 201.648 40.0897 201.824 40.5283 201.824C41.1102 201.824 41.5206 201.578 41.7594 201.088V198.306C41.5249 197.815 41.1189 197.57 40.5413 197.57C39.6337 197.57 39.1799 198.306 39.1799 199.778ZM48.9249 201.27C48.9249 201.04 48.8098 200.86 48.5796 200.729C48.3538 200.595 47.989 200.475 47.4853 200.371C45.809 200.019 44.9709 199.307 44.9709 198.235C44.9709 197.609 45.2292 197.088 45.746 196.671C46.2672 196.25 46.9468 196.039 47.7849 196.039C48.6795 196.039 49.3939 196.25 49.928 196.671C50.4665 197.092 50.7358 197.64 50.7358 198.313H48.8532C48.8532 198.043 48.7664 197.822 48.5927 197.648C48.419 197.47 48.1475 197.381 47.7784 197.381C47.4614 197.381 47.216 197.453 47.0423 197.596C46.8686 197.739 46.7818 197.922 46.7818 198.143C46.7818 198.352 46.8795 198.521 47.0749 198.651C47.2747 198.777 47.609 198.888 48.0781 198.984C48.5471 199.075 48.9423 199.179 49.2636 199.296C50.2581 199.661 50.7553 200.293 50.7553 201.192C50.7553 201.835 50.4796 202.356 49.928 202.755C49.3765 203.15 48.6643 203.348 47.7914 203.348C47.2008 203.348 46.6754 203.244 46.215 203.035C45.7591 202.823 45.4008 202.534 45.1402 202.169C44.8797 201.8 44.7494 201.403 44.7494 200.977H46.5342C46.5516 201.311 46.6754 201.568 46.9055 201.746C47.1357 201.924 47.444 202.013 47.8305 202.013C48.191 202.013 48.4624 201.945 48.6448 201.811C48.8315 201.672 48.9249 201.492 48.9249 201.27Z" fill="#555555"/>
<line x1="52.456" y1="215.764" x2="106.931" y2="285.803" stroke="#F56A65" stroke-width="3.3352" stroke-dasharray="22.23 22.23"/>
<line x1="178.659" y1="290.212" x2="502.076" y2="189.842" stroke="#F56A65" stroke-width="2.22346" stroke-dasharray="22.23 22.23"/>
<path d="M295.428 274.329C295.76 274.229 296.003 274.056 296.156 273.81C296.309 273.565 296.343 273.289 296.26 272.983L297.951 272.473C298.084 272.932 298.086 273.39 297.956 273.846C297.825 274.298 297.577 274.695 297.212 275.036C296.851 275.372 296.412 275.617 295.897 275.773C294.932 276.063 294.079 275.987 293.338 275.544C292.595 275.096 292.061 274.332 291.735 273.251L291.699 273.132C291.386 272.093 291.413 271.18 291.779 270.394C292.145 269.608 292.811 269.069 293.776 268.779C294.62 268.524 295.368 268.562 296.021 268.891C296.676 269.215 297.128 269.775 297.377 270.571L295.687 271.08C295.574 270.734 295.38 270.483 295.107 270.33C294.833 270.172 294.525 270.145 294.184 270.247C293.764 270.374 293.493 270.624 293.369 270.996C293.248 271.364 293.292 271.891 293.498 272.577L293.555 272.764C293.764 273.458 294.02 273.925 294.324 274.165C294.627 274.405 294.995 274.459 295.428 274.329ZM298.366 271.144C298.165 270.474 298.114 269.839 298.214 269.237C298.314 268.636 298.561 268.119 298.957 267.687C299.357 267.253 299.878 266.94 300.518 266.747C301.429 266.473 302.255 266.528 302.996 266.912C303.742 267.295 304.293 267.954 304.647 268.891L304.799 269.349C305.111 270.384 305.072 271.303 304.684 272.105C304.294 272.902 303.612 273.448 302.639 273.741C301.666 274.034 300.795 273.957 300.024 273.508C299.259 273.059 298.714 272.298 298.391 271.225L298.366 271.144ZM300.208 270.732C300.401 271.372 300.67 271.826 301.014 272.095C301.356 272.359 301.752 272.423 302.201 272.288C302.638 272.156 302.929 271.887 303.074 271.481C303.218 271.07 303.179 270.497 302.957 269.761C302.768 269.133 302.498 268.683 302.149 268.412C301.8 268.141 301.403 268.072 300.958 268.206C300.517 268.339 300.228 268.615 300.091 269.032C299.952 269.446 299.992 270.012 300.208 270.732ZM306.531 265.071L306.822 265.834C307.122 265.086 307.678 264.589 308.489 264.345C309.204 264.13 309.8 264.179 310.275 264.494C310.751 264.809 311.119 265.383 311.379 266.216L312.693 270.576L310.891 271.119L309.59 266.803C309.475 266.42 309.308 266.169 309.091 266.048C308.872 265.924 308.569 265.92 308.182 266.036C307.675 266.189 307.359 266.52 307.236 267.029L308.67 271.788L306.868 272.331L304.834 265.582L306.531 265.071ZM314.502 270.031L312.867 264.604L311.863 264.907L311.464 263.585L312.468 263.282L312.374 262.97C312.127 262.12 312.19 261.388 312.564 260.777C312.94 260.16 313.596 259.711 314.532 259.429C315.093 259.26 315.812 259.177 316.689 259.18L316.876 260.75C316.432 260.752 316.093 260.77 315.858 260.805C315.622 260.835 315.376 260.889 315.118 260.967C314.278 261.22 313.97 261.718 314.194 262.463L314.277 262.737L315.606 262.337L316.004 263.659L314.675 264.059L316.311 269.486L314.502 270.031ZM320.346 268.27L318.537 268.815L316.504 262.066L318.312 261.521L320.346 268.27ZM320.543 264.475C320.231 263.44 320.225 262.532 320.525 261.752C320.83 260.971 321.4 260.455 322.235 260.203C322.975 259.98 323.628 260.06 324.192 260.443L324.075 259.785L325.71 259.292L327.675 265.816C327.853 266.407 327.873 266.961 327.734 267.479C327.6 267.996 327.324 268.442 326.906 268.817C326.488 269.192 325.953 269.478 325.3 269.675C324.806 269.824 324.293 269.87 323.763 269.812C323.234 269.758 322.802 269.611 322.467 269.372L322.935 268.034C323.536 268.402 324.156 268.489 324.796 268.296C325.275 268.152 325.608 267.911 325.796 267.573C325.986 267.239 326.01 266.837 325.869 266.367L325.76 266.006C325.485 266.601 325.009 267.001 324.332 267.205C323.521 267.449 322.769 267.331 322.075 266.851C321.384 266.365 320.881 265.598 320.565 264.55L320.543 264.475ZM322.385 264.063C322.569 264.674 322.836 265.118 323.187 265.393C323.536 265.664 323.925 265.735 324.353 265.606C324.902 265.441 325.233 265.117 325.346 264.634L324.491 261.796C324.126 261.457 323.675 261.368 323.139 261.53C322.706 261.66 322.418 261.939 322.275 262.368C322.137 262.795 322.173 263.36 322.385 264.063ZM332.969 263.718C332.687 264.392 332.153 264.848 331.367 265.085C330.643 265.303 330.028 265.262 329.52 264.961C329.016 264.659 328.639 264.108 328.389 263.308L327.057 258.886L328.859 258.343L330.173 262.703C330.385 263.406 330.811 263.66 331.451 263.467C332.062 263.283 332.418 262.945 332.519 262.452L331.08 257.674L332.888 257.129L334.922 263.878L333.225 264.389L332.969 263.718ZM338.55 257.267C338.294 257.308 338.073 257.356 337.886 257.413C337.204 257.618 336.826 257.983 336.753 258.509L338.084 262.925L336.282 263.468L334.248 256.719L335.951 256.206L336.243 256.996C336.418 256.267 336.826 255.807 337.466 255.614C337.666 255.553 337.861 255.524 338.052 255.526L338.55 257.267ZM344.67 260.94C344.538 260.803 344.417 260.62 344.307 260.39C344.017 261.008 343.523 261.422 342.824 261.632C342.163 261.832 341.557 261.806 341.005 261.555C340.457 261.303 340.096 260.885 339.92 260.303C339.705 259.588 339.803 258.96 340.216 258.418C340.633 257.875 341.342 257.451 342.343 257.144L343.172 256.894L343.056 256.508C342.962 256.196 342.806 255.971 342.587 255.833C342.373 255.693 342.093 255.675 341.748 255.779C341.444 255.871 341.227 256.016 341.096 256.214C340.97 256.411 340.945 256.636 341.021 256.89L339.219 257.433C339.101 257.042 339.112 256.644 339.253 256.239C339.394 255.833 339.657 255.471 340.041 255.151C340.424 254.827 340.89 254.582 341.439 254.416C342.271 254.166 342.993 254.177 343.606 254.451C344.222 254.719 344.644 255.231 344.872 255.988L345.754 258.913C345.951 259.552 346.186 260.009 346.46 260.285L346.492 260.391L344.67 260.94ZM342.802 260.136C343.068 260.055 343.296 259.923 343.485 259.739C343.674 259.551 343.792 259.341 343.84 259.109L343.49 257.949L342.816 258.152C341.914 258.423 341.528 258.88 341.658 259.521L341.683 259.629C341.751 259.854 341.886 260.015 342.088 260.113C342.289 260.211 342.528 260.218 342.802 260.136ZM347.233 250.997L347.733 252.656L348.886 252.309L349.285 253.631L348.131 253.978L349.146 257.346C349.221 257.596 349.323 257.76 349.451 257.84C349.579 257.919 349.778 257.918 350.049 257.836C350.248 257.776 350.421 257.708 350.566 257.633L350.977 258.999C350.656 259.214 350.309 259.377 349.935 259.49C348.671 259.871 347.834 259.427 347.424 258.158L346.329 254.522L345.343 254.819L344.945 253.496L345.93 253.199L345.43 251.54L347.233 250.997ZM353.826 258.181L352.018 258.726L349.984 251.978L351.793 251.433L353.826 258.181ZM349.352 250.263C349.271 249.993 349.293 249.744 349.419 249.515C349.549 249.285 349.77 249.124 350.082 249.03C350.39 248.937 350.662 248.95 350.897 249.07C351.133 249.189 351.291 249.384 351.373 249.654C351.455 249.929 351.43 250.182 351.295 250.413C351.165 250.642 350.948 250.803 350.644 250.894C350.341 250.986 350.069 250.972 349.829 250.854C349.594 250.735 349.435 250.538 349.352 250.263ZM354.001 254.38C353.799 253.711 353.748 253.075 353.848 252.473C353.948 251.872 354.196 251.355 354.592 250.923C354.992 250.489 355.512 250.176 356.152 249.983C357.063 249.709 357.889 249.764 358.631 250.148C359.377 250.531 359.927 251.191 360.282 252.127L360.433 252.585C360.745 253.62 360.707 254.539 360.318 255.341C359.928 256.139 359.247 256.684 358.274 256.977C357.301 257.27 356.429 257.193 355.659 256.745C354.893 256.295 354.349 255.534 354.025 254.461L354.001 254.38ZM355.843 253.968C356.036 254.608 356.304 255.063 356.648 255.331C356.991 255.595 357.387 255.659 357.836 255.524C358.272 255.392 358.563 255.123 358.708 254.717C358.852 254.306 358.813 253.733 358.591 252.997C358.402 252.369 358.133 251.919 357.784 251.648C357.434 251.377 357.037 251.308 356.592 251.443C356.151 251.575 355.863 251.851 355.725 252.268C355.587 252.682 355.626 253.249 355.843 253.968ZM362.165 248.307L362.456 249.07C362.757 248.322 363.313 247.826 364.123 247.581C364.839 247.366 365.434 247.415 365.91 247.73C366.386 248.045 366.754 248.619 367.014 249.452L368.328 253.812L366.525 254.355L365.225 250.039C365.109 249.656 364.943 249.405 364.725 249.284C364.506 249.16 364.203 249.156 363.817 249.272C363.309 249.425 362.994 249.756 362.871 250.265L364.305 255.024L362.502 255.567L360.469 248.819L362.165 248.307Z" fill="#F56A65"/>
<path d="M333.284 145.715L331.396 145.648L331.645 138.604L333.533 138.671L333.284 145.715ZM331.598 136.777C331.608 136.495 331.71 136.266 331.903 136.091C332.1 135.915 332.362 135.833 332.687 135.845C333.008 135.856 333.261 135.956 333.446 136.145C333.63 136.334 333.718 136.57 333.708 136.852C333.697 137.138 333.592 137.369 333.39 137.545C333.192 137.72 332.935 137.802 332.619 137.791C332.302 137.78 332.049 137.68 331.86 137.491C331.675 137.302 331.588 137.064 331.598 136.777ZM336.82 138.787L336.85 139.603C337.376 138.991 338.062 138.7 338.908 138.73C339.654 138.756 340.202 138.995 340.551 139.446C340.9 139.898 341.064 140.56 341.042 141.432L340.881 145.983L339 145.916L339.159 141.411C339.173 141.012 339.096 140.72 338.929 140.536C338.762 140.348 338.476 140.247 338.073 140.232C337.543 140.214 337.138 140.425 336.858 140.867L336.682 145.835L334.801 145.768L335.049 138.724L336.82 138.787ZM344.876 137.337L344.814 139.069L346.019 139.111L345.97 140.491L344.766 140.449L344.642 143.964C344.633 144.225 344.676 144.413 344.772 144.53C344.868 144.646 345.057 144.709 345.339 144.719C345.547 144.726 345.732 144.718 345.894 144.693L345.843 146.119C345.47 146.218 345.089 146.261 344.698 146.248C343.379 146.201 342.729 145.511 342.75 144.178L342.884 140.383L341.856 140.346L341.904 138.966L342.933 139.002L342.994 137.271L344.876 137.337ZM350.056 146.437C349.023 146.4 348.192 146.054 347.563 145.397C346.939 144.741 346.646 143.885 346.683 142.831L346.689 142.648C346.714 141.941 346.873 141.314 347.166 140.768C347.459 140.218 347.861 139.802 348.37 139.52C348.885 139.234 349.463 139.103 350.105 139.125C351.069 139.159 351.815 139.49 352.345 140.117C352.879 140.744 353.126 141.615 353.087 142.731L353.06 143.499L348.575 143.341C348.619 143.803 348.788 144.178 349.082 144.467C349.381 144.755 349.764 144.908 350.233 144.924C350.958 144.95 351.533 144.707 351.96 144.197L352.848 145.264C352.552 145.654 352.159 145.953 351.669 146.161C351.179 146.366 350.642 146.457 350.056 146.437ZM350.045 140.648C349.672 140.635 349.363 140.75 349.12 140.994C348.881 141.237 348.721 141.592 348.639 142.059L351.256 142.151L351.262 142.001C351.268 141.584 351.166 141.259 350.957 141.026C350.748 140.788 350.444 140.662 350.045 140.648ZM358.176 141.307C357.921 141.263 357.696 141.238 357.501 141.231C356.789 141.206 356.314 141.43 356.075 141.904L355.913 146.513L354.031 146.447L354.28 139.403L356.057 139.466L356.08 140.307C356.48 139.674 357.014 139.369 357.683 139.393C357.891 139.4 358.085 139.435 358.266 139.498L358.176 141.307ZM362.787 146.756C362.707 146.583 362.651 146.371 362.621 146.117C362.147 146.609 361.546 146.842 360.817 146.816C360.127 146.792 359.561 146.572 359.119 146.157C358.682 145.742 358.474 145.23 358.496 144.623C358.522 143.876 358.818 143.313 359.383 142.933C359.953 142.554 360.76 142.38 361.807 142.413L362.672 142.443L362.687 142.039C362.698 141.714 362.623 141.451 362.46 141.249C362.302 141.048 362.043 140.941 361.683 140.929C361.366 140.917 361.114 140.985 360.926 141.13C360.743 141.276 360.647 141.481 360.637 141.746L358.756 141.679C358.77 141.271 358.909 140.898 359.173 140.56C359.437 140.221 359.803 139.963 360.27 139.784C360.737 139.6 361.257 139.519 361.83 139.539C362.698 139.569 363.378 139.813 363.87 140.269C364.367 140.721 364.601 141.342 364.574 142.132L364.466 145.185C364.447 145.854 364.522 146.363 364.692 146.712L364.688 146.823L362.787 146.756ZM361.278 145.392C361.555 145.402 361.814 145.35 362.052 145.237C362.291 145.119 362.471 144.958 362.591 144.754L362.634 143.543L361.93 143.518C360.989 143.485 360.476 143.793 360.392 144.442L360.382 144.552C360.373 144.787 360.449 144.983 360.609 145.14C360.768 145.298 360.991 145.382 361.278 145.392ZM368.832 145.581C369.179 145.593 369.465 145.507 369.688 145.324C369.912 145.141 370.034 144.891 370.054 144.574L371.818 144.636C371.797 145.114 371.651 145.547 371.381 145.938C371.111 146.324 370.749 146.619 370.294 146.825C369.843 147.026 369.349 147.117 368.811 147.098C367.804 147.063 367.021 146.716 366.462 146.057C365.903 145.395 365.644 144.499 365.684 143.371L365.688 143.247C365.726 142.162 366.045 141.306 366.645 140.68C367.245 140.054 368.049 139.758 369.056 139.794C369.937 139.825 370.633 140.102 371.145 140.624C371.661 141.142 371.909 141.817 371.888 142.651L370.124 142.589C370.128 142.224 370.026 141.925 369.817 141.691C369.608 141.454 369.325 141.329 368.969 141.316C368.531 141.301 368.193 141.449 367.956 141.763C367.724 142.072 367.595 142.584 367.57 143.3L367.563 143.496C367.537 144.22 367.63 144.745 367.84 145.07C368.05 145.394 368.381 145.565 368.832 145.581ZM375.368 138.413L375.307 140.145L376.512 140.187L376.463 141.567L375.259 141.525L375.135 145.04C375.125 145.301 375.169 145.489 375.265 145.605C375.36 145.722 375.549 145.785 375.831 145.795C376.04 145.802 376.225 145.794 376.386 145.769L376.336 147.195C375.963 147.294 375.581 147.337 375.191 147.324C373.872 147.277 373.222 146.587 373.243 145.254L373.377 141.458L372.349 141.422L372.397 140.042L373.426 140.078L373.487 138.347L375.368 138.413ZM379.297 147.338L377.409 147.271L377.657 140.228L379.545 140.294L379.297 147.338ZM377.611 138.401C377.621 138.119 377.723 137.89 377.916 137.714C378.113 137.539 378.374 137.457 378.7 137.468C379.021 137.48 379.274 137.58 379.458 137.769C379.643 137.958 379.73 138.193 379.72 138.475C379.71 138.762 379.604 138.993 379.403 139.168C379.205 139.344 378.948 139.426 378.631 139.415C378.314 139.403 378.062 139.303 377.873 139.114C377.688 138.925 377.601 138.687 377.611 138.401ZM380.686 143.796C380.711 143.097 380.867 142.479 381.156 141.942C381.444 141.404 381.845 140.995 382.359 140.713C382.878 140.431 383.471 140.302 384.139 140.326C385.09 140.36 385.854 140.678 386.433 141.28C387.015 141.883 387.324 142.685 387.358 143.686L387.354 144.168C387.316 145.248 386.984 146.106 386.357 146.74C385.731 147.37 384.91 147.667 383.895 147.631C382.879 147.595 382.079 147.241 381.494 146.568C380.914 145.896 380.644 145 380.683 143.88L380.686 143.796ZM382.563 143.999C382.539 144.667 382.647 145.184 382.886 145.548C383.126 145.909 383.48 146.097 383.948 146.114C384.404 146.13 384.766 145.969 385.034 145.631C385.303 145.288 385.451 144.733 385.478 143.965C385.501 143.309 385.391 142.797 385.147 142.428C384.904 142.059 384.55 141.866 384.086 141.849C383.626 141.833 383.263 142.001 382.999 142.352C382.735 142.699 382.589 143.248 382.563 143.999ZM390.371 140.676L390.401 141.492C390.927 140.881 391.613 140.59 392.459 140.62C393.206 140.646 393.754 140.885 394.103 141.336C394.452 141.787 394.615 142.449 394.593 143.322L394.433 147.872L392.551 147.806L392.71 143.301C392.724 142.902 392.648 142.61 392.48 142.426C392.313 142.237 392.028 142.136 391.624 142.122C391.095 142.103 390.69 142.315 390.409 142.757L390.234 147.724L388.352 147.658L388.601 140.614L390.371 140.676Z" fill="#68C4D9"/>
<path d="M51.6456 84.5996H47.8935V87.1401H52.297V88.71H45.9393V79.2255H52.284V80.8084H47.8935V83.0688H51.6456V84.5996ZM55.997 79.2255L58.4333 86.1043L60.8565 79.2255H63.4231V88.71H61.4623V86.1174L61.6577 81.6422L59.0977 88.71H57.7558L55.2023 81.6487L55.3977 86.1174V88.71H53.4435V79.2255H55.997ZM67.0839 85.3683V88.71H65.1297V79.2255H68.8297C69.5419 79.2255 70.1673 79.3558 70.7058 79.6163C71.2486 79.8769 71.6655 80.2482 71.9565 80.7302C72.2474 81.2079 72.3929 81.753 72.3929 82.3653C72.3929 83.2946 72.0737 84.0285 71.4353 84.567C70.8013 85.1012 69.9219 85.3683 68.7971 85.3683H67.0839ZM67.0839 83.7853H68.8297C69.3465 83.7853 69.7395 83.6637 70.0088 83.4205C70.2823 83.1774 70.4191 82.8299 70.4191 82.3783C70.4191 81.9136 70.2823 81.538 70.0088 81.2514C69.7352 80.9648 69.3574 80.8171 68.8753 80.8084H67.0839V83.7853ZM77.2524 85.238H75.6955V88.71H73.7413V79.2255H77.2654C78.3858 79.2255 79.25 79.4752 79.858 79.9746C80.466 80.474 80.77 81.1797 80.77 82.0917C80.77 82.7387 80.6288 83.2794 80.3466 83.7137C80.0686 84.1436 79.6452 84.4867 79.0763 84.7429L81.1282 88.6188V88.71H79.0307L77.2524 85.238ZM75.6955 83.6551H77.2719C77.7627 83.6551 78.1426 83.5313 78.4119 83.2838C78.6811 83.0319 78.8158 82.6866 78.8158 82.248C78.8158 81.8007 78.6877 81.449 78.4314 81.1927C78.1796 80.9365 77.7909 80.8084 77.2654 80.8084H75.6955V83.6551ZM87.968 84.5996H84.2159V87.1401H88.6194V88.71H82.2617V79.2255H88.6064V80.8084H84.2159V83.0688H87.968V84.5996ZM94.684 86.2216C94.684 85.8525 94.5537 85.5702 94.2932 85.3748C94.0326 85.175 93.5636 84.9666 92.8861 84.7494C92.2087 84.5279 91.6723 84.3108 91.2771 84.098C90.2002 83.5161 89.6617 82.7322 89.6617 81.7464C89.6617 81.234 89.805 80.778 90.0916 80.3785C90.3826 79.9746 90.7973 79.6598 91.3358 79.4339C91.8786 79.2081 92.4866 79.0952 93.1597 79.0952C93.8372 79.0952 94.4408 79.219 94.9706 79.4665C95.5004 79.7097 95.9108 80.055 96.2018 80.5023C96.4971 80.9496 96.6447 81.4576 96.6447 82.0265H94.6905C94.6905 81.5923 94.5537 81.2557 94.2801 81.0169C94.0065 80.7737 93.6222 80.6521 93.1271 80.6521C92.6494 80.6521 92.2781 80.7541 92.0132 80.9582C91.7483 81.158 91.6159 81.4229 91.6159 81.753C91.6159 82.0613 91.77 82.3197 92.0784 82.5281C92.3911 82.7366 92.8492 82.932 93.4528 83.1144C94.5646 83.4488 95.3745 83.8635 95.8826 84.3586C96.3907 84.8536 96.6447 85.4703 96.6447 86.2086C96.6447 87.0293 96.3342 87.6742 95.7132 88.1432C95.0922 88.6079 94.2562 88.8402 93.2053 88.8402C92.4757 88.8402 91.8113 88.7078 91.212 88.4429C90.6127 88.1736 90.1546 87.8067 89.8375 87.342C89.5249 86.8773 89.3685 86.3388 89.3685 85.7265H91.3293C91.3293 86.7731 91.9546 87.2964 93.2053 87.2964C93.67 87.2964 94.0326 87.203 94.2932 87.0163C94.5537 86.8252 94.684 86.5603 94.684 86.2216ZM103.328 86.7557H99.9018L99.2504 88.71H97.1724L100.703 79.2255H102.514L106.064 88.71H103.986L103.328 86.7557ZM100.429 85.1728H102.801L101.608 81.6227L100.429 85.1728Z" fill="#555555"/>
<path d="M267.927 154.531L460.813 163.98" stroke="#68C4D9" stroke-width="4.44693" stroke-dasharray="16.68 16.68"/>
<defs>
<filter id="filter0_d" x="511.504" y="130.809" width="39.5254" height="72.36" filterUnits="userSpaceOnUse" color-interpolation-filters="sRGB">
<feFlood flood-opacity="0" result="BackgroundImageFix"/>
<feColorMatrix in="SourceAlpha" type="matrix" values="0 0 0 0 0 0 0 0 0 0 0 0 0 0 0 0 0 0 127 0"/>
<feOffset dx="-1.23904" dy="2.72589"/>
<feGaussianBlur stdDeviation="2.10637"/>
<feColorMatrix type="matrix" values="0 0 0 0 0 0 0 0 0 0 0 0 0 0 0 0 0 0 0.1 0"/>
<feBlend mode="normal" in2="BackgroundImageFix" result="effect1_dropShadow"/>
<feBlend mode="normal" in="SourceGraphic" in2="effect1_dropShadow" result="shape"/>
</filter>
<filter id="filter1_d" x="111.836" y="252.544" width="40.6372" height="73.4717" filterUnits="userSpaceOnUse" color-interpolation-filters="sRGB">
<feFlood flood-opacity="0" result="BackgroundImageFix"/>
<feColorMatrix in="SourceAlpha" type="matrix" values="0 0 0 0 0 0 0 0 0 0 0 0 0 0 0 0 0 0 127 0"/>
<feOffset dx="-1.23904" dy="2.72589"/>
<feGaussianBlur stdDeviation="2.10637"/>
<feColorMatrix type="matrix" values="0 0 0 0 0 0 0 0 0 0 0 0 0 0 0 0 0 0 0.1 0"/>
<feBlend mode="normal" in2="BackgroundImageFix" result="effect1_dropShadow"/>
<feBlend mode="normal" in="SourceGraphic" in2="effect1_dropShadow" result="shape"/>
</filter>
</defs>
</svg>
