<svg width="1272" height="169" viewBox="0 0 1272 169" fill="none" xmlns="http://www.w3.org/2000/svg">
<path d="M184.952 116.249C189.908 116.249 194.055 115.238 197.393 113.215C200.832 111.192 203.563 108.563 205.585 105.326C207.709 102.089 209.176 98.3977 209.985 94.2508C210.895 90.0028 211.351 85.6537 211.351 81.2034V26.2828H232.135V81.2034C232.135 88.5868 231.225 95.5151 229.405 101.988C227.685 108.461 224.904 114.125 221.06 118.98C217.318 123.835 212.463 127.679 206.496 130.511C200.528 133.343 193.398 134.759 185.104 134.759C176.507 134.759 169.174 133.292 163.105 130.359C157.138 127.325 152.283 123.38 148.541 118.525C144.799 113.569 142.068 107.855 140.348 101.381C138.73 94.9083 137.921 88.1823 137.921 81.2034V26.2828H158.857V81.2034C158.857 85.7548 159.262 90.1546 160.071 94.4026C160.981 98.5494 162.448 102.241 164.471 105.478C166.595 108.714 169.326 111.344 172.663 113.367C176.001 115.289 180.097 116.249 184.952 116.249Z" fill="#83D0B0"/>
<path d="M328.019 121.863C319.422 130.46 309.409 134.759 297.979 134.759C290.899 134.759 284.224 133.343 277.953 130.511C271.783 127.679 266.372 123.785 261.72 118.829C257.168 113.873 253.527 108.057 250.796 101.381C248.167 94.6049 246.852 87.3226 246.852 79.5346C246.852 72.1511 248.167 65.2228 250.796 58.7497C253.527 52.1754 257.219 46.4608 261.871 41.606C266.625 36.65 272.188 32.756 278.56 29.924C284.932 26.9908 291.86 25.5243 299.345 25.5243C309.459 25.5243 318.107 27.6483 325.288 31.8963C332.57 36.1443 338.032 41.8588 341.673 49.04L326.047 60.5703C323.316 55.2097 319.472 51.1134 314.516 48.2814C309.661 45.4494 304.351 44.0334 298.586 44.0334C294.035 44.0334 289.837 44.9943 285.994 46.916C282.252 48.8377 279.015 51.4674 276.284 54.8051C273.655 58.1428 271.581 61.9863 270.064 66.3354C268.648 70.6846 267.94 75.2866 267.94 80.1414C267.94 85.1986 268.749 89.9523 270.367 94.4026C271.986 98.7517 274.211 102.545 277.043 105.781C279.875 109.018 283.213 111.597 287.056 113.519C291.001 115.339 295.249 116.249 299.8 116.249C310.218 116.249 319.624 111.344 328.019 101.533V93.9474H306.324V78.6243H345.314V134H328.019V121.863Z" fill="#68C4D9"/>
<path d="M409.127 134.759C401.238 134.759 394.056 133.241 387.583 130.207C381.211 127.072 375.699 122.975 371.046 117.918C366.495 112.76 362.955 106.894 360.426 100.319C357.898 93.7451 356.634 87.0191 356.634 80.1414C356.634 72.9603 357.948 66.0826 360.578 59.5083C363.309 52.934 367.001 47.1183 371.653 42.0611C376.407 37.004 382.02 33.0088 388.494 30.0757C394.967 27.0414 401.996 25.5243 409.582 25.5243C417.37 25.5243 424.45 27.1425 430.822 30.3791C437.295 33.5146 442.807 37.6614 447.359 42.8197C451.91 47.978 455.45 53.8443 457.979 60.4186C460.507 66.9928 461.772 73.6683 461.772 80.4448C461.772 87.626 460.457 94.5037 457.827 101.078C455.197 107.551 451.556 113.316 446.904 118.373C442.251 123.329 436.688 127.325 430.215 130.359C423.742 133.292 416.712 134.759 409.127 134.759ZM377.874 80.1414C377.874 84.794 378.582 89.2948 379.998 93.644C381.414 97.9931 383.436 101.837 386.066 105.174C388.797 108.512 392.084 111.192 395.928 113.215C399.872 115.238 404.322 116.249 409.278 116.249C414.336 116.249 418.786 115.238 422.629 113.215C426.574 111.091 429.861 108.31 432.491 104.871C435.222 101.432 437.244 97.5886 438.559 93.3406C439.975 88.9914 440.683 84.5917 440.683 80.1414C440.683 75.4888 439.925 70.988 438.408 66.6388C436.992 62.2897 434.918 58.4463 432.187 55.1086C429.558 51.7708 426.27 49.1411 422.326 47.2194C418.482 45.1966 414.133 44.1851 409.278 44.1851C404.221 44.1851 399.72 45.2471 395.776 47.3711C391.831 49.394 388.544 52.1248 385.914 55.5637C383.285 58.9014 381.262 62.7448 379.846 67.094C378.531 71.342 377.874 75.6911 377.874 80.1414Z" fill="#5D86C4"/>
<g filter="url(#filter0_d)">
<circle r="13.9737" transform="matrix(1 0 0 -1 45.9235 144.713)" fill="#F56A65"/>
<path d="M43.5136 115.211C42.4349 114.688 41.5308 113.843 40.9161 112.786C30.9031 98.0852 20.8147 83.4408 10.8557 68.6958C7.06273 63.0371 4.7661 56.4461 4.19474 49.5799C2.51334 31.6936 11.8365 14.4892 27.6481 7.39059C42.9963 0.493192 57.4929 2.59483 70.4699 13.6284C74.383 16.9281 77.6294 20.9967 80.0227 25.6007C82.4161 30.2048 83.9094 35.2538 84.4169 40.4579C85.7067 50.9124 83.0667 61.4806 77.0446 69.9702C67.3514 84.1302 57.651 98.3163 47.9434 112.528C47.3124 113.692 46.3534 114.628 45.195 115.211H43.5136ZM57.7947 45.4996C57.805 42.748 57.0305 40.0547 55.5687 37.7585C54.1069 35.4622 52.0231 33.6656 49.5794 32.5946C47.1356 31.5236 44.4411 31.2259 41.8347 31.7392C39.2283 32.2524 36.8264 33.5536 34.9312 35.479C33.0359 37.4044 31.7319 39.8682 31.1833 42.5603C30.6346 45.2524 30.8657 48.0527 31.8475 50.6089C32.8294 53.1651 34.5181 55.3631 36.7013 56.9265C38.8844 58.4898 41.4646 59.3486 44.1172 59.395C45.8957 59.4171 47.661 59.0749 49.3118 58.388C50.9626 57.7011 52.4664 56.6831 53.7371 55.3921C55.0078 54.1012 56.0203 52.5629 56.7166 50.8653C57.4129 49.1677 57.7792 47.3443 57.7947 45.4996Z" fill="#F56A65"/>
</g>
<circle cx="891.36" cy="75.9598" r="40.12" fill="#F56A65"/>
<circle cx="1004.64" cy="75.9598" r="40.12" fill="#83D0B0"/>
<circle cx="1117.92" cy="75.9598" r="40.12" fill="#68C4D9"/>
<circle cx="1231.2" cy="75.9598" r="40.12" fill="#5D86C4"/>
<defs>
<filter id="filter0_d" x="0.894737" y="0.316612" width="93.1579" height="167.686" filterUnits="userSpaceOnUse" color-interpolation-filters="sRGB">
<feFlood flood-opacity="0" result="BackgroundImageFix"/>
<feColorMatrix in="SourceAlpha" type="matrix" values="0 0 0 0 0 0 0 0 0 0 0 0 0 0 0 0 0 0 127 0"/>
<feOffset dx="3.10526" dy="3.10526"/>
<feGaussianBlur stdDeviation="3.10526"/>
<feColorMatrix type="matrix" values="0 0 0 0 0 0 0 0 0 0 0 0 0 0 0 0 0 0 0.25 0"/>
<feBlend mode="normal" in2="BackgroundImageFix" result="effect1_dropShadow"/>
<feBlend mode="normal" in="SourceGraphic" in2="effect1_dropShadow" result="shape"/>
</filter>
</defs>
</svg>
