<svg width="1151" height="858" viewBox="0 0 1151 858" fill="none" xmlns="http://www.w3.org/2000/svg">
<rect y="122" width="942" height="646" fill="#E2A09A"/>
<g filter="url(#filter0_d)">
<path d="M89 292C89 284.82 94.8203 279 102 279H374C381.18 279 387 284.82 387 292V619C387 626.18 381.18 632 374 632H102C94.8203 632 89 626.18 89 619V292Z" fill="white"/>
</g>
<path d="M305.049 384.887C308.635 375.522 315.378 368.618 325.493 364.444C314.736 359.574 307.939 352.723 305.049 344C301.892 353.259 294.774 359.895 284.605 364.444C293.971 367.976 300.821 374.773 305.049 384.887Z" fill="#FEC785"/>
<path d="M289.636 386.6C290.814 383.549 292.954 381.355 296.272 379.964C292.794 378.412 290.599 376.164 289.636 373.328C288.619 376.325 286.318 378.465 283 379.964C286.051 381.088 288.245 383.282 289.636 386.6Z" fill="#FEC785"/>
<path d="M133.586 466.481H129.294V471H127.441V460.336H134.216V461.83H129.294V465.001H133.586V466.481ZM135.021 466.964C135.021 466.188 135.175 465.49 135.483 464.87C135.791 464.245 136.223 463.766 136.779 463.434C137.336 463.097 137.976 462.929 138.698 462.929C139.768 462.929 140.634 463.273 141.298 463.961C141.967 464.65 142.329 465.563 142.382 466.701L142.39 467.118C142.39 467.899 142.238 468.598 141.936 469.213C141.638 469.828 141.208 470.304 140.646 470.641C140.09 470.978 139.445 471.146 138.713 471.146C137.595 471.146 136.699 470.775 136.025 470.033C135.356 469.286 135.021 468.292 135.021 467.052V466.964ZM136.801 467.118C136.801 467.934 136.97 468.573 137.307 469.037C137.644 469.496 138.112 469.726 138.713 469.726C139.313 469.726 139.78 469.491 140.112 469.022C140.449 468.554 140.617 467.868 140.617 466.964C140.617 466.164 140.444 465.529 140.097 465.06C139.755 464.591 139.289 464.357 138.698 464.357C138.117 464.357 137.656 464.589 137.314 465.053C136.972 465.512 136.801 466.2 136.801 467.118ZM148.044 464.701C147.81 464.662 147.568 464.643 147.319 464.643C146.503 464.643 145.954 464.955 145.671 465.58V471H143.891V463.075H145.59L145.634 463.961C146.064 463.273 146.66 462.929 147.421 462.929C147.675 462.929 147.885 462.963 148.051 463.031L148.044 464.701ZM155.676 468.451L157.287 463.075H159.184L156.035 472.201C155.551 473.534 154.731 474.201 153.574 474.201C153.315 474.201 153.029 474.157 152.717 474.069V472.692L153.054 472.714C153.503 472.714 153.84 472.631 154.064 472.465C154.294 472.304 154.475 472.03 154.606 471.645L154.863 470.963L152.08 463.075H153.999L155.676 468.451ZM159.763 466.964C159.763 466.188 159.917 465.49 160.224 464.87C160.532 464.245 160.964 463.766 161.521 463.434C162.077 463.097 162.717 462.929 163.439 462.929C164.509 462.929 165.375 463.273 166.04 463.961C166.708 464.65 167.07 465.563 167.124 466.701L167.131 467.118C167.131 467.899 166.979 468.598 166.677 469.213C166.379 469.828 165.949 470.304 165.388 470.641C164.831 470.978 164.187 471.146 163.454 471.146C162.336 471.146 161.44 470.775 160.766 470.033C160.097 469.286 159.763 468.292 159.763 467.052V466.964ZM161.542 467.118C161.542 467.934 161.711 468.573 162.048 469.037C162.385 469.496 162.854 469.726 163.454 469.726C164.055 469.726 164.521 469.491 164.853 469.022C165.19 468.554 165.358 467.868 165.358 466.964C165.358 466.164 165.185 465.529 164.838 465.06C164.497 464.591 164.03 464.357 163.439 464.357C162.858 464.357 162.397 464.589 162.055 465.053C161.713 465.512 161.542 466.2 161.542 467.118ZM173.437 470.224C172.915 470.839 172.172 471.146 171.21 471.146C170.351 471.146 169.699 470.895 169.255 470.392C168.815 469.889 168.596 469.162 168.596 468.209V463.075H170.375V468.188C170.375 469.193 170.793 469.696 171.628 469.696C172.492 469.696 173.076 469.386 173.378 468.766V463.075H175.158V471H173.481L173.437 470.224ZM182.937 461.149V463.075H184.335V464.394H182.937V468.817C182.937 469.12 182.995 469.34 183.112 469.477C183.234 469.608 183.449 469.674 183.757 469.674C183.962 469.674 184.169 469.65 184.379 469.601V470.978C183.974 471.09 183.583 471.146 183.208 471.146C181.84 471.146 181.157 470.392 181.157 468.883V464.394H179.853V463.075H181.157V461.149H182.937ZM185.148 466.964C185.148 466.188 185.302 465.49 185.61 464.87C185.917 464.245 186.35 463.766 186.906 463.434C187.463 463.097 188.103 462.929 188.825 462.929C189.895 462.929 190.761 463.273 191.425 463.961C192.094 464.65 192.456 465.563 192.509 466.701L192.517 467.118C192.517 467.899 192.365 468.598 192.062 469.213C191.765 469.828 191.335 470.304 190.773 470.641C190.217 470.978 189.572 471.146 188.84 471.146C187.722 471.146 186.826 470.775 186.152 470.033C185.483 469.286 185.148 468.292 185.148 467.052V466.964ZM186.928 467.118C186.928 467.934 187.097 468.573 187.434 469.037C187.771 469.496 188.239 469.726 188.84 469.726C189.44 469.726 189.907 469.491 190.239 469.022C190.576 468.554 190.744 467.868 190.744 466.964C190.744 466.164 190.571 465.529 190.224 465.06C189.882 464.591 189.416 464.357 188.825 464.357C188.244 464.357 187.783 464.589 187.441 465.053C187.099 465.512 186.928 466.2 186.928 467.118ZM204.711 467.118C204.711 468.349 204.436 469.328 203.884 470.055C203.337 470.783 202.583 471.146 201.621 471.146C200.693 471.146 199.97 470.812 199.453 470.143L199.365 471H197.753V459.75H199.533V463.837C200.046 463.231 200.737 462.929 201.606 462.929C202.573 462.929 203.332 463.288 203.884 464.005C204.436 464.723 204.711 465.727 204.711 467.016V467.118ZM202.932 466.964C202.932 466.105 202.78 465.46 202.478 465.031C202.175 464.601 201.735 464.386 201.159 464.386C200.388 464.386 199.846 464.723 199.533 465.397V468.664C199.851 469.352 200.397 469.696 201.174 469.696C201.73 469.696 202.16 469.489 202.463 469.074C202.766 468.659 202.922 468.031 202.932 467.191V466.964ZM209.699 471.146C208.571 471.146 207.656 470.792 206.953 470.084C206.254 469.372 205.905 468.424 205.905 467.243V467.023C205.905 466.232 206.057 465.526 206.359 464.906C206.667 464.281 207.097 463.795 207.648 463.449C208.2 463.102 208.815 462.929 209.494 462.929C210.573 462.929 211.406 463.273 211.992 463.961C212.583 464.65 212.878 465.624 212.878 466.884V467.602H207.7C207.753 468.256 207.971 468.773 208.352 469.154C208.737 469.535 209.221 469.726 209.802 469.726C210.617 469.726 211.281 469.396 211.794 468.737L212.753 469.652C212.436 470.126 212.011 470.495 211.479 470.758C210.952 471.017 210.358 471.146 209.699 471.146ZM209.487 464.357C208.999 464.357 208.603 464.528 208.3 464.87C208.002 465.211 207.812 465.688 207.729 466.298H211.12V466.166C211.081 465.57 210.922 465.121 210.644 464.818C210.366 464.511 209.98 464.357 209.487 464.357ZM222.736 471C222.658 470.849 222.59 470.602 222.531 470.26C221.965 470.851 221.271 471.146 220.451 471.146C219.655 471.146 219.006 470.919 218.503 470.465C218 470.011 217.749 469.45 217.749 468.781C217.749 467.936 218.061 467.289 218.686 466.84C219.316 466.386 220.214 466.159 221.381 466.159H222.473V465.639C222.473 465.229 222.358 464.901 222.128 464.657C221.899 464.408 221.55 464.284 221.081 464.284C220.676 464.284 220.344 464.386 220.085 464.591C219.826 464.792 219.697 465.048 219.697 465.36H217.917C217.917 464.926 218.061 464.521 218.349 464.145C218.637 463.764 219.028 463.466 219.521 463.251C220.019 463.036 220.573 462.929 221.184 462.929C222.111 462.929 222.851 463.163 223.403 463.632C223.955 464.096 224.238 464.75 224.252 465.595V469.169C224.252 469.882 224.353 470.451 224.553 470.875V471H222.736ZM220.781 469.718C221.132 469.718 221.462 469.633 221.77 469.462C222.082 469.291 222.316 469.062 222.473 468.773V467.279H221.513C220.854 467.279 220.358 467.394 220.026 467.624C219.694 467.853 219.528 468.178 219.528 468.598C219.528 468.939 219.641 469.213 219.865 469.418C220.095 469.618 220.4 469.718 220.781 469.718ZM233.071 467.118C233.071 468.349 232.795 469.328 232.243 470.055C231.696 470.783 230.942 471.146 229.98 471.146C229.052 471.146 228.33 470.812 227.812 470.143L227.724 471H226.113V459.75H227.893V463.837C228.405 463.231 229.096 462.929 229.965 462.929C230.932 462.929 231.691 463.288 232.243 464.005C232.795 464.723 233.071 465.727 233.071 467.016V467.118ZM231.291 466.964C231.291 466.105 231.14 465.46 230.837 465.031C230.534 464.601 230.095 464.386 229.519 464.386C228.747 464.386 228.205 464.723 227.893 465.397V468.664C228.21 469.352 228.757 469.696 229.533 469.696C230.09 469.696 230.52 469.489 230.822 469.074C231.125 468.659 231.281 468.031 231.291 467.191V466.964ZM236.462 471H234.682V459.75H236.462V471ZM241.896 471.146C240.769 471.146 239.853 470.792 239.15 470.084C238.452 469.372 238.103 468.424 238.103 467.243V467.023C238.103 466.232 238.254 465.526 238.557 464.906C238.864 464.281 239.294 463.795 239.846 463.449C240.397 463.102 241.013 462.929 241.691 462.929C242.771 462.929 243.603 463.273 244.189 463.961C244.78 464.65 245.075 465.624 245.075 466.884V467.602H239.897C239.951 468.256 240.168 468.773 240.549 469.154C240.935 469.535 241.418 469.726 241.999 469.726C242.814 469.726 243.479 469.396 243.991 468.737L244.951 469.652C244.633 470.126 244.208 470.495 243.676 470.758C243.149 471.017 242.556 471.146 241.896 471.146ZM241.684 464.357C241.196 464.357 240.8 464.528 240.498 464.87C240.2 465.211 240.009 465.688 239.926 466.298H243.317V466.166C243.278 465.57 243.12 465.121 242.841 464.818C242.563 464.511 242.177 464.357 241.684 464.357ZM252.429 461.149V463.075H253.828V464.394H252.429V468.817C252.429 469.12 252.487 469.34 252.604 469.477C252.727 469.608 252.941 469.674 253.249 469.674C253.454 469.674 253.662 469.65 253.872 469.601V470.978C253.466 471.09 253.076 471.146 252.7 471.146C251.333 471.146 250.649 470.392 250.649 468.883V464.394H249.345V463.075H250.649V461.149H252.429ZM254.641 466.964C254.641 466.188 254.794 465.49 255.102 464.87C255.41 464.245 255.842 463.766 256.398 463.434C256.955 463.097 257.595 462.929 258.317 462.929C259.387 462.929 260.253 463.273 260.917 463.961C261.586 464.65 261.948 465.563 262.001 466.701L262.009 467.118C262.009 467.899 261.857 468.598 261.555 469.213C261.257 469.828 260.827 470.304 260.266 470.641C259.709 470.978 259.064 471.146 258.332 471.146C257.214 471.146 256.318 470.775 255.644 470.033C254.975 469.286 254.641 468.292 254.641 467.052V466.964ZM256.42 467.118C256.42 467.934 256.589 468.573 256.926 469.037C257.263 469.496 257.731 469.726 258.332 469.726C258.933 469.726 259.399 469.491 259.731 469.022C260.068 468.554 260.236 467.868 260.236 466.964C260.236 466.164 260.063 465.529 259.716 465.06C259.375 464.591 258.908 464.357 258.317 464.357C257.736 464.357 257.275 464.589 256.933 465.053C256.591 465.512 256.42 466.2 256.42 467.118ZM269.143 471H267.363V463.075H269.143V471ZM267.253 461.017C267.253 460.744 267.338 460.517 267.509 460.336C267.685 460.155 267.934 460.065 268.256 460.065C268.579 460.065 268.828 460.155 269.003 460.336C269.179 460.517 269.267 460.744 269.267 461.017C269.267 461.286 269.179 461.51 269.003 461.691C268.828 461.867 268.579 461.955 268.256 461.955C267.934 461.955 267.685 461.867 267.509 461.691C267.338 461.51 267.253 461.286 267.253 461.017ZM272.739 463.075L272.79 463.991C273.376 463.283 274.145 462.929 275.097 462.929C276.748 462.929 277.587 463.874 277.617 465.763V471H275.837V465.866C275.837 465.363 275.727 464.992 275.507 464.752C275.292 464.508 274.938 464.386 274.445 464.386C273.728 464.386 273.193 464.711 272.841 465.36V471H271.062V463.075H272.739ZM281.667 461.149V463.075H283.066V464.394H281.667V468.817C281.667 469.12 281.726 469.34 281.843 469.477C281.965 469.608 282.18 469.674 282.487 469.674C282.692 469.674 282.9 469.65 283.11 469.601V470.978C282.705 471.09 282.314 471.146 281.938 471.146C280.571 471.146 279.887 470.392 279.887 468.883V464.394H278.583V463.075H279.887V461.149H281.667ZM287.922 471.146C286.794 471.146 285.878 470.792 285.175 470.084C284.477 469.372 284.128 468.424 284.128 467.243V467.023C284.128 466.232 284.279 465.526 284.582 464.906C284.89 464.281 285.319 463.795 285.871 463.449C286.423 463.102 287.038 462.929 287.717 462.929C288.796 462.929 289.628 463.273 290.214 463.961C290.805 464.65 291.101 465.624 291.101 466.884V467.602H285.922C285.976 468.256 286.193 468.773 286.574 469.154C286.96 469.535 287.443 469.726 288.024 469.726C288.84 469.726 289.504 469.396 290.017 468.737L290.976 469.652C290.659 470.126 290.234 470.495 289.702 470.758C289.174 471.017 288.581 471.146 287.922 471.146ZM287.709 464.357C287.221 464.357 286.826 464.528 286.523 464.87C286.225 465.211 286.035 465.688 285.952 466.298H289.343V466.166C289.304 465.57 289.145 465.121 288.867 464.818C288.588 464.511 288.203 464.357 287.709 464.357ZM296.638 464.701C296.403 464.662 296.162 464.643 295.913 464.643C295.097 464.643 294.548 464.955 294.265 465.58V471H292.485V463.075H294.184L294.228 463.961C294.658 463.273 295.253 462.929 296.015 462.929C296.269 462.929 296.479 462.963 296.645 463.031L296.638 464.701ZM302.277 471C302.199 470.849 302.131 470.602 302.072 470.26C301.506 470.851 300.812 471.146 299.992 471.146C299.196 471.146 298.547 470.919 298.044 470.465C297.541 470.011 297.29 469.45 297.29 468.781C297.29 467.936 297.602 467.289 298.227 466.84C298.857 466.386 299.755 466.159 300.922 466.159H302.014V465.639C302.014 465.229 301.899 464.901 301.669 464.657C301.44 464.408 301.091 464.284 300.622 464.284C300.217 464.284 299.885 464.386 299.626 464.591C299.367 464.792 299.238 465.048 299.238 465.36H297.458C297.458 464.926 297.602 464.521 297.89 464.145C298.178 463.764 298.569 463.466 299.062 463.251C299.56 463.036 300.114 462.929 300.725 462.929C301.652 462.929 302.392 463.163 302.944 463.632C303.496 464.096 303.779 464.75 303.793 465.595V469.169C303.793 469.882 303.894 470.451 304.094 470.875V471H302.277ZM300.322 469.718C300.673 469.718 301.003 469.633 301.311 469.462C301.623 469.291 301.857 469.062 302.014 468.773V467.279H301.054C300.395 467.279 299.899 467.394 299.567 467.624C299.235 467.853 299.069 468.178 299.069 468.598C299.069 468.939 299.182 469.213 299.406 469.418C299.636 469.618 299.941 469.718 300.322 469.718ZM308.913 469.726C309.357 469.726 309.726 469.596 310.019 469.337C310.312 469.079 310.468 468.759 310.488 468.378H312.165C312.146 468.871 311.992 469.333 311.704 469.762C311.416 470.187 311.025 470.524 310.532 470.773C310.039 471.022 309.506 471.146 308.935 471.146C307.827 471.146 306.948 470.788 306.298 470.07C305.649 469.352 305.324 468.361 305.324 467.096V466.913C305.324 465.707 305.646 464.743 306.291 464.02C306.936 463.292 307.814 462.929 308.928 462.929C309.87 462.929 310.637 463.205 311.228 463.756C311.823 464.303 312.136 465.023 312.165 465.917H310.488C310.468 465.463 310.312 465.089 310.019 464.796C309.731 464.503 309.362 464.357 308.913 464.357C308.337 464.357 307.893 464.567 307.58 464.987C307.268 465.402 307.109 466.034 307.104 466.884V467.169C307.104 468.029 307.258 468.671 307.565 469.096C307.878 469.516 308.327 469.726 308.913 469.726ZM315.739 461.149V463.075H317.138V464.394H315.739V468.817C315.739 469.12 315.798 469.34 315.915 469.477C316.037 469.608 316.252 469.674 316.56 469.674C316.765 469.674 316.972 469.65 317.182 469.601V470.978C316.777 471.09 316.386 471.146 316.01 471.146C314.643 471.146 313.959 470.392 313.959 468.883V464.394H312.656V463.075H313.959V461.149H315.739ZM329.201 468.546L330.461 463.075H332.197L330.036 471H328.571L326.872 465.558L325.202 471H323.737L321.569 463.075H323.305L324.587 468.488L326.213 463.075H327.553L329.201 468.546ZM335.28 471H333.5V463.075H335.28V471ZM333.391 461.017C333.391 460.744 333.476 460.517 333.647 460.336C333.823 460.155 334.072 460.065 334.394 460.065C334.716 460.065 334.965 460.155 335.141 460.336C335.317 460.517 335.405 460.744 335.405 461.017C335.405 461.286 335.317 461.51 335.141 461.691C334.965 461.867 334.716 461.955 334.394 461.955C334.072 461.955 333.823 461.867 333.647 461.691C333.476 461.51 333.391 461.286 333.391 461.017ZM339.455 461.149V463.075H340.854V464.394H339.455V468.817C339.455 469.12 339.514 469.34 339.631 469.477C339.753 469.608 339.968 469.674 340.275 469.674C340.48 469.674 340.688 469.65 340.898 469.601V470.978C340.493 471.09 340.102 471.146 339.726 471.146C338.359 471.146 337.675 470.392 337.675 468.883V464.394H336.372V463.075H337.675V461.149H339.455ZM343.974 463.939C344.555 463.266 345.29 462.929 346.179 462.929C347.868 462.929 348.725 463.893 348.75 465.822V471H346.97V465.888C346.97 465.341 346.85 464.955 346.611 464.73C346.376 464.501 346.03 464.386 345.571 464.386C344.858 464.386 344.326 464.704 343.974 465.338V471H342.194V459.75H343.974V463.939ZM129.631 485.149V487.075H131.03V488.394H129.631V492.817C129.631 493.12 129.689 493.34 129.807 493.477C129.929 493.608 130.144 493.674 130.451 493.674C130.656 493.674 130.864 493.65 131.074 493.601V494.978C130.668 495.09 130.278 495.146 129.902 495.146C128.535 495.146 127.851 494.392 127.851 492.883V488.394H126.547V487.075H127.851V485.149H129.631ZM134.15 487.939C134.731 487.266 135.466 486.929 136.354 486.929C138.044 486.929 138.901 487.893 138.925 489.822V495H137.146V489.888C137.146 489.341 137.026 488.955 136.787 488.73C136.552 488.501 136.206 488.386 135.747 488.386C135.034 488.386 134.501 488.704 134.15 489.338V495H132.37V483.75H134.15V487.939ZM144.221 495.146C143.093 495.146 142.177 494.792 141.474 494.084C140.776 493.372 140.427 492.424 140.427 491.243V491.023C140.427 490.232 140.578 489.526 140.881 488.906C141.188 488.281 141.618 487.795 142.17 487.449C142.722 487.102 143.337 486.929 144.016 486.929C145.095 486.929 145.927 487.273 146.513 487.961C147.104 488.65 147.399 489.624 147.399 490.884V491.602H142.221C142.275 492.256 142.492 492.773 142.873 493.154C143.259 493.535 143.742 493.726 144.323 493.726C145.139 493.726 145.803 493.396 146.315 492.737L147.275 493.652C146.958 494.126 146.533 494.495 146 494.758C145.473 495.017 144.88 495.146 144.221 495.146ZM144.008 488.357C143.52 488.357 143.125 488.528 142.822 488.87C142.524 489.211 142.333 489.688 142.25 490.298H145.642V490.166C145.603 489.57 145.444 489.121 145.166 488.818C144.887 488.511 144.501 488.357 144.008 488.357ZM152.189 490.979C152.189 489.758 152.473 488.779 153.039 488.042C153.605 487.3 154.365 486.929 155.317 486.929C156.157 486.929 156.835 487.222 157.353 487.808V483.75H159.133V495H157.521L157.434 494.18C156.901 494.824 156.191 495.146 155.302 495.146C154.375 495.146 153.623 494.773 153.046 494.026C152.475 493.279 152.189 492.263 152.189 490.979ZM153.969 491.133C153.969 491.938 154.123 492.568 154.431 493.022C154.743 493.472 155.185 493.696 155.756 493.696C156.484 493.696 157.016 493.372 157.353 492.722V489.338C157.026 488.704 156.499 488.386 155.771 488.386C155.195 488.386 154.75 488.616 154.438 489.075C154.125 489.529 153.969 490.215 153.969 491.133ZM162.883 495H161.103V487.075H162.883V495ZM160.993 485.017C160.993 484.744 161.079 484.517 161.25 484.336C161.425 484.155 161.674 484.065 161.997 484.065C162.319 484.065 162.568 484.155 162.744 484.336C162.919 484.517 163.007 484.744 163.007 485.017C163.007 485.286 162.919 485.51 162.744 485.691C162.568 485.867 162.319 485.955 161.997 485.955C161.674 485.955 161.425 485.867 161.25 485.691C161.079 485.51 160.993 485.286 160.993 485.017ZM165.454 495V488.394H164.245V487.075H165.454V486.35C165.454 485.471 165.698 484.792 166.186 484.314C166.674 483.835 167.358 483.596 168.237 483.596C168.549 483.596 168.881 483.64 169.233 483.728L169.189 485.12C168.994 485.081 168.767 485.061 168.508 485.061C167.658 485.061 167.233 485.498 167.233 486.372V487.075H168.845V488.394H167.233V495H165.454ZM170.771 495V488.394H169.562V487.075H170.771V486.35C170.771 485.471 171.015 484.792 171.503 484.314C171.992 483.835 172.675 483.596 173.554 483.596C173.867 483.596 174.199 483.64 174.55 483.728L174.506 485.12C174.311 485.081 174.084 485.061 173.825 485.061C172.976 485.061 172.551 485.498 172.551 486.372V487.075H174.162V488.394H172.551V495H170.771ZM178.776 495.146C177.648 495.146 176.733 494.792 176.03 494.084C175.332 493.372 174.982 492.424 174.982 491.243V491.023C174.982 490.232 175.134 489.526 175.437 488.906C175.744 488.281 176.174 487.795 176.726 487.449C177.277 487.102 177.893 486.929 178.571 486.929C179.65 486.929 180.483 487.273 181.069 487.961C181.66 488.65 181.955 489.624 181.955 490.884V491.602H176.777C176.831 492.256 177.048 492.773 177.429 493.154C177.814 493.535 178.298 493.726 178.879 493.726C179.694 493.726 180.358 493.396 180.871 492.737L181.831 493.652C181.513 494.126 181.088 494.495 180.556 494.758C180.029 495.017 179.436 495.146 178.776 495.146ZM178.564 488.357C178.076 488.357 177.68 488.528 177.377 488.87C177.08 489.211 176.889 489.688 176.806 490.298H180.197V490.166C180.158 489.57 180 489.121 179.721 488.818C179.443 488.511 179.057 488.357 178.564 488.357ZM187.492 488.701C187.258 488.662 187.016 488.643 186.767 488.643C185.952 488.643 185.402 488.955 185.119 489.58V495H183.339V487.075H185.039L185.083 487.961C185.512 487.273 186.108 486.929 186.87 486.929C187.124 486.929 187.333 486.963 187.5 487.031L187.492 488.701ZM191.96 495.146C190.832 495.146 189.917 494.792 189.213 494.084C188.515 493.372 188.166 492.424 188.166 491.243V491.023C188.166 490.232 188.317 489.526 188.62 488.906C188.928 488.281 189.357 487.795 189.909 487.449C190.461 487.102 191.076 486.929 191.755 486.929C192.834 486.929 193.667 487.273 194.252 487.961C194.843 488.65 195.139 489.624 195.139 490.884V491.602H189.96C190.014 492.256 190.231 492.773 190.612 493.154C190.998 493.535 191.481 493.726 192.062 493.726C192.878 493.726 193.542 493.396 194.055 492.737L195.014 493.652C194.697 494.126 194.272 494.495 193.74 494.758C193.212 495.017 192.619 495.146 191.96 495.146ZM191.748 488.357C191.259 488.357 190.864 488.528 190.561 488.87C190.263 489.211 190.073 489.688 189.99 490.298H193.381V490.166C193.342 489.57 193.183 489.121 192.905 488.818C192.626 488.511 192.241 488.357 191.748 488.357ZM198.178 487.075L198.229 487.991C198.815 487.283 199.584 486.929 200.537 486.929C202.187 486.929 203.027 487.874 203.056 489.763V495H201.276V489.866C201.276 489.363 201.167 488.992 200.947 488.752C200.732 488.508 200.378 488.386 199.885 488.386C199.167 488.386 198.632 488.711 198.281 489.36V495H196.501V487.075H198.178ZM207.106 485.149V487.075H208.505V488.394H207.106V492.817C207.106 493.12 207.165 493.34 207.282 493.477C207.404 493.608 207.619 493.674 207.927 493.674C208.132 493.674 208.339 493.65 208.549 493.601V494.978C208.144 495.09 207.753 495.146 207.377 495.146C206.01 495.146 205.327 494.392 205.327 492.883V488.394H204.023V487.075H205.327V485.149H207.106ZM213.273 490.964C213.273 490.188 213.427 489.49 213.735 488.87C214.042 488.245 214.475 487.766 215.031 487.434C215.588 487.097 216.228 486.929 216.95 486.929C218.02 486.929 218.886 487.273 219.55 487.961C220.219 488.65 220.581 489.563 220.634 490.701L220.642 491.118C220.642 491.899 220.49 492.598 220.188 493.213C219.89 493.828 219.46 494.304 218.898 494.641C218.342 494.978 217.697 495.146 216.965 495.146C215.847 495.146 214.951 494.775 214.277 494.033C213.608 493.286 213.273 492.292 213.273 491.052V490.964ZM215.053 491.118C215.053 491.934 215.222 492.573 215.559 493.037C215.896 493.496 216.364 493.726 216.965 493.726C217.565 493.726 218.032 493.491 218.364 493.022C218.701 492.554 218.869 491.868 218.869 490.964C218.869 490.164 218.696 489.529 218.349 489.06C218.007 488.591 217.541 488.357 216.95 488.357C216.369 488.357 215.908 488.589 215.566 489.053C215.224 489.512 215.053 490.2 215.053 491.118ZM229.101 491.118C229.101 492.349 228.825 493.328 228.273 494.055C227.727 494.783 226.972 495.146 226.01 495.146C225.083 495.146 224.36 494.812 223.842 494.143L223.754 495H222.143V483.75H223.923V487.837C224.436 487.231 225.126 486.929 225.996 486.929C226.962 486.929 227.722 487.288 228.273 488.005C228.825 488.723 229.101 489.727 229.101 491.016V491.118ZM227.321 490.964C227.321 490.105 227.17 489.46 226.867 489.031C226.564 488.601 226.125 488.386 225.549 488.386C224.777 488.386 224.235 488.723 223.923 489.397V492.664C224.24 493.352 224.787 493.696 225.563 493.696C226.12 493.696 226.55 493.489 226.853 493.074C227.155 492.659 227.312 492.031 227.321 491.191V490.964ZM232.456 487.075V495.703C232.456 496.514 232.253 497.131 231.848 497.556C231.447 497.986 230.859 498.201 230.083 498.201C229.755 498.201 229.44 498.159 229.138 498.076V496.67C229.323 496.714 229.533 496.736 229.768 496.736C230.358 496.736 230.661 496.414 230.676 495.769V487.075H232.456ZM230.522 485.017C230.522 484.744 230.607 484.517 230.778 484.336C230.954 484.155 231.203 484.065 231.525 484.065C231.848 484.065 232.097 484.155 232.272 484.336C232.448 484.517 232.536 484.744 232.536 485.017C232.536 485.286 232.448 485.51 232.272 485.691C232.097 485.867 231.848 485.955 231.525 485.955C231.203 485.955 230.954 485.867 230.778 485.691C230.607 485.51 230.522 485.286 230.522 485.017ZM237.854 495.146C236.726 495.146 235.81 494.792 235.107 494.084C234.409 493.372 234.06 492.424 234.06 491.243V491.023C234.06 490.232 234.211 489.526 234.514 488.906C234.821 488.281 235.251 487.795 235.803 487.449C236.354 487.102 236.97 486.929 237.648 486.929C238.728 486.929 239.56 487.273 240.146 487.961C240.737 488.65 241.032 489.624 241.032 490.884V491.602H235.854C235.908 492.256 236.125 492.773 236.506 493.154C236.892 493.535 237.375 493.726 237.956 493.726C238.771 493.726 239.436 493.396 239.948 492.737L240.908 493.652C240.59 494.126 240.166 494.495 239.633 494.758C239.106 495.017 238.513 495.146 237.854 495.146ZM237.641 488.357C237.153 488.357 236.757 488.528 236.455 488.87C236.157 489.211 235.966 489.688 235.883 490.298H239.274V490.166C239.235 489.57 239.077 489.121 238.798 488.818C238.52 488.511 238.134 488.357 237.641 488.357ZM245.676 493.726C246.12 493.726 246.489 493.596 246.782 493.337C247.075 493.079 247.231 492.759 247.25 492.378H248.928C248.908 492.871 248.754 493.333 248.466 493.762C248.178 494.187 247.788 494.524 247.294 494.773C246.801 495.022 246.269 495.146 245.698 495.146C244.589 495.146 243.71 494.788 243.061 494.07C242.412 493.352 242.087 492.361 242.087 491.096V490.913C242.087 489.707 242.409 488.743 243.054 488.02C243.698 487.292 244.577 486.929 245.69 486.929C246.633 486.929 247.399 487.205 247.99 487.756C248.586 488.303 248.898 489.023 248.928 489.917H247.25C247.231 489.463 247.075 489.089 246.782 488.796C246.494 488.503 246.125 488.357 245.676 488.357C245.1 488.357 244.655 488.567 244.343 488.987C244.03 489.402 243.872 490.034 243.867 490.884V491.169C243.867 492.029 244.021 492.671 244.328 493.096C244.641 493.516 245.09 493.726 245.676 493.726ZM252.502 485.149V487.075H253.901V488.394H252.502V492.817C252.502 493.12 252.561 493.34 252.678 493.477C252.8 493.608 253.015 493.674 253.322 493.674C253.527 493.674 253.735 493.65 253.945 493.601V494.978C253.54 495.09 253.149 495.146 252.773 495.146C251.406 495.146 250.722 494.392 250.722 492.883V488.394H249.418V487.075H250.722V485.149H252.502ZM259.709 492.847C259.709 492.529 259.577 492.288 259.313 492.122C259.055 491.956 258.623 491.809 258.017 491.682C257.412 491.555 256.906 491.394 256.501 491.199C255.612 490.769 255.168 490.146 255.168 489.331C255.168 488.647 255.456 488.076 256.032 487.617C256.608 487.158 257.341 486.929 258.229 486.929C259.177 486.929 259.941 487.163 260.522 487.632C261.108 488.101 261.401 488.708 261.401 489.456H259.621C259.621 489.114 259.494 488.831 259.24 488.606C258.986 488.376 258.649 488.262 258.229 488.262C257.839 488.262 257.519 488.352 257.27 488.533C257.026 488.713 256.904 488.955 256.904 489.258C256.904 489.531 257.019 489.744 257.248 489.895C257.478 490.046 257.941 490.2 258.64 490.356C259.338 490.508 259.885 490.691 260.28 490.906C260.681 491.116 260.976 491.37 261.167 491.667C261.362 491.965 261.459 492.327 261.459 492.751C261.459 493.464 261.164 494.043 260.573 494.487C259.982 494.927 259.208 495.146 258.251 495.146C257.602 495.146 257.023 495.029 256.516 494.795C256.008 494.561 255.612 494.238 255.329 493.828C255.046 493.418 254.904 492.976 254.904 492.502H256.633C256.657 492.922 256.816 493.247 257.109 493.477C257.402 493.701 257.79 493.813 258.273 493.813C258.742 493.813 259.099 493.726 259.343 493.55C259.587 493.369 259.709 493.135 259.709 492.847ZM273.713 492.546L274.973 487.075H276.708L274.548 495H273.083L271.384 489.558L269.714 495H268.249L266.081 487.075H267.817L269.099 492.488L270.725 487.075H272.065L273.713 492.546ZM281.389 495.146C280.261 495.146 279.345 494.792 278.642 494.084C277.944 493.372 277.595 492.424 277.595 491.243V491.023C277.595 490.232 277.746 489.526 278.049 488.906C278.356 488.281 278.786 487.795 279.338 487.449C279.89 487.102 280.505 486.929 281.184 486.929C282.263 486.929 283.095 487.273 283.681 487.961C284.272 488.65 284.567 489.624 284.567 490.884V491.602H279.389C279.443 492.256 279.66 492.773 280.041 493.154C280.427 493.535 280.91 493.726 281.491 493.726C282.307 493.726 282.971 493.396 283.483 492.737L284.443 493.652C284.125 494.126 283.701 494.495 283.168 494.758C282.641 495.017 282.048 495.146 281.389 495.146ZM281.176 488.357C280.688 488.357 280.292 488.528 279.99 488.87C279.692 489.211 279.501 489.688 279.418 490.298H282.81V490.166C282.771 489.57 282.612 489.121 282.333 488.818C282.055 488.511 281.669 488.357 281.176 488.357ZM291.342 487.075L291.394 487.991C291.979 487.283 292.749 486.929 293.701 486.929C295.351 486.929 296.191 487.874 296.22 489.763V495H294.44V489.866C294.44 489.363 294.331 488.992 294.111 488.752C293.896 488.508 293.542 488.386 293.049 488.386C292.331 488.386 291.796 488.711 291.445 489.36V495H289.665V487.075H291.342ZM301.53 495.146C300.402 495.146 299.487 494.792 298.784 494.084C298.085 493.372 297.736 492.424 297.736 491.243V491.023C297.736 490.232 297.888 489.526 298.19 488.906C298.498 488.281 298.928 487.795 299.479 487.449C300.031 487.102 300.646 486.929 301.325 486.929C302.404 486.929 303.237 487.273 303.823 487.961C304.414 488.65 304.709 489.624 304.709 490.884V491.602H299.531C299.584 492.256 299.802 492.773 300.183 493.154C300.568 493.535 301.052 493.726 301.633 493.726C302.448 493.726 303.112 493.396 303.625 492.737L304.584 493.652C304.267 494.126 303.842 494.495 303.31 494.758C302.783 495.017 302.189 495.146 301.53 495.146ZM301.318 488.357C300.83 488.357 300.434 488.528 300.131 488.87C299.833 489.211 299.643 489.688 299.56 490.298H302.951V490.166C302.912 489.57 302.753 489.121 302.475 488.818C302.197 488.511 301.811 488.357 301.318 488.357ZM309.587 495.146C308.459 495.146 307.543 494.792 306.84 494.084C306.142 493.372 305.793 492.424 305.793 491.243V491.023C305.793 490.232 305.944 489.526 306.247 488.906C306.555 488.281 306.984 487.795 307.536 487.449C308.088 487.102 308.703 486.929 309.382 486.929C310.461 486.929 311.293 487.273 311.879 487.961C312.47 488.65 312.766 489.624 312.766 490.884V491.602H307.587C307.641 492.256 307.858 492.773 308.239 493.154C308.625 493.535 309.108 493.726 309.689 493.726C310.505 493.726 311.169 493.396 311.682 492.737L312.641 493.652C312.324 494.126 311.899 494.495 311.367 494.758C310.839 495.017 310.246 495.146 309.587 495.146ZM309.375 488.357C308.886 488.357 308.491 488.528 308.188 488.87C307.89 489.211 307.7 489.688 307.617 490.298H311.008V490.166C310.969 489.57 310.81 489.121 310.532 488.818C310.253 488.511 309.868 488.357 309.375 488.357ZM313.82 490.979C313.82 489.758 314.104 488.779 314.67 488.042C315.236 487.3 315.996 486.929 316.948 486.929C317.788 486.929 318.466 487.222 318.984 487.808V483.75H320.764V495H319.152L319.064 494.18C318.532 494.824 317.822 495.146 316.933 495.146C316.005 495.146 315.253 494.773 314.677 494.026C314.106 493.279 313.82 492.263 313.82 490.979ZM315.6 491.133C315.6 491.938 315.754 492.568 316.062 493.022C316.374 493.472 316.816 493.696 317.387 493.696C318.115 493.696 318.647 493.372 318.984 492.722V489.338C318.657 488.704 318.129 488.386 317.402 488.386C316.826 488.386 316.381 488.616 316.069 489.075C315.756 489.529 315.6 490.215 315.6 491.133ZM329.128 492.451L330.739 487.075H332.636L329.487 496.201C329.003 497.534 328.183 498.201 327.026 498.201C326.767 498.201 326.481 498.157 326.169 498.069V496.692L326.506 496.714C326.955 496.714 327.292 496.631 327.517 496.465C327.746 496.304 327.927 496.03 328.059 495.645L328.315 494.963L325.532 487.075H327.451L329.128 492.451ZM333.215 490.964C333.215 490.188 333.369 489.49 333.676 488.87C333.984 488.245 334.416 487.766 334.973 487.434C335.529 487.097 336.169 486.929 336.892 486.929C337.961 486.929 338.828 487.273 339.492 487.961C340.161 488.65 340.522 489.563 340.576 490.701L340.583 491.118C340.583 491.899 340.432 492.598 340.129 493.213C339.831 493.828 339.401 494.304 338.84 494.641C338.283 494.978 337.639 495.146 336.906 495.146C335.788 495.146 334.892 494.775 334.218 494.033C333.549 493.286 333.215 492.292 333.215 491.052V490.964ZM334.995 491.118C334.995 491.934 335.163 492.573 335.5 493.037C335.837 493.496 336.306 493.726 336.906 493.726C337.507 493.726 337.973 493.491 338.305 493.022C338.642 492.554 338.811 491.868 338.811 490.964C338.811 490.164 338.637 489.529 338.291 489.06C337.949 488.591 337.482 488.357 336.892 488.357C336.311 488.357 335.849 488.589 335.507 489.053C335.166 489.512 334.995 490.2 334.995 491.118ZM346.889 494.224C346.367 494.839 345.625 495.146 344.663 495.146C343.803 495.146 343.151 494.895 342.707 494.392C342.268 493.889 342.048 493.162 342.048 492.209V487.075H343.828V492.188C343.828 493.193 344.245 493.696 345.08 493.696C345.944 493.696 346.528 493.386 346.831 492.766V487.075H348.61V495H346.933L346.889 494.224ZM157.983 510.149V512.075H159.382V513.394H157.983V517.817C157.983 518.12 158.042 518.34 158.159 518.477C158.281 518.608 158.496 518.674 158.803 518.674C159.008 518.674 159.216 518.65 159.426 518.601V519.978C159.021 520.09 158.63 520.146 158.254 520.146C156.887 520.146 156.203 519.392 156.203 517.883V513.394H154.899V512.075H156.203V510.149H157.983ZM160.195 515.964C160.195 515.188 160.349 514.49 160.656 513.87C160.964 513.245 161.396 512.766 161.953 512.434C162.509 512.097 163.149 511.929 163.872 511.929C164.941 511.929 165.808 512.273 166.472 512.961C167.141 513.65 167.502 514.563 167.556 515.701L167.563 516.118C167.563 516.899 167.412 517.598 167.109 518.213C166.811 518.828 166.381 519.304 165.82 519.641C165.263 519.978 164.619 520.146 163.886 520.146C162.768 520.146 161.872 519.775 161.198 519.033C160.529 518.286 160.195 517.292 160.195 516.052V515.964ZM161.975 516.118C161.975 516.934 162.143 517.573 162.48 518.037C162.817 518.496 163.286 518.726 163.886 518.726C164.487 518.726 164.953 518.491 165.285 518.022C165.622 517.554 165.791 516.868 165.791 515.964C165.791 515.164 165.617 514.529 165.271 514.06C164.929 513.591 164.462 513.357 163.872 513.357C163.291 513.357 162.829 513.589 162.487 514.053C162.146 514.512 161.975 515.2 161.975 516.118ZM175.034 510.149V512.075H176.433V513.394H175.034V517.817C175.034 518.12 175.092 518.34 175.209 518.477C175.332 518.608 175.546 518.674 175.854 518.674C176.059 518.674 176.267 518.65 176.477 518.601V519.978C176.071 520.09 175.681 520.146 175.305 520.146C173.938 520.146 173.254 519.392 173.254 517.883V513.394H171.95V512.075H173.254V510.149H175.034ZM182.6 519.224C182.077 519.839 181.335 520.146 180.373 520.146C179.514 520.146 178.862 519.895 178.417 519.392C177.978 518.889 177.758 518.162 177.758 517.209V512.075H179.538V517.188C179.538 518.193 179.956 518.696 180.791 518.696C181.655 518.696 182.238 518.386 182.541 517.766V512.075H184.321V520H182.644L182.6 519.224ZM190.283 513.701C190.048 513.662 189.807 513.643 189.558 513.643C188.742 513.643 188.193 513.955 187.91 514.58V520H186.13V512.075H187.829L187.873 512.961C188.303 512.273 188.898 511.929 189.66 511.929C189.914 511.929 190.124 511.963 190.29 512.031L190.283 513.701ZM193.059 512.075L193.11 512.991C193.696 512.283 194.465 511.929 195.417 511.929C197.067 511.929 197.907 512.874 197.937 514.763V520H196.157V514.866C196.157 514.363 196.047 513.992 195.827 513.752C195.612 513.508 195.258 513.386 194.765 513.386C194.047 513.386 193.513 513.711 193.161 514.36V520H191.381V512.075H193.059ZM206.264 517.451L207.875 512.075H209.772L206.623 521.201C206.14 522.534 205.319 523.201 204.162 523.201C203.903 523.201 203.618 523.157 203.305 523.069V521.692L203.642 521.714C204.091 521.714 204.428 521.631 204.653 521.465C204.882 521.304 205.063 521.03 205.195 520.645L205.451 519.963L202.668 512.075H204.587L206.264 517.451ZM210.351 515.964C210.351 515.188 210.505 514.49 210.812 513.87C211.12 513.245 211.552 512.766 212.109 512.434C212.666 512.097 213.305 511.929 214.028 511.929C215.097 511.929 215.964 512.273 216.628 512.961C217.297 513.65 217.658 514.563 217.712 515.701L217.719 516.118C217.719 516.899 217.568 517.598 217.265 518.213C216.967 518.828 216.538 519.304 215.976 519.641C215.419 519.978 214.775 520.146 214.042 520.146C212.924 520.146 212.028 519.775 211.354 519.033C210.686 518.286 210.351 517.292 210.351 516.052V515.964ZM212.131 516.118C212.131 516.934 212.299 517.573 212.636 518.037C212.973 518.496 213.442 518.726 214.042 518.726C214.643 518.726 215.109 518.491 215.441 518.022C215.778 517.554 215.947 516.868 215.947 515.964C215.947 515.164 215.773 514.529 215.427 514.06C215.085 513.591 214.619 513.357 214.028 513.357C213.447 513.357 212.985 513.589 212.644 514.053C212.302 514.512 212.131 515.2 212.131 516.118ZM224.025 519.224C223.503 519.839 222.761 520.146 221.799 520.146C220.939 520.146 220.288 519.895 219.843 519.392C219.404 518.889 219.184 518.162 219.184 517.209V512.075H220.964V517.188C220.964 518.193 221.381 518.696 222.216 518.696C223.081 518.696 223.664 518.386 223.967 517.766V512.075H225.747V520H224.069L224.025 519.224ZM231.708 513.701C231.474 513.662 231.232 513.643 230.983 513.643C230.168 513.643 229.619 513.955 229.335 514.58V520H227.556V512.075H229.255L229.299 512.961C229.729 512.273 230.324 511.929 231.086 511.929C231.34 511.929 231.55 511.963 231.716 512.031L231.708 513.701ZM236.74 520V509.336H240.395C241.601 509.336 242.519 509.578 243.149 510.061C243.779 510.544 244.094 511.265 244.094 512.222C244.094 512.71 243.962 513.149 243.698 513.54C243.435 513.931 243.049 514.233 242.541 514.448C243.117 514.604 243.562 514.9 243.874 515.334C244.191 515.764 244.35 516.282 244.35 516.887C244.35 517.888 244.028 518.657 243.383 519.194C242.744 519.731 241.826 520 240.629 520H236.74ZM238.593 515.188V518.521H240.651C241.232 518.521 241.687 518.376 242.014 518.088C242.341 517.8 242.504 517.4 242.504 516.887C242.504 515.779 241.938 515.212 240.805 515.188H238.593ZM238.593 513.826H240.41C240.986 513.826 241.435 513.696 241.757 513.438C242.084 513.174 242.248 512.803 242.248 512.324C242.248 511.797 242.097 511.416 241.794 511.182C241.496 510.947 241.03 510.83 240.395 510.83H238.593V513.826ZM247.924 520H246.145V508.75H247.924V520ZM254.67 519.224C254.147 519.839 253.405 520.146 252.443 520.146C251.584 520.146 250.932 519.895 250.488 519.392C250.048 518.889 249.829 518.162 249.829 517.209V512.075H251.608V517.188C251.608 518.193 252.026 518.696 252.861 518.696C253.725 518.696 254.309 518.386 254.611 517.766V512.075H256.391V520H254.714L254.67 519.224ZM261.694 520.146C260.566 520.146 259.65 519.792 258.947 519.084C258.249 518.372 257.9 517.424 257.9 516.243V516.023C257.9 515.232 258.051 514.526 258.354 513.906C258.662 513.281 259.091 512.795 259.643 512.449C260.195 512.102 260.81 511.929 261.489 511.929C262.568 511.929 263.4 512.273 263.986 512.961C264.577 513.65 264.873 514.624 264.873 515.884V516.602H259.694C259.748 517.256 259.965 517.773 260.346 518.154C260.732 518.535 261.215 518.726 261.796 518.726C262.612 518.726 263.276 518.396 263.789 517.737L264.748 518.652C264.431 519.126 264.006 519.495 263.474 519.758C262.946 520.017 262.353 520.146 261.694 520.146ZM261.481 513.357C260.993 513.357 260.598 513.528 260.295 513.87C259.997 514.211 259.807 514.688 259.724 515.298H263.115V515.166C263.076 514.57 262.917 514.121 262.639 513.818C262.36 513.511 261.975 513.357 261.481 513.357ZM268.491 510.149V512.075H269.89V513.394H268.491V517.817C268.491 518.12 268.549 518.34 268.667 518.477C268.789 518.608 269.003 518.674 269.311 518.674C269.516 518.674 269.724 518.65 269.934 518.601V519.978C269.528 520.09 269.138 520.146 268.762 520.146C267.395 520.146 266.711 519.392 266.711 517.883V513.394H265.407V512.075H266.711V510.149H268.491ZM270.703 515.964C270.703 515.188 270.856 514.49 271.164 513.87C271.472 513.245 271.904 512.766 272.46 512.434C273.017 512.097 273.657 511.929 274.379 511.929C275.449 511.929 276.315 512.273 276.979 512.961C277.648 513.65 278.01 514.563 278.063 515.701L278.071 516.118C278.071 516.899 277.919 517.598 277.617 518.213C277.319 518.828 276.889 519.304 276.328 519.641C275.771 519.978 275.126 520.146 274.394 520.146C273.276 520.146 272.38 519.775 271.706 519.033C271.037 518.286 270.703 517.292 270.703 516.052V515.964ZM272.482 516.118C272.482 516.934 272.651 517.573 272.988 518.037C273.325 518.496 273.793 518.726 274.394 518.726C274.995 518.726 275.461 518.491 275.793 518.022C276.13 517.554 276.298 516.868 276.298 515.964C276.298 515.164 276.125 514.529 275.778 514.06C275.437 513.591 274.97 513.357 274.379 513.357C273.798 513.357 273.337 513.589 272.995 514.053C272.653 514.512 272.482 515.2 272.482 516.118ZM279.243 515.964C279.243 515.188 279.396 514.49 279.704 513.87C280.012 513.245 280.444 512.766 281 512.434C281.557 512.097 282.197 511.929 282.919 511.929C283.989 511.929 284.855 512.273 285.52 512.961C286.188 513.65 286.55 514.563 286.604 515.701L286.611 516.118C286.611 516.899 286.459 517.598 286.157 518.213C285.859 518.828 285.429 519.304 284.868 519.641C284.311 519.978 283.667 520.146 282.934 520.146C281.816 520.146 280.92 519.775 280.246 519.033C279.577 518.286 279.243 517.292 279.243 516.052V515.964ZM281.022 516.118C281.022 516.934 281.191 517.573 281.528 518.037C281.865 518.496 282.333 518.726 282.934 518.726C283.535 518.726 284.001 518.491 284.333 518.022C284.67 517.554 284.838 516.868 284.838 515.964C284.838 515.164 284.665 514.529 284.318 514.06C283.977 513.591 283.51 513.357 282.919 513.357C282.338 513.357 281.877 513.589 281.535 514.053C281.193 514.512 281.022 515.2 281.022 516.118ZM290.346 510.149V512.075H291.745V513.394H290.346V517.817C290.346 518.12 290.405 518.34 290.522 518.477C290.644 518.608 290.859 518.674 291.167 518.674C291.372 518.674 291.579 518.65 291.789 518.601V519.978C291.384 520.09 290.993 520.146 290.617 520.146C289.25 520.146 288.566 519.392 288.566 517.883V513.394H287.263V512.075H288.566V510.149H290.346ZM294.865 512.939C295.446 512.266 296.181 511.929 297.07 511.929C298.759 511.929 299.616 512.893 299.641 514.822V520H297.861V514.888C297.861 514.341 297.741 513.955 297.502 513.73C297.268 513.501 296.921 513.386 296.462 513.386C295.749 513.386 295.217 513.704 294.865 514.338V520H293.085V508.75H294.865V512.939ZM304.848 515.964C304.848 515.188 305.002 514.49 305.31 513.87C305.617 513.245 306.049 512.766 306.606 512.434C307.163 512.097 307.802 511.929 308.525 511.929C309.594 511.929 310.461 512.273 311.125 512.961C311.794 513.65 312.155 514.563 312.209 515.701L312.216 516.118C312.216 516.899 312.065 517.598 311.762 518.213C311.464 518.828 311.035 519.304 310.473 519.641C309.917 519.978 309.272 520.146 308.54 520.146C307.421 520.146 306.525 519.775 305.852 519.033C305.183 518.286 304.848 517.292 304.848 516.052V515.964ZM306.628 516.118C306.628 516.934 306.796 517.573 307.133 518.037C307.47 518.496 307.939 518.726 308.54 518.726C309.14 518.726 309.606 518.491 309.938 518.022C310.275 517.554 310.444 516.868 310.444 515.964C310.444 515.164 310.271 514.529 309.924 514.06C309.582 513.591 309.116 513.357 308.525 513.357C307.944 513.357 307.482 513.589 307.141 514.053C306.799 514.512 306.628 515.2 306.628 516.118ZM315.373 512.075L315.424 512.991C316.01 512.283 316.779 511.929 317.731 511.929C319.382 511.929 320.222 512.874 320.251 514.763V520H318.471V514.866C318.471 514.363 318.361 513.992 318.142 513.752C317.927 513.508 317.573 513.386 317.08 513.386C316.362 513.386 315.827 513.711 315.476 514.36V520H313.696V512.075H315.373Z" fill="#2E374D"/>
<path d="M238 355C217.566 355 201 371.566 201 392C201 412.434 217.566 429 238 429C258.434 429 275 412.434 275 392C275 371.566 258.434 355 238 355ZM234.781 366C235.048 365.969 235.318 365.991 235.576 366.066C235.833 366.141 236.073 366.268 236.281 366.438L251.281 378.438C251.516 378.625 251.705 378.863 251.835 379.133C251.965 379.404 252.033 379.7 252.033 380C252.033 380.3 251.965 380.596 251.835 380.867C251.705 381.137 251.516 381.375 251.281 381.562L238.125 392L251.281 402.406C251.521 402.593 251.716 402.833 251.849 403.106C251.983 403.38 252.052 403.68 252.052 403.984C252.052 404.289 251.983 404.589 251.849 404.863C251.716 405.136 251.521 405.376 251.281 405.563L236.281 417.563C235.987 417.798 235.632 417.946 235.258 417.988C234.883 418.031 234.504 417.967 234.165 417.804C233.825 417.64 233.538 417.384 233.338 417.065C233.137 416.746 233.031 416.377 233.031 416V396L227.281 400.562C227.074 400.728 226.836 400.851 226.582 400.924C226.327 400.998 226.06 401.02 225.797 400.99C225.533 400.96 225.278 400.879 225.047 400.75C224.815 400.621 224.611 400.448 224.446 400.24C224.281 400.032 224.16 399.794 224.087 399.539C224.015 399.284 223.994 399.017 224.025 398.753C224.056 398.49 224.139 398.236 224.269 398.004C224.398 397.773 224.573 397.57 224.781 397.406L231.625 392L224.781 386.562C224.458 386.321 224.215 385.988 224.085 385.606C223.954 385.224 223.942 384.812 224.05 384.423C224.159 384.034 224.382 383.688 224.691 383.428C224.999 383.168 225.38 383.008 225.781 382.969C226.048 382.937 226.318 382.96 226.576 383.035C226.833 383.11 227.073 383.236 227.281 383.406L233.031 387.969V368C233.027 367.51 233.203 367.036 233.526 366.667C233.849 366.299 234.295 366.061 234.781 366V366ZM237.031 372.156V387.719L246.812 379.969L237.031 372.156ZM237.031 396.25V411.844L246.812 404L237.031 396.25Z" fill="#85C4FF"/>
<line x1="352.026" y1="301.906" x2="368.026" y2="316.906" stroke="black" stroke-width="3"/>
<line x1="351.974" y1="316.906" x2="367.974" y2="301.906" stroke="black" stroke-width="3"/>
<rect x="181" y="552" width="132" height="43" rx="8" fill="#2B44FF"/>
<path d="M227.023 575.188C226.987 575.98 226.773 576.681 226.383 577.29C225.992 577.894 225.443 578.363 224.734 578.696C224.031 579.03 223.227 579.196 222.32 579.196C220.826 579.196 219.648 578.709 218.789 577.735C217.93 576.761 217.5 575.386 217.5 573.61V573.048C217.5 571.933 217.693 570.959 218.078 570.126C218.469 569.287 219.029 568.642 219.758 568.188C220.487 567.73 221.331 567.501 222.289 567.501C223.669 567.501 224.779 567.865 225.617 568.595C226.456 569.319 226.932 570.319 227.047 571.595H224.312C224.292 570.902 224.117 570.405 223.789 570.102C223.461 569.8 222.961 569.649 222.289 569.649C221.607 569.649 221.107 569.905 220.789 570.415C220.471 570.925 220.305 571.74 220.289 572.86V573.665C220.289 574.879 220.44 575.746 220.742 576.267C221.049 576.787 221.576 577.048 222.32 577.048C222.951 577.048 223.432 576.899 223.766 576.602C224.099 576.306 224.276 575.834 224.297 575.188H227.023ZM227.867 574.735C227.867 573.892 228.031 573.142 228.359 572.485C228.688 571.824 229.159 571.316 229.773 570.962C230.388 570.608 231.109 570.431 231.938 570.431C233.203 570.431 234.201 570.824 234.93 571.61C235.659 572.392 236.023 573.457 236.023 574.806V574.899C236.023 576.217 235.656 577.264 234.922 578.04C234.193 578.811 233.203 579.196 231.953 579.196C230.75 579.196 229.784 578.837 229.055 578.118C228.326 577.394 227.932 576.415 227.875 575.181L227.867 574.735ZM230.5 574.899C230.5 575.681 230.622 576.254 230.867 576.618C231.112 576.983 231.474 577.165 231.953 577.165C232.891 577.165 233.37 576.444 233.391 575.001V574.735C233.391 573.22 232.906 572.462 231.938 572.462C231.057 572.462 230.581 573.115 230.508 574.423L230.5 574.899ZM239.602 570.587L239.688 571.579C240.271 570.813 241.076 570.431 242.102 570.431C242.982 570.431 243.638 570.694 244.07 571.22C244.508 571.746 244.734 572.537 244.75 573.595V579.04H242.109V573.704C242.109 573.277 242.023 572.964 241.852 572.767C241.68 572.563 241.367 572.462 240.914 572.462C240.398 572.462 240.016 572.665 239.766 573.071V579.04H237.133V570.587H239.602ZM248.633 570.587L248.719 571.579C249.302 570.813 250.107 570.431 251.133 570.431C252.013 570.431 252.669 570.694 253.102 571.22C253.539 571.746 253.766 572.537 253.781 573.595V579.04H251.141V573.704C251.141 573.277 251.055 572.964 250.883 572.767C250.711 572.563 250.398 572.462 249.945 572.462C249.43 572.462 249.047 572.665 248.797 573.071V579.04H246.164V570.587H248.633ZM259.336 579.196C258.039 579.196 256.99 578.811 256.188 578.04C255.385 577.264 254.984 576.256 254.984 575.017V574.798C254.984 573.933 255.143 573.17 255.461 572.509C255.784 571.847 256.253 571.337 256.867 570.977C257.482 570.613 258.211 570.431 259.055 570.431C260.242 570.431 261.18 570.8 261.867 571.54C262.555 572.274 262.898 573.3 262.898 574.618V575.642H257.664C257.758 576.115 257.964 576.488 258.281 576.759C258.599 577.03 259.01 577.165 259.516 577.165C260.349 577.165 261 576.873 261.469 576.29L262.672 577.712C262.344 578.165 261.878 578.527 261.273 578.798C260.674 579.063 260.029 579.196 259.336 579.196ZM259.039 572.462C258.268 572.462 257.81 572.972 257.664 573.993H260.32V573.79C260.331 573.368 260.224 573.043 260 572.813C259.776 572.579 259.456 572.462 259.039 572.462ZM267.539 577.165C267.909 577.165 268.195 577.066 268.398 576.868C268.602 576.665 268.701 576.384 268.695 576.024H271.164C271.164 576.951 270.831 577.712 270.164 578.306C269.503 578.899 268.648 579.196 267.602 579.196C266.372 579.196 265.404 578.811 264.695 578.04C263.987 577.269 263.633 576.201 263.633 574.837V574.727C263.633 573.873 263.789 573.121 264.102 572.47C264.419 571.813 264.875 571.311 265.469 570.962C266.062 570.608 266.766 570.431 267.578 570.431C268.677 570.431 269.549 570.735 270.195 571.345C270.841 571.954 271.164 572.78 271.164 573.821H268.695C268.695 573.384 268.589 573.048 268.375 572.813C268.161 572.579 267.875 572.462 267.516 572.462C266.833 572.462 266.435 572.897 266.32 573.767C266.284 574.043 266.266 574.423 266.266 574.907C266.266 575.756 266.367 576.345 266.57 576.673C266.773 577.001 267.096 577.165 267.539 577.165ZM275.344 568.485V570.587H276.734V572.415H275.344V576.282C275.344 576.6 275.401 576.821 275.516 576.946C275.63 577.071 275.857 577.134 276.195 577.134C276.456 577.134 276.674 577.118 276.852 577.087V578.97C276.378 579.121 275.883 579.196 275.367 579.196C274.461 579.196 273.792 578.983 273.359 578.556C272.927 578.129 272.711 577.48 272.711 576.61V572.415H271.633V570.587H272.711V568.485H275.344Z" fill="white"/>
<g opacity="0.504511">
<path fill-rule="evenodd" clip-rule="evenodd" d="M447.288 177.033C549.155 39.8859 817.46 90.6355 936.596 268.02C1055.73 445.405 937.865 733.104 752.964 801.597C568.063 870.09 345.422 314.181 447.288 177.033Z" fill="#FCE8CF"/>
</g>
<g opacity="0.504511">
<path fill-rule="evenodd" clip-rule="evenodd" d="M447.288 177.033C549.155 39.8859 817.46 90.6355 936.596 268.02C1055.73 445.405 937.865 733.104 752.964 801.597C568.063 870.09 345.422 314.181 447.288 177.033Z" fill="#FCE8CF"/>
</g>
<g opacity="0.504511">
<path fill-rule="evenodd" clip-rule="evenodd" d="M447.288 177.033C549.155 39.8859 817.46 90.6355 936.596 268.02C1055.73 445.405 937.865 733.104 752.964 801.597C568.063 870.09 345.422 314.181 447.288 177.033Z" fill="#FCE8CF"/>
</g>
<path d="M800.191 512.185L825.248 547.109L843.004 571.947L832.68 588.967L799.113 568.605C799.113 568.605 793.598 571.566 778.697 574.007C763.679 576.376 744.581 564.145 737.73 559.181L691.701 541.77C688.152 540.425 686.369 536.434 687.786 532.766C689.059 529.334 693.168 527.623 696.6 528.896L737.335 542.773C737.998 543.013 738.711 542.637 739.069 542.046C739.381 541.265 739.005 540.552 738.414 540.194L685.31 515.257C681.359 513.507 679.627 508.899 681.423 505.139C683.101 501.306 687.684 499.882 691.47 501.37L742.645 523.358C743.189 523.526 743.759 523.387 744.164 522.986C744.712 522.348 744.551 521.281 743.842 520.85L686.151 488.281C681.846 486.316 680.021 481.329 681.914 477.141C683.735 473.072 688.415 471.222 692.581 472.617L749.477 502.764C751.702 503.629 752.068 501.426 750.535 499.687L709.062 466.77C706.799 464.103 706.604 460.428 708.324 457.591C708.683 457 709.088 456.599 709.565 456.08C712.471 453.154 717.189 453.106 720.377 455.847L761.371 484.756L764.892 487.215L769.995 490.796C772.954 491.782 776.453 493.743 781.565 495.712C784.216 496.673 787.293 497.731 790.821 498.578C797.452 500.175 799.746 506.255 800.191 512.185Z" fill="#FAB29A"/>
<path opacity="0.5" d="M800.19 512.184L825.247 547.109C819.945 555.049 811.675 559.087 798.92 554.26C756.749 538.219 780.149 503.908 780.149 503.908C780.3 502.059 780.957 498.578 781.635 495.594C784.286 496.555 787.363 497.613 790.891 498.46C797.45 500.175 799.744 506.255 800.19 512.184Z" fill="#CC8A79"/>
<path d="M809.423 460.711C804.114 460.401 796.092 462.164 791.36 469.965C785.41 479.775 788.122 487.564 788.122 487.564C788.122 487.564 783.727 494.276 783.516 503.687C783.516 503.687 765.538 534.659 795.678 552.941L838.701 579.038L854.33 553.272L819.581 532.193L812.776 517.556C810.955 511.762 808.136 501.483 807.985 493.469C807.985 493.469 809.876 474.891 812.531 465.183C813.087 462.933 811.58 460.887 809.423 460.711Z" fill="#FAB29A"/>
<path opacity="0.5" d="M761.369 484.756L764.89 487.215C739.422 532.398 740.174 553.55 740.352 555.922C736.872 530.205 757.662 491.4 761.369 484.756Z" fill="#CC8A79"/>
<rect x="847.543" y="531.17" width="184.568" height="72.8494" transform="rotate(31.5198 847.543 531.17)" fill="#4678B2"/>
<g clip-path="url(#clip0)">
<path d="M590.863 337.463L569.952 379.126L555.149 408.745L569.097 425.223L601.596 397.715C601.596 397.715 608.005 399.95 624.381 400.035C640.87 400.024 659.25 383.681 665.746 377.2L712.094 350.737C715.668 348.694 716.9 344.116 714.76 340.427C712.814 336.968 708.121 335.833 704.661 337.779L663.384 359.558C662.715 359.928 661.887 359.646 661.403 359.074C660.936 358.29 661.218 357.463 661.79 356.978L714.44 321.253C718.375 318.708 719.448 313.478 716.885 309.754C714.437 305.934 709.287 305.186 705.484 307.423L654.401 339.663C653.846 339.936 653.212 339.883 652.71 339.522C652.015 338.932 652.006 337.761 652.692 337.18L708.959 292.5C713.237 289.665 714.346 284.012 711.607 279.849C708.965 275.799 703.639 274.612 699.413 276.813L643.586 318.764C641.35 320.067 640.584 317.77 641.93 315.648L680.766 273.348C682.738 270.108 682.323 266.137 679.998 263.391C679.514 262.818 679.012 262.458 678.413 261.982C674.803 259.342 669.741 260.091 666.793 263.569L627.789 301.493L624.435 304.725L619.576 309.427C616.575 310.986 613.159 313.68 608.018 316.657C605.342 318.136 602.226 319.792 598.59 321.298C591.759 324.134 590.334 331.036 590.863 337.463Z" fill="#FAB29A"/>
<path opacity="0.5" d="M590.863 337.463L569.952 379.127C576.979 386.732 586.523 389.653 599.366 382.317C641.814 357.977 610.925 325.196 610.925 325.196C610.449 323.242 609.155 319.624 607.922 316.543C605.245 318.022 602.129 319.678 598.493 321.184C591.759 324.134 590.334 331.037 590.863 337.463Z" fill="#CC8A79"/>
<path d="M572.234 283.895C577.868 282.661 586.76 283.188 593.153 290.741C601.192 300.239 599.609 309.043 599.609 309.043C599.609 309.043 605.456 315.486 607.28 325.531C607.28 325.531 631.795 355.654 602.614 380.354L560.96 415.611L539.845 390.664L573.488 362.187L578.292 345.354C579.26 338.839 580.534 327.349 579.336 318.739C579.336 318.739 574.156 299.16 569.664 289.213C568.687 286.898 569.954 284.45 572.234 283.895Z" fill="#FAB29A"/>
<path opacity="0.5" d="M627.789 301.493L624.435 304.725C659.385 348.8 662.171 371.584 662.383 374.155C661.744 346.018 632.888 307.981 627.789 301.493Z" fill="#CC8A79"/>
<path d="M710.82 325.028C710.947 325.066 711.08 324.994 711.118 324.867L711.739 322.799C711.777 322.672 711.705 322.538 711.578 322.5C711.451 322.462 711.317 322.534 711.279 322.661L710.728 324.499L708.89 323.948C708.763 323.91 708.629 323.982 708.591 324.109C708.553 324.235 708.625 324.369 708.752 324.407L710.82 325.028ZM702.88 310.43L710.677 324.912L711.1 324.684L703.302 310.202L702.88 310.43Z" fill="black"/>
</g>
<rect x="605.238" y="476.293" width="308.151" height="182.985" rx="11.4932" transform="rotate(-90 605.238 476.293)" fill="white"/>
<rect x="621.122" y="454.691" width="265.582" height="150.581" transform="rotate(-90 621.122 454.691)" fill="#C3DCF3"/>
<rect width="156.747" height="75.7865" transform="matrix(-0.760121 0.649781 0.649781 0.760121 538.73 369.754)" fill="#4678B2"/>
<rect x="689.758" y="535.032" width="99.7527" height="6.13863" transform="rotate(23.9871 689.758 535.032)" fill="#5D2911"/>
<path d="M847.047 381.616L790.962 356.661L784.955 375.824L836.132 398.596L847.047 381.616Z" fill="#5D2911"/>
<path fill-rule="evenodd" clip-rule="evenodd" d="M779.237 579.128C777.569 580.416 774.97 581.226 771.547 581.503L691.621 545.939C689.535 543.211 688.397 540.738 688.237 538.636L779.237 579.128ZM790.733 475.641C818.103 493.526 832.339 520.372 823.28 540.731C816.356 556.292 797.514 564.279 774.912 563.455C780.109 568.742 782.483 573.569 780.96 576.993L688.669 535.928C690.193 532.504 695.367 531.036 702.775 531.357C687.031 515.118 680.351 495.775 687.274 480.214C696.334 459.855 725.806 452.457 757.415 460.816L784.935 372.897L837.619 396.34L790.733 475.641ZM840.335 391.746L786.529 367.805L788.125 362.717L843.046 387.155L840.335 391.746ZM845.76 382.565L789.717 357.628C789.717 357.628 790.946 353.699 791.878 350.722C792.139 349.89 792.743 349.21 793.54 348.852C794.336 348.493 795.25 348.49 796.051 348.847C806.186 353.356 837.909 367.472 848.043 371.981C848.845 372.338 849.454 373.018 849.721 373.85C849.988 374.682 849.887 375.585 849.444 376.336L845.76 382.565Z" fill="#CE8050"/>
<path d="M825.851 391.502L837.769 396.805L790.833 475.864C818.811 493.016 825.486 515.639 825.327 524.807C826.87 559.088 792.51 563.955 775.136 562.104C822.325 548.163 801.524 497.138 785.225 473.368L825.851 391.502Z" fill="#5D2911"/>
<path d="M696.764 281.356C677.36 281.356 661.629 297.087 661.629 316.492C661.629 335.897 677.36 351.628 696.764 351.628C716.169 351.628 731.9 335.897 731.9 316.492C731.9 297.087 716.169 281.356 696.764 281.356ZM693.708 291.802C693.961 291.772 694.218 291.794 694.462 291.865C694.707 291.936 694.935 292.056 695.132 292.218L709.376 303.613C709.599 303.791 709.779 304.017 709.902 304.273C710.026 304.53 710.09 304.812 710.09 305.097C710.09 305.382 710.026 305.663 709.902 305.92C709.779 306.177 709.599 306.402 709.376 306.58L696.883 316.492L709.376 326.374C709.604 326.551 709.789 326.779 709.916 327.038C710.043 327.298 710.109 327.583 710.109 327.872C710.109 328.162 710.043 328.447 709.916 328.706C709.789 328.966 709.604 329.193 709.376 329.371L695.132 340.766C694.853 340.99 694.516 341.13 694.16 341.171C693.805 341.211 693.445 341.15 693.122 340.995C692.8 340.84 692.528 340.597 692.337 340.294C692.147 339.991 692.046 339.641 692.046 339.283L692.046 320.29L686.586 324.623C686.389 324.78 686.163 324.897 685.921 324.967C685.68 325.036 685.426 325.058 685.176 325.029C684.926 325.001 684.684 324.923 684.464 324.801C684.244 324.679 684.05 324.514 683.894 324.317C683.737 324.119 683.621 323.893 683.553 323.651C683.484 323.409 683.464 323.155 683.494 322.905C683.523 322.655 683.602 322.413 683.725 322.194C683.848 321.974 684.014 321.781 684.212 321.626L690.711 316.492L684.212 311.328C683.905 311.099 683.674 310.783 683.55 310.42C683.426 310.058 683.415 309.666 683.518 309.297C683.62 308.928 683.832 308.598 684.126 308.352C684.419 308.105 684.78 307.953 685.161 307.916C685.415 307.886 685.671 307.907 685.916 307.979C686.161 308.05 686.388 308.17 686.586 308.331L692.046 312.664L692.046 293.701C692.042 293.236 692.21 292.786 692.516 292.436C692.822 292.086 693.246 291.86 693.708 291.802V291.802ZM695.844 297.648L695.844 312.426L705.133 305.067L695.844 297.648ZM695.844 320.528L695.844 335.336L705.133 327.887L695.844 320.528Z" fill="#729DCF"/>
<defs>
<filter id="filter0_d" x="88" y="278" width="310" height="365" filterUnits="userSpaceOnUse" color-interpolation-filters="sRGB">
<feFlood flood-opacity="0" result="BackgroundImageFix"/>
<feColorMatrix in="SourceAlpha" type="matrix" values="0 0 0 0 0 0 0 0 0 0 0 0 0 0 0 0 0 0 127 0"/>
<feOffset dx="5" dy="5"/>
<feGaussianBlur stdDeviation="3"/>
<feColorMatrix type="matrix" values="0 0 0 0 0 0 0 0 0 0 0 0 0 0 0 0 0 0 0.25 0"/>
<feBlend mode="normal" in2="BackgroundImageFix" result="effect1_dropShadow"/>
<feBlend mode="normal" in="SourceGraphic" in2="effect1_dropShadow" result="shape"/>
</filter>
<clipPath id="clip0">
<rect width="141.978" height="202.847" fill="white" transform="matrix(-0.646068 -0.76328 -0.76328 0.646068 746.979 321.406)"/>
</clipPath>
</defs>
</svg>
