<svg width="1366" height="965" viewBox="0 0 1366 965" fill="none" xmlns="http://www.w3.org/2000/svg">
<g clip-path="url(#clip0)">
<rect width="1365.6" height="965" fill="#E2A09A"/>
<g filter="url(#filter0_d)">
<rect x="682.375" y="868.255" width="776.593" height="427.757" rx="33.9234" transform="rotate(-90 682.375 868.255)" fill="#4678B2"/>
<rect x="998.062" y="817.121" width="24.0662" height="24.3633" fill="#729DCF"/>
<rect x="882.837" y="815.523" width="29.1327" height="29.4924" rx="14.5664" fill="#729DCF"/>
<path d="M805.216 843.29L781.348 829.618L804.978 815.529L805.216 843.29Z" fill="#729DCF"/>
<rect x="709.208" y="132.702" width="374.09" height="662.945" fill="#C3DCF3"/>
</g>
<g clip-path="url(#clip1)">
<rect width="375.242" height="667.098" transform="translate(707.836 127.309)" fill="#F0DABE"/>
<g opacity="0.504511">
<path fill-rule="evenodd" clip-rule="evenodd" d="M950.137 509.358C1040.07 523.804 1089.17 585.021 1040.39 620.912C991.621 656.803 828.767 647.343 747.773 610.975C666.78 574.607 860.207 494.913 950.137 509.358Z" fill="#DAC1A2"/>
</g>
<g opacity="0.504511">
<path fill-rule="evenodd" clip-rule="evenodd" d="M950.137 509.358C1040.07 523.804 1089.17 585.021 1040.39 620.912C991.621 656.803 828.767 647.343 747.773 610.975C666.78 574.607 860.207 494.913 950.137 509.358Z" fill="#DAC1A2"/>
</g>
<g opacity="0.504511">
<path fill-rule="evenodd" clip-rule="evenodd" d="M950.137 509.358C1040.07 523.804 1089.17 585.021 1040.39 620.912C991.621 656.803 828.767 647.343 747.773 610.975C666.78 574.607 860.207 494.913 950.137 509.358Z" fill="#DAC1A2"/>
</g>
<g opacity="0.504511">
<path fill-rule="evenodd" clip-rule="evenodd" d="M950.137 509.358C1040.07 523.804 1089.17 585.021 1040.39 620.912C991.621 656.803 828.767 647.343 747.773 610.975C666.78 574.607 860.207 494.913 950.137 509.358Z" fill="#DAC1A2"/>
</g>
<g opacity="0.504511">
<path fill-rule="evenodd" clip-rule="evenodd" d="M950.137 509.358C1040.07 523.804 1089.17 585.021 1040.39 620.912C991.621 656.803 828.767 647.343 747.773 610.975C666.78 574.607 860.207 494.913 950.137 509.358Z" fill="#DAC1A2"/>
</g>
<g opacity="0.504511">
<path fill-rule="evenodd" clip-rule="evenodd" d="M950.137 509.358C1040.07 523.804 1089.17 585.021 1040.39 620.912C991.621 656.803 828.767 647.343 747.773 610.975C666.78 574.607 860.207 494.913 950.137 509.358Z" fill="#DAC1A2"/>
</g>
<path d="M891.895 354.984C891.895 354.984 875.218 357.069 867.192 353.108C859.166 349.147 851.765 343.102 850.202 338.098C848.638 333.095 862.501 301.304 867.609 298.073C872.612 294.841 883.348 284.939 900.755 287.232C918.162 289.525 891.895 354.984 891.895 354.984Z" fill="#E09E4F"/>
<path d="M903.778 354.88C903.778 354.88 920.456 356.964 928.482 353.004C936.508 349.043 943.908 342.997 945.472 337.994C947.035 332.991 933.172 301.199 928.065 297.968C923.062 294.737 912.325 284.835 894.918 287.128C877.511 289.421 903.778 354.88 903.778 354.88Z" fill="#E09E4F"/>
<path d="M900.13 360.717C894.501 360.717 889.915 356.235 889.915 350.606V329.134H910.241V350.606C910.345 356.235 905.759 360.717 900.13 360.717Z" fill="#F2B7B1"/>
<path d="M890.019 337.056C890.019 337.056 895.648 349.043 902.006 348.418C911.908 347.48 910.24 333.408 910.24 333.408C910.24 333.408 906.384 342.789 900.338 342.789C893.563 342.789 890.019 337.056 890.019 337.056Z" fill="#1A1A1A"/>
<path d="M881.993 320.483L880.846 308.704C879.387 301.095 885.224 297.134 890.436 297.134H908.26C913.68 297.134 920.247 301.095 917.432 309.642L915.869 322.567L881.993 320.483Z" fill="#E09E4F"/>
<path d="M914.618 326.945C918.162 329.551 924.312 317.668 920.872 314.854C917.433 312.04 915.14 317.251 915.14 317.251L915.035 321.629L914.514 325.694L914.306 326.945H914.618Z" fill="#F2B7B1"/>
<path d="M919.935 318.502C919.935 318.502 917.329 317.668 915.557 321.421" stroke="#D26665" stroke-width="0.702016" stroke-miterlimit="10" stroke-linecap="round" stroke-linejoin="round"/>
<path d="M916.808 319.544C916.808 319.544 919.622 321.004 917.746 323.297" stroke="#D26665" stroke-width="0.702016" stroke-miterlimit="10" stroke-linecap="round" stroke-linejoin="round"/>
<path d="M883.766 326.945C880.222 329.551 874.072 317.668 877.512 314.854C880.951 312.04 883.14 317.251 883.14 317.251L883.349 321.525L883.87 325.59L884.078 326.841L883.766 326.945Z" fill="#F2B7B1"/>
<path d="M878.45 318.502C878.45 318.502 881.056 317.668 882.828 321.421" stroke="#D26665" stroke-width="0.702016" stroke-miterlimit="10" stroke-linecap="round" stroke-linejoin="round"/>
<path d="M881.68 319.544C881.68 319.544 878.866 321.004 880.742 323.297" stroke="#D26665" stroke-width="0.702016" stroke-miterlimit="10" stroke-linecap="round" stroke-linejoin="round"/>
<path d="M915.765 311.623C915.765 319.023 914.827 325.382 913.785 329.864C912.847 334.241 910.137 338.098 906.384 340.6L905.654 341.017C901.589 343.622 896.482 343.727 892.312 341.225C888.143 338.723 885.329 334.554 884.391 329.759C882.827 321.108 882.619 311.623 882.619 311.623C882.619 311.623 881.159 293.069 898.983 293.486C916.912 293.799 915.765 311.623 915.765 311.623Z" fill="#F2B7B1"/>
<path d="M912.012 295.675C906.384 291.714 899.192 289.421 893.146 292.235C893.25 290.463 887.83 293.486 887.83 293.486C881.68 300.991 884.182 301.929 884.182 301.929C884.182 301.929 880.847 301.929 884.286 301.929C883.14 304.326 881.68 309.538 883.035 318.919C883.035 318.919 885.85 308.704 885.954 302.658C890.749 304.743 903.778 309.85 912.325 307.036C913.159 312.248 915.452 318.919 915.452 318.919C916.39 312.873 915.973 308.495 915.348 305.577C915.869 305.16 916.39 304.847 916.807 304.326C916.807 304.326 920.038 301.303 912.012 295.675Z" fill="#E09E4F"/>
<path d="M899.087 331.636C900.181 331.636 901.067 331.403 901.067 331.115C901.067 330.827 900.181 330.594 899.087 330.594C897.993 330.594 897.106 330.827 897.106 331.115C897.106 331.403 897.993 331.636 899.087 331.636Z" fill="#EA7A82"/>
<path d="M898.983 332.574C899.616 332.574 900.13 332.247 900.13 331.844C900.13 331.441 899.616 331.115 898.983 331.115C898.35 331.115 897.836 331.441 897.836 331.844C897.836 332.247 898.35 332.574 898.983 332.574Z" fill="#EA7A82"/>
<path d="M898.358 321.525L897.42 324.86C897.42 324.965 897.42 325.069 897.42 325.173C897.628 325.59 898.254 326.007 898.983 326.111L900.547 326.32" stroke="#D26665" stroke-width="0.536075" stroke-miterlimit="10" stroke-linecap="round" stroke-linejoin="round"/>
<path d="M891.791 318.711C892.655 318.711 893.355 318.011 893.355 317.147C893.355 316.284 892.655 315.584 891.791 315.584C890.928 315.584 890.228 316.284 890.228 317.147C890.228 318.011 890.928 318.711 891.791 318.711Z" fill="#1A1A1A"/>
<path d="M906.071 318.711C906.935 318.711 907.635 318.011 907.635 317.147C907.635 316.284 906.935 315.584 906.071 315.584C905.208 315.584 904.508 316.284 904.508 317.147C904.508 318.011 905.208 318.711 906.071 318.711Z" fill="#1A1A1A"/>
<path d="M888.873 316.626L890.228 317.147" stroke="#1A1A1A" stroke-width="0.295503" stroke-miterlimit="10" stroke-linecap="round" stroke-linejoin="round"/>
<path d="M889.081 315.584L890.332 316.835" stroke="#1A1A1A" stroke-width="0.295503" stroke-miterlimit="10" stroke-linecap="round" stroke-linejoin="round"/>
<path d="M908.885 316.73L907.53 317.252" stroke="#1A1A1A" stroke-width="0.295503" stroke-miterlimit="10" stroke-linecap="round" stroke-linejoin="round"/>
<path d="M908.677 315.688L907.426 317.043" stroke="#1A1A1A" stroke-width="0.295503" stroke-miterlimit="10" stroke-linecap="round" stroke-linejoin="round"/>
<path d="M896.69 331.115L897.003 331.219C898.358 331.74 899.817 331.74 901.172 331.219L901.485 331.115" stroke="#D26665" stroke-width="0.513665" stroke-miterlimit="10" stroke-linecap="round" stroke-linejoin="round"/>
<path d="M895.022 313.395L895.126 312.04L891.27 311.831C890.748 311.831 890.332 311.936 889.915 312.04L888.351 313.082L890.957 312.978L895.022 313.395Z" fill="#E09E4F"/>
<path d="M902.944 312.353L902.84 310.893H908.052C908.677 310.893 909.302 310.998 909.824 311.206L911.908 312.457L908.468 312.144L902.944 312.353Z" fill="#E09E4F"/>
<path d="M923.478 443.479H875.739L877.302 419.296H921.393L923.478 443.479Z" fill="#1A1A1A"/>
<path d="M875.738 443.166L874.279 499.139C874.071 504.142 878.136 508.416 883.243 508.416C887.83 508.416 891.686 504.976 892.103 500.39L897.732 444.729C898.461 438.162 893.25 432.534 886.787 432.534C880.846 432.534 875.947 437.224 875.738 443.166Z" fill="#1A1A1A"/>
<path d="M874.383 580.65L875.113 554.487L885.432 554.591L884.702 580.65H874.383Z" fill="white"/>
<path d="M886.68 576.376L888.661 585.132H854.055V584.923C854.055 582.943 855.202 581.066 856.974 580.233L873.026 573.874C873.651 573.562 874.381 573.562 874.798 574.083C876.882 576.272 879.176 579.816 885.534 575.959C885.951 575.542 886.576 575.855 886.68 576.376Z" fill="#1A1A1A"/>
<path d="M854.032 587.354H888.638V585.061H854.032V587.354Z" fill="white"/>
<path d="M874.8 586.174L871.777 579.816" stroke="white" stroke-width="1.98284" stroke-miterlimit="10"/>
<path d="M870.214 586.07L868.025 581.275" stroke="white" stroke-width="1.98284" stroke-miterlimit="10"/>
<path d="M892.207 500.703L888.142 568.559H871.465L874.383 499.452C874.488 494.448 878.761 490.592 883.764 490.8C888.872 491.009 892.729 495.491 892.207 500.703Z" fill="#1A1A1A"/>
<path d="M923.478 443.166L924.937 499.139C925.145 504.143 921.08 508.416 915.973 508.416C911.387 508.416 907.53 504.977 907.113 500.39L901.484 444.729C900.755 438.163 905.966 432.534 912.429 432.534C918.37 432.534 923.269 437.224 923.478 443.166Z" fill="#1A1A1A"/>
<path d="M924.52 580.65L923.79 554.487L913.471 554.591L914.097 580.65H924.52Z" fill="white"/>
<path d="M912.221 576.376L910.24 585.132H944.846V584.923C944.846 582.943 943.699 581.067 941.927 580.233L925.875 573.875C925.25 573.562 924.52 573.562 924.103 574.083C922.019 576.272 919.726 579.816 913.367 575.959C912.95 575.542 912.325 575.855 912.221 576.376Z" fill="#1A1A1A"/>
<path d="M944.846 585.132H910.24V587.425H944.846V585.132Z" fill="white"/>
<path d="M924.104 586.174L927.126 579.816" stroke="white" stroke-width="1.98284" stroke-miterlimit="10"/>
<path d="M928.69 586.07L930.879 581.276" stroke="white" stroke-width="1.98284" stroke-miterlimit="10"/>
<path d="M907.009 500.703L911.074 568.559H926.709L924.728 499.452C924.624 494.449 920.351 490.592 915.347 490.801C910.344 491.009 906.487 495.491 907.009 500.703Z" fill="#1A1A1A"/>
<path d="M907.634 348.313L899.4 348.417L891.269 348.313L874.071 355.609L888.351 419.296H899.4H910.344L924.937 355.609L907.634 348.313Z" fill="#F2B7B1"/>
<path d="M913.575 350.815L907.738 348.313L899.399 348.417L891.269 348.313L885.432 350.815C885.432 350.815 885.953 358.007 899.295 358.111H899.504C913.054 358.007 913.575 350.815 913.575 350.815Z" fill="#F2B7B1"/>
<path d="M888.161 419.297L880.846 385.837L917.537 387.609L910.344 419.297H888.161Z" fill="#968D81"/>
<path d="M886.012 293.608L877.847 311.433C875.662 316.378 873.477 320.403 871.292 324.543C870.717 325.577 870.142 326.612 869.567 327.647C868.992 328.682 868.417 329.717 867.727 330.867C867.037 332.132 866.117 333.627 865.312 334.892C864.507 336.272 863.472 337.537 862.437 338.917C860.367 341.562 858.182 344.092 855.423 346.392C854.043 347.542 852.663 348.692 851.053 349.842C849.558 350.992 847.833 352.027 845.878 352.947L844.383 352.487L847.143 343.517L850.018 334.547C850.938 331.557 851.973 328.567 853.008 325.577L854.733 321.093L857.033 316.723C860.137 311.088 864.162 305.913 868.992 301.658C873.822 297.403 879.342 294.068 885.552 291.998L886.012 293.608Z" fill="#F9544D"/>
<path d="M899.4 419.297C899.4 419.297 825.081 402.515 790.163 452.339C755.245 502.163 768.795 587.426 768.795 587.426H899.087L899.4 419.297Z" fill="#F6F6F6"/>
<path d="M897.42 419.297C897.42 419.297 971.739 402.515 1006.66 452.339C1041.58 502.163 1028.03 587.426 1028.03 587.426H897.733L897.42 419.297Z" fill="#F6F6F6"/>
<path d="M1027.83 584.69C1027.83 602.536 973.951 611.997 900.409 611.997C826.867 611.997 758.911 593.235 769.856 584.69C772.983 568.219 826.867 547.372 900.409 547.372C973.951 547.372 1027.83 566.844 1027.83 584.69Z" fill="#F6F6F6"/>
<path d="M899.106 495.254L767.25 516.101L766.208 537.99L899.106 517.144L1029.92 537.99L1028.88 515.58L899.106 495.254Z" fill="#FBA19D"/>
<rect opacity="0.35" x="1043.06" y="145.897" width="21.828" height="10.7708" rx="2.2584" stroke="black" stroke-width="1.04234"/>
<path opacity="0.4" d="M1066.45 149.197V153.367C1067.28 153.014 1067.83 152.192 1067.83 151.282C1067.83 150.372 1067.28 149.55 1066.45 149.197" fill="black"/>
<rect x="1044.62" y="147.46" width="18.7121" height="7.64383" rx="1.38979" fill="black"/>
<path fill-rule="evenodd" clip-rule="evenodd" d="M1029.36 147.747C1031.67 147.747 1033.88 148.634 1035.55 150.226C1035.68 150.349 1035.88 150.347 1036 150.222L1037.21 149.006C1037.27 148.943 1037.3 148.857 1037.3 148.768C1037.3 148.679 1037.27 148.594 1037.2 148.531C1032.82 144.32 1025.91 144.32 1021.53 148.531C1021.46 148.593 1021.43 148.679 1021.43 148.768C1021.43 148.857 1021.46 148.943 1021.52 149.006L1022.73 150.222C1022.85 150.347 1023.05 150.349 1023.18 150.226C1024.85 148.634 1027.06 147.747 1029.36 147.747ZM1029.36 151.703C1030.63 151.703 1031.85 152.175 1032.79 153.027C1032.92 153.148 1033.12 153.145 1033.24 153.021L1034.44 151.805C1034.5 151.741 1034.54 151.654 1034.54 151.565C1034.54 151.475 1034.5 151.389 1034.44 151.326C1031.58 148.662 1027.15 148.662 1024.3 151.326C1024.23 151.389 1024.2 151.475 1024.19 151.565C1024.19 151.655 1024.23 151.741 1024.29 151.805L1025.49 153.021C1025.62 153.145 1025.82 153.148 1025.94 153.027C1026.88 152.176 1028.1 151.704 1029.36 151.703ZM1031.77 154.365C1031.77 154.455 1031.74 154.542 1031.67 154.606L1029.6 156.707C1029.53 156.768 1029.45 156.803 1029.37 156.803C1029.28 156.803 1029.2 156.768 1029.13 156.707L1027.06 154.606C1026.99 154.542 1026.96 154.455 1026.96 154.365C1026.96 154.275 1027 154.19 1027.07 154.129C1028.39 153.005 1030.34 153.005 1031.66 154.129C1031.73 154.19 1031.77 154.275 1031.77 154.365Z" fill="black"/>
<path fill-rule="evenodd" clip-rule="evenodd" d="M1015.16 145.724H1014.12C1013.55 145.724 1013.08 146.191 1013.08 146.766V155.8C1013.08 156.375 1013.55 156.842 1014.12 156.842H1015.16C1015.74 156.842 1016.2 156.375 1016.2 155.8V146.766C1016.2 146.191 1015.74 145.724 1015.16 145.724ZM1009.27 148.156H1010.31C1010.88 148.156 1011.35 148.622 1011.35 149.198V155.799C1011.35 156.375 1010.88 156.842 1010.31 156.842H1009.27C1008.7 156.842 1008.23 156.375 1008.23 155.799V149.198C1008.23 148.622 1008.7 148.156 1009.27 148.156ZM1005.46 150.588H1004.42C1003.85 150.588 1003.38 151.055 1003.38 151.63V155.8C1003.38 156.375 1003.85 156.842 1004.42 156.842H1005.46C1006.03 156.842 1006.5 156.375 1006.5 155.8V151.63C1006.5 151.055 1006.03 150.588 1005.46 150.588ZM1000.61 152.673H999.568C998.994 152.673 998.528 153.14 998.528 153.715V155.8C998.528 156.376 998.994 156.842 999.568 156.842H1000.61C1001.18 156.842 1001.65 156.376 1001.65 155.8V153.715C1001.65 153.14 1001.18 152.673 1000.61 152.673Z" fill="black"/>
<path d="M734.075 153.453C733.558 153.919 732.978 154.152 732.337 154.152C731.396 154.152 730.65 153.833 730.099 153.197C729.548 152.56 729.273 151.71 729.273 150.646C729.273 149.981 729.427 149.363 729.736 148.793C730.045 148.223 730.477 147.772 731.033 147.439C731.593 147.107 732.211 146.941 732.885 146.941C733.569 146.941 734.187 147.114 734.738 147.461C735.294 147.803 735.726 148.29 736.035 148.922C736.344 149.549 736.503 150.273 736.512 151.095V152.014C736.512 153.159 736.287 154.152 735.835 154.992C735.389 155.833 734.75 156.479 733.919 156.93C733.087 157.382 732.118 157.607 731.011 157.607H730.862V155.684L731.318 155.676C732.971 155.596 733.89 154.855 734.075 153.453ZM732.985 152.42C733.508 152.42 733.883 152.194 734.111 151.743V150.746C734.111 150.081 733.999 149.589 733.776 149.271C733.553 148.952 733.251 148.793 732.871 148.793C732.534 148.793 732.251 148.974 732.023 149.335C731.795 149.696 731.681 150.133 731.681 150.646C731.681 151.187 731.798 151.62 732.03 151.943C732.263 152.261 732.581 152.42 732.985 152.42ZM739.035 155.135C739.415 155.135 739.731 155.249 739.983 155.477C740.234 155.7 740.36 155.988 740.36 156.339C740.36 156.691 740.234 156.98 739.983 157.208C739.731 157.432 739.415 157.543 739.035 157.543C738.65 157.543 738.332 157.429 738.08 157.201C737.833 156.973 737.71 156.686 737.71 156.339C737.71 155.992 737.833 155.705 738.08 155.477C738.332 155.249 738.65 155.135 739.035 155.135ZM739.035 149.449C739.415 149.449 739.731 149.563 739.983 149.791C740.234 150.014 740.36 150.301 740.36 150.653C740.36 151.005 740.234 151.294 739.983 151.522C739.731 151.746 739.415 151.857 739.035 151.857C738.65 151.857 738.332 151.743 738.08 151.515C737.833 151.287 737.71 151 737.71 150.653C737.71 150.306 737.833 150.019 738.08 149.791C738.332 149.563 738.65 149.449 739.035 149.449ZM747.942 153.411H748.996V155.263H747.942V157.465H745.541V155.263H741.529L741.387 153.795L745.541 147.112V147.09H747.942V153.411ZM743.674 153.411H745.541V150.218L745.391 150.461L743.674 153.411ZM755.082 157.465H752.673V149.798L750.308 150.489V148.665L754.861 147.09H755.082V157.465Z" fill="black"/>
<rect width="113.615" height="66.7098" rx="5.2117" transform="matrix(-1 0 0 1 851.68 245.093)" fill="white"/>
<path d="M843.586 317.069L843.942 307.342L835.34 311.897L843.586 317.069Z" fill="white"/>
<path d="M897.543 416.601C897.543 416.601 975.756 401.273 1008.55 452.519C1029.28 484.902 1028.88 515.581 1028.88 515.581L958.52 506.2L897.543 495.776V416.601Z" fill="#968D81"/>
<path d="M898.586 417.142C898.586 417.142 820.372 401.815 787.577 453.061C766.853 485.444 767.251 516.122 767.251 516.122L837.609 506.741L898.586 496.318V417.142Z" fill="#968D81"/>
<path d="M863.354 361.393C857.881 370.805 845.14 392.58 839.488 402.227C837.903 404.853 838.712 408.292 841.188 410.024C843.812 411.905 847.517 411.186 849.398 408.562L876.601 369.258C878.873 365.482 877.511 360.47 873.556 358.434C869.955 356.518 865.359 357.823 863.354 361.393Z" fill="#F2B7B1"/>
<path d="M933.878 447.501C935.389 446.436 936.358 446.407 936.358 446.407C936.861 444.925 938.504 444.154 940.016 444.781L941.023 445.198C942.382 445.73 943.048 447.202 942.593 448.609L942.545 448.685C942.545 448.685 942.272 452.847 940.07 457.39C937.184 463.198 933.07 464.54 931.321 463.448C929.724 462.451 932.799 455.494 933.938 452.823L931.43 454.639C931.088 454.848 930.642 454.887 930.385 454.621C930.005 454.383 929.967 453.937 930.128 453.509L931.504 450.458C931.969 449.374 932.834 448.329 933.878 447.501Z" fill="#F2B7B1"/>
<path d="M936.31 446.484L946.278 408.849C947.198 405.513 950.751 403.715 953.926 405.063C956.796 406.221 958.137 409.489 957.056 412.407L942.573 448.809L936.31 446.484Z" fill="#F2B7B1"/>
<path d="M935.77 364.07C940.658 373.799 952.044 396.312 957.096 406.287C958.517 409.005 957.499 412.388 954.922 413.965C952.188 415.682 948.533 414.738 946.817 412.004L922.068 371.11C920.03 367.202 921.696 362.283 925.768 360.492C929.479 358.8 933.897 360.409 935.77 364.07Z" fill="#F2B7B1"/>
<path d="M860.938 360.717C860.938 360.717 886.371 340.392 939.009 360.717L948.911 383.753C948.911 383.753 890.957 404.6 850.098 380L860.938 360.717Z" fill="#F7F7F7"/>
<path d="M794.407 487.656C795.438 474.773 806.006 447.745 811.161 435.842L835.002 500.26L813.738 527.567C806.865 519.632 793.376 500.54 794.407 487.656Z" fill="#F6F6F6"/>
<ellipse cx="917.347" cy="328.48" rx="3.12702" ry="4.16936" fill="#F9544D"/>
<ellipse cx="880.865" cy="328.48" rx="3.12702" ry="4.16936" fill="#F9544D"/>
<path d="M816.75 437.468C817.136 435.661 816.781 434.758 816.781 434.758C817.947 433.713 818.009 431.899 816.839 430.756L816.059 429.993C815.036 428.953 813.42 428.919 812.306 429.891L812.255 429.965C812.255 429.965 808.535 431.852 805.224 435.663C801.018 440.6 801.402 444.91 803.093 446.089C804.638 447.165 809.826 441.603 811.834 439.505L811.15 442.525C811.092 442.922 811.232 443.348 811.578 443.479C811.945 443.735 812.371 443.595 812.701 443.278L814.965 440.813C815.779 439.96 816.474 438.805 816.75 437.468Z" fill="#F2B7B1"/>
<path d="M816.73 434.831L847.416 410.871C850.121 408.713 850.377 404.74 847.89 402.351C845.697 400.167 842.165 400.218 839.907 402.36L812.13 429.987L816.73 434.831Z" fill="#F2B7B1"/>
<path d="M758.083 275.771H756.288V271.16H751.649V275.771H749.846V265.396H751.649V269.714H756.288V265.396H758.083V275.771ZM763.449 275.913C762.351 275.913 761.461 275.569 760.777 274.88C760.097 274.186 759.758 273.265 759.758 272.115V271.901C759.758 271.132 759.905 270.445 760.2 269.842C760.499 269.234 760.917 268.762 761.454 268.424C761.99 268.087 762.589 267.918 763.249 267.918C764.299 267.918 765.109 268.253 765.679 268.923C766.254 269.593 766.541 270.54 766.541 271.766V272.464H761.504C761.556 273.101 761.767 273.604 762.138 273.975C762.513 274.345 762.983 274.531 763.549 274.531C764.342 274.531 764.988 274.21 765.487 273.569L766.42 274.459C766.111 274.92 765.698 275.279 765.18 275.535C764.667 275.787 764.09 275.913 763.449 275.913ZM763.242 269.308C762.767 269.308 762.382 269.474 762.088 269.807C761.798 270.139 761.613 270.602 761.532 271.196H764.831V271.068C764.793 270.488 764.639 270.051 764.368 269.757C764.097 269.457 763.722 269.308 763.242 269.308ZM769.733 275.771H768.002V264.826H769.733V275.771ZM773.467 275.771H771.736V264.826H773.467V275.771ZM775.035 271.844C775.035 271.089 775.184 270.41 775.484 269.807C775.783 269.199 776.203 268.733 776.745 268.41C777.286 268.082 777.909 267.918 778.612 267.918C779.652 267.918 780.495 268.253 781.141 268.923C781.792 269.593 782.143 270.481 782.196 271.588L782.203 271.994C782.203 272.754 782.055 273.433 781.761 274.032C781.471 274.63 781.053 275.094 780.507 275.421C779.965 275.749 779.338 275.913 778.626 275.913C777.538 275.913 776.666 275.552 776.011 274.83C775.36 274.103 775.035 273.136 775.035 271.93V271.844ZM776.766 271.994C776.766 272.787 776.93 273.41 777.258 273.861C777.585 274.307 778.042 274.531 778.626 274.531C779.21 274.531 779.664 274.303 779.987 273.847C780.315 273.391 780.478 272.723 780.478 271.844C780.478 271.065 780.31 270.448 779.972 269.992C779.64 269.536 779.186 269.308 778.612 269.308C778.046 269.308 777.597 269.533 777.265 269.985C776.932 270.431 776.766 271.101 776.766 271.994ZM786.977 271.859C786.977 270.671 787.252 269.719 787.803 269.001C788.354 268.279 789.093 267.918 790.019 267.918C790.836 267.918 791.497 268.203 792 268.773V264.826H793.732V275.771H792.164L792.078 274.972C791.561 275.599 790.87 275.913 790.005 275.913C789.102 275.913 788.371 275.55 787.81 274.823C787.255 274.096 786.977 273.108 786.977 271.859ZM788.708 272.008C788.708 272.792 788.858 273.405 789.157 273.847C789.461 274.284 789.891 274.502 790.447 274.502C791.155 274.502 791.672 274.186 792 273.555V270.263C791.682 269.645 791.169 269.336 790.461 269.336C789.901 269.336 789.468 269.56 789.164 270.006C788.86 270.448 788.708 271.115 788.708 272.008ZM798.933 275.913C797.836 275.913 796.945 275.569 796.261 274.88C795.582 274.186 795.242 273.265 795.242 272.115V271.901C795.242 271.132 795.389 270.445 795.684 269.842C795.983 269.234 796.401 268.762 796.938 268.424C797.475 268.087 798.073 267.918 798.734 267.918C799.783 267.918 800.593 268.253 801.163 268.923C801.738 269.593 802.026 270.54 802.026 271.766V272.464H796.988C797.04 273.101 797.252 273.604 797.622 273.975C797.997 274.345 798.468 274.531 799.033 274.531C799.826 274.531 800.472 274.21 800.971 273.569L801.904 274.459C801.596 274.92 801.182 275.279 800.665 275.535C800.152 275.787 799.574 275.913 798.933 275.913ZM798.726 269.308C798.251 269.308 797.867 269.474 797.572 269.807C797.282 270.139 797.097 270.602 797.016 271.196H800.315V271.068C800.277 270.488 800.123 270.051 799.852 269.757C799.582 269.457 799.206 269.308 798.726 269.308ZM807.982 275.771C807.906 275.623 807.84 275.383 807.783 275.051C807.232 275.626 806.557 275.913 805.759 275.913C804.985 275.913 804.353 275.692 803.864 275.25C803.375 274.809 803.13 274.262 803.13 273.612C803.13 272.79 803.434 272.16 804.042 271.723C804.655 271.282 805.529 271.061 806.664 271.061H807.726V270.555C807.726 270.156 807.614 269.837 807.391 269.6C807.168 269.358 806.828 269.237 806.372 269.237C805.978 269.237 805.655 269.336 805.403 269.536C805.151 269.731 805.025 269.98 805.025 270.284H803.294C803.294 269.861 803.434 269.467 803.714 269.101C803.994 268.731 804.375 268.441 804.854 268.232C805.339 268.023 805.878 267.918 806.472 267.918C807.374 267.918 808.094 268.146 808.631 268.602C809.168 269.054 809.443 269.69 809.457 270.512V273.989C809.457 274.683 809.555 275.236 809.749 275.649V275.771H807.982ZM806.08 274.524C806.422 274.524 806.743 274.44 807.042 274.274C807.346 274.108 807.574 273.885 807.726 273.604V272.151H806.792C806.151 272.151 805.669 272.262 805.346 272.486C805.023 272.709 804.861 273.025 804.861 273.433C804.861 273.766 804.971 274.032 805.189 274.231C805.412 274.426 805.709 274.524 806.08 274.524ZM815.307 269.643C815.079 269.605 814.844 269.586 814.602 269.586C813.809 269.586 813.274 269.89 812.999 270.498V275.771H811.267V268.061H812.92L812.963 268.923C813.381 268.253 813.961 267.918 814.702 267.918C814.949 267.918 815.153 267.952 815.314 268.018L815.307 269.643ZM815.407 278.108L814.474 277.552C814.749 277.12 814.937 276.742 815.036 276.419C815.141 276.101 815.196 275.775 815.2 275.443V274.096H816.761L816.754 275.343C816.749 275.847 816.621 276.35 816.369 276.854C816.122 277.362 815.801 277.78 815.407 278.108ZM824.071 275.771H822.276V265.396H824.071V275.771ZM826.48 268.474L825.596 267.925C826.024 267.303 826.245 266.645 826.259 265.952V264.826H827.777V265.809C827.777 266.299 827.651 266.793 827.399 267.291C827.152 267.785 826.846 268.18 826.48 268.474ZM830.769 268.061L830.819 268.866C831.361 268.234 832.102 267.918 833.042 267.918C834.073 267.918 834.778 268.313 835.158 269.101C835.719 268.313 836.508 267.918 837.524 267.918C838.374 267.918 839.006 268.153 839.419 268.624C839.837 269.094 840.051 269.788 840.061 270.704V275.771H838.329V270.754C838.329 270.265 838.222 269.906 838.009 269.678C837.795 269.45 837.441 269.336 836.947 269.336C836.553 269.336 836.23 269.443 835.978 269.657C835.731 269.866 835.558 270.141 835.458 270.483L835.465 275.771H833.733V270.697C833.71 269.79 833.247 269.336 832.344 269.336C831.65 269.336 831.159 269.619 830.869 270.184V275.771H829.138V268.061H830.769ZM766.534 281.396L769.527 289.348L772.512 281.396H774.842V291.771H773.047V288.35L773.225 283.776L770.161 291.771H768.871L765.814 283.783L765.993 288.35V291.771H764.197V281.396H766.534ZM781.419 291.771C781.343 291.623 781.276 291.383 781.219 291.051C780.668 291.626 779.994 291.913 779.196 291.913C778.422 291.913 777.79 291.692 777.3 291.25C776.811 290.809 776.567 290.262 776.567 289.612C776.567 288.79 776.871 288.16 777.479 287.723C778.091 287.282 778.965 287.061 780.101 287.061H781.162V286.555C781.162 286.156 781.051 285.837 780.828 285.6C780.604 285.358 780.265 285.237 779.809 285.237C779.414 285.237 779.091 285.336 778.84 285.536C778.588 285.731 778.462 285.98 778.462 286.284H776.73C776.73 285.861 776.871 285.467 777.151 285.101C777.431 284.731 777.811 284.441 778.291 284.232C778.775 284.023 779.315 283.918 779.908 283.918C780.811 283.918 781.531 284.146 782.067 284.602C782.604 285.054 782.88 285.69 782.894 286.512V289.989C782.894 290.683 782.991 291.236 783.186 291.649V291.771H781.419ZM779.516 290.524C779.858 290.524 780.179 290.44 780.478 290.274C780.782 290.108 781.01 289.885 781.162 289.604V288.151H780.229C779.588 288.151 779.106 288.262 778.783 288.486C778.46 288.709 778.298 289.025 778.298 289.433C778.298 289.766 778.407 290.032 778.626 290.231C778.849 290.426 779.146 290.524 779.516 290.524ZM788.744 285.643C788.516 285.605 788.281 285.586 788.038 285.586C787.245 285.586 786.711 285.89 786.435 286.498V291.771H784.704V284.061H786.357L786.4 284.923C786.818 284.253 787.397 283.918 788.138 283.918C788.385 283.918 788.589 283.952 788.751 284.018L788.744 285.643ZM789.392 287.859C789.392 286.662 789.672 285.707 790.233 284.994C790.798 284.277 791.546 283.918 792.478 283.918C793.356 283.918 794.047 284.225 794.551 284.838L794.629 284.061H796.19V291.535C796.19 292.547 795.874 293.345 795.242 293.929C794.615 294.514 793.767 294.806 792.698 294.806C792.133 294.806 791.58 294.687 791.038 294.45C790.501 294.217 790.093 293.91 789.813 293.53L790.632 292.49C791.164 293.122 791.82 293.438 792.599 293.438C793.173 293.438 793.627 293.281 793.96 292.968C794.292 292.659 794.458 292.203 794.458 291.599V291.079C793.96 291.635 793.295 291.913 792.463 291.913C791.561 291.913 790.822 291.554 790.247 290.837C789.677 290.12 789.392 289.127 789.392 287.859ZM791.117 288.008C791.117 288.783 791.273 289.393 791.587 289.84C791.905 290.281 792.345 290.502 792.905 290.502C793.603 290.502 794.121 290.203 794.458 289.604V286.213C794.131 285.628 793.618 285.336 792.919 285.336C792.349 285.336 791.905 285.562 791.587 286.013C791.273 286.464 791.117 287.13 791.117 288.008ZM802.581 291.771C802.505 291.623 802.439 291.383 802.382 291.051C801.831 291.626 801.156 291.913 800.358 291.913C799.584 291.913 798.952 291.692 798.463 291.25C797.974 290.809 797.729 290.262 797.729 289.612C797.729 288.79 798.033 288.16 798.641 287.723C799.254 287.282 800.128 287.061 801.263 287.061H802.325V286.555C802.325 286.156 802.213 285.837 801.99 285.6C801.767 285.358 801.427 285.237 800.971 285.237C800.577 285.237 800.254 285.336 800.002 285.536C799.75 285.731 799.624 285.98 799.624 286.284H797.893C797.893 285.861 798.033 285.467 798.313 285.101C798.593 284.731 798.973 284.441 799.453 284.232C799.938 284.023 800.477 283.918 801.071 283.918C801.973 283.918 802.693 284.146 803.23 284.602C803.766 285.054 804.042 285.69 804.056 286.512V289.989C804.056 290.683 804.154 291.236 804.348 291.649V291.771H802.581ZM800.679 290.524C801.021 290.524 801.341 290.44 801.641 290.274C801.945 290.108 802.173 289.885 802.325 289.604V288.151H801.391C800.75 288.151 800.268 288.262 799.945 288.486C799.622 288.709 799.46 289.025 799.46 289.433C799.46 289.766 799.57 290.032 799.788 290.231C800.011 290.426 800.308 290.524 800.679 290.524ZM809.906 285.643C809.678 285.605 809.443 285.586 809.201 285.586C808.407 285.586 807.873 285.89 807.598 286.498V291.771H805.866V284.061H807.519L807.562 284.923C807.98 284.253 808.559 283.918 809.301 283.918C809.548 283.918 809.752 283.952 809.913 284.018L809.906 285.643ZM812.842 291.771H811.11V284.061H812.842V291.771ZM811.003 282.059C811.003 281.793 811.087 281.572 811.253 281.396C811.424 281.22 811.666 281.132 811.98 281.132C812.293 281.132 812.535 281.22 812.706 281.396C812.877 281.572 812.963 281.793 812.963 282.059C812.963 282.32 812.877 282.538 812.706 282.714C812.535 282.885 812.293 282.971 811.98 282.971C811.666 282.971 811.424 282.885 811.253 282.714C811.087 282.538 811.003 282.32 811.003 282.059ZM816.903 282.187V284.061H818.264V285.343H816.903V289.647C816.903 289.942 816.96 290.155 817.074 290.288C817.193 290.417 817.402 290.481 817.701 290.481C817.901 290.481 818.103 290.457 818.307 290.41V291.749C817.913 291.858 817.533 291.913 817.167 291.913C815.837 291.913 815.172 291.179 815.172 289.711V285.343H813.904V284.061H815.172V282.187H816.903ZM824.2 291.771C824.124 291.623 824.057 291.383 824 291.051C823.449 291.626 822.775 291.913 821.977 291.913C821.202 291.913 820.57 291.692 820.081 291.25C819.592 290.809 819.347 290.262 819.347 289.612C819.347 288.79 819.651 288.16 820.259 287.723C820.872 287.282 821.746 287.061 822.881 287.061H823.943V286.555C823.943 286.156 823.832 285.837 823.608 285.6C823.385 285.358 823.045 285.237 822.589 285.237C822.195 285.237 821.872 285.336 821.62 285.536C821.369 285.731 821.243 285.98 821.243 286.284H819.511C819.511 285.861 819.651 285.467 819.932 285.101C820.212 284.731 820.592 284.441 821.072 284.232C821.556 284.023 822.095 283.918 822.689 283.918C823.592 283.918 824.311 284.146 824.848 284.602C825.385 285.054 825.66 285.69 825.675 286.512V289.989C825.675 290.683 825.772 291.236 825.967 291.649V291.771H824.2ZM822.297 290.524C822.639 290.524 822.96 290.44 823.259 290.274C823.563 290.108 823.791 289.885 823.943 289.604V288.151H823.01C822.368 288.151 821.886 288.262 821.563 288.486C821.24 288.709 821.079 289.025 821.079 289.433C821.079 289.766 821.188 290.032 821.407 290.231C821.63 290.426 821.927 290.524 822.297 290.524Z" fill="#2E374D"/>
<path d="M1019.88 186.463C1019.44 185.981 1018.88 185.68 1018.25 185.68C1016.84 185.68 1016.56 186.854 1014.3 186.854C1012.13 186.854 1011.93 186.192 1010.83 186.192C1009.71 186.192 1009.1 186.975 1009.1 186.975C1009.1 186.975 1008.46 186.192 1007.37 186.192C1006.27 186.192 1006.07 186.854 1003.9 186.854C1001.58 186.854 1001.3 185.68 999.901 185.68C999.264 185.68 998.703 185.981 998.27 186.463C997.862 186.975 997.607 187.637 997.607 188.39C997.607 190.046 998.601 190.377 998.601 193.057C998.601 195.617 998.041 195.858 998.041 197.183C998.041 198.508 998.703 199.23 998.703 199.23C998.703 199.23 998.041 199.983 998.041 201.278C998.041 202.573 998.601 202.814 998.601 205.373C998.601 208.083 997.607 208.415 997.607 210.071C997.607 210.823 997.862 211.486 998.27 211.998C998.703 212.48 999.264 212.781 999.901 212.781C1001.3 212.781 1001.58 211.606 1003.85 211.606C1006.02 211.606 1006.22 212.269 1007.32 212.269C1008.44 212.269 1009.05 211.486 1009.05 211.486C1009.05 211.486 1009.68 212.269 1010.78 212.269C1011.88 212.269 1012.08 211.606 1014.25 211.606C1016.51 211.606 1016.79 212.781 1018.19 212.781C1018.83 212.781 1019.39 212.48 1019.83 211.998C1020.28 211.486 1020.54 210.823 1020.54 210.071C1020.54 208.415 1019.55 208.083 1019.55 205.403C1019.55 202.844 1020.11 202.603 1020.11 201.308C1020.11 199.983 1019.44 199.26 1019.44 199.26C1019.44 199.26 1020.11 198.508 1020.11 197.213C1020.11 195.918 1019.55 195.677 1019.55 193.087C1019.55 190.408 1020.54 190.076 1020.54 188.42C1020.54 187.637 1020.28 186.975 1019.88 186.463ZM1016.23 207.692H1001.91V190.769H1016.23V207.692Z" fill="black"/>
<path d="M974.557 188.147C972.738 187.507 970.944 189.38 970.869 189.516C970.71 189.404 970.542 189.305 970.365 189.215C970.357 188.971 970.408 187.133 969.786 185.905C969.242 184.827 968.564 184.637 967.34 184.637C967.015 184.637 966.643 184.652 966.258 184.668C964.403 184.746 963.414 187.56 963.241 188.448C963.29 188.439 963.336 188.432 963.381 188.425C963.429 188.418 963.475 188.412 963.519 188.406C963.812 188.368 964.011 188.366 964.075 188.367C964.127 188.362 964.287 188.349 964.522 188.346C964.565 188.345 964.99 188.331 965.038 188.331C965.08 188.331 965.124 188.332 965.17 188.333C965.387 187.262 965.846 186.443 966.708 186.404C966.968 186.392 967.135 186.409 967.336 186.409C968.062 186.409 968.127 186.444 968.432 187.091C968.768 187.804 968.652 188.237 968.67 188.676C967.918 188.522 967.329 188.524 966.304 188.504C966.513 188.544 966.729 188.594 966.95 188.655C967.115 188.701 967.282 188.751 967.451 188.811C969.107 189.393 970.872 190.68 971.491 193.481C972.648 198.726 972.655 203.77 972.658 206.784L972.66 207.387C972.664 208.73 972.563 209.702 972.325 210.404C972.306 210.463 972.284 210.52 972.263 210.575C972.238 210.637 972.214 210.698 972.187 210.755C972.208 210.745 972.227 210.737 972.247 210.727C972.387 210.659 972.521 210.599 972.647 210.542C973.627 210.102 974.275 209.811 974.233 207.49C974.228 207.176 974.213 206.734 974.19 206.198C974.53 206.498 975.805 207.621 976.709 208.408C977.76 209.323 978.223 209.032 978.223 209.032C979.358 208.824 979.887 207.887 979.887 207.887C976.254 187.407 974.557 188.147 974.557 188.147ZM974.212 203.658C973.956 199.351 973.24 193.242 972.286 191.257C972.236 191.154 972.183 191.059 972.13 190.963C972.35 190.619 973.02 190.063 973.39 189.997C973.39 189.997 975.943 195.633 977.036 205.823C977.036 205.822 974.903 204.112 974.212 203.658ZM970.201 194.079C969.033 188.784 963.574 189.347 963.342 189.373C963.33 189.374 963.318 189.374 963.307 189.374C963.299 189.374 962.348 189.367 961.142 189.884C960.835 190.015 960.493 190.191 960.136 190.421C959.897 190.574 959.651 190.752 959.403 190.959C959.219 191.113 959.034 191.283 958.85 191.471C957.314 193.611 956.703 196.466 956.574 197.153C956.925 197.105 959.623 196.766 963.875 197.091C964.3 197.117 964.689 197.151 965.041 197.194C965.533 197.253 965.955 197.329 966.292 197.42C966.327 197.423 966.564 197.449 966.901 197.569C967.847 197.907 969.58 198.995 969.789 202.455C970.078 207.242 969.218 210.522 969.207 210.565C969.204 210.581 968.93 211.901 966.445 212.36C967.076 212.004 967.663 211.353 967.823 210.159C968.203 207.314 968.417 203.456 968.115 201.923C967.814 200.39 967.393 199.086 965.28 198.66C963.878 198.377 961.327 198.318 959.433 198.318C958.586 198.318 957.881 198.329 957.433 198.339C957.377 198.34 957.329 198.342 957.282 198.343C957.225 198.344 957.175 198.345 957.131 198.346C957.107 198.347 957.079 198.347 957.058 198.348C956.965 198.348 956.614 198.362 956.184 198.511C956.158 198.52 956.132 198.529 956.107 198.539C956.044 198.563 955.98 198.588 955.915 198.617C955.832 198.656 955.751 198.696 955.675 198.741C954.709 199.317 954.314 200.388 954.154 201.11C954.132 201.227 954.113 201.348 954.097 201.476C953.791 203.999 953.809 206.69 953.854 209.23C953.894 211.505 955.256 211.748 956.25 211.925C956.344 211.942 956.436 211.958 956.524 211.976C957.626 212.194 962.414 212.688 964.482 212.768C964.482 212.768 964.59 212.781 964.768 212.781C964.851 212.781 964.961 212.777 965.088 212.766C965.343 212.756 965.585 212.738 965.812 212.714H965.814C965.873 212.716 965.93 212.716 965.988 212.716C966.355 212.716 966.729 212.689 967.11 212.639C968.79 212.234 970.044 211.842 970.071 211.834C970.29 211.753 970.485 211.635 970.655 211.45C970.715 211.384 970.772 211.312 970.825 211.227C971.169 210.678 971.364 209.699 971.359 207.876L971.357 207.272C971.353 204.279 971.347 199.269 970.201 194.079ZM964.924 204.782C964.924 204.782 963.169 204.743 961.218 204.656C961.166 204.653 961.114 204.651 961.061 204.648C961.009 204.646 960.956 204.644 960.904 204.641C959.774 204.588 958.61 204.519 957.702 204.431C957.638 204.425 957.572 204.419 957.51 204.412C957.443 204.405 957.379 204.398 957.315 204.391C956.933 204.348 956.614 204.301 956.392 204.25L956.474 203.453L956.492 203.277L956.51 203.101L956.622 202.007C956.622 202.007 957.754 202.099 959.433 202.188C959.485 202.191 959.537 202.194 959.591 202.196C959.643 202.199 959.696 202.202 959.749 202.204C961.255 202.28 963.143 202.349 965.039 202.349L964.924 204.782Z" fill="black"/>
<path d="M728.442 196.904C727.733 197.613 727.733 198.762 728.442 199.471L739.997 211.027C740.706 211.736 741.856 211.736 742.565 211.027C743.274 210.318 743.274 209.168 742.565 208.459L732.294 198.188L742.565 187.916C743.274 187.207 743.274 186.057 742.565 185.348C741.856 184.639 740.706 184.639 739.997 185.348L728.442 196.904ZM752.657 196.372H729.726V200.003H752.657V196.372Z" fill="black"/>
<path d="M911.614 414.995C903.275 417.079 891.81 416.211 887.119 415.516L885.556 409.783H912.657L911.614 414.995Z" fill="#F9544D"/>
<circle cx="1054.64" cy="197.89" r="18.4643" fill="#729DCF"/>
<mask id="mask0" mask-type="alpha" maskUnits="userSpaceOnUse" x="1036" y="179" width="38" height="38">
<circle cx="1054.64" cy="197.89" r="18.4643" fill="#C4C4C4"/>
</mask>
<g mask="url(#mask0)">
<path d="M1040.21 213.776C1039.12 219.207 1036.55 231.785 1035.4 237.36C1035.07 238.884 1036.02 240.409 1037.5 240.838C1039.07 241.314 1040.73 240.361 1041.21 238.789L1047.87 215.396C1048.35 213.204 1046.87 211.012 1044.64 210.679C1042.59 210.298 1040.64 211.679 1040.21 213.776Z" fill="#F3A396"/>
<path d="M1049.16 215.682C1049.16 212.871 1046.87 210.631 1044.11 210.631C1041.64 210.631 1039.59 212.442 1039.12 214.776L1036.98 224.639L1046.82 226.926L1048.92 217.206C1049.06 216.73 1049.16 216.206 1049.16 215.682Z" fill="#F4F4F2"/>
<path d="M1038.45 216.11L1056.53 221.351" stroke="#1A1A1A" stroke-width="2.50643" stroke-miterlimit="10"/>
<path d="M1038.93 212.299L1057.01 217.54" stroke="#1A1A1A" stroke-width="2.50643" stroke-miterlimit="10"/>
<path d="M1068.52 213.776C1069.61 219.207 1072.18 231.785 1073.32 237.36C1073.66 238.884 1072.71 240.409 1071.23 240.838C1069.66 241.314 1068 240.361 1067.52 238.789L1060.86 215.396C1060.38 213.204 1061.86 211.012 1064.09 210.679C1066.14 210.298 1068.09 211.679 1068.52 213.776Z" fill="#F3A396"/>
<path d="M1059.57 215.681C1059.57 212.87 1061.86 210.631 1064.62 210.631C1067.09 210.631 1069.14 212.442 1069.61 214.776L1071.75 224.639L1061.91 226.926L1059.77 217.206C1059.62 216.73 1059.57 216.206 1059.57 215.681Z" fill="#F4F4F2"/>
<path d="M1069.85 216.11L1052.25 221.351" stroke="#1A1A1A" stroke-width="2.50643" stroke-miterlimit="10"/>
<path d="M1069.38 212.299L1051.77 217.54" stroke="#1A1A1A" stroke-width="2.50643" stroke-miterlimit="10"/>
<path d="M1058.24 207.391L1054.48 207.439L1050.77 207.391L1042.92 210.774L1044.4 239.837H1054.48H1064.62L1066.14 210.774L1058.24 207.391Z" fill="#F4F4F2"/>
<path d="M1043.68 217.539H1065.57" stroke="#1A1A1A" stroke-width="2.50643" stroke-miterlimit="10"/>
<path d="M1043.68 213.728H1065.57" stroke="#1A1A1A" stroke-width="2.50643" stroke-miterlimit="10"/>
<path d="M1043.68 209.917H1065.57" stroke="#1A1A1A" stroke-width="2.50643" stroke-miterlimit="10"/>
<path d="M1060.95 208.535L1058.29 207.391L1054.48 207.439L1050.82 207.391L1048.16 208.535C1048.16 208.535 1048.39 211.822 1054.48 211.87H1054.58C1060.72 211.822 1060.95 208.535 1060.95 208.535Z" fill="#F3A396"/>
<path d="M1054.58 211.441C1052.29 211.441 1050.44 209.583 1050.44 207.296V198.53H1058.67V207.344C1058.72 209.583 1056.86 211.441 1054.58 211.441Z" fill="#F3A396"/>
<path d="M1050.44 201.293C1050.44 201.293 1052.72 205.533 1055.29 205.295C1059.29 204.961 1058.62 200.006 1058.62 200.006C1058.62 200.006 1057.05 203.341 1054.62 203.341C1051.91 203.341 1050.44 201.293 1050.44 201.293Z" fill="#1A1A1A"/>
<path d="M1048.44 195.48L1048.01 191.287C1047.49 188.619 1049.58 187.19 1051.39 187.19H1057.67C1059.62 187.19 1061.9 188.571 1060.91 191.621L1060.33 196.195L1048.44 195.48Z" fill="#1A1A1A"/>
<path d="M1059.95 197.767C1061.19 198.672 1063.38 194.479 1062.14 193.479C1060.91 192.478 1060.1 194.289 1060.1 194.289L1060.05 195.813L1059.86 197.243V197.767H1059.95Z" fill="#F3A396"/>
<path d="M1061.81 194.765C1061.81 194.765 1060.91 194.479 1060.24 195.813" stroke="#D26665" stroke-width="0.675716" stroke-miterlimit="10" stroke-linecap="round" stroke-linejoin="round"/>
<path d="M1060.71 195.146C1060.71 195.146 1061.71 195.67 1061.05 196.48" stroke="#D26665" stroke-width="0.675716" stroke-miterlimit="10" stroke-linecap="round" stroke-linejoin="round"/>
<path d="M1049.06 197.767C1047.82 198.672 1045.63 194.479 1046.87 193.479C1048.11 192.478 1048.87 194.336 1048.87 194.336L1048.92 195.861L1049.11 197.29L1049.15 197.719L1049.06 197.767Z" fill="#F3A396"/>
<path d="M1047.2 194.765C1047.2 194.765 1048.11 194.479 1048.77 195.813" stroke="#D26665" stroke-width="0.675716" stroke-miterlimit="10" stroke-linecap="round" stroke-linejoin="round"/>
<path d="M1048.3 195.146C1048.3 195.146 1047.3 195.67 1047.96 196.48" stroke="#D26665" stroke-width="0.675716" stroke-miterlimit="10" stroke-linecap="round" stroke-linejoin="round"/>
<path d="M1060.38 192.335C1060.38 194.956 1060.05 197.195 1059.67 198.767C1059.34 200.34 1058.38 201.674 1057.05 202.579L1056.81 202.722C1055.39 203.627 1053.58 203.675 1052.1 202.77C1050.63 201.864 1049.63 200.387 1049.3 198.72C1048.73 195.671 1048.68 192.288 1048.68 192.288C1048.68 192.288 1048.15 185.761 1054.44 185.903C1060.72 186.046 1060.38 192.335 1060.38 192.335Z" fill="#F3A396"/>
<path d="M1060.43 184.903C1058.43 183.473 1054.48 184.474 1052.29 185.474C1052.34 184.807 1051.96 184.903 1051.96 184.903C1048.15 185.903 1049.15 188.905 1049.15 188.905C1049.15 188.905 1049.15 188.905 1049.2 188.905C1048.82 189.763 1048.3 191.621 1048.77 194.908C1048.77 194.908 1049.77 191.335 1049.82 189.191C1051.49 189.953 1056.1 191.716 1059.1 190.715C1059.38 192.526 1060.19 194.908 1060.19 194.908C1060.53 192.764 1060.38 191.239 1060.14 190.191C1060.33 190.048 1060.53 189.905 1060.67 189.763C1060.72 189.763 1063.28 186.904 1060.43 184.903Z" fill="#1A1A1A"/>
<path d="M1053.96 194.861V196.957C1053.96 197.005 1053.96 197.1 1054.01 197.148C1054.1 197.386 1054.39 197.529 1054.63 197.433L1055.2 197.29" stroke="#D26665" stroke-width="0.675716" stroke-miterlimit="10" stroke-linecap="round" stroke-linejoin="round"/>
<path d="M1051.87 194.765C1052.15 194.765 1052.39 194.53 1052.39 194.241C1052.39 193.951 1052.15 193.717 1051.87 193.717C1051.58 193.717 1051.34 193.951 1051.34 194.241C1051.34 194.53 1051.58 194.765 1051.87 194.765Z" fill="#1A1A1A"/>
<path d="M1056.96 194.765C1057.25 194.765 1057.48 194.53 1057.48 194.241C1057.48 193.951 1057.25 193.717 1056.96 193.717C1056.67 193.717 1056.43 193.951 1056.43 194.241C1056.43 194.53 1056.67 194.765 1056.96 194.765Z" fill="#1A1A1A"/>
<path d="M1052.86 194.861L1051.48 195.766" stroke="#D26665" stroke-width="0.506787" stroke-miterlimit="10" stroke-linecap="round" stroke-linejoin="round"/>
<path d="M1056.05 194.861L1057.29 195.766" stroke="#D26665" stroke-width="0.506787" stroke-miterlimit="10" stroke-linecap="round" stroke-linejoin="round"/>
<path d="M1052.91 198.529C1052.91 198.529 1053.34 198.862 1054.43 198.862C1055.43 198.862 1056.05 198.529 1056.05 198.529" stroke="#D26665" stroke-width="0.675716" stroke-miterlimit="10" stroke-linecap="round" stroke-linejoin="round"/>
<path d="M1054.48 201.483V202.054" stroke="#D26665" stroke-width="0.506787" stroke-miterlimit="10" stroke-linecap="round" stroke-linejoin="round"/>
<path d="M1053.25 193.002V191.954H1051.29C1051.06 191.954 1050.82 192.049 1050.63 192.192L1049.82 193.097L1051.15 192.907L1053.25 193.002Z" fill="#1A1A1A"/>
<path d="M1055.58 193.002V191.954L1057.58 192.002C1057.81 192.002 1058.05 192.097 1058.24 192.24L1059.05 193.145L1057.72 192.954L1055.58 193.002Z" fill="#1A1A1A"/>
<path opacity="0.19" d="M1057.43 197.195C1058.75 197.195 1059.81 196.129 1059.81 194.813C1059.81 193.497 1058.75 192.431 1057.43 192.431C1056.12 192.431 1055.05 193.497 1055.05 194.813C1055.05 196.129 1056.12 197.195 1057.43 197.195Z" fill="white"/>
<path opacity="0.19" d="M1051.63 197.195C1052.94 197.195 1054.01 196.129 1054.01 194.813C1054.01 193.497 1052.94 192.431 1051.63 192.431C1050.31 192.431 1049.25 193.497 1049.25 194.813C1049.25 196.129 1050.31 197.195 1051.63 197.195Z" fill="white"/>
<path d="M1051.63 197.195C1052.94 197.195 1054.01 196.129 1054.01 194.813C1054.01 193.497 1052.94 192.431 1051.63 192.431C1050.31 192.431 1049.25 193.497 1049.25 194.813C1049.25 196.129 1050.31 197.195 1051.63 197.195Z" stroke="#1A1A1A" stroke-width="0.429718" stroke-miterlimit="10" stroke-linecap="round" stroke-linejoin="round"/>
<path d="M1057.43 197.195C1058.75 197.195 1059.81 196.129 1059.81 194.813C1059.81 193.497 1058.75 192.431 1057.43 192.431C1056.12 192.431 1055.05 193.497 1055.05 194.813C1055.05 196.129 1056.12 197.195 1057.43 197.195Z" stroke="#1A1A1A" stroke-width="0.429718" stroke-miterlimit="10" stroke-linecap="round" stroke-linejoin="round"/>
<path d="M1053.96 194.813C1053.96 194.813 1054.53 194.289 1055.05 194.813" stroke="#1A1A1A" stroke-width="0.429718" stroke-miterlimit="10" stroke-linecap="round" stroke-linejoin="round"/>
<path d="M1049.25 194.813H1048.87" stroke="#1A1A1A" stroke-width="0.429718" stroke-miterlimit="10"/>
<path d="M1060.24 194.813H1059.86" stroke="#1A1A1A" stroke-width="0.429718" stroke-miterlimit="10"/>
</g>
</g>
<g filter="url(#filter1_f)">
<path d="M398.701 941.366C477.703 941.366 541.893 877.177 541.893 798.174V495.331H257.155V799.82C255.509 877.177 319.698 941.366 398.701 941.366Z" fill="#FAB29A"/>
<path d="M212.71 468.998C169.917 500.27 94.2065 355.432 137 320.868C179.793 286.304 207.773 348.848 207.773 348.848L209.419 401.516L216.002 450.893V468.998H212.71Z" fill="#FAB29A"/>
<path d="M589.624 468.997C632.417 500.269 708.127 355.431 665.334 320.867C622.541 286.303 596.207 350.493 596.207 350.493L594.561 403.161L587.978 452.538L586.332 467.351L589.624 468.997Z" fill="#FAB29A"/>
<path d="M196.261 24.6076C265.388 -24.7691 401.997 9.79457 477.707 44.3582C476.062 21.3158 489.229 24.6076 489.229 24.6076C574.815 47.65 589.628 100.318 589.628 133.236C617.608 156.279 635.713 194.134 625.837 246.802L596.211 391.64C592.92 426.204 587.982 465.705 581.398 503.561C569.877 561.167 535.313 612.189 484.291 643.461C434.914 674.733 370.725 673.087 321.348 641.815L313.119 636.878C267.034 607.252 234.116 559.521 222.595 505.207C216.011 473.935 209.428 434.434 204.49 388.349L178.156 258.324C168.281 227.052 168.281 200.718 174.864 179.321C155.113 148.049 120.55 77.276 196.261 24.6076Z" fill="#1A1A1A"/>
<path d="M1062 1836.73C1022.5 1644.16 933.62 1209.64 895.765 1022.01C880.952 949.593 813.471 901.863 742.697 915.03C665.341 926.551 614.318 1002.26 630.777 1077.97L861.201 1886.1C877.66 1940.42 935.266 1973.34 989.581 1956.88C1040.6 1942.06 1073.52 1889.4 1062 1836.73Z" fill="#F0DABE"/>
<path d="M586.336 1087.85C586.336 990.743 665.339 913.386 760.8 913.386C846.386 913.386 917.159 975.93 933.618 1056.58L1007.68 1397.28L666.984 1476.28L594.565 1140.52C589.628 1124.06 586.336 1105.95 586.336 1087.85Z" fill="#F0DABE"/>
<path d="M225.883 1087.85C225.883 990.741 146.88 913.385 51.4188 913.385C-34.1674 913.385 -104.941 975.928 -121.399 1056.58L-195.464 1397.28L145.234 1476.28L219.299 1140.52C224.237 1124.06 225.883 1105.95 225.883 1087.85Z" fill="#F4F4F2"/>
<path d="M271.967 801.466L401.992 803.111L530.371 801.466L801.943 918.324L750.92 1922.32H401.992H51.4183L-1.25009 918.324L271.967 801.466Z" fill="#F4F4F2"/>
<path d="M178.148 840.967L271.964 791.591L397.051 771.84L520.493 788.299L620.892 840.967C620.892 840.967 612.663 865.656 401.989 865.656H398.697C186.378 865.656 178.148 840.967 178.148 840.967Z" fill="#FAB29A"/>
</g>
</g>
<defs>
<filter id="filter0_d" x="671.551" y="91.6621" width="449.405" height="798.24" filterUnits="userSpaceOnUse" color-interpolation-filters="sRGB">
<feFlood flood-opacity="0" result="BackgroundImageFix"/>
<feColorMatrix in="SourceAlpha" type="matrix" values="0 0 0 0 0 0 0 0 0 0 0 0 0 0 0 0 0 0 127 0"/>
<feOffset dy="10.8236"/>
<feGaussianBlur stdDeviation="5.41179"/>
<feColorMatrix type="matrix" values="0 0 0 0 0 0 0 0 0 0 0 0 0 0 0 0 0 0 0.25 0"/>
<feBlend mode="normal" in2="BackgroundImageFix" result="effect1_dropShadow"/>
<feBlend mode="normal" in="SourceGraphic" in2="effect1_dropShadow" result="shape"/>
</filter>
<filter id="filter1_f" x="-210.771" y="-15.3067" width="1290.38" height="1991.74" filterUnits="userSpaceOnUse" color-interpolation-filters="sRGB">
<feFlood flood-opacity="0" result="BackgroundImageFix"/>
<feBlend mode="normal" in="SourceGraphic" in2="BackgroundImageFix" result="shape"/>
<feGaussianBlur stdDeviation="7.65333" result="effect1_foregroundBlur"/>
</filter>
<clipPath id="clip0">
<rect width="1365.6" height="965" fill="white"/>
</clipPath>
<clipPath id="clip1">
<rect width="375.242" height="667.098" fill="white" transform="translate(707.836 127.309)"/>
</clipPath>
</defs>
</svg>
