<svg width="1366" height="965" viewBox="0 0 1366 965" fill="none" xmlns="http://www.w3.org/2000/svg">
<g clip-path="url(#clip0)">
<rect width="1365.6" height="965" fill="#E2A09A"/>
<path fill-rule="evenodd" clip-rule="evenodd" d="M185.793 835.439C3.16333 642.82 148.757 249.293 448.932 117.332C749.107 -14.6296 1156.65 243.886 1213.68 543.666C1270.72 843.445 368.423 1028.06 185.793 835.439Z" fill="#FCE8CF"/>
<g clip-path="url(#clip1)">
<path d="M1060.61 696.749L1090.95 790.025L1112.38 856.316L1078.16 886.188L1019.25 818.695C1019.25 818.695 1005.21 821.319 971.116 816.322C936.818 811.088 903.748 771.283 892.282 755.749L804.23 686.054C797.441 680.675 796.325 670.762 801.942 663.765C807.084 657.184 817.204 656.306 823.786 661.447L902.771 719.795C904.046 720.776 905.856 720.452 907.045 719.414C908.263 717.932 907.939 716.122 906.902 714.933L808.667 623.979C801.285 617.441 800.705 606.223 807.213 599.287C813.512 592.113 824.463 592.186 831.667 598.041L927.745 681.247C928.812 681.99 930.147 682.081 931.305 681.489C932.939 680.482 933.327 678.049 932.083 676.623L829.153 565.899C821.15 558.649 820.63 546.541 827.643 538.744C834.418 531.156 845.873 530.368 853.968 536.283L956.845 641.191C961.084 644.608 963.405 640.071 961.274 635.231L893.853 534.966C890.776 527.603 892.892 519.474 898.596 514.496C899.784 513.459 900.942 512.866 902.338 512.067C910.682 507.715 920.976 510.873 926.011 519.039L995.163 610.256L1001.12 618.038L1009.74 629.354C1015.49 633.546 1021.75 640.23 1031.5 648.046C1036.6 651.97 1042.56 656.398 1049.65 660.68C1062.96 668.738 1063.74 683.547 1060.61 696.749Z" fill="#FAB29A"/>
<path opacity="0.5" d="M1060.62 696.754L1090.95 790.031C1073.93 803.631 1053.16 806.692 1028.76 787.374C948.147 723.327 1022.76 664.897 1022.76 664.897C1024.37 660.981 1028.21 653.864 1031.74 647.844C1036.84 651.767 1042.8 656.196 1049.89 660.478C1062.97 668.743 1063.75 683.552 1060.62 696.754Z" fill="#CC8A79"/>
<path d="M1116.3 591.206C1104.97 586.86 1086.3 585.146 1070.62 598.837C1050.89 616.055 1051.41 634.87 1051.41 634.87C1051.41 634.87 1037.21 646.426 1030.24 666.745C1030.24 666.745 969.724 721.661 1022.62 782.262L1098.13 868.768L1149.94 823.545L1088.95 753.676L1084.28 717.14C1084.32 703.281 1085.3 678.978 1090.52 661.446C1090.52 661.446 1107.48 622.355 1119.96 603.081C1122.73 598.573 1120.87 593.081 1116.3 591.206Z" fill="#FAB29A"/>
<path opacity="0.5" d="M995.171 610.26L1001.13 618.042C914.496 698.685 901.502 745.2 900.249 750.481C910.468 692.151 982.515 622.145 995.171 610.26Z" fill="#CC8A79"/>
</g>
<rect x="1141.98" y="812.584" width="491.044" height="98.5622" transform="rotate(49.1623 1141.98 812.584)" fill="#FAB29A"/>
<g clip-path="url(#clip2)">
<path d="M226.312 510.661L202.346 584.355L185.411 636.728L212.448 660.328L258.993 607.005C258.993 607.005 270.085 609.078 297.019 605.13C324.116 600.995 350.243 569.547 359.302 557.274L428.868 502.212C434.232 497.962 435.113 490.13 430.676 484.602C426.613 479.402 418.618 478.708 413.418 482.771L351.015 528.869C350.008 529.644 348.578 529.387 347.639 528.568C346.676 527.397 346.932 525.966 347.752 525.028L425.363 453.169C431.194 448.004 431.653 439.141 426.511 433.661C421.534 427.993 412.883 428.05 407.191 432.676L331.285 498.414C330.441 499.001 329.386 499.072 328.471 498.605C327.181 497.809 326.874 495.887 327.857 494.76L409.177 407.282C415.501 401.554 415.911 391.988 410.371 385.829C405.018 379.833 395.967 379.211 389.572 383.884L308.294 466.767C304.944 469.467 303.111 465.882 304.795 462.058L358.061 382.844C360.492 377.026 358.82 370.604 354.314 366.671C353.375 365.851 352.46 365.384 351.357 364.752C344.765 361.313 336.632 363.808 332.655 370.261L278.02 442.326L273.315 448.475L266.503 457.415C261.959 460.727 257.018 466.008 249.312 472.183C245.283 475.283 240.575 478.782 234.976 482.165C224.456 488.531 223.837 500.231 226.312 510.661Z" fill="#FAB29A"/>
<path opacity="0.5" d="M226.308 510.664L202.341 584.358C215.788 595.103 232.203 597.522 251.48 582.259C315.167 531.658 256.217 485.495 256.217 485.495C254.947 482.402 251.916 476.779 249.12 472.023C245.091 475.122 240.383 478.621 234.784 482.004C224.452 488.534 223.833 500.234 226.308 510.664Z" fill="#CC8A79"/>
<path d="M182.318 427.275C191.27 423.842 206.016 422.488 218.408 433.304C233.992 446.907 233.587 461.772 233.587 461.772C233.587 461.772 244.805 470.902 250.311 486.956C250.311 486.956 298.121 530.342 256.329 578.22L196.672 646.565L155.741 610.836L203.925 555.635L207.618 526.77C207.581 515.821 206.808 496.62 202.688 482.769C202.688 482.769 189.288 451.885 179.422 436.657C177.238 433.096 178.709 428.757 182.318 427.275Z" fill="#FAB29A"/>
<path opacity="0.5" d="M278.015 442.329L273.31 448.478C341.752 512.19 352.019 548.94 353.008 553.112C344.935 507.028 288.014 451.719 278.015 442.329Z" fill="#CC8A79"/>
</g>
<rect width="387.952" height="77.8696" transform="matrix(-0.653919 0.756565 0.756565 0.653919 162.026 602.176)" fill="#FAB29A"/>
<g filter="url(#filter0_d)">
<rect x="259.709" y="762.206" width="576.336" height="317.453" rx="25.1757" transform="rotate(-90 259.709 762.206)" fill="#4678B2"/>
<rect x="493.992" y="724.259" width="17.8603" height="18.0808" fill="#729DCF"/>
<rect x="408.479" y="723.073" width="21.6204" height="21.8873" rx="10.8102" fill="#729DCF"/>
<path d="M350.873 743.68L333.161 733.533L350.697 723.077L350.873 743.68Z" fill="#729DCF"/>
<rect x="279.624" y="216.327" width="277.625" height="491.994" fill="#C3DCF3"/>
</g>
<path d="M419.294 395.218C373.805 395.218 336.928 432.095 336.928 477.585C336.928 523.074 373.805 559.951 419.294 559.951C464.783 559.951 501.66 523.074 501.66 477.585C501.66 432.095 464.783 395.218 419.294 395.218ZM412.129 419.706C412.722 419.635 413.324 419.686 413.897 419.853C414.471 420.02 415.005 420.301 415.468 420.679L448.859 447.393C449.381 447.81 449.803 448.339 450.092 448.941C450.382 449.543 450.532 450.203 450.532 450.871C450.532 451.539 450.382 452.199 450.092 452.801C449.803 453.403 449.381 453.932 448.859 454.349L419.572 477.585L448.859 500.75C449.394 501.166 449.827 501.699 450.124 502.308C450.422 502.917 450.576 503.586 450.576 504.263C450.576 504.941 450.422 505.609 450.124 506.218C449.827 506.827 449.394 507.36 448.859 507.776L415.468 534.49C414.813 535.014 414.023 535.342 413.189 535.437C412.356 535.532 411.512 535.39 410.756 535.026C410 534.663 409.362 534.093 408.916 533.383C408.469 532.672 408.233 531.85 408.233 531.011L408.233 486.489L395.433 496.646C394.972 497.014 394.442 497.288 393.875 497.451C393.308 497.615 392.714 497.664 392.128 497.598C391.541 497.531 390.974 497.349 390.458 497.062C389.942 496.776 389.488 496.39 389.121 495.928C388.755 495.465 388.484 494.934 388.323 494.367C388.162 493.799 388.115 493.205 388.184 492.619C388.253 492.032 388.438 491.466 388.727 490.951C389.015 490.436 389.403 489.984 389.867 489.619L405.103 477.585L389.867 465.48C389.148 464.943 388.607 464.201 388.317 463.351C388.026 462.501 388 461.583 388.24 460.718C388.481 459.852 388.978 459.08 389.666 458.502C390.353 457.924 391.2 457.568 392.094 457.48C392.687 457.41 393.288 457.46 393.862 457.627C394.436 457.795 394.97 458.076 395.433 458.454L408.233 468.611L408.233 424.158C408.224 423.067 408.616 422.012 409.334 421.191C410.052 420.371 411.047 419.842 412.129 419.706V419.706ZM417.137 433.41L417.137 468.054L438.912 450.802L417.137 433.41ZM417.137 487.045L417.137 521.759L438.912 504.298L417.137 487.045Z" fill="#729DCF"/>
<rect x="678.483" y="711.273" width="247.136" height="15.2083" transform="rotate(23.9871 678.483 711.273)" fill="#5D2911"/>
<path d="M1068.16 331.187L929.214 269.36L914.331 316.837L1041.12 373.254L1068.16 331.187Z" fill="#5D2911"/>
<path fill-rule="evenodd" clip-rule="evenodd" d="M900.165 820.518C896.031 823.71 889.592 825.716 881.112 826.403L683.096 738.294C677.93 731.535 675.109 725.409 674.712 720.201L900.165 820.518ZM928.646 564.132C996.455 608.442 1031.72 674.951 1009.28 725.392C992.126 763.942 945.446 783.73 889.449 781.689C902.326 794.789 908.206 806.748 904.432 815.229L675.784 713.49C679.558 705.009 692.379 701.371 710.73 702.166C671.726 661.935 655.175 614.012 672.328 575.462C694.772 525.021 767.789 506.695 846.1 527.403L914.281 309.586L1044.81 367.664L928.646 564.132ZM1051.53 356.284L918.23 296.969L922.184 284.365L1058.25 344.909L1051.53 356.284ZM1064.97 333.537L926.129 271.757C926.129 271.757 929.173 262.023 931.483 254.646C932.13 252.585 933.625 250.901 935.599 250.013C937.573 249.124 939.835 249.118 941.821 250.001C966.929 261.174 1045.52 296.144 1070.63 307.316C1072.62 308.2 1074.13 309.885 1074.79 311.946C1075.45 314.007 1075.2 316.245 1074.1 318.106L1064.97 333.537Z" fill="#CE8050"/>
<path d="M1015.65 355.679L1045.18 368.817L928.893 564.684C998.209 607.179 1014.75 663.226 1014.35 685.938C1018.17 770.87 933.046 782.929 890.004 778.342C1006.91 743.803 955.379 617.39 914.999 558.501L1015.65 355.679Z" fill="#5D2911"/>
<rect x="138.666" y="863.991" width="48.9439" height="21.9176" transform="rotate(-142.539 138.666 863.991)" fill="#FEC785"/>
<rect x="462.215" y="740.868" width="48.944" height="21.9176" transform="rotate(154.071 462.215 740.868)" fill="#FF9791"/>
<rect x="602.029" y="936.323" width="48.9439" height="21.9176" transform="rotate(-141.937 602.029 936.323)" fill="#FF9791"/>
<rect x="540.221" y="824.755" width="48.944" height="21.9176" transform="rotate(160.445 540.221 824.755)" fill="#C3DCF3"/>
<rect x="1278.96" y="934.146" width="48.944" height="21.9176" transform="rotate(160.445 1278.96 934.146)" fill="#C3DCF3"/>
<rect x="1046.65" y="147.916" width="48.944" height="21.9176" transform="rotate(-154.229 1046.65 147.916)" fill="#FF9791"/>
<rect x="1328.41" y="61.3823" width="48.9439" height="21.9176" transform="rotate(129.441 1328.41 61.3823)" fill="#C3DCF3"/>
<rect x="876.542" y="170.781" width="48.944" height="21.9176" transform="rotate(147.65 876.542 170.781)" fill="#FEC785"/>
<rect x="740.248" y="927.232" width="48.944" height="21.9176" transform="rotate(147.65 740.248 927.232)" fill="#FEC785"/>
<rect x="1372.19" y="786.054" width="48.9439" height="21.9176" transform="rotate(36.8943 1372.19 786.054)" fill="#F8C3DA"/>
<rect x="715.29" y="81.3831" width="48.944" height="21.9176" transform="rotate(133.167 715.29 81.3831)" fill="#F8C3DA"/>
<rect x="503.354" y="47.52" width="48.944" height="21.9176" transform="rotate(-167.164 503.354 47.52)" fill="#C3DCF3"/>
<rect x="688.585" y="849.229" width="48.944" height="21.9176" transform="rotate(-167.164 688.585 849.229)" fill="#FF9791"/>
<rect x="107.849" y="239.923" width="48.944" height="21.9176" transform="rotate(-151.095 107.849 239.923)" fill="#FF9791"/>
<rect x="114.15" y="86.7974" width="48.944" height="21.9176" transform="rotate(123.011 114.15 86.7974)" fill="#FEC785"/>
<rect x="332.81" y="923.957" width="48.944" height="21.9176" transform="rotate(123.011 332.81 923.957)" fill="#F8C3DA"/>
<rect x="668.979" y="318.154" width="99.1826" height="90.4486" transform="rotate(-22.1789 668.979 318.154)" fill="#729DCF"/>
<rect width="106.985" height="25.6937" transform="matrix(0.507473 -0.861667 0.890778 0.454438 641.027 324.093)" fill="#4678B2"/>
<rect x="740.131" y="386.811" width="90.4486" height="19.2444" transform="rotate(-112.179 740.131 386.811)" fill="#FBA19D"/>
<rect width="25.6937" height="18.7946" transform="matrix(-0.890778 -0.454438 0.507473 -0.861667 685.923 298.395)" fill="#EA7A82"/>
<path d="M644.476 284.54L668.312 277.759L651.157 306.888L644.476 284.54Z" fill="#EA7A82"/>
<path d="M661.351 255.889L685.187 249.109L668.032 278.238L661.351 255.889Z" fill="#FBA19D"/>
</g>
<defs>
<filter id="filter0_d" x="251.677" y="185.871" width="333.518" height="592.401" filterUnits="userSpaceOnUse" color-interpolation-filters="sRGB">
<feFlood flood-opacity="0" result="BackgroundImageFix"/>
<feColorMatrix in="SourceAlpha" type="matrix" values="0 0 0 0 0 0 0 0 0 0 0 0 0 0 0 0 0 0 127 0"/>
<feOffset dy="8.03255"/>
<feGaussianBlur stdDeviation="4.01628"/>
<feColorMatrix type="matrix" values="0 0 0 0 0 0 0 0 0 0 0 0 0 0 0 0 0 0 0.25 0"/>
<feBlend mode="normal" in2="BackgroundImageFix" result="effect1_dropShadow"/>
<feBlend mode="normal" in="SourceGraphic" in2="effect1_dropShadow" result="shape"/>
</filter>
<clipPath id="clip0">
<rect width="1365.6" height="965" fill="white"/>
</clipPath>
<clipPath id="clip1">
<rect width="298.734" height="426.808" fill="white" transform="translate(740.937 614.02) rotate(-41.1171)"/>
</clipPath>
<clipPath id="clip2">
<rect width="236.017" height="337.202" fill="white" transform="matrix(-0.753368 -0.6576 -0.6576 0.753368 478.875 445.3)"/>
</clipPath>
</defs>
</svg>
