<svg width="1366" height="965" viewBox="0 0 1366 965" fill="none" xmlns="http://www.w3.org/2000/svg">
<g clip-path="url(#clip0)">
<rect width="1365.6" height="965" fill="#E2A09A"/>
<g clip-path="url(#clip1)">
<path d="M397.381 503.24L367.046 596.516L345.611 662.807L379.833 692.679L438.746 625.186C438.746 625.186 452.786 627.81 486.877 622.813C521.175 617.579 554.245 577.774 565.711 562.24L653.763 492.545C660.552 487.166 661.668 477.253 656.051 470.256C650.909 463.675 640.789 462.797 634.207 467.938L555.222 526.286C553.947 527.267 552.137 526.943 550.948 525.905C549.73 524.423 550.054 522.613 551.091 521.424L649.326 430.47C656.707 423.932 657.288 412.714 650.78 405.778C644.48 398.604 633.53 398.677 626.326 404.532L530.248 487.738C529.181 488.481 527.846 488.572 526.688 487.98C525.054 486.973 524.666 484.54 525.91 483.114L628.84 372.39C636.843 365.14 637.363 353.031 630.35 345.235C623.575 337.647 612.119 336.859 604.025 342.774L501.148 447.682C496.909 451.099 494.588 446.562 496.719 441.722L564.14 341.457C567.217 334.094 565.101 325.965 559.397 320.987C558.209 319.95 557.051 319.357 555.655 318.558C547.311 314.206 537.017 317.364 531.982 325.53L462.83 416.747L456.874 424.529L448.252 435.845C442.5 440.036 436.247 446.721 426.493 454.537C421.394 458.461 415.434 462.889 408.347 467.171C395.032 475.229 394.249 490.038 397.381 503.24Z" fill="#FAB29A"/>
<path opacity="0.5" d="M397.374 503.245L367.039 596.522C384.059 610.122 404.836 613.183 429.235 593.865C509.846 529.818 435.231 471.388 435.231 471.388C433.624 467.472 429.787 460.355 426.248 454.335C421.149 458.258 415.19 462.687 408.102 466.969C395.025 475.234 394.242 490.043 397.374 503.245Z" fill="#CC8A79"/>
<path d="M341.694 397.697C353.025 393.351 371.688 391.637 387.373 405.328C407.099 422.546 406.587 441.361 406.587 441.361C406.587 441.361 420.786 452.917 427.754 473.236C427.754 473.236 488.269 528.152 435.371 588.753L359.862 675.259L308.054 630.036L369.042 560.167L373.717 523.631C373.67 509.772 372.691 485.469 367.477 467.937C367.477 467.937 350.515 428.846 338.028 409.572C335.263 405.064 337.126 399.572 341.694 397.697Z" fill="#FAB29A"/>
<path opacity="0.5" d="M462.822 416.751L456.867 424.533C543.497 505.176 556.491 551.691 557.744 556.972C547.525 498.642 475.478 428.636 462.822 416.751Z" fill="#CC8A79"/>
</g>
<rect width="491.044" height="98.5622" transform="matrix(-0.653919 0.756565 0.756565 0.653919 316.01 619.075)" fill="#FAB29A"/>
<g filter="url(#filter0_d)">
<rect x="445.581" y="908.646" width="855.176" height="471.042" rx="37.3562" transform="rotate(-90 445.581 908.646)" fill="#4678B2"/>
<rect x="793.213" y="852.338" width="26.5014" height="26.8286" fill="#729DCF"/>
<rect x="666.327" y="850.578" width="32.0807" height="32.4767" rx="16.0403" fill="#729DCF"/>
<path d="M580.851 881.155L554.569 866.099L580.59 850.585L580.851 881.155Z" fill="#729DCF"/>
<rect x="475.129" y="98.6619" width="411.945" height="730.029" fill="#C3DCF3"/>
</g>
<g clip-path="url(#clip2)">
<rect width="410.953" height="730.584" transform="translate(476.867 98.6619)" fill="white"/>
<g opacity="0.504511">
<path fill-rule="evenodd" clip-rule="evenodd" d="M705.448 522.363C758.094 530.819 786.837 566.656 758.285 587.667C729.733 608.677 634.397 603.14 586.983 581.85C539.569 560.56 652.802 513.906 705.448 522.363Z" fill="#FDEAD5"/>
</g>
<g opacity="0.504511">
<path fill-rule="evenodd" clip-rule="evenodd" d="M705.448 522.363C758.094 530.819 786.837 566.656 758.285 587.667C729.733 608.677 634.397 603.14 586.983 581.85C539.569 560.56 652.802 513.906 705.448 522.363Z" fill="#FDEAD5"/>
</g>
<g opacity="0.504511">
<path fill-rule="evenodd" clip-rule="evenodd" d="M705.448 522.363C758.094 530.819 786.837 566.656 758.285 587.667C729.733 608.677 634.397 603.14 586.983 581.85C539.569 560.56 652.802 513.906 705.448 522.363Z" fill="#FDEAD5"/>
</g>
<g opacity="0.504511">
<path fill-rule="evenodd" clip-rule="evenodd" d="M705.448 522.363C758.094 530.819 786.837 566.656 758.285 587.667C729.733 608.677 634.397 603.14 586.983 581.85C539.569 560.56 652.802 513.906 705.448 522.363Z" fill="#FDEAD5"/>
</g>
<g opacity="0.504511">
<path fill-rule="evenodd" clip-rule="evenodd" d="M705.448 522.363C758.094 530.819 786.837 566.656 758.285 587.667C729.733 608.677 634.397 603.14 586.983 581.85C539.569 560.56 652.802 513.906 705.448 522.363Z" fill="#FDEAD5"/>
</g>
<g opacity="0.504511">
<path fill-rule="evenodd" clip-rule="evenodd" d="M705.448 522.363C758.094 530.819 786.837 566.656 758.285 587.667C729.733 608.677 634.397 603.14 586.983 581.85C539.569 560.56 652.802 513.906 705.448 522.363Z" fill="#FDEAD5"/>
</g>
<rect opacity="0.35" x="843.99" y="119.019" width="23.9053" height="11.7959" rx="2.47333" stroke="black" stroke-width="1.14154"/>
<path opacity="0.4" d="M869.604 122.634V127.2C870.521 126.813 871.116 125.914 871.116 124.917C871.116 123.92 870.521 123.021 869.604 122.634" fill="black"/>
<rect x="845.696" y="120.732" width="20.4929" height="8.37127" rx="1.52205" fill="black"/>
<path fill-rule="evenodd" clip-rule="evenodd" d="M828.995 121.045C831.518 121.045 833.944 122.017 835.773 123.76C835.91 123.895 836.13 123.893 836.266 123.756L837.582 122.425C837.651 122.355 837.689 122.261 837.688 122.164C837.688 122.066 837.648 121.973 837.579 121.904C832.78 117.293 825.209 117.293 820.411 121.904C820.341 121.972 820.302 122.066 820.301 122.164C820.3 122.261 820.338 122.355 820.407 122.425L821.724 123.756C821.859 123.893 822.079 123.895 822.217 123.76C824.046 122.017 826.472 121.045 828.995 121.045ZM828.995 125.378C830.381 125.378 831.717 125.894 832.745 126.827C832.884 126.96 833.103 126.957 833.238 126.821L834.553 125.489C834.622 125.419 834.66 125.324 834.659 125.226C834.658 125.127 834.618 125.034 834.547 124.965C831.419 122.047 826.573 122.047 823.444 124.965C823.374 125.034 823.333 125.128 823.333 125.226C823.332 125.325 823.37 125.419 823.44 125.489L824.754 126.821C824.889 126.957 825.108 126.96 825.247 126.827C826.274 125.895 827.609 125.379 828.995 125.378ZM831.628 128.293C831.63 128.392 831.591 128.487 831.521 128.556L829.247 130.857C829.18 130.925 829.089 130.963 828.995 130.963C828.9 130.963 828.809 130.925 828.742 130.857L826.468 128.556C826.398 128.487 826.359 128.392 826.361 128.293C826.363 128.194 826.406 128.101 826.479 128.035C827.931 126.803 830.058 126.803 831.51 128.035C831.583 128.101 831.626 128.195 831.628 128.293Z" fill="black"/>
<path fill-rule="evenodd" clip-rule="evenodd" d="M813.439 118.829H812.3C811.672 118.829 811.162 119.34 811.162 119.971V129.864C811.162 130.494 811.672 131.005 812.3 131.005H813.439C814.068 131.005 814.577 130.494 814.577 129.864V119.971C814.577 119.34 814.068 118.829 813.439 118.829ZM806.987 121.493H808.126C808.754 121.493 809.264 122.004 809.264 122.634V129.864C809.264 130.494 808.754 131.006 808.126 131.006H806.987C806.358 131.006 805.849 130.494 805.849 129.864V122.634C805.849 122.004 806.358 121.493 806.987 121.493ZM802.813 124.156H801.674C801.045 124.156 800.536 124.668 800.536 125.298V129.864C800.536 130.495 801.045 131.006 801.674 131.006H802.813C803.441 131.006 803.951 130.495 803.951 129.864V125.298C803.951 124.668 803.441 124.156 802.813 124.156ZM797.5 126.44H796.361C795.732 126.44 795.223 126.951 795.223 127.581V129.864C795.223 130.495 795.732 131.006 796.361 131.006H797.5C798.128 131.006 798.638 130.495 798.638 129.864V127.581C798.638 126.951 798.128 126.44 797.5 126.44Z" fill="black"/>
<path d="M505.603 126.962C505.036 127.472 504.401 127.727 503.699 127.727C502.669 127.727 501.852 127.379 501.249 126.681C500.645 125.984 500.343 125.053 500.343 123.888C500.343 123.159 500.513 122.483 500.851 121.859C501.189 121.235 501.662 120.74 502.271 120.376C502.885 120.012 503.561 119.83 504.3 119.83C505.049 119.83 505.725 120.02 506.329 120.4C506.937 120.774 507.411 121.307 507.749 121.999C508.087 122.686 508.261 123.479 508.272 124.379V125.386C508.272 126.64 508.025 127.727 507.53 128.648C507.041 129.569 506.342 130.276 505.431 130.77C504.521 131.265 503.46 131.512 502.248 131.512H502.084V129.405L502.583 129.397C504.393 129.309 505.4 128.497 505.603 126.962ZM504.409 125.831C504.981 125.831 505.392 125.584 505.642 125.09V123.997C505.642 123.269 505.52 122.73 505.275 122.382C505.031 122.033 504.7 121.859 504.284 121.859C503.915 121.859 503.605 122.057 503.356 122.452C503.106 122.847 502.981 123.326 502.981 123.888C502.981 124.481 503.109 124.954 503.363 125.308C503.618 125.657 503.967 125.831 504.409 125.831ZM511.035 128.804C511.451 128.804 511.797 128.929 512.072 129.179C512.348 129.423 512.486 129.738 512.486 130.123C512.486 130.508 512.348 130.825 512.072 131.075C511.797 131.319 511.451 131.442 511.035 131.442C510.613 131.442 510.265 131.317 509.989 131.067C509.718 130.817 509.583 130.503 509.583 130.123C509.583 129.743 509.718 129.428 509.989 129.179C510.265 128.929 510.613 128.804 511.035 128.804ZM511.035 122.577C511.451 122.577 511.797 122.702 512.072 122.951C512.348 123.196 512.486 123.511 512.486 123.896C512.486 124.281 512.348 124.598 512.072 124.848C511.797 125.092 511.451 125.214 511.035 125.214C510.613 125.214 510.265 125.09 509.989 124.84C509.718 124.59 509.583 124.275 509.583 123.896C509.583 123.516 509.718 123.201 509.989 122.951C510.265 122.702 510.613 122.577 511.035 122.577ZM520.789 126.916H521.944V128.944H520.789V131.356H518.159V128.944H513.766L513.61 127.337L518.159 120.017V119.994H520.789V126.916ZM516.115 126.916H518.159V123.42L517.996 123.685L516.115 126.916ZM528.609 131.356H525.971V122.959L523.38 123.716V121.718L528.367 119.994H528.609V131.356Z" fill="black"/>
<g clip-path="url(#clip3)">
<path d="M706.008 411.536H653.782L655.489 385.102H703.733L706.008 411.536Z" fill="#1A1A1A"/>
<path d="M653.782 411.308L652.189 472.494C651.962 477.963 656.399 482.635 661.975 482.635C666.981 482.635 671.191 478.875 671.646 473.861L677.79 413.017C678.587 405.839 672.898 399.686 665.843 399.686C659.358 399.572 654.01 404.813 653.782 411.308Z" fill="#1A1A1A"/>
<path d="M652.303 561.482L653.1 532.997H664.364L663.681 561.482H652.303Z" fill="white"/>
<path d="M665.732 556.924L667.894 566.495H630.118V566.267C630.118 564.103 631.369 562.052 633.304 561.14L650.826 554.19C651.509 553.848 652.305 553.848 652.761 554.418C655.036 556.81 657.539 560.684 664.48 556.469C664.935 556.013 665.618 556.355 665.732 556.924Z" fill="#1A1A1A"/>
<path d="M630.112 568.928H667.888V566.421H630.112V568.928Z" fill="white"/>
<path d="M652.758 567.635L649.458 560.685" stroke="white" stroke-width="2.70304" stroke-miterlimit="10"/>
<path d="M647.752 567.407L645.362 562.28" stroke="white" stroke-width="2.70304" stroke-miterlimit="10"/>
<path d="M671.76 474.089L667.209 548.264H649.004L652.189 472.722C652.303 467.253 656.968 463.037 662.43 463.265C668.119 463.493 672.329 468.506 671.76 474.089Z" fill="#1A1A1A"/>
<path d="M705.895 411.308L707.488 472.494C707.715 477.963 703.278 482.635 697.702 482.635C692.696 482.635 688.486 478.875 688.031 473.861L681.886 413.017C681.09 405.839 686.779 399.686 693.834 399.686C700.319 399.572 705.667 404.813 705.895 411.308Z" fill="#1A1A1A"/>
<path d="M707.033 561.482L706.236 532.997H694.972L695.768 561.482H707.033Z" fill="white"/>
<path d="M693.606 556.924L691.444 566.495H729.22V566.267C729.22 564.102 727.968 562.052 726.034 561.14L708.512 553.962C707.829 553.62 707.032 553.62 706.577 554.19C704.302 556.582 701.798 560.456 694.858 556.241C694.402 556.013 693.72 556.355 693.606 556.924Z" fill="#1A1A1A"/>
<path d="M729.22 566.381H691.444V568.888H729.22V566.381Z" fill="white"/>
<path d="M706.577 567.635L709.877 560.685" stroke="white" stroke-width="2.70304" stroke-miterlimit="10"/>
<path d="M711.584 567.407L713.973 562.28" stroke="white" stroke-width="2.70304" stroke-miterlimit="10"/>
<path d="M688.031 474.089L692.468 548.265H709.536L707.374 472.722C707.26 467.253 702.595 463.037 697.133 463.265C691.558 463.493 687.348 468.506 688.031 474.089Z" fill="#1A1A1A"/>
<path d="M635.008 433.298C634.098 431.133 633.074 430.449 633.074 430.449C633.529 428.512 632.277 426.575 630.229 426.234L628.864 426.006C627.043 425.664 625.336 426.803 624.881 428.626V428.74C624.881 428.74 622.378 433.412 621.695 439.793C620.899 447.996 624.426 452.212 627.043 452.212C629.432 452.212 630.798 442.641 631.367 438.995L632.846 442.641C633.074 443.097 633.529 443.439 633.984 443.325C634.553 443.325 634.894 442.869 635.008 442.299L635.577 438.083C635.804 436.488 635.691 434.779 635.008 433.298Z" fill="#F3A396"/>
<path d="M633.074 430.449L647.638 383.164C648.889 378.948 646.272 374.619 641.949 373.935C638.08 373.251 634.439 375.872 633.643 379.746L624.767 428.74L633.074 430.449Z" fill="#F3A396"/>
<path d="M645.476 322.776C642.859 335.765 636.715 365.845 633.984 379.176C633.187 382.822 635.463 386.468 638.99 387.494C642.745 388.633 646.728 386.354 647.865 382.594L663.795 326.65C664.933 321.408 661.406 316.167 656.058 315.369C651.165 314.458 646.5 317.762 645.476 322.776Z" fill="#F3A396"/>
<path d="M666.867 327.333C666.867 320.611 661.406 315.256 654.806 315.256C648.89 315.256 643.997 319.585 642.859 325.168L637.739 348.754L661.292 354.223L666.298 330.979C666.64 329.84 666.867 328.587 666.867 327.333Z" fill="#F4F4F2"/>
<path d="M640.129 337.474L683.366 350.007" stroke="#1A1A1A" stroke-width="2.74496" stroke-miterlimit="10"/>
<path d="M641.266 328.359L684.504 340.892" stroke="#1A1A1A" stroke-width="2.74496" stroke-miterlimit="10"/>
<path d="M642.404 319.243L685.642 331.777" stroke="#1A1A1A" stroke-width="2.74496" stroke-miterlimit="10"/>
<path d="M723.531 433.298C724.441 431.133 725.465 430.449 725.465 430.449C725.01 428.512 726.262 426.575 728.31 426.234L729.675 426.006C731.496 425.664 733.203 426.803 733.658 428.626V428.74C733.658 428.74 736.161 433.412 736.844 439.793C737.64 447.996 734.113 452.212 731.496 452.212C729.106 452.212 727.741 442.641 727.172 438.995L725.693 442.641C725.465 443.097 725.01 443.439 724.555 443.325C723.986 443.325 723.645 442.869 723.531 442.299L722.962 438.083C722.735 436.488 722.962 434.779 723.531 433.298Z" fill="#F3A396"/>
<path d="M725.579 430.449L711.015 383.164C709.763 378.948 712.38 374.619 716.704 373.935C720.573 373.251 724.214 375.872 725.01 379.746L733.885 428.74L725.579 430.449Z" fill="#F3A396"/>
<path d="M713.177 322.776C715.794 335.765 721.938 365.845 724.669 379.176C725.466 382.822 723.19 386.468 719.663 387.494C715.908 388.633 711.925 386.354 710.788 382.594L694.858 326.65C693.72 321.408 697.247 316.167 702.595 315.369C707.488 314.458 712.153 317.762 713.177 322.776Z" fill="#F3A396"/>
<path d="M691.786 327.333C691.786 320.611 697.247 315.256 703.847 315.256C709.763 315.256 714.656 319.585 715.794 325.168L720.914 348.754L697.361 354.223L692.241 330.979C691.9 329.84 691.786 328.587 691.786 327.333Z" fill="#F4F4F2"/>
<path d="M717.501 337.474L675.401 350.007" stroke="#1A1A1A" stroke-width="2.74496" stroke-miterlimit="10"/>
<path d="M716.363 328.359L674.263 340.892" stroke="#1A1A1A" stroke-width="2.74496" stroke-miterlimit="10"/>
<path d="M715.225 319.243L673.125 331.777" stroke="#1A1A1A" stroke-width="2.74496" stroke-miterlimit="10"/>
<path d="M688.6 307.508L679.611 307.622L670.736 307.508L651.962 315.598L655.489 385.101H679.611H703.847L707.488 315.598L688.6 307.508Z" fill="#F4F4F2"/>
<path d="M653.782 377.354H706.122" stroke="#1A1A1A" stroke-width="2.74496" stroke-miterlimit="10"/>
<path d="M653.782 368.238H706.122" stroke="#1A1A1A" stroke-width="2.74496" stroke-miterlimit="10"/>
<path d="M653.782 359.123H706.122" stroke="#1A1A1A" stroke-width="2.74496" stroke-miterlimit="10"/>
<path d="M653.782 350.008H706.122" stroke="#1A1A1A" stroke-width="2.74496" stroke-miterlimit="10"/>
<path d="M653.782 340.892H706.122" stroke="#1A1A1A" stroke-width="2.74496" stroke-miterlimit="10"/>
<path d="M653.782 331.777H706.122" stroke="#1A1A1A" stroke-width="2.74496" stroke-miterlimit="10"/>
<path d="M653.782 322.662H706.122" stroke="#1A1A1A" stroke-width="2.74496" stroke-miterlimit="10"/>
<path d="M653.782 313.547H706.122" stroke="#1A1A1A" stroke-width="2.74496" stroke-miterlimit="10"/>
<path d="M695.085 310.242L688.714 307.508L679.611 307.622L670.85 307.508L664.478 310.242C664.478 310.242 665.047 318.104 679.611 318.218H679.838C694.517 318.104 695.085 310.242 695.085 310.242Z" fill="#F3A396"/>
<path d="M679.839 317.193C674.378 317.193 669.94 312.75 669.94 307.28V286.315H689.625V307.394C689.739 312.75 685.301 317.193 679.839 317.193Z" fill="#F3A396"/>
<path d="M669.94 292.924C669.94 292.924 675.401 303.065 681.545 302.495C691.103 301.697 689.51 289.848 689.51 289.848C689.51 289.848 685.755 297.823 679.952 297.823C673.467 297.823 669.94 292.924 669.94 292.924Z" fill="#1A1A1A"/>
<path d="M665.161 279.023L664.137 268.996C662.885 262.615 667.892 259.197 672.215 259.197H687.235C691.9 259.197 697.361 262.501 694.972 269.793L693.607 280.732L665.161 279.023Z" fill="#1A1A1A"/>
<path d="M692.696 284.492C695.655 286.657 700.889 276.63 697.93 274.238C694.972 271.845 693.038 276.175 693.038 276.175L692.924 279.821L692.469 283.239V284.492H692.696Z" fill="#F3A396"/>
<path d="M697.133 277.314C697.133 277.314 694.972 276.631 693.379 279.821" stroke="#D26665" stroke-width="0.740022" stroke-miterlimit="10" stroke-linecap="round" stroke-linejoin="round"/>
<path d="M694.517 278.226C694.517 278.226 696.906 279.479 695.313 281.416" stroke="#D26665" stroke-width="0.740022" stroke-miterlimit="10" stroke-linecap="round" stroke-linejoin="round"/>
<path d="M666.64 284.492C663.682 286.657 658.448 276.63 661.406 274.237C664.365 271.845 666.185 276.288 666.185 276.288L666.299 279.934L666.754 283.353L666.868 284.378L666.64 284.492Z" fill="#F3A396"/>
<path d="M662.203 277.313C662.203 277.313 664.365 276.63 665.958 279.82" stroke="#D26665" stroke-width="0.740022" stroke-miterlimit="10" stroke-linecap="round" stroke-linejoin="round"/>
<path d="M664.82 278.225C664.82 278.225 662.43 279.478 664.023 281.415" stroke="#D26665" stroke-width="0.740022" stroke-miterlimit="10" stroke-linecap="round" stroke-linejoin="round"/>
<path d="M693.72 271.503C693.72 277.77 692.924 283.125 692.014 286.885C691.217 290.645 688.942 293.835 685.756 296L685.187 296.342C681.773 298.507 677.449 298.621 673.922 296.456C670.395 294.291 668.005 290.759 667.209 286.771C665.844 279.479 665.73 271.389 665.73 271.389C665.73 271.389 664.478 255.779 679.498 256.121C694.517 256.463 693.72 271.503 693.72 271.503Z" fill="#F3A396"/>
<path d="M693.834 253.728C689.055 250.31 679.611 252.703 674.377 255.095C674.491 253.5 673.581 253.728 673.581 253.728C664.478 256.121 666.868 263.299 666.868 263.299C666.868 263.299 666.868 263.299 666.982 263.299C666.071 265.35 664.82 269.794 665.957 277.656C665.957 277.656 668.347 269.11 668.461 263.983C672.443 265.806 683.48 270.022 690.648 267.629C691.331 271.959 693.265 277.656 693.265 277.656C694.062 272.528 693.721 268.882 693.152 266.376C693.607 266.034 694.062 265.692 694.403 265.35C694.517 265.35 700.661 258.514 693.834 253.728Z" fill="#1A1A1A"/>
<path d="M678.359 277.542V282.555C678.359 282.669 678.359 282.897 678.473 283.011C678.701 283.581 679.383 283.922 679.952 283.695L681.318 283.353" stroke="#D26665" stroke-width="0.740022" stroke-miterlimit="10" stroke-linecap="round" stroke-linejoin="round"/>
<path d="M673.353 277.314C674.044 277.314 674.605 276.753 674.605 276.06C674.605 275.368 674.044 274.807 673.353 274.807C672.662 274.807 672.101 275.368 672.101 276.06C672.101 276.753 672.662 277.314 673.353 277.314Z" fill="#1A1A1A"/>
<path d="M685.528 277.314C686.219 277.314 686.779 276.753 686.779 276.06C686.779 275.368 686.219 274.807 685.528 274.807C684.836 274.807 684.276 275.368 684.276 276.06C684.276 276.753 684.836 277.314 685.528 277.314Z" fill="#1A1A1A"/>
<path d="M675.743 277.542L672.443 279.707" stroke="#D26665" stroke-width="0.555017" stroke-miterlimit="10" stroke-linecap="round" stroke-linejoin="round"/>
<path d="M683.366 277.542L686.324 279.707" stroke="#D26665" stroke-width="0.555017" stroke-miterlimit="10" stroke-linecap="round" stroke-linejoin="round"/>
<path d="M675.856 286.315C675.856 286.315 676.88 287.113 679.497 287.113C681.887 287.113 683.366 286.315 683.366 286.315" stroke="#D26665" stroke-width="0.740022" stroke-miterlimit="10" stroke-linecap="round" stroke-linejoin="round"/>
<path d="M679.611 293.379V294.747" stroke="#D26665" stroke-width="0.555017" stroke-miterlimit="10" stroke-linecap="round" stroke-linejoin="round"/>
<path d="M676.653 273.098V270.591H671.988C671.419 270.591 670.85 270.819 670.395 271.161L668.46 273.326L671.646 272.87L676.653 273.098Z" fill="#1A1A1A"/>
<path d="M682.228 273.098V270.591L687.007 270.705C687.576 270.705 688.145 270.933 688.6 271.275L690.534 273.44L687.348 272.984L682.228 273.098Z" fill="#1A1A1A"/>
<path opacity="0.19" d="M686.665 283.125C689.807 283.125 692.355 280.574 692.355 277.428C692.355 274.281 689.807 271.731 686.665 271.731C683.523 271.731 680.976 274.281 680.976 277.428C680.976 280.574 683.523 283.125 686.665 283.125Z" fill="white"/>
<path opacity="0.19" d="M672.784 283.125C675.926 283.125 678.473 280.574 678.473 277.428C678.473 274.281 675.926 271.731 672.784 271.731C669.642 271.731 667.095 274.281 667.095 277.428C667.095 280.574 669.642 283.125 672.784 283.125Z" fill="white"/>
<path d="M672.784 283.125C675.926 283.125 678.473 280.574 678.473 277.428C678.473 274.281 675.926 271.731 672.784 271.731C669.642 271.731 667.095 274.281 667.095 277.428C667.095 280.574 669.642 283.125 672.784 283.125Z" stroke="#1A1A1A" stroke-width="0.470613" stroke-miterlimit="10" stroke-linecap="round" stroke-linejoin="round"/>
<path d="M686.665 283.125C689.807 283.125 692.355 280.574 692.355 277.428C692.355 274.281 689.807 271.731 686.665 271.731C683.523 271.731 680.976 274.281 680.976 277.428C680.976 280.574 683.523 283.125 686.665 283.125Z" stroke="#1A1A1A" stroke-width="0.470613" stroke-miterlimit="10" stroke-linecap="round" stroke-linejoin="round"/>
<path d="M678.359 277.428C678.359 277.428 679.725 276.175 680.976 277.428" stroke="#1A1A1A" stroke-width="0.470613" stroke-miterlimit="10" stroke-linecap="round" stroke-linejoin="round"/>
<path d="M667.094 277.428H666.184" stroke="#1A1A1A" stroke-width="0.470613" stroke-miterlimit="10"/>
<path d="M693.378 277.428H692.468" stroke="#1A1A1A" stroke-width="0.470613" stroke-miterlimit="10"/>
</g>
<rect x="572.757" y="663.722" width="219.175" height="57.0768" rx="9.13229" fill="#2B44FF"/>
<path d="M639.554 689.355L641.944 683.719H645.324L641.142 692.039V696.704H637.967V692.039L633.793 683.719H637.155L639.554 689.355ZM650.212 696.882C648.731 696.882 647.533 696.442 646.618 695.562C645.702 694.676 645.244 693.526 645.244 692.111V691.861C645.244 690.874 645.426 690.003 645.788 689.248C646.157 688.493 646.692 687.91 647.393 687.5C648.095 687.084 648.927 686.876 649.891 686.876C651.246 686.876 652.316 687.298 653.101 688.142C653.886 688.98 654.278 690.152 654.278 691.656V692.824H648.303C648.41 693.365 648.645 693.79 649.008 694.099C649.37 694.409 649.84 694.563 650.417 694.563C651.368 694.563 652.111 694.23 652.646 693.564L654.02 695.188C653.645 695.705 653.113 696.118 652.423 696.427C651.74 696.73 651.002 696.882 650.212 696.882ZM649.873 689.194C648.993 689.194 648.47 689.777 648.303 690.942H651.335V690.711C651.347 690.229 651.225 689.857 650.97 689.596C650.714 689.328 650.348 689.194 649.873 689.194ZM660.548 693.992C660.548 693.737 660.414 693.532 660.147 693.377C659.879 693.223 659.371 693.062 658.622 692.896C657.872 692.729 657.254 692.512 656.767 692.244C656.279 691.971 655.907 691.641 655.652 691.255C655.396 690.868 655.268 690.425 655.268 689.926C655.268 689.04 655.634 688.312 656.365 687.741C657.097 687.164 658.054 686.876 659.237 686.876C660.509 686.876 661.532 687.164 662.305 687.741C663.078 688.317 663.464 689.076 663.464 690.015H660.45C660.45 689.242 660.043 688.856 659.228 688.856C658.913 688.856 658.648 688.945 658.434 689.123C658.22 689.296 658.113 689.513 658.113 689.774C658.113 690.042 658.244 690.259 658.506 690.425C658.767 690.592 659.183 690.728 659.754 690.835C660.331 690.942 660.836 691.07 661.27 691.219C662.721 691.718 663.446 692.613 663.446 693.903C663.446 694.783 663.054 695.5 662.269 696.053C661.49 696.606 660.48 696.882 659.237 696.882C658.411 696.882 657.673 696.733 657.025 696.436C656.377 696.139 655.872 695.734 655.509 695.223C655.146 694.712 654.965 694.174 654.965 693.609H657.774C657.786 694.055 657.935 694.382 658.22 694.59C658.506 694.792 658.871 694.893 659.317 694.893C659.727 694.893 660.034 694.81 660.236 694.643C660.444 694.477 660.548 694.26 660.548 693.992ZM665.917 700.2L664.401 699.486L664.704 698.88C665.12 698.107 665.337 697.37 665.355 696.668V694.438H667.763L667.754 696.374C667.748 697.057 667.573 697.753 667.228 698.461C666.883 699.168 666.446 699.748 665.917 700.2ZM677.502 696.704H674.487V683.005H677.502V696.704ZM684.03 696.882C682.549 696.882 681.351 696.442 680.436 695.562C679.52 694.676 679.062 693.526 679.062 692.111V691.861C679.062 690.874 679.244 690.003 679.606 689.248C679.975 688.493 680.51 687.91 681.212 687.5C681.913 687.084 682.745 686.876 683.709 686.876C685.064 686.876 686.134 687.298 686.919 688.142C687.704 688.98 688.096 690.152 688.096 691.656V692.824H682.121C682.228 693.365 682.463 693.79 682.826 694.099C683.188 694.409 683.658 694.563 684.235 694.563C685.186 694.563 685.929 694.23 686.464 693.564L687.838 695.188C687.463 695.705 686.931 696.118 686.241 696.427C685.558 696.73 684.82 696.882 684.03 696.882ZM683.691 689.194C682.811 689.194 682.288 689.777 682.121 690.942H685.153V690.711C685.165 690.229 685.043 689.857 684.788 689.596C684.532 689.328 684.166 689.194 683.691 689.194ZM692.814 684.655V687.054H694.402V689.141H692.814V693.555C692.814 693.918 692.88 694.171 693.01 694.314C693.141 694.456 693.4 694.528 693.786 694.528C694.084 694.528 694.333 694.51 694.535 694.474V696.623C693.994 696.796 693.43 696.882 692.841 696.882C691.806 696.882 691.042 696.638 690.549 696.151C690.055 695.663 689.809 694.923 689.809 693.93V689.141H688.578V687.054H689.809V684.655H692.814ZM696.872 687.785L695.552 687.072C696.046 686.216 696.298 685.377 696.31 684.557V683.005H698.504V684.459C698.504 685.012 698.343 685.603 698.022 686.234C697.707 686.858 697.324 687.375 696.872 687.785ZM703.231 693.992C703.231 693.737 703.097 693.532 702.829 693.377C702.562 693.223 702.053 693.062 701.304 692.896C700.555 692.729 699.937 692.512 699.449 692.244C698.962 691.971 698.59 691.641 698.335 691.255C698.079 690.868 697.951 690.425 697.951 689.926C697.951 689.04 698.317 688.312 699.048 687.741C699.779 687.164 700.737 686.876 701.92 686.876C703.192 686.876 704.215 687.164 704.988 687.741C705.761 688.317 706.147 689.076 706.147 690.015H703.133C703.133 689.242 702.725 688.856 701.911 688.856C701.596 688.856 701.331 688.945 701.117 689.123C700.903 689.296 700.796 689.513 700.796 689.774C700.796 690.042 700.927 690.259 701.188 690.425C701.45 690.592 701.866 690.728 702.437 690.835C703.014 690.942 703.519 691.07 703.953 691.219C705.404 691.718 706.129 692.613 706.129 693.903C706.129 694.783 705.737 695.5 704.952 696.053C704.173 696.606 703.162 696.882 701.92 696.882C701.093 696.882 700.356 696.733 699.708 696.436C699.06 696.139 698.555 695.734 698.192 695.223C697.829 694.712 697.648 694.174 697.648 693.609H700.457C700.469 694.055 700.618 694.382 700.903 694.59C701.188 694.792 701.554 694.893 702 694.893C702.41 694.893 702.716 694.81 702.919 694.643C703.127 694.477 703.231 694.26 703.231 693.992ZM711.739 691.807C711.739 690.832 711.899 689.97 712.22 689.221C712.541 688.472 713.002 687.895 713.603 687.491C714.203 687.081 714.902 686.876 715.698 686.876C716.703 686.876 717.488 687.215 718.053 687.892L718.16 687.054H720.889V696.338C720.889 697.188 720.69 697.925 720.291 698.55C719.899 699.18 719.328 699.662 718.579 699.994C717.83 700.333 716.962 700.503 715.975 700.503C715.267 700.503 714.581 700.369 713.915 700.101C713.255 699.834 712.749 699.486 712.399 699.058L713.656 697.292C714.215 697.952 714.952 698.282 715.868 698.282C717.2 698.282 717.866 697.598 717.866 696.231V695.928C717.289 696.564 716.561 696.882 715.681 696.882C714.503 696.882 713.552 696.433 712.827 695.535C712.101 694.632 711.739 693.425 711.739 691.915V691.807ZM714.753 691.995C714.753 692.786 714.902 693.413 715.199 693.877C715.496 694.334 715.912 694.563 716.448 694.563C717.096 694.563 717.568 694.346 717.866 693.912V689.854C717.574 689.414 717.107 689.194 716.465 689.194C715.93 689.194 715.511 689.435 715.208 689.917C714.905 690.392 714.753 691.085 714.753 691.995ZM722.218 691.79C722.218 690.826 722.405 689.97 722.78 689.221C723.154 688.466 723.692 687.886 724.394 687.482C725.095 687.078 725.919 686.876 726.864 686.876C728.309 686.876 729.447 687.325 730.28 688.222C731.112 689.114 731.528 690.33 731.528 691.87V691.977C731.528 693.481 731.109 694.676 730.271 695.562C729.438 696.442 728.309 696.882 726.882 696.882C725.508 696.882 724.406 696.472 723.573 695.651C722.741 694.825 722.292 693.707 722.227 692.298L722.218 691.79ZM725.223 691.977C725.223 692.869 725.363 693.523 725.642 693.939C725.922 694.355 726.335 694.563 726.882 694.563C727.952 694.563 728.499 693.74 728.523 692.093V691.79C728.523 690.06 727.97 689.194 726.864 689.194C725.859 689.194 725.315 689.941 725.232 691.433L725.223 691.977Z" fill="white"/>
<rect x="572.757" y="733.356" width="219.175" height="57.0768" rx="9.13229" fill="#DE9089"/>
<path d="M661.163 764.732C660.682 765.267 659.977 765.698 659.05 766.025C658.122 766.352 657.105 766.516 656 766.516C654.299 766.516 652.941 765.996 651.924 764.955C650.907 763.915 650.363 762.467 650.292 760.612L650.283 759.488C650.283 758.21 650.509 757.095 650.961 756.144C651.413 755.187 652.058 754.452 652.896 753.941C653.74 753.424 654.715 753.165 655.821 753.165C657.438 753.165 658.693 753.537 659.585 754.28C660.482 755.017 661.006 756.12 661.154 757.589H658.14C658.033 756.863 657.801 756.346 657.444 756.037C657.088 755.728 656.582 755.573 655.928 755.573C655.143 755.573 654.537 755.906 654.109 756.572C653.681 757.238 653.464 758.189 653.458 759.426V760.211C653.458 761.507 653.678 762.482 654.118 763.136C654.564 763.784 655.262 764.108 656.214 764.108C657.028 764.108 657.635 763.927 658.033 763.564V761.548H655.857V759.399H661.163V764.732ZM662.465 761.423C662.465 760.46 662.653 759.604 663.027 758.855C663.402 758.1 663.94 757.52 664.641 757.116C665.343 756.712 666.166 756.509 667.112 756.509C668.556 756.509 669.695 756.958 670.527 757.856C671.36 758.748 671.776 759.964 671.776 761.504V761.611C671.776 763.115 671.357 764.31 670.518 765.196C669.686 766.076 668.556 766.516 667.13 766.516C665.756 766.516 664.653 766.106 663.821 765.285C662.988 764.459 662.54 763.341 662.474 761.932L662.465 761.423ZM665.471 761.611C665.471 762.503 665.61 763.157 665.89 763.573C666.169 763.989 666.583 764.197 667.13 764.197C668.2 764.197 668.747 763.374 668.77 761.727V761.423C668.77 759.693 668.218 758.828 667.112 758.828C666.107 758.828 665.563 759.574 665.48 761.067L665.471 761.611ZM686.607 761.593C686.607 763.174 686.28 764.39 685.626 765.24C684.972 766.091 684.05 766.516 682.861 766.516C681.88 766.516 681.09 766.126 680.489 765.347L680.364 766.337H677.671V752.639H680.676V757.464C681.235 756.828 681.958 756.509 682.843 756.509C684.044 756.509 684.972 756.941 685.626 757.803C686.28 758.665 686.607 759.878 686.607 761.441V761.593ZM683.593 761.406C683.593 760.478 683.468 759.818 683.218 759.426C682.974 759.027 682.597 758.828 682.085 758.828C681.408 758.828 680.938 759.087 680.676 759.604V763.439C680.932 763.95 681.408 764.206 682.103 764.206C682.811 764.206 683.26 763.861 683.45 763.171C683.545 762.833 683.593 762.244 683.593 761.406ZM693.376 766.337C693.269 766.141 693.174 765.853 693.091 765.472C692.538 766.168 691.765 766.516 690.772 766.516C689.862 766.516 689.089 766.242 688.453 765.695C687.817 765.142 687.499 764.45 687.499 763.617C687.499 762.571 687.885 761.78 688.658 761.245C689.431 760.71 690.555 760.442 692.029 760.442H692.957V759.934C692.957 759.048 692.573 758.605 691.806 758.605C691.093 758.605 690.736 758.956 690.736 759.658H687.731C687.731 758.724 688.126 757.966 688.917 757.383C689.714 756.801 690.727 756.509 691.958 756.509C693.189 756.509 694.161 756.81 694.874 757.41C695.588 758.011 695.953 758.834 695.971 759.881V764.152C695.983 765.038 696.12 765.716 696.381 766.186V766.337H693.376ZM691.494 764.375C691.869 764.375 692.178 764.295 692.422 764.135C692.671 763.974 692.85 763.793 692.957 763.591V762.048H692.083C691.036 762.048 690.513 762.517 690.513 763.457C690.513 763.73 690.605 763.953 690.79 764.126C690.974 764.292 691.209 764.375 691.494 764.375ZM701.723 764.197C702.146 764.197 702.473 764.084 702.704 763.858C702.936 763.626 703.049 763.305 703.043 762.895H705.862C705.862 763.953 705.481 764.821 704.72 765.499C703.965 766.177 702.99 766.516 701.795 766.516C700.392 766.516 699.286 766.076 698.477 765.196C697.669 764.316 697.264 763.097 697.264 761.539V761.415C697.264 760.439 697.443 759.58 697.799 758.837C698.162 758.088 698.682 757.514 699.36 757.116C700.038 756.712 700.841 756.509 701.768 756.509C703.023 756.509 704.018 756.857 704.756 757.553C705.493 758.249 705.862 759.191 705.862 760.38H703.043C703.043 759.881 702.921 759.497 702.678 759.23C702.434 758.962 702.107 758.828 701.697 758.828C700.918 758.828 700.463 759.325 700.332 760.318C700.291 760.633 700.27 761.067 700.27 761.62C700.27 762.589 700.386 763.261 700.618 763.635C700.849 764.01 701.218 764.197 701.723 764.197ZM711.007 762.743L710.16 763.591V766.337H707.155V752.63H710.16V759.907L710.463 759.506L712.729 756.688H716.332L712.952 760.656L716.555 766.337H713.112L711.007 762.743Z" fill="white"/>
<path d="M618.724 208.809H612.391V213.553H619.794V215.692H609.712V200.273H619.72V202.433H612.391V206.691H618.724V208.809ZM621.033 209.878C621.033 208.113 621.443 206.698 622.262 205.631C623.081 204.558 624.178 204.022 625.555 204.022C626.77 204.022 627.751 204.445 628.499 205.293V199.425H631.073V215.692H628.743L628.616 214.506C627.846 215.438 626.819 215.904 625.534 215.904C624.193 215.904 623.105 215.364 622.272 214.284C621.446 213.204 621.033 211.735 621.033 209.878ZM623.607 210.101C623.607 211.266 623.829 212.176 624.274 212.833C624.726 213.483 625.365 213.807 626.191 213.807C627.243 213.807 628.012 213.338 628.499 212.399V207.506C628.026 206.588 627.264 206.129 626.212 206.129C625.379 206.129 624.736 206.461 624.284 207.125C623.832 207.781 623.607 208.773 623.607 210.101ZM640.7 214.57C639.944 215.459 638.871 215.904 637.48 215.904C636.237 215.904 635.295 215.541 634.652 214.813C634.017 214.086 633.699 213.034 633.699 211.657V204.234H636.273V211.626C636.273 213.08 636.876 213.807 638.084 213.807C639.333 213.807 640.177 213.359 640.615 212.462V204.234H643.188V215.692H640.763L640.7 214.57ZM652.656 215.692C652.543 215.474 652.444 215.117 652.36 214.623C651.541 215.477 650.538 215.904 649.352 215.904C648.201 215.904 647.262 215.576 646.535 214.919C645.808 214.263 645.444 213.451 645.444 212.483C645.444 211.262 645.896 210.327 646.8 209.677C647.71 209.02 649.009 208.692 650.697 208.692H652.275V207.94C652.275 207.347 652.109 206.874 651.777 206.521C651.445 206.161 650.94 205.981 650.263 205.981C649.677 205.981 649.197 206.129 648.822 206.426C648.448 206.715 648.261 207.086 648.261 207.538H645.688C645.688 206.909 645.896 206.323 646.312 205.78C646.729 205.229 647.294 204.798 648.007 204.488C648.727 204.177 649.528 204.022 650.411 204.022C651.752 204.022 652.822 204.361 653.62 205.038C654.418 205.709 654.827 206.655 654.848 207.877V213.045C654.848 214.076 654.993 214.898 655.283 215.512V215.692H652.656ZM649.828 213.839C650.337 213.839 650.813 213.716 651.258 213.468C651.71 213.221 652.049 212.889 652.275 212.473V210.312H650.888C649.934 210.312 649.218 210.478 648.738 210.81C648.258 211.142 648.018 211.612 648.018 212.219C648.018 212.713 648.18 213.108 648.505 213.405C648.836 213.694 649.278 213.839 649.828 213.839ZM663.543 206.585C663.204 206.528 662.855 206.5 662.495 206.5C661.316 206.5 660.521 206.952 660.112 207.855V215.692H657.538V204.234H659.995L660.059 205.515C660.68 204.519 661.541 204.022 662.643 204.022C663.01 204.022 663.314 204.071 663.554 204.17L663.543 206.585ZM664.475 209.878C664.475 208.113 664.885 206.698 665.704 205.631C666.523 204.558 667.62 204.022 668.997 204.022C670.212 204.022 671.193 204.445 671.941 205.293V199.425H674.515V215.692H672.185L672.058 214.506C671.288 215.438 670.261 215.904 668.976 215.904C667.635 215.904 666.547 215.364 665.714 214.284C664.888 213.204 664.475 211.735 664.475 209.878ZM667.049 210.101C667.049 211.266 667.271 212.176 667.716 212.833C668.168 213.483 668.807 213.807 669.633 213.807C670.685 213.807 671.454 213.338 671.941 212.399V207.506C671.468 206.588 670.706 206.129 669.654 206.129C668.821 206.129 668.178 206.461 667.726 207.125C667.274 207.781 667.049 208.773 667.049 210.101ZM676.718 209.857C676.718 208.734 676.94 207.725 677.385 206.828C677.83 205.924 678.454 205.233 679.259 204.752C680.064 204.265 680.989 204.022 682.034 204.022C683.58 204.022 684.833 204.519 685.794 205.515C686.761 206.51 687.283 207.831 687.361 209.476L687.372 210.079C687.372 211.209 687.153 212.219 686.715 213.108C686.284 213.998 685.663 214.686 684.851 215.173C684.046 215.661 683.114 215.904 682.055 215.904C680.438 215.904 679.143 215.368 678.168 214.294C677.201 213.214 676.718 211.777 676.718 209.984V209.857ZM679.291 210.079C679.291 211.259 679.535 212.183 680.022 212.854C680.509 213.518 681.187 213.85 682.055 213.85C682.924 213.85 683.598 213.511 684.078 212.833C684.565 212.155 684.809 211.163 684.809 209.857C684.809 208.699 684.558 207.781 684.057 207.104C683.563 206.426 682.888 206.087 682.034 206.087C681.194 206.087 680.527 206.422 680.032 207.093C679.538 207.757 679.291 208.752 679.291 210.079Z" fill="#1A1A1A"/>
<line x1="594.446" y1="225.943" x2="775.95" y2="225.943" stroke="black" stroke-opacity="0.67" stroke-width="1.14154"/>
<line x1="692.047" y1="192.268" x2="692.047" y2="221.948" stroke="black" stroke-width="1.14154"/>
<path d="M775.122 270.017L788.624 277.641L775.271 285.522L775.122 270.017Z" fill="#2B44FF"/>
<path d="M775.122 403.577L788.624 411.201L775.271 419.082L775.122 403.577Z" fill="#2B44FF"/>
<path d="M586.142 269.876L572.64 277.5L585.993 285.381L586.142 269.876Z" fill="#C3DCF3"/>
<path d="M586.142 403.436L572.64 411.06L585.993 418.94L586.142 403.436Z" fill="#C3DCF3"/>
<circle cx="602.675" cy="624.007" r="18.5026" transform="rotate(-90 602.675 624.007)" fill="#F3A396" fill-opacity="0.57"/>
<circle cx="655.407" cy="624.007" r="21.3565" transform="rotate(-90 655.407 624.007)" fill="#F3A396" stroke="#2B44FF" stroke-width="5.70768"/>
<circle cx="708.14" cy="624.007" r="18.5026" transform="rotate(-90 708.14 624.007)" fill="#D8A182"/>
<circle cx="760.873" cy="624.007" r="18.5026" transform="rotate(-90 760.873 624.007)" fill="#9A735E"/>
</g>
</g>
<defs>
<filter id="filter0_d" x="433.662" y="53.4697" width="494.88" height="879.014" filterUnits="userSpaceOnUse" color-interpolation-filters="sRGB">
<feFlood flood-opacity="0" result="BackgroundImageFix"/>
<feColorMatrix in="SourceAlpha" type="matrix" values="0 0 0 0 0 0 0 0 0 0 0 0 0 0 0 0 0 0 127 0"/>
<feOffset dy="11.9188"/>
<feGaussianBlur stdDeviation="5.95942"/>
<feColorMatrix type="matrix" values="0 0 0 0 0 0 0 0 0 0 0 0 0 0 0 0 0 0 0.25 0"/>
<feBlend mode="normal" in2="BackgroundImageFix" result="effect1_dropShadow"/>
<feBlend mode="normal" in="SourceGraphic" in2="effect1_dropShadow" result="shape"/>
</filter>
<clipPath id="clip0">
<rect width="1365.6" height="965" fill="white"/>
</clipPath>
<clipPath id="clip1">
<rect width="298.734" height="426.808" fill="white" transform="matrix(-0.753368 -0.6576 -0.6576 0.753368 717.057 420.511)"/>
</clipPath>
<clipPath id="clip2">
<rect width="410.953" height="730.584" fill="white" transform="translate(476.867 98.6619)"/>
</clipPath>
<clipPath id="clip3">
<rect width="119.358" height="316.868" fill="white" transform="translate(619.647 252.019)"/>
</clipPath>
</defs>
</svg>
