<svg width="1366" height="965" viewBox="0 0 1366 965" fill="none" xmlns="http://www.w3.org/2000/svg">
<g clip-path="url(#clip0)">
<rect width="1365.6" height="965" fill="#C3DCF3"/>
<rect y="740.937" width="1364.75" height="221.517" fill="#A0E29A" fill-opacity="0.75"/>
<g clip-path="url(#clip1)">
<path d="M665.96 244.668L954.816 78.9314L1243.67 244.668H665.96Z" fill="#FFEED1"/>
<path d="M807.776 207.16L954.815 122.546L1101.85 207.16H807.776Z" fill="#F7E0B9"/>
<path d="M750.355 331.026H689.451V631.098H750.355V331.026Z" fill="#FFEED1"/>
<path d="M867.811 331.026H806.907V631.098H867.811V331.026Z" fill="#FFEED1"/>
<path d="M984.397 331.026H923.493V631.098H984.397V331.026Z" fill="#FFEED1"/>
<path d="M1101.85 331.026H1040.95V631.098H1101.85V331.026Z" fill="#FFEED1"/>
<path d="M1219.31 331.026H1158.41V631.098H1219.31V331.026Z" fill="#FFEED1"/>
<path d="M1242.8 242.924H666.829V322.303H1242.8V242.924Z" fill="#F7E0B9"/>
<path d="M1242.8 640.693H666.829V665.117H1242.8V640.693Z" fill="#F7E0B9"/>
<path d="M1264.55 665.117H645.077V689.542H1264.55V665.117Z" fill="#FFEED1"/>
<path d="M1281.95 689.542H627.677V713.966H1281.95V689.542Z" fill="#F7E0B9"/>
<path d="M1301.1 713.966H608.536V738.391H1301.1V713.966Z" fill="#FFEED1"/>
<path d="M759.923 622.375H681.619V640.693H759.923V622.375Z" fill="#E6D0AC"/>
<path d="M876.509 622.375H798.205V640.693H876.509V622.375Z" fill="#E6D0AC"/>
<path d="M993.966 622.375H915.662V640.693H993.966V622.375Z" fill="#E6D0AC"/>
<path d="M1111.42 622.375H1033.12V640.693H1111.42V622.375Z" fill="#E6D0AC"/>
<path d="M1228.88 622.375H1150.57V640.693H1228.88V622.375Z" fill="#E6D0AC"/>
<path d="M759.923 322.303H681.619V340.621H759.923V322.303Z" fill="#E6D0AC"/>
<path d="M876.509 322.303H798.205V340.621H876.509V322.303Z" fill="#E6D0AC"/>
<path d="M993.966 322.303H915.662V340.621H993.966V322.303Z" fill="#E6D0AC"/>
<path d="M1111.42 322.303H1033.12V340.621H1111.42V322.303Z" fill="#E6D0AC"/>
<path d="M1228.88 322.303H1150.57V340.621H1228.88V322.303Z" fill="#E6D0AC"/>
<path opacity="0.05" d="M689.451 340.622H750.355V386.854L689.451 391.215V340.622Z" fill="#1D1D1B"/>
<path opacity="0.05" d="M806.907 340.622H867.811V379.875L806.907 383.364V340.622Z" fill="#1D1D1B"/>
<path opacity="0.05" d="M923.493 340.622H984.397V372.897L923.493 376.386V340.622Z" fill="#1D1D1B"/>
<path opacity="0.05" d="M1040.95 340.622H1101.85V365.046L1040.95 369.407V340.622Z" fill="#1D1D1B"/>
<path opacity="0.05" d="M1219.31 340.622V358.068L1158.41 361.557V340.622H1219.31Z" fill="#1D1D1B"/>
<path opacity="0.05" d="M689.451 593.589C709.462 592.716 730.343 591.844 750.355 590.972V622.375H689.451V593.589Z" fill="#1D1D1B"/>
<path opacity="0.05" d="M806.907 588.355C827.788 587.482 847.8 585.738 867.811 583.993V622.374H806.907V588.355Z" fill="#1D1D1B"/>
<path opacity="0.05" d="M923.493 579.632C944.374 577.887 964.385 575.27 984.397 572.654V622.375H923.493V579.632Z" fill="#1D1D1B"/>
<path opacity="0.05" d="M1040.95 564.803C1061.83 561.314 1082.71 557.824 1101.85 553.463V622.375H1040.95V564.803Z" fill="#1D1D1B"/>
<path opacity="0.05" d="M1219.31 518.571V622.375H1158.41V539.506C1180.16 533.4 1200.17 526.422 1219.31 518.571Z" fill="#1D1D1B"/>
<path d="M849.54 284.794L859.981 258.625H869.552V288.283L871.292 305.729H861.721V287.411L860.851 269.093L852.151 291.772H843.45L835.62 268.22L836.49 288.283L837.36 306.602H828.659L829.529 290.028V260.37L840.84 258.625L849.54 284.794Z" fill="#D4BF9E"/>
<path d="M895.653 306.602C891.302 306.602 887.822 305.729 885.212 303.113C882.602 300.496 880.862 297.006 880.862 293.517L879.992 259.498L889.562 257.753L888.692 288.283C888.692 291.773 889.562 294.39 891.302 296.134C893.042 297.879 894.783 298.751 898.263 298.751C901.743 298.751 903.483 297.879 905.223 296.134C906.963 294.39 906.963 291.773 906.963 287.411L906.093 260.37L915.664 258.625L914.794 288.283C914.794 293.517 913.054 297.879 909.573 301.368C906.093 304.857 900.873 306.602 895.653 306.602Z" fill="#D4BF9E"/>
<path d="M926.105 292.645C929.585 296.134 933.935 298.751 937.415 298.751C939.155 298.751 940.895 297.879 942.635 297.006C943.506 296.134 944.376 295.262 944.376 293.517C944.376 291.772 943.506 290.9 941.765 290.028C940.025 289.156 938.285 288.283 936.545 287.411C934.805 286.539 932.195 285.666 930.455 284.794C928.715 283.922 926.975 282.177 925.234 280.433C923.494 278.688 922.624 276.071 922.624 273.454C922.624 269.093 924.364 265.603 927.845 262.987C931.325 260.37 935.675 258.625 940.025 258.625C941.765 258.625 944.376 258.625 946.116 259.497C947.856 260.37 950.466 260.37 952.206 261.242L948.726 270.837C947.856 269.965 945.246 269.093 943.506 268.22C940.895 267.348 939.155 267.348 937.415 267.348C935.675 267.348 934.805 267.348 933.065 268.22C932.195 269.093 931.325 269.965 931.325 271.71C931.325 273.454 932.195 274.326 933.935 275.199C935.675 276.071 937.415 276.943 939.155 277.816C940.895 278.688 943.506 279.56 945.246 280.433C946.986 281.305 948.726 283.049 950.466 284.794C952.206 286.539 953.076 289.156 953.076 291.772C953.076 296.134 951.336 299.623 947.856 303.112C944.376 306.602 940.025 308.346 935.675 308.346C932.195 308.346 929.585 307.474 926.105 305.729C923.494 303.985 921.754 303.112 920.884 302.24L920.014 301.368L926.105 292.645Z" fill="#D4BF9E"/>
<path d="M960.906 306.602L961.776 290.028L960.906 259.498H987.007L986.137 266.476H970.476V278.688H984.397L982.657 285.667H969.606V288.284L970.476 298.751H987.007L986.137 305.73H960.906V306.602Z" fill="#D4BF9E"/>
<path d="M1008.76 306.602C1004.41 306.602 1000.93 305.729 998.318 303.113C995.708 300.496 993.968 297.006 993.968 293.517L993.098 259.498L1002.67 257.753V288.283C1002.67 291.773 1003.54 294.39 1005.28 296.134C1007.02 297.879 1008.76 298.751 1012.24 298.751C1015.72 298.751 1017.46 297.879 1019.2 296.134C1020.94 294.39 1020.94 291.773 1020.94 287.411L1020.07 260.37L1029.64 258.625L1028.77 288.283C1028.77 293.517 1027.03 297.879 1023.55 301.368C1019.2 304.857 1014.85 306.602 1008.76 306.602Z" fill="#D4BF9E"/>
<path d="M1059.22 284.794L1069.66 258.625H1079.23V288.283L1080.97 305.729H1071.4V287.411L1070.53 269.093L1061.83 291.772H1053.13L1045.3 268.22L1046.17 288.283L1047.04 306.602H1038.34L1039.21 290.028V260.37L1050.52 258.625L1059.22 284.794Z" fill="#D4BF9E"/>
</g>
<g clip-path="url(#clip2)">
<path d="M529.905 604.793C540.274 604.793 548.699 596.368 548.699 585.999V546.251H511.327V586.215C511.111 596.368 519.536 604.793 529.905 604.793Z" fill="#F3A396"/>
<path d="M505.495 542.794C499.878 546.898 489.941 527.888 495.558 523.352C501.174 518.815 504.847 527.024 504.847 527.024L505.063 533.937L505.927 540.418V542.794H505.495Z" fill="#F3A396"/>
<path d="M554.964 542.794C560.581 546.899 570.518 527.888 564.901 523.352C559.284 518.815 555.828 527.24 555.828 527.24L555.612 534.153L554.748 540.634L554.532 542.578L554.964 542.794Z" fill="#F3A396"/>
<path d="M503.335 484.467C512.408 477.987 530.338 482.523 540.276 487.06C540.06 484.035 541.788 484.467 541.788 484.467C553.021 487.492 554.965 494.404 554.965 498.725C558.638 501.749 561.014 506.718 559.718 513.631L555.829 532.641C555.397 537.177 554.749 542.362 553.885 547.33C552.373 554.891 547.836 561.588 541.14 565.692C534.659 569.797 526.234 569.581 519.753 565.476L518.673 564.828C512.624 560.94 508.304 554.675 506.792 547.546C505.928 543.442 505.064 538.257 504.416 532.209L500.959 515.143C499.663 511.038 499.663 507.582 500.527 504.774C497.935 500.669 493.398 491.38 503.335 484.467Z" fill="#1A1A1A"/>
<path d="M480.22 783.661H579.375L576.135 733.544H484.54L480.22 783.661Z" fill="#4678B2"/>
<path d="M579.376 783.23L582.4 899.235C582.832 909.604 574.407 918.461 563.822 918.461C554.317 918.461 546.324 911.332 545.46 901.827L533.795 786.47C532.282 772.86 543.084 761.195 556.477 761.195C568.791 760.979 578.944 770.916 579.376 783.23Z" fill="#4678B2"/>
<path d="M545.242 902.259L553.883 1042.89H587.583L582.182 899.666C581.966 889.297 573.109 881.304 562.74 881.736C552.155 882.168 544.162 891.674 545.242 902.259Z" fill="#4678B2"/>
<path d="M480.436 783.229L477.412 899.234C476.98 909.603 485.405 918.46 495.99 918.46C505.495 918.46 513.488 911.331 514.352 901.826L526.018 786.469C527.53 772.86 516.729 761.195 503.335 761.195C491.022 760.979 480.868 770.916 480.436 783.229Z" fill="#4678B2"/>
<path d="M514.352 902.258L505.927 1042.89H473.524L477.628 899.666C477.844 889.297 486.701 881.304 497.07 881.736C507.655 882.168 515.648 891.673 514.352 902.258Z" fill="#4678B2"/>
<path d="M615.018 824.922C616.747 820.817 618.691 819.521 618.691 819.521C617.827 815.849 620.203 812.176 624.092 811.528L626.684 811.096C630.14 810.448 633.381 812.608 634.245 816.065V816.281C634.245 816.281 638.997 825.138 640.293 837.235C641.805 852.789 635.109 860.782 630.14 860.782C625.604 860.782 623.011 842.636 621.931 835.723L619.123 842.636C618.691 843.5 617.827 844.148 616.963 843.932C615.883 843.932 615.235 843.068 615.018 841.988L613.938 833.995C613.506 830.97 613.722 827.73 615.018 824.922Z" fill="#F3A396"/>
<path d="M618.69 819.521L591.039 729.871C588.663 721.878 593.631 713.669 601.84 712.373C609.185 711.077 616.098 716.045 617.61 723.39L634.46 816.281L618.69 819.521Z" fill="#F3A396"/>
<path d="M595.145 615.377C600.114 640.004 611.779 697.035 616.964 722.309C618.476 729.222 614.155 736.135 607.459 738.079C600.33 740.239 592.769 735.919 590.609 728.79L560.365 622.722C558.205 612.785 564.902 602.848 575.055 601.336C584.344 599.608 593.201 605.872 595.145 615.377Z" fill="#F3A396"/>
<path d="M554.533 624.019C554.533 611.273 564.902 601.12 577.431 601.12C588.665 601.12 597.954 609.329 600.114 619.914L609.835 664.632L565.118 675.001L555.613 630.932C554.965 628.771 554.533 626.395 554.533 624.019Z" fill="#FCE8CF"/>
<path d="M446.953 824.922C445.225 820.817 443.281 819.521 443.281 819.521C444.145 815.849 441.768 812.176 437.88 811.528L435.288 811.096C431.831 810.448 428.591 812.608 427.727 816.065V816.281C427.727 816.281 422.974 825.138 421.678 837.235C420.166 852.789 426.863 860.782 431.831 860.782C436.368 860.782 438.96 842.636 440.04 835.723L442.849 842.636C443.281 843.5 444.145 844.148 445.009 843.932C446.089 843.932 446.737 843.068 446.953 841.988L448.033 833.995C448.465 830.971 448.033 827.73 446.953 824.922Z" fill="#F3A396"/>
<path d="M443.064 819.521L470.715 729.871C473.092 721.878 468.123 713.669 459.914 712.373C452.569 711.077 445.656 716.046 444.144 723.39L427.294 816.281L443.064 819.521Z" fill="#F3A396"/>
<path d="M466.609 615.378C461.641 640.004 449.976 697.035 444.791 722.31C443.279 729.222 447.599 736.135 454.296 738.079C461.425 740.24 468.986 735.919 471.146 728.79L501.389 622.723C503.55 612.785 496.853 602.848 486.7 601.336C477.411 599.608 468.554 605.873 466.609 615.378Z" fill="#F3A396"/>
<path d="M507.222 624.02C507.222 611.274 496.853 601.121 484.323 601.121C473.09 601.121 463.801 609.33 461.641 619.915L451.919 664.632L496.636 675.001L506.358 630.932C507.006 628.772 507.222 626.396 507.222 624.02Z" fill="#FCE8CF"/>
<path d="M514.312 586.076L531.378 586.292L548.228 586.076L583.872 601.413L579.919 748.423H531.378H481.835L478.452 601.413L514.312 586.076Z" fill="#F4F4F2"/>
<path d="M500.957 591.615L513.271 585.135L529.689 582.542L545.89 584.703L559.068 591.615C559.068 591.615 557.988 594.856 530.337 594.856H529.905C502.037 594.856 500.957 591.615 500.957 591.615Z" fill="#F3A396"/>
</g>
<path d="M567.711 230.252C564.922 219.919 560.126 210.237 553.598 201.759C547.069 193.28 538.936 186.17 529.662 180.835C520.387 175.5 510.154 172.044 499.546 170.666C488.938 169.287 478.163 170.012 467.836 172.8L467.446 172.905C460.231 158.791 449.056 147.091 435.29 139.239C421.525 131.387 405.769 127.726 389.956 128.704C374.143 129.682 358.96 135.258 346.271 144.746C333.582 154.234 323.939 167.223 318.524 182.118C305.772 171.627 290.136 165.258 273.688 163.857C257.239 162.455 240.755 166.087 226.418 174.27C212.081 182.453 200.569 194.801 193.407 209.679C186.245 224.557 183.771 241.262 186.312 257.581C165.49 263.334 147.807 277.128 137.154 295.928C126.5 314.727 123.749 336.993 129.506 357.826C135.262 378.659 149.054 396.353 167.849 407.016C186.643 417.679 208.899 420.437 229.722 414.683L230.112 414.578C237.344 428.684 248.53 440.375 262.301 448.218C276.072 456.062 291.83 459.717 307.644 458.737C323.458 457.757 338.642 452.184 351.336 442.701C364.03 433.217 373.683 420.235 379.112 405.344C391.848 415.975 407.525 422.46 424.045 423.93C440.565 425.4 457.138 421.785 471.544 413.57C485.951 405.355 497.504 392.931 504.655 377.963C511.806 362.994 514.215 346.196 511.558 329.818C532.261 324.053 549.846 310.336 560.481 291.654C571.116 272.973 573.939 250.842 568.335 230.083" fill="#F0F9FD"/>
<rect x="372.037" y="191.115" width="83.8739" height="179.472" transform="rotate(30.5266 372.037 191.115)" fill="#EAA4C2"/>
<rect x="337.09" y="191.533" width="83.8739" height="179.472" transform="rotate(18.1626 337.09 191.533)" fill="#F8C3DA"/>
<path d="M351.024 318.83L349.606 323.387L336.467 319.297L335.185 323.415L331.459 322.255L335.438 309.474L339.164 310.634L337.885 314.74L351.024 318.83ZM354.382 308.045L352.978 312.555L339.908 308.486L341.312 303.976L354.382 308.045ZM336.619 307.589C335.943 307.378 335.498 307.033 335.284 306.553C335.071 306.074 335.095 305.415 335.356 304.577C335.617 303.738 335.976 303.18 336.434 302.9C336.892 302.621 337.452 302.585 338.113 302.79C339.436 303.202 339.847 304.212 339.347 305.819C338.851 307.411 337.942 308.001 336.619 307.589ZM357.446 299.015C356.78 301.153 355.698 302.596 354.2 303.345C352.704 304.085 350.876 304.119 348.715 303.446C346.546 302.771 345.052 301.652 344.231 300.089C343.41 298.526 343.342 296.645 344.026 294.445C344.498 292.931 345.273 291.607 346.351 290.475L349.271 292.839C348.863 293.311 348.518 293.756 348.236 294.174C347.946 294.59 347.723 295.048 347.568 295.548C347.34 296.279 347.449 296.932 347.893 297.509C348.338 298.086 349.079 298.537 350.118 298.86C352.209 299.511 353.496 299.064 353.977 297.518C354.389 296.195 354.399 294.807 354.008 293.352L357.596 294.469C358.003 295.87 357.953 297.385 357.446 299.015ZM353.34 285.501C352.641 284.685 352.109 284.009 351.744 283.474L348.965 279.395L350.531 274.365L354.679 280.629L363.69 278.146L362.085 283.302L356.511 284.705L357.174 286.518L360.738 287.628L359.327 292.161L341.378 286.573L342.789 282.04L349.849 284.238C351.056 284.613 352.21 285.065 353.311 285.594L353.34 285.501ZM366.37 270.35C365.692 272.527 364.589 274.039 363.059 274.887C361.525 275.725 359.688 275.812 357.551 275.146C355.343 274.459 353.825 273.375 352.996 271.893C352.159 270.41 352.062 268.633 352.706 266.565C353.319 264.596 354.307 263.238 355.67 262.49C357.028 261.731 358.672 261.653 360.602 262.254L362.61 262.878L360.099 270.942C360.84 271.138 361.495 271.051 362.066 270.681C362.639 270.302 363.061 269.679 363.332 268.81C363.578 268.018 363.731 267.268 363.791 266.561C363.846 265.844 363.813 265.041 363.694 264.152L366.935 265.161C367.076 265.981 367.099 266.79 367.002 267.586C366.906 268.383 366.695 269.304 366.37 270.35ZM355.825 267.358C355.659 267.889 355.69 268.388 355.916 268.855C356.136 269.311 356.594 269.682 357.291 269.966L358.497 266.09C357.862 265.909 357.302 265.933 356.817 266.162C356.335 266.383 356.004 266.782 355.825 267.358ZM367.38 254.545C367.57 253.937 367.646 253.164 367.609 252.225L370.897 253.248C370.969 253.937 370.973 254.575 370.908 255.162C370.854 255.744 370.711 256.404 370.482 257.142C370.01 258.657 369.301 259.634 368.354 260.074C367.4 260.511 366.154 260.49 364.616 260.011L359.229 258.334L358.737 259.914L356.903 259.343L356.109 256.894L353.726 254.874L354.645 251.921L357.264 252.737L358.262 249.53L361.642 250.582L360.644 253.789L365.731 255.372C366.577 255.636 367.127 255.36 367.38 254.545Z" fill="#DE9089"/>
<path d="M290.346 335.866L369.259 361.569" stroke="#DE9089" stroke-width="2.70561" stroke-dasharray="6.31 6.31"/>
<circle cx="361.935" cy="504.521" r="25.8399" fill="#F0F9FD"/>
<circle cx="425.068" cy="542.192" r="17.6799" fill="#F0F9FD"/>
<path d="M97.0536 708.576C89.1471 707.189 72.1537 699.281 67.432 678.743C89.4612 686.301 96.3586 701.781 97.0536 708.576Z" fill="#76B77E"/>
<path d="M103.652 703.362C102.917 695.369 106.092 676.896 124.673 666.953C123.157 690.194 110.027 700.909 103.652 703.362Z" fill="#76B77E"/>
<path d="M95.4855 724.08C89.3504 726.344 74.1447 727.741 62.4026 715.216C81.0105 711.509 92.2111 719.581 95.4855 724.08Z" fill="#76B77E"/>
<path d="M105.371 716.457C105.911 710.093 110.89 698.432 126.477 702.701C122.108 718.919 110.586 718.629 105.371 716.457Z" fill="#76B77E"/>
<path d="M95.7323 685.047C90.1926 684.311 79.3988 679.26 80.5412 664.949C95.1417 669.602 96.7521 680.286 95.7323 685.047Z" fill="#76B77E"/>
<rect x="99.0293" y="682.862" width="3.79215" height="62.5705" fill="#76B77E"/>
</g>
<defs>
<clipPath id="clip0">
<rect width="1365.6" height="965" fill="white"/>
</clipPath>
<clipPath id="clip1">
<rect width="692.559" height="659.459" fill="white" transform="translate(608.536 78.9314)"/>
</clipPath>
<clipPath id="clip2">
<rect width="226.609" height="600.764" fill="white" transform="matrix(-1 0 0 1 644.182 481.227)"/>
</clipPath>
</defs>
</svg>
