<svg width="403" height="352" viewBox="0 0 403 352" fill="none" xmlns="http://www.w3.org/2000/svg">
<rect x="13.0339" y="16.2924" width="320.96" height="320.96" rx="160.48" fill="#C3DCF3"/>
<mask id="mask0" mask-type="alpha" maskUnits="userSpaceOnUse" x="0" y="0" width="343" height="343">
<rect width="342.141" height="342.141" rx="171.07" fill="#C3DCF3"/>
</mask>
<g mask="url(#mask0)">
<path d="M86.5499 238.18C79.924 271.066 64.3678 347.225 57.4539 380.976C55.4373 390.208 61.1989 399.439 70.1293 402.035C79.636 404.92 89.7187 399.151 92.5995 389.631L132.931 247.988C135.811 234.718 126.881 221.448 113.341 219.429C100.954 217.121 89.1426 225.487 86.5499 238.18Z" fill="#F3A396"/>
<path d="M140.709 249.719C140.709 232.699 126.881 219.141 110.172 219.141C95.1922 219.141 82.8048 230.103 79.924 244.238L66.9604 303.953L126.593 317.8L139.268 258.95C140.133 256.066 140.709 252.892 140.709 249.719Z" fill="#FCE8CF"/>
<path d="M257.957 238.18C264.583 271.066 280.139 347.225 287.053 380.976C289.07 390.208 283.308 399.439 274.378 402.035C264.871 404.92 254.788 399.151 251.907 389.631L211.576 247.988C208.695 234.718 217.626 221.448 231.166 219.429C243.553 217.121 255.364 225.487 257.957 238.18Z" fill="#F3A396"/>
<path d="M203.798 249.719C203.798 232.699 217.626 219.141 234.334 219.141C249.314 219.141 261.702 230.103 264.583 244.238L277.546 303.953L217.914 317.8L204.95 258.95C204.086 256.066 203.798 252.892 203.798 249.719Z" fill="#FCE8CF"/>
<path d="M195.732 199.524L172.974 199.813L150.503 199.524L102.97 220.006L111.901 395.977H172.974H234.335L243.553 220.006L195.732 199.524Z" fill="#F4F4F2"/>
<path d="M212.152 206.448L196.02 199.524L172.974 199.813L150.791 199.524L134.659 206.448C134.659 206.448 136.099 226.352 172.974 226.641H173.55C210.712 226.352 212.152 206.448 212.152 206.448Z" fill="#F3A396"/>
<path d="M173.55 224.045C159.722 224.045 148.487 212.794 148.487 198.947V145.867H198.325V199.236C198.613 212.794 187.378 224.045 173.55 224.045Z" fill="#F3A396"/>
<path d="M148.487 162.599C148.487 162.599 162.315 188.273 177.871 186.831C202.07 184.812 198.036 154.81 198.036 154.81C198.036 154.81 188.53 175.003 173.838 175.003C157.417 175.003 148.487 162.599 148.487 162.599Z" fill="#1A1A1A"/>
<path d="M136.388 127.405L133.795 102.019C130.626 85.8639 143.301 77.2095 154.248 77.2095H192.275C204.086 77.2095 217.914 85.5754 211.864 104.038L208.407 131.732L136.388 127.405Z" fill="#1A1A1A"/>
<path d="M206.103 141.252C213.593 146.733 226.844 121.347 219.354 115.289C211.864 109.231 206.967 120.193 206.967 120.193L206.679 129.424L205.527 138.078V141.252H206.103Z" fill="#F3A396"/>
<path d="M217.338 123.078C217.338 123.078 211.864 121.347 207.831 129.424" stroke="#D26665" stroke-width="1.87361" stroke-miterlimit="10" stroke-linecap="round" stroke-linejoin="round"/>
<path d="M210.712 125.385C210.712 125.385 216.762 128.559 212.729 133.463" stroke="#D26665" stroke-width="1.87361" stroke-miterlimit="10" stroke-linecap="round" stroke-linejoin="round"/>
<path d="M140.133 141.252C132.643 146.733 119.391 121.347 126.881 115.289C134.371 109.231 138.98 120.481 138.98 120.481L139.268 129.712L140.421 138.367L140.709 140.963L140.133 141.252Z" fill="#F3A396"/>
<path d="M128.897 123.078C128.897 123.078 134.371 121.347 138.404 129.424" stroke="#D26665" stroke-width="1.87361" stroke-miterlimit="10" stroke-linecap="round" stroke-linejoin="round"/>
<path d="M135.523 125.385C135.523 125.385 129.474 128.559 133.507 133.463" stroke="#D26665" stroke-width="1.87361" stroke-miterlimit="10" stroke-linecap="round" stroke-linejoin="round"/>
<path d="M208.695 108.365C208.695 124.231 206.679 137.79 204.374 147.31C202.358 156.829 196.596 164.907 188.53 170.388L187.089 171.253C178.447 176.734 167.5 177.023 158.57 171.542C149.639 166.061 143.59 157.118 141.573 147.021C138.116 128.559 137.828 108.077 137.828 108.077C137.828 108.077 134.659 68.5552 172.686 69.4207C210.712 70.2861 208.695 108.365 208.695 108.365Z" fill="#F3A396"/>
<path d="M208.984 63.3626C196.884 54.7083 172.974 60.7663 159.722 66.8244C160.01 62.7857 157.705 63.3626 157.705 63.3626C134.659 69.4207 140.709 87.5947 140.709 87.5947C140.709 87.5947 140.709 87.5947 140.997 87.5947C138.692 92.7873 135.523 104.038 138.404 123.943C138.404 123.943 144.454 102.307 144.742 89.3256C154.825 93.9413 182.768 104.615 200.917 98.5569C202.646 109.519 207.543 123.943 207.543 123.943C209.56 110.961 208.696 101.73 207.255 95.3836C208.407 94.5182 209.56 93.6528 210.424 92.7873C210.712 92.7873 226.268 75.4787 208.984 63.3626Z" fill="#1A1A1A"/>
<path d="M169.805 123.654V136.347C169.805 136.636 169.805 137.213 170.093 137.501C170.669 138.944 172.397 139.809 173.838 139.232L177.295 138.367" stroke="#D26665" stroke-width="1.87361" stroke-miterlimit="10" stroke-linecap="round" stroke-linejoin="round"/>
<path d="M157.129 123.077C158.879 123.077 160.298 121.657 160.298 119.904C160.298 118.152 158.879 116.731 157.129 116.731C155.379 116.731 153.96 118.152 153.96 119.904C153.96 121.657 155.379 123.077 157.129 123.077Z" fill="#1A1A1A"/>
<path d="M187.954 123.077C189.704 123.077 191.123 121.657 191.123 119.904C191.123 118.152 189.704 116.731 187.954 116.731C186.204 116.731 184.785 118.152 184.785 119.904C184.785 121.657 186.204 123.077 187.954 123.077Z" fill="#1A1A1A"/>
<path d="M163.179 123.654L154.825 129.136" stroke="#D26665" stroke-width="1.40521" stroke-miterlimit="10" stroke-linecap="round" stroke-linejoin="round"/>
<path d="M182.48 123.654L189.97 129.136" stroke="#D26665" stroke-width="1.40521" stroke-miterlimit="10" stroke-linecap="round" stroke-linejoin="round"/>
<path d="M163.467 145.867C163.467 145.867 166.06 147.887 172.686 147.887C178.735 147.887 182.48 145.867 182.48 145.867" stroke="#D26665" stroke-width="1.87361" stroke-miterlimit="10" stroke-linecap="round" stroke-linejoin="round"/>
<path d="M172.974 163.753V167.215" stroke="#D26665" stroke-width="1.40521" stroke-miterlimit="10" stroke-linecap="round" stroke-linejoin="round"/>
<path d="M165.484 112.404V106.057H153.672C152.232 106.057 150.792 106.634 149.639 107.5L144.742 112.981L152.808 111.827L165.484 112.404Z" fill="#1A1A1A"/>
<path d="M179.599 112.404V106.057L191.699 106.346C193.139 106.346 194.58 106.923 195.732 107.788L200.629 113.269L192.563 112.115L179.599 112.404Z" fill="#1A1A1A"/>
<path opacity="0.19" d="M190.835 137.79C198.79 137.79 205.239 131.332 205.239 123.366C205.239 115.4 198.79 108.942 190.835 108.942C182.88 108.942 176.431 115.4 176.431 123.366C176.431 131.332 182.88 137.79 190.835 137.79Z" fill="white"/>
<path opacity="0.19" d="M155.689 137.79C163.644 137.79 170.093 131.332 170.093 123.366C170.093 115.4 163.644 108.942 155.689 108.942C147.734 108.942 141.285 115.4 141.285 123.366C141.285 131.332 147.734 137.79 155.689 137.79Z" fill="white"/>
<path d="M155.689 137.79C163.644 137.79 170.093 131.332 170.093 123.366C170.093 115.4 163.644 108.942 155.689 108.942C147.734 108.942 141.285 115.4 141.285 123.366C141.285 131.332 147.734 137.79 155.689 137.79Z" stroke="#1A1A1A" stroke-width="1.19151" stroke-miterlimit="10" stroke-linecap="round" stroke-linejoin="round"/>
<path d="M190.835 137.79C198.79 137.79 205.239 131.332 205.239 123.366C205.239 115.4 198.79 108.942 190.835 108.942C182.88 108.942 176.431 115.4 176.431 123.366C176.431 131.332 182.88 137.79 190.835 137.79Z" stroke="#1A1A1A" stroke-width="1.19151" stroke-miterlimit="10" stroke-linecap="round" stroke-linejoin="round"/>
<path d="M169.805 123.366C169.805 123.366 173.262 120.193 176.431 123.366" stroke="#1A1A1A" stroke-width="1.19151" stroke-miterlimit="10" stroke-linecap="round" stroke-linejoin="round"/>
<path d="M141.285 123.366H138.98" stroke="#1A1A1A" stroke-width="1.19151" stroke-miterlimit="10"/>
<path d="M207.831 123.366H205.527" stroke="#1A1A1A" stroke-width="1.19151" stroke-miterlimit="10"/>
</g>
<path d="M327.868 219.225L320.979 241.313L316.113 257.01L324.27 263.958L337.973 247.87C337.973 247.87 341.292 248.449 349.319 247.173C357.394 245.841 365.08 236.357 367.74 232.661L388.31 215.97C389.896 214.682 390.131 212.341 388.786 210.707C387.555 209.169 385.165 208.991 383.627 210.222L365.164 224.21C364.866 224.445 364.438 224.374 364.155 224.133C363.863 223.786 363.934 223.358 364.176 223.075L387.086 201.341C388.809 199.778 388.914 197.131 387.359 195.513C385.853 193.839 383.27 193.887 381.587 195.289L359.163 215.189C358.914 215.368 358.599 215.393 358.324 215.256C357.936 215.024 357.837 214.451 358.127 214.111L382.089 187.701C383.956 185.968 384.044 183.11 382.367 181.291C380.748 179.521 378.043 179.368 376.151 180.786L352.185 205.824C351.195 206.642 350.635 205.579 351.123 204.431L366.739 180.589C367.444 178.844 366.922 176.932 365.562 175.774C365.279 175.533 365.004 175.397 364.673 175.212C362.692 174.21 360.273 174.984 359.109 176.924L343.058 198.637L341.676 200.49L339.675 203.183C338.33 204.188 336.874 205.783 334.596 207.654C333.404 208.594 332.011 209.656 330.352 210.686C327.234 212.625 327.092 216.12 327.868 219.225Z" fill="#F3A396"/>
<path opacity="0.5" d="M327.868 219.225L320.979 241.313C325.032 244.472 329.942 245.135 335.641 240.509C354.472 225.172 336.706 211.603 336.706 211.603C336.316 210.684 335.39 209.016 334.539 207.607C333.347 208.547 331.954 209.608 330.294 210.638C327.234 212.625 327.091 216.121 327.868 219.225Z" fill="#CC8A79"/>
<path d="M314.433 194.489C317.093 193.431 321.491 192.974 325.229 196.158C329.931 200.163 329.864 204.603 329.864 204.603C329.864 204.603 333.246 207.288 334.948 212.061C334.948 212.061 349.378 224.841 337.074 239.286L319.511 259.905L307.162 249.387L321.348 232.732L322.346 224.101C322.295 220.833 321.995 215.103 320.715 210.983C320.715 210.983 316.603 201.811 313.602 197.3C312.937 196.245 313.361 194.944 314.433 194.489Z" fill="#F3A396"/>
<path opacity="0.5" d="M343.058 198.637L341.675 200.49C362.339 219.264 365.537 230.198 365.847 231.44C363.271 217.711 346.077 201.404 343.058 198.637Z" fill="#CC8A79"/>
<path d="M331.557 255.086L265.892 339.845C259.974 347.302 248.652 346.628 241.608 338.172C235.175 330.688 235.005 319.94 240.918 313.843L317.312 239.291L331.557 255.086Z" fill="#F3A396"/>
</svg>
