<svg width="1711" height="1058" viewBox="0 0 1711 1058" fill="none" xmlns="http://www.w3.org/2000/svg">
<g clip-path="url(#clip0)">
<rect width="1711" height="1058" fill="#E2A09A"/>
<g clip-path="url(#clip1)">
<path d="M593.098 562.937L562.641 656.591L541.119 723.149L575.479 753.142L634.631 685.376C634.631 685.376 648.727 688.011 682.956 682.994C717.393 677.738 750.596 637.773 762.108 622.176L850.516 552.2C857.333 546.799 858.453 536.846 852.813 529.821C847.651 523.212 837.489 522.331 830.881 527.493L751.577 586.077C750.297 587.061 748.479 586.736 747.286 585.694C746.063 584.206 746.388 582.388 747.43 581.195L846.061 489.873C853.472 483.31 854.055 472.046 847.521 465.082C841.196 457.879 830.202 457.952 822.968 463.83L726.502 547.373C725.431 548.119 724.09 548.21 722.927 547.616C721.287 546.604 720.897 544.162 722.147 542.73L825.492 431.559C833.528 424.279 834.05 412.122 827.009 404.295C820.206 396.675 808.704 395.884 800.577 401.824L697.285 507.155C693.028 510.586 690.698 506.03 692.838 501.171L760.531 400.501C763.621 393.108 761.495 384.947 755.769 379.948C754.576 378.907 753.413 378.312 752.012 377.509C743.634 373.14 733.299 376.31 728.243 384.51L658.811 476.095L652.832 483.908L644.175 495.271C638.4 499.479 632.121 506.19 622.328 514.038C617.208 517.977 611.224 522.424 604.109 526.723C590.74 534.814 589.954 549.682 593.098 562.937Z" fill="#FAB29A"/>
<path opacity="0.5" d="M593.092 562.942L562.634 656.595C579.723 670.251 600.584 673.324 625.082 653.928C706.018 589.622 631.102 530.956 631.102 530.956C629.488 527.025 625.636 519.879 622.083 513.834C616.963 517.773 610.979 522.22 603.864 526.519C590.734 534.818 589.947 549.687 593.092 562.942Z" fill="#CC8A79"/>
<path d="M537.187 456.968C548.564 452.604 567.303 450.883 583.051 464.63C602.856 481.917 602.342 500.808 602.342 500.808C602.342 500.808 616.598 512.411 623.595 532.812C623.595 532.812 684.354 587.95 631.243 648.796L555.429 735.651L503.411 690.246L564.646 620.094L569.339 583.41C569.293 569.496 568.31 545.095 563.074 527.492C563.074 527.492 546.044 488.242 533.507 468.89C530.73 464.365 532.601 458.851 537.187 456.968Z" fill="#FAB29A"/>
<path opacity="0.5" d="M658.804 476.099L652.825 483.913C739.805 564.881 752.852 611.584 754.11 616.886C743.849 558.321 671.511 488.032 658.804 476.099Z" fill="#CC8A79"/>
</g>
<rect width="493.027" height="98.9603" transform="matrix(-0.653919 0.756565 0.756565 0.653919 511.4 679.241)" fill="#FAB29A"/>
<g filter="url(#filter0_d)">
<rect x="634.055" y="977.63" width="858.63" height="472.945" rx="37.5071" transform="rotate(-90 634.055 977.63)" fill="#4678B2"/>
<rect x="983.092" y="921.095" width="26.6085" height="26.937" fill="#729DCF"/>
<rect x="855.694" y="919.328" width="32.2102" height="32.6079" rx="16.1051" fill="#729DCF"/>
<path d="M769.873 950.028L743.484 934.912L769.61 919.334L769.873 950.028Z" fill="#729DCF"/>
<rect x="663.723" y="164.375" width="413.609" height="732.977" fill="#C3DCF3"/>
</g>
<g clip-path="url(#clip2)">
<rect width="412.613" height="733.534" transform="translate(665.469 164.375)" fill="white"/>
<g opacity="0.504511">
<path fill-rule="evenodd" clip-rule="evenodd" d="M894.972 589.787C947.831 598.277 976.69 634.259 948.023 655.354C919.355 676.45 823.635 670.89 776.029 649.514C728.423 628.138 842.114 581.296 894.972 589.787Z" fill="#FDEAD5"/>
</g>
<g opacity="0.504511">
<path fill-rule="evenodd" clip-rule="evenodd" d="M894.972 589.787C947.831 598.277 976.69 634.259 948.023 655.354C919.355 676.45 823.635 670.89 776.029 649.514C728.423 628.138 842.114 581.296 894.972 589.787Z" fill="#FDEAD5"/>
</g>
<g opacity="0.504511">
<path fill-rule="evenodd" clip-rule="evenodd" d="M894.972 589.787C947.831 598.277 976.69 634.259 948.023 655.354C919.355 676.45 823.635 670.89 776.029 649.514C728.423 628.138 842.114 581.296 894.972 589.787Z" fill="#FDEAD5"/>
</g>
<g opacity="0.504511">
<path fill-rule="evenodd" clip-rule="evenodd" d="M894.972 589.787C947.831 598.277 976.69 634.259 948.023 655.354C919.355 676.45 823.635 670.89 776.029 649.514C728.423 628.138 842.114 581.296 894.972 589.787Z" fill="#FDEAD5"/>
</g>
<g opacity="0.504511">
<path fill-rule="evenodd" clip-rule="evenodd" d="M894.972 589.787C947.831 598.277 976.69 634.259 948.023 655.354C919.355 676.45 823.635 670.89 776.029 649.514C728.423 628.138 842.114 581.296 894.972 589.787Z" fill="#FDEAD5"/>
</g>
<g opacity="0.504511">
<path fill-rule="evenodd" clip-rule="evenodd" d="M894.972 589.787C947.831 598.277 976.69 634.259 948.023 655.354C919.355 676.45 823.635 670.89 776.029 649.514C728.423 628.138 842.114 581.296 894.972 589.787Z" fill="#FDEAD5"/>
</g>
<rect opacity="0.35" x="1034.07" y="184.814" width="24.0019" height="11.8435" rx="2.48332" stroke="black" stroke-width="1.14615"/>
<path opacity="0.4" d="M1059.79 188.444V193.028C1060.71 192.64 1061.31 191.737 1061.31 190.736C1061.31 189.735 1060.71 188.832 1059.79 188.444" fill="black"/>
<rect x="1035.79" y="186.534" width="20.5756" height="8.40508" rx="1.5282" fill="black"/>
<path fill-rule="evenodd" clip-rule="evenodd" d="M1019.02 186.848C1021.55 186.848 1023.99 187.824 1025.82 189.574C1025.96 189.709 1026.18 189.708 1026.32 189.57L1027.64 188.233C1027.71 188.164 1027.75 188.069 1027.75 187.971C1027.75 187.873 1027.71 187.779 1027.64 187.71C1022.82 183.081 1015.22 183.081 1010.4 187.71C1010.33 187.779 1010.29 187.873 1010.29 187.971C1010.29 188.069 1010.33 188.163 1010.4 188.233L1011.72 189.57C1011.85 189.708 1012.07 189.709 1012.21 189.574C1014.05 187.824 1016.49 186.848 1019.02 186.848ZM1019.02 191.199C1020.41 191.199 1021.75 191.717 1022.78 192.654C1022.92 192.787 1023.14 192.784 1023.28 192.647L1024.6 191.31C1024.67 191.24 1024.71 191.145 1024.71 191.046C1024.7 190.947 1024.66 190.853 1024.59 190.784C1021.45 187.854 1016.59 187.854 1013.45 190.784C1013.37 190.853 1013.33 190.947 1013.33 191.046C1013.33 191.145 1013.37 191.24 1013.44 191.31L1014.76 192.647C1014.9 192.784 1015.12 192.787 1015.26 192.654C1016.29 191.718 1017.63 191.199 1019.02 191.199ZM1021.66 194.126C1021.66 194.225 1021.62 194.32 1021.55 194.39L1019.27 196.7C1019.2 196.768 1019.11 196.806 1019.02 196.806C1018.92 196.806 1018.83 196.768 1018.76 196.7L1016.48 194.39C1016.41 194.32 1016.37 194.225 1016.37 194.126C1016.38 194.026 1016.42 193.933 1016.49 193.866C1017.95 192.63 1020.09 192.63 1021.54 193.866C1021.62 193.933 1021.66 194.027 1021.66 194.126Z" fill="black"/>
<path fill-rule="evenodd" clip-rule="evenodd" d="M1003.4 184.623H1002.26C1001.63 184.623 1001.11 185.136 1001.11 185.769V195.702C1001.11 196.335 1001.63 196.849 1002.26 196.849H1003.4C1004.03 196.849 1004.54 196.335 1004.54 195.702V185.769C1004.54 185.136 1004.03 184.623 1003.4 184.623ZM996.922 187.298H998.065C998.696 187.298 999.208 187.811 999.208 188.444V195.703C999.208 196.336 998.696 196.849 998.065 196.849H996.922C996.29 196.849 995.779 196.336 995.779 195.703V188.444C995.779 187.811 996.29 187.298 996.922 187.298ZM992.73 189.972H991.587C990.956 189.972 990.444 190.485 990.444 191.118V195.702C990.444 196.335 990.956 196.849 991.587 196.849H992.73C993.362 196.849 993.873 196.335 993.873 195.702V191.118C993.873 190.485 993.362 189.972 992.73 189.972ZM987.396 192.264H986.253C985.621 192.264 985.11 192.777 985.11 193.41V195.703C985.11 196.336 985.621 196.849 986.253 196.849H987.396C988.027 196.849 988.539 196.336 988.539 195.703V193.41C988.539 192.777 988.027 192.264 987.396 192.264Z" fill="black"/>
<path d="M694.32 192.729C693.751 193.241 693.114 193.497 692.408 193.497C691.374 193.497 690.554 193.147 689.948 192.447C689.342 191.747 689.039 190.812 689.039 189.642C689.039 188.911 689.209 188.232 689.549 187.605C689.888 186.978 690.364 186.482 690.975 186.116C691.591 185.75 692.27 185.568 693.012 185.568C693.764 185.568 694.443 185.758 695.049 186.14C695.66 186.516 696.135 187.051 696.475 187.746C696.814 188.435 696.989 189.232 697 190.135V191.146C697 192.405 696.752 193.497 696.255 194.421C695.764 195.346 695.062 196.056 694.148 196.552C693.234 197.048 692.168 197.297 690.951 197.297H690.787V195.181L691.288 195.173C693.106 195.085 694.116 194.27 694.32 192.729ZM693.121 191.593C693.696 191.593 694.109 191.345 694.359 190.848V189.751C694.359 189.02 694.237 188.48 693.991 188.13C693.746 187.78 693.414 187.605 692.996 187.605C692.625 187.605 692.314 187.803 692.064 188.2C691.813 188.597 691.688 189.078 691.688 189.642C691.688 190.237 691.816 190.713 692.072 191.068C692.327 191.418 692.677 191.593 693.121 191.593ZM699.774 194.578C700.192 194.578 700.539 194.703 700.816 194.954C701.093 195.199 701.231 195.515 701.231 195.902C701.231 196.288 701.093 196.607 700.816 196.858C700.539 197.103 700.192 197.226 699.774 197.226C699.351 197.226 699.001 197.101 698.724 196.85C698.452 196.599 698.316 196.283 698.316 195.902C698.316 195.521 698.452 195.205 698.724 194.954C699.001 194.703 699.351 194.578 699.774 194.578ZM699.774 188.326C700.192 188.326 700.539 188.451 700.816 188.702C701.093 188.947 701.231 189.263 701.231 189.65C701.231 190.036 701.093 190.355 700.816 190.606C700.539 190.851 700.192 190.974 699.774 190.974C699.351 190.974 699.001 190.848 698.724 190.598C698.452 190.347 698.316 190.031 698.316 189.65C698.316 189.268 698.452 188.952 698.724 188.702C699.001 188.451 699.351 188.326 699.774 188.326ZM709.568 192.682H710.727V194.719H709.568V197.14H706.927V194.719H702.516L702.36 193.105L706.927 185.756V185.732H709.568V192.682ZM704.875 192.682H706.927V189.172L706.763 189.438L704.875 192.682ZM717.419 197.14H714.77V188.709L712.169 189.469V187.464L717.176 185.732H717.419V197.14Z" fill="black"/>
<g clip-path="url(#clip3)">
<path d="M895.535 478.512H843.098L844.811 451.971H893.25L895.535 478.512Z" fill="#1A1A1A"/>
<path d="M843.098 478.283L841.499 539.716C841.27 545.207 845.726 549.898 851.323 549.898C856.35 549.898 860.577 546.122 861.034 541.089L867.203 479.999C868.003 472.792 862.291 466.614 855.208 466.614C848.696 466.5 843.326 471.762 843.098 478.283Z" fill="#1A1A1A"/>
<path d="M841.613 629.063L842.413 600.463H853.723L853.037 629.063H841.613Z" fill="white"/>
<path d="M855.097 624.487L857.268 634.096H819.339V633.868C819.339 631.694 820.596 629.635 822.538 628.72L840.131 621.741C840.817 621.398 841.616 621.398 842.073 621.97C844.358 624.372 846.871 628.262 853.84 624.029C854.297 623.572 854.983 623.915 855.097 624.487Z" fill="#1A1A1A"/>
<path d="M819.332 636.539H857.261V634.022H819.332V636.539Z" fill="white"/>
<path d="M842.07 635.241L838.757 628.262" stroke="white" stroke-width="2.71396" stroke-miterlimit="10"/>
<path d="M837.043 635.012L834.644 629.864" stroke="white" stroke-width="2.71396" stroke-miterlimit="10"/>
<path d="M861.148 541.317L856.579 615.792H838.3L841.499 539.945C841.613 534.453 846.297 530.221 851.781 530.449C857.493 530.678 861.72 535.712 861.148 541.317Z" fill="#1A1A1A"/>
<path d="M895.421 478.283L897.02 539.716C897.249 545.207 892.793 549.898 887.195 549.898C882.169 549.898 877.942 546.123 877.485 541.089L871.316 479.999C870.516 472.792 876.228 466.614 883.311 466.614C889.823 466.5 895.192 471.762 895.421 478.283Z" fill="#1A1A1A"/>
<path d="M896.563 629.063L895.764 600.463H884.454L885.253 629.063H896.563Z" fill="white"/>
<path d="M883.083 624.487L880.912 634.097H918.84V633.868C918.84 631.694 917.584 629.635 915.642 628.72L898.048 621.513C897.363 621.17 896.563 621.17 896.106 621.742C893.821 624.144 891.308 628.034 884.339 623.801C883.882 623.572 883.197 623.915 883.083 624.487Z" fill="#1A1A1A"/>
<path d="M918.84 633.982H880.912V636.499H918.84V633.982Z" fill="white"/>
<path d="M896.106 635.241L899.419 628.262" stroke="white" stroke-width="2.71396" stroke-miterlimit="10"/>
<path d="M901.133 635.012L903.532 629.864" stroke="white" stroke-width="2.71396" stroke-miterlimit="10"/>
<path d="M877.485 541.318L881.94 615.793H899.077L896.906 539.945C896.792 534.454 892.108 530.221 886.624 530.45C881.026 530.679 876.799 535.712 877.485 541.318Z" fill="#1A1A1A"/>
<path d="M824.248 500.362C823.334 498.189 822.306 497.502 822.306 497.502C822.763 495.557 821.506 493.613 819.45 493.269L818.079 493.041C816.251 492.697 814.537 493.841 814.08 495.672V495.786C814.08 495.786 811.567 500.477 810.881 506.883C810.082 515.12 813.623 519.353 816.251 519.353C818.65 519.353 820.021 509.743 820.592 506.082L822.077 509.743C822.306 510.201 822.763 510.544 823.22 510.43C823.791 510.43 824.133 509.972 824.248 509.4L824.819 505.167C825.047 503.566 824.933 501.85 824.248 500.362Z" fill="#F3A396"/>
<path d="M822.306 497.502L836.929 450.026C838.185 445.793 835.558 441.446 831.217 440.76C827.332 440.073 823.677 442.704 822.877 446.594L813.966 495.786L822.306 497.502Z" fill="#F3A396"/>
<path d="M834.758 389.394C832.131 402.435 825.961 432.637 823.22 446.022C822.42 449.683 824.705 453.344 828.246 454.373C832.016 455.517 836.015 453.229 837.157 449.454L853.151 393.283C854.294 388.021 850.752 382.758 845.383 381.958C840.47 381.042 835.786 384.36 834.758 389.394Z" fill="#F3A396"/>
<path d="M856.236 393.97C856.236 387.22 850.752 381.843 844.126 381.843C838.186 381.843 833.273 386.191 832.131 391.796L826.99 415.477L850.638 420.968L855.665 397.631C856.007 396.487 856.236 395.228 856.236 393.97Z" fill="#F4F4F2"/>
<path d="M829.389 404.151L872.801 416.736" stroke="#1A1A1A" stroke-width="2.75605" stroke-miterlimit="10"/>
<path d="M830.531 395L873.943 407.584" stroke="#1A1A1A" stroke-width="2.75605" stroke-miterlimit="10"/>
<path d="M831.674 385.848L875.086 398.432" stroke="#1A1A1A" stroke-width="2.75605" stroke-miterlimit="10"/>
<path d="M913.128 500.362C914.042 498.189 915.071 497.502 915.071 497.502C914.614 495.557 915.87 493.613 917.927 493.269L919.298 493.041C921.125 492.697 922.839 493.841 923.296 495.672V495.786C923.296 495.786 925.809 500.477 926.495 506.883C927.295 515.12 923.753 519.353 921.125 519.353C918.726 519.353 917.355 509.743 916.784 506.082L915.299 509.743C915.071 510.201 914.614 510.544 914.157 510.43C913.585 510.43 913.243 509.972 913.128 509.4L912.557 505.167C912.329 503.566 912.557 501.85 913.128 500.362Z" fill="#F3A396"/>
<path d="M915.185 497.502L900.562 450.026C899.305 445.793 901.933 441.446 906.274 440.76C910.158 440.073 913.814 442.704 914.614 446.594L923.525 495.786L915.185 497.502Z" fill="#F3A396"/>
<path d="M902.733 389.394C905.36 402.435 911.529 432.637 914.271 446.022C915.071 449.683 912.786 453.344 909.245 454.373C905.475 455.517 901.476 453.229 900.334 449.454L884.34 393.283C883.197 388.021 886.739 382.758 892.108 381.958C897.021 381.042 901.705 384.36 902.733 389.394Z" fill="#F3A396"/>
<path d="M881.255 393.97C881.255 387.22 886.739 381.843 893.365 381.843C899.305 381.843 904.218 386.191 905.36 391.796L910.501 415.477L886.853 420.968L881.712 397.631C881.369 396.487 881.255 395.228 881.255 393.97Z" fill="#F4F4F2"/>
<path d="M907.074 404.151L864.804 416.736" stroke="#1A1A1A" stroke-width="2.75605" stroke-miterlimit="10"/>
<path d="M905.931 395L863.662 407.584" stroke="#1A1A1A" stroke-width="2.75605" stroke-miterlimit="10"/>
<path d="M904.789 385.848L862.519 398.432" stroke="#1A1A1A" stroke-width="2.75605" stroke-miterlimit="10"/>
<path d="M878.056 374.064L869.031 374.178L860.12 374.064L841.27 382.187L844.812 451.971H869.031H893.365L897.02 382.187L878.056 374.064Z" fill="#F4F4F2"/>
<path d="M843.098 444.192H895.649" stroke="#1A1A1A" stroke-width="2.75605" stroke-miterlimit="10"/>
<path d="M843.098 435.04H895.649" stroke="#1A1A1A" stroke-width="2.75605" stroke-miterlimit="10"/>
<path d="M843.098 425.888H895.649" stroke="#1A1A1A" stroke-width="2.75605" stroke-miterlimit="10"/>
<path d="M843.098 416.735H895.649" stroke="#1A1A1A" stroke-width="2.75605" stroke-miterlimit="10"/>
<path d="M843.098 407.583H895.649" stroke="#1A1A1A" stroke-width="2.75605" stroke-miterlimit="10"/>
<path d="M843.098 398.431H895.649" stroke="#1A1A1A" stroke-width="2.75605" stroke-miterlimit="10"/>
<path d="M843.098 389.279H895.649" stroke="#1A1A1A" stroke-width="2.75605" stroke-miterlimit="10"/>
<path d="M843.098 380.127H895.649" stroke="#1A1A1A" stroke-width="2.75605" stroke-miterlimit="10"/>
<path d="M884.568 376.81L878.17 374.064L869.031 374.178L860.234 374.064L853.837 376.81C853.837 376.81 854.408 384.703 869.031 384.818H869.259C883.997 384.703 884.568 376.81 884.568 376.81Z" fill="#F3A396"/>
<path d="M869.261 383.788C863.777 383.788 859.321 379.326 859.321 373.835V352.786H879.085V373.95C879.2 379.326 874.744 383.788 869.261 383.788Z" fill="#F3A396"/>
<path d="M859.32 359.421C859.32 359.421 864.804 369.603 870.973 369.031C880.57 368.23 878.97 356.332 878.97 356.332C878.97 356.332 875.2 364.34 869.374 364.34C862.862 364.34 859.32 359.421 859.32 359.421Z" fill="#1A1A1A"/>
<path d="M854.522 345.464L853.494 335.397C852.237 328.99 857.264 325.558 861.605 325.558H876.685C881.369 325.558 886.853 328.876 884.454 336.198L883.083 347.18L854.522 345.464Z" fill="#1A1A1A"/>
<path d="M882.169 350.955C885.139 353.129 890.395 343.061 887.424 340.659C884.454 338.257 882.512 342.604 882.512 342.604L882.398 346.265L881.941 349.697V350.955H882.169Z" fill="#F3A396"/>
<path d="M886.624 343.748C886.624 343.748 884.454 343.062 882.854 346.265" stroke="#D26665" stroke-width="0.743011" stroke-miterlimit="10" stroke-linecap="round" stroke-linejoin="round"/>
<path d="M883.997 344.663C883.997 344.663 886.396 345.922 884.797 347.867" stroke="#D26665" stroke-width="0.743011" stroke-miterlimit="10" stroke-linecap="round" stroke-linejoin="round"/>
<path d="M856.008 350.955C853.037 353.129 847.782 343.061 850.753 340.659C853.723 338.257 855.551 342.718 855.551 342.718L855.665 346.379L856.122 349.811L856.236 350.841L856.008 350.955Z" fill="#F3A396"/>
<path d="M851.553 343.748C851.553 343.748 853.723 343.062 855.323 346.265" stroke="#D26665" stroke-width="0.743011" stroke-miterlimit="10" stroke-linecap="round" stroke-linejoin="round"/>
<path d="M854.18 344.663C854.18 344.663 851.781 345.922 853.38 347.867" stroke="#D26665" stroke-width="0.743011" stroke-miterlimit="10" stroke-linecap="round" stroke-linejoin="round"/>
<path d="M883.197 337.914C883.197 344.206 882.398 349.582 881.484 353.358C880.684 357.133 878.399 360.336 875.2 362.51L874.629 362.853C871.202 365.026 866.861 365.141 863.319 362.967C859.778 360.794 857.378 357.247 856.579 353.243C855.208 345.922 855.094 337.799 855.094 337.799C855.094 337.799 853.837 322.126 868.917 322.469C883.997 322.813 883.197 337.914 883.197 337.914Z" fill="#F3A396"/>
<path d="M883.312 320.067C878.514 316.635 869.031 319.037 863.776 321.44C863.89 319.838 862.977 320.067 862.977 320.067C853.837 322.469 856.236 329.677 856.236 329.677C856.236 329.677 856.236 329.677 856.35 329.677C855.437 331.736 854.18 336.197 855.322 344.091C855.322 344.091 857.721 335.511 857.836 330.363C861.834 332.193 872.916 336.426 880.113 334.024C880.798 338.371 882.741 344.091 882.741 344.091C883.54 338.943 883.198 335.282 882.626 332.765C883.083 332.422 883.54 332.079 883.883 331.736C883.997 331.736 890.166 324.872 883.312 320.067Z" fill="#1A1A1A"/>
<path d="M867.774 343.977V349.01C867.774 349.125 867.774 349.354 867.889 349.468C868.117 350.04 868.802 350.383 869.374 350.154L870.745 349.811" stroke="#D26665" stroke-width="0.743011" stroke-miterlimit="10" stroke-linecap="round" stroke-linejoin="round"/>
<path d="M862.748 343.748C863.442 343.748 864.004 343.185 864.004 342.49C864.004 341.795 863.442 341.231 862.748 341.231C862.054 341.231 861.491 341.795 861.491 342.49C861.491 343.185 862.054 343.748 862.748 343.748Z" fill="#1A1A1A"/>
<path d="M874.972 343.748C875.666 343.748 876.228 343.185 876.228 342.49C876.228 341.795 875.666 341.231 874.972 341.231C874.278 341.231 873.715 341.795 873.715 342.49C873.715 343.185 874.278 343.748 874.972 343.748Z" fill="#1A1A1A"/>
<path d="M865.147 343.977L861.834 346.15" stroke="#D26665" stroke-width="0.557259" stroke-miterlimit="10" stroke-linecap="round" stroke-linejoin="round"/>
<path d="M872.801 343.977L875.772 346.15" stroke="#D26665" stroke-width="0.557259" stroke-miterlimit="10" stroke-linecap="round" stroke-linejoin="round"/>
<path d="M865.261 352.786C865.261 352.786 866.289 353.586 868.917 353.586C871.316 353.586 872.801 352.786 872.801 352.786" stroke="#D26665" stroke-width="0.743011" stroke-miterlimit="10" stroke-linecap="round" stroke-linejoin="round"/>
<path d="M869.031 359.879V361.251" stroke="#D26665" stroke-width="0.557259" stroke-miterlimit="10" stroke-linecap="round" stroke-linejoin="round"/>
<path d="M866.061 339.515V336.998H861.377C860.806 336.998 860.234 337.227 859.777 337.57L857.835 339.744L861.034 339.286L866.061 339.515Z" fill="#1A1A1A"/>
<path d="M871.659 339.515V336.998L876.457 337.113C877.028 337.113 877.599 337.342 878.056 337.685L879.998 339.858L876.799 339.401L871.659 339.515Z" fill="#1A1A1A"/>
<path opacity="0.19" d="M876.114 349.583C879.269 349.583 881.826 347.022 881.826 343.862C881.826 340.703 879.269 338.142 876.114 338.142C872.959 338.142 870.402 340.703 870.402 343.862C870.402 347.022 872.959 349.583 876.114 349.583Z" fill="white"/>
<path opacity="0.19" d="M862.176 349.583C865.331 349.583 867.888 347.022 867.888 343.862C867.888 340.703 865.331 338.142 862.176 338.142C859.022 338.142 856.464 340.703 856.464 343.862C856.464 347.022 859.022 349.583 862.176 349.583Z" fill="white"/>
<path d="M862.176 349.583C865.331 349.583 867.888 347.022 867.888 343.862C867.888 340.703 865.331 338.142 862.176 338.142C859.022 338.142 856.464 340.703 856.464 343.862C856.464 347.022 859.022 349.583 862.176 349.583Z" stroke="#1A1A1A" stroke-width="0.472514" stroke-miterlimit="10" stroke-linecap="round" stroke-linejoin="round"/>
<path d="M876.114 349.583C879.269 349.583 881.826 347.022 881.826 343.862C881.826 340.703 879.269 338.142 876.114 338.142C872.959 338.142 870.402 340.703 870.402 343.862C870.402 347.022 872.959 349.583 876.114 349.583Z" stroke="#1A1A1A" stroke-width="0.472514" stroke-miterlimit="10" stroke-linecap="round" stroke-linejoin="round"/>
<path d="M867.774 343.862C867.774 343.862 869.145 342.604 870.402 343.862" stroke="#1A1A1A" stroke-width="0.472514" stroke-miterlimit="10" stroke-linecap="round" stroke-linejoin="round"/>
<path d="M856.464 343.863H855.55" stroke="#1A1A1A" stroke-width="0.472514" stroke-miterlimit="10"/>
<path d="M882.854 343.863H881.94" stroke="#1A1A1A" stroke-width="0.472514" stroke-miterlimit="10"/>
</g>
<rect x="761.745" y="731.718" width="220.06" height="57.3074" rx="9.16918" fill="#2B44FF"/>
<path d="M828.813 757.385L831.212 751.726H834.606L830.406 760.081V764.764H827.219V760.081L823.028 751.726H826.404L828.813 757.385ZM839.513 764.943C838.027 764.943 836.824 764.501 835.904 763.618C834.985 762.728 834.525 761.573 834.525 760.152V759.901C834.525 758.911 834.707 758.036 835.072 757.278C835.442 756.52 835.979 755.935 836.683 755.523C837.388 755.105 838.224 754.896 839.191 754.896C840.552 754.896 841.626 755.32 842.414 756.168C843.202 757.009 843.596 758.185 843.596 759.696V760.869H837.597C837.704 761.412 837.94 761.839 838.304 762.149C838.668 762.459 839.14 762.615 839.719 762.615C840.674 762.615 841.42 762.28 841.957 761.612L843.336 763.241C842.96 763.761 842.426 764.176 841.734 764.486C841.047 764.791 840.307 764.943 839.513 764.943ZM839.173 757.224C838.289 757.224 837.764 757.809 837.597 758.979H840.641V758.746C840.653 758.263 840.531 757.89 840.274 757.627C840.017 757.358 839.65 757.224 839.173 757.224ZM849.891 762.042C849.891 761.785 849.757 761.579 849.488 761.424C849.219 761.269 848.709 761.107 847.957 760.94C847.205 760.773 846.584 760.555 846.094 760.287C845.605 760.012 845.232 759.681 844.975 759.293C844.718 758.905 844.59 758.46 844.59 757.958C844.59 757.069 844.957 756.338 845.691 755.765C846.426 755.186 847.387 754.896 848.575 754.896C849.852 754.896 850.879 755.186 851.655 755.765C852.431 756.344 852.819 757.105 852.819 758.048H849.792C849.792 757.272 849.384 756.884 848.566 756.884C848.249 756.884 847.984 756.973 847.769 757.153C847.554 757.326 847.446 757.544 847.446 757.806C847.446 758.075 847.578 758.293 847.84 758.46C848.103 758.627 848.521 758.764 849.094 758.872C849.673 758.979 850.18 759.108 850.616 759.257C852.073 759.758 852.801 760.657 852.801 761.952C852.801 762.836 852.407 763.555 851.619 764.11C850.837 764.665 849.822 764.943 848.575 764.943C847.745 764.943 847.005 764.794 846.354 764.495C845.703 764.197 845.196 763.791 844.832 763.277C844.468 762.764 844.286 762.224 844.286 761.657H847.106C847.118 762.104 847.267 762.433 847.554 762.642C847.84 762.844 848.208 762.946 848.655 762.946C849.067 762.946 849.375 762.862 849.578 762.695C849.786 762.528 849.891 762.31 849.891 762.042ZM855.281 768.274L853.759 767.557L854.064 766.949C854.482 766.172 854.699 765.432 854.717 764.728V762.489H857.135L857.126 764.432C857.12 765.119 856.944 765.817 856.598 766.528C856.251 767.238 855.813 767.82 855.281 768.274ZM866.913 764.764H863.886V751.01H866.913V764.764ZM873.468 764.943C871.981 764.943 870.778 764.501 869.859 763.618C868.94 762.728 868.48 761.573 868.48 760.152V759.901C868.48 758.911 868.662 758.036 869.026 757.278C869.396 756.52 869.934 755.935 870.638 755.523C871.342 755.105 872.178 754.896 873.145 754.896C874.506 754.896 875.581 755.32 876.369 756.168C877.157 757.009 877.551 758.185 877.551 759.696V760.869H871.551C871.659 761.412 871.895 761.839 872.259 762.149C872.623 762.459 873.094 762.615 873.674 762.615C874.629 762.615 875.375 762.28 875.912 761.612L877.291 763.241C876.915 763.761 876.381 764.176 875.688 764.486C875.002 764.791 874.262 764.943 873.468 764.943ZM873.127 757.224C872.244 757.224 871.719 757.809 871.551 758.979H874.596V758.746C874.608 758.263 874.485 757.89 874.229 757.627C873.972 757.358 873.605 757.224 873.127 757.224ZM882.288 752.666V755.075H883.881V757.17H882.288V761.603C882.288 761.967 882.353 762.221 882.485 762.364C882.616 762.507 882.876 762.579 883.264 762.579C883.562 762.579 883.813 762.561 884.016 762.525V764.683C883.472 764.856 882.905 764.943 882.314 764.943C881.276 764.943 880.509 764.698 880.013 764.209C879.518 763.719 879.27 762.976 879.27 761.979V757.17H878.034V755.075H879.27V752.666H882.288ZM886.362 755.809L885.037 755.093C885.532 754.233 885.786 753.392 885.798 752.568V751.01H888V752.469C888 753.025 887.839 753.619 887.517 754.251C887.2 754.878 886.815 755.397 886.362 755.809ZM892.746 762.042C892.746 761.785 892.612 761.579 892.343 761.424C892.075 761.269 891.564 761.107 890.812 760.94C890.06 760.773 889.439 760.555 888.95 760.287C888.46 760.012 888.087 759.681 887.83 759.293C887.574 758.905 887.445 758.46 887.445 757.958C887.445 757.069 887.812 756.338 888.547 755.765C889.281 755.186 890.242 754.896 891.43 754.896C892.707 754.896 893.734 755.186 894.51 755.765C895.286 756.344 895.674 757.105 895.674 758.048H892.648C892.648 757.272 892.239 756.884 891.421 756.884C891.105 756.884 890.839 756.973 890.624 757.153C890.409 757.326 890.302 757.544 890.302 757.806C890.302 758.075 890.433 758.293 890.696 758.46C890.958 758.627 891.376 758.764 891.949 758.872C892.528 758.979 893.036 759.108 893.471 759.257C894.928 759.758 895.656 760.657 895.656 761.952C895.656 762.836 895.262 763.555 894.474 764.11C893.692 764.665 892.677 764.943 891.43 764.943C890.6 764.943 889.86 764.794 889.209 764.495C888.559 764.197 888.051 763.791 887.687 763.277C887.323 762.764 887.141 762.224 887.141 761.657H889.961C889.973 762.104 890.123 762.433 890.409 762.642C890.696 762.844 891.063 762.946 891.51 762.946C891.922 762.946 892.23 762.862 892.433 762.695C892.642 762.528 892.746 762.31 892.746 762.042ZM901.289 759.848C901.289 758.869 901.45 758.003 901.772 757.251C902.094 756.499 902.557 755.92 903.16 755.514C903.763 755.102 904.464 754.896 905.264 754.896C906.273 754.896 907.061 755.236 907.628 755.917L907.736 755.075H910.476V764.397C910.476 765.25 910.276 765.99 909.876 766.617C909.482 767.25 908.909 767.734 908.156 768.068C907.404 768.408 906.533 768.578 905.542 768.578C904.831 768.578 904.142 768.444 903.473 768.175C902.811 767.907 902.303 767.557 901.951 767.128L903.214 765.355C903.775 766.017 904.515 766.349 905.434 766.349C906.772 766.349 907.44 765.662 907.44 764.289V763.985C906.861 764.623 906.13 764.943 905.246 764.943C904.064 764.943 903.109 764.492 902.381 763.591C901.653 762.683 901.289 761.471 901.289 759.955V759.848ZM904.315 760.036C904.315 760.83 904.464 761.46 904.763 761.925C905.061 762.385 905.479 762.615 906.016 762.615C906.667 762.615 907.142 762.397 907.44 761.961V757.887C907.148 757.445 906.679 757.224 906.034 757.224C905.497 757.224 905.076 757.466 904.772 757.949C904.467 758.427 904.315 759.122 904.315 760.036ZM911.81 759.83C911.81 758.863 911.998 758.003 912.374 757.251C912.75 756.493 913.29 755.911 913.995 755.505C914.699 755.099 915.526 754.896 916.475 754.896C917.926 754.896 919.069 755.347 919.904 756.248C920.74 757.144 921.158 758.364 921.158 759.91V760.018C921.158 761.528 920.737 762.728 919.895 763.618C919.06 764.501 917.926 764.943 916.493 764.943C915.114 764.943 914.007 764.531 913.171 763.707C912.335 762.877 911.884 761.755 911.819 760.34L911.81 759.83ZM914.827 760.018C914.827 760.913 914.968 761.57 915.248 761.988C915.529 762.406 915.944 762.615 916.493 762.615C917.567 762.615 918.117 761.788 918.14 760.134V759.83C918.14 758.093 917.585 757.224 916.475 757.224C915.466 757.224 914.92 757.973 914.836 759.472L914.827 760.018Z" fill="white"/>
<rect x="761.745" y="801.633" width="220.06" height="57.3074" rx="9.16918" fill="#DE9089"/>
<path d="M850.509 833.067C850.025 833.604 849.318 834.037 848.386 834.365C847.455 834.694 846.434 834.858 845.324 834.858C843.617 834.858 842.253 834.335 841.232 833.291C840.211 832.246 839.665 830.792 839.593 828.93L839.584 827.802C839.584 826.518 839.811 825.399 840.265 824.444C840.719 823.483 841.366 822.746 842.208 822.232C843.056 821.713 844.035 821.453 845.145 821.453C846.769 821.453 848.028 821.826 848.924 822.572C849.825 823.313 850.35 824.42 850.5 825.894H847.473C847.366 825.166 847.133 824.647 846.775 824.336C846.417 824.026 845.909 823.871 845.252 823.871C844.465 823.871 843.856 824.205 843.426 824.874C842.996 825.542 842.778 826.497 842.772 827.739V828.527C842.772 829.828 842.993 830.807 843.435 831.464C843.882 832.115 844.584 832.44 845.539 832.44C846.357 832.44 846.966 832.258 847.366 831.894V829.87H845.181V827.712H850.509V833.067ZM851.816 829.745C851.816 828.778 852.004 827.918 852.38 827.166C852.756 826.408 853.296 825.826 854.001 825.42C854.705 825.014 855.532 824.811 856.481 824.811C857.932 824.811 859.075 825.262 859.911 826.163C860.746 827.058 861.164 828.279 861.164 829.825V829.933C861.164 831.443 860.743 832.643 859.902 833.532C859.066 834.416 857.932 834.858 856.499 834.858C855.12 834.858 854.013 834.446 853.177 833.622C852.341 832.792 851.891 831.67 851.825 830.255L851.816 829.745ZM854.834 829.933C854.834 830.828 854.974 831.485 855.254 831.903C855.535 832.321 855.95 832.53 856.499 832.53C857.574 832.53 858.123 831.703 858.147 830.049V829.745C858.147 828.008 857.591 827.139 856.481 827.139C855.472 827.139 854.926 827.888 854.843 829.387L854.834 829.933ZM876.055 829.915C876.055 831.503 875.727 832.724 875.07 833.577C874.414 834.431 873.488 834.858 872.294 834.858C871.309 834.858 870.515 834.467 869.913 833.685L869.787 834.679H867.083V820.925H870.101V825.769C870.662 825.13 871.387 824.811 872.276 824.811C873.482 824.811 874.414 825.244 875.07 826.109C875.727 826.975 876.055 828.193 876.055 829.763V829.915ZM873.029 829.727C873.029 828.796 872.903 828.133 872.653 827.739C872.408 827.339 872.029 827.139 871.515 827.139C870.835 827.139 870.363 827.399 870.101 827.918V831.768C870.357 832.282 870.835 832.539 871.533 832.539C872.244 832.539 872.694 832.192 872.885 831.5C872.981 831.16 873.029 830.569 873.029 829.727ZM882.851 834.679C882.744 834.482 882.649 834.192 882.565 833.81C882.01 834.508 881.234 834.858 880.237 834.858C879.324 834.858 878.547 834.583 877.909 834.034C877.27 833.479 876.951 832.783 876.951 831.948C876.951 830.897 877.339 830.103 878.115 829.566C878.891 829.028 880.019 828.76 881.499 828.76H882.431V828.249C882.431 827.36 882.046 826.915 881.276 826.915C880.559 826.915 880.201 827.267 880.201 827.972H877.183C877.183 827.035 877.58 826.274 878.374 825.688C879.174 825.103 880.192 824.811 881.428 824.811C882.663 824.811 883.639 825.112 884.356 825.715C885.072 826.318 885.439 827.145 885.457 828.196V832.485C885.469 833.374 885.606 834.055 885.869 834.526V834.679H882.851ZM880.962 832.709C881.338 832.709 881.649 832.628 881.893 832.467C882.144 832.306 882.323 832.124 882.431 831.921V830.372H881.553C880.502 830.372 879.977 830.843 879.977 831.786C879.977 832.061 880.07 832.285 880.255 832.458C880.44 832.625 880.676 832.709 880.962 832.709ZM891.233 832.53C891.657 832.53 891.985 832.416 892.218 832.189C892.45 831.956 892.564 831.634 892.558 831.222H895.387C895.387 832.285 895.005 833.156 894.241 833.837C893.483 834.517 892.504 834.858 891.304 834.858C889.896 834.858 888.785 834.416 887.973 833.532C887.161 832.649 886.756 831.425 886.756 829.861V829.736C886.756 828.757 886.935 827.894 887.293 827.148C887.657 826.396 888.179 825.82 888.86 825.42C889.54 825.014 890.346 824.811 891.277 824.811C892.537 824.811 893.537 825.16 894.277 825.859C895.017 826.557 895.387 827.503 895.387 828.697H892.558C892.558 828.196 892.436 827.811 892.191 827.542C891.946 827.273 891.618 827.139 891.206 827.139C890.424 827.139 889.967 827.638 889.836 828.634C889.794 828.951 889.773 829.387 889.773 829.942C889.773 830.915 889.89 831.589 890.122 831.965C890.355 832.342 890.725 832.53 891.233 832.53ZM900.554 831.07L899.703 831.921V834.679H896.686V820.916H899.703V828.223L900.008 827.82L902.282 824.99H905.9L902.506 828.975L906.124 834.679H902.667L900.554 831.07Z" fill="white"/>
<path d="M807.898 274.885H801.54V279.649H808.972V281.797H798.85V266.315H808.898V268.484H801.54V272.759H807.898V274.885ZM810.216 275.959C810.216 274.187 810.628 272.766 811.45 271.695C812.272 270.618 813.374 270.079 814.757 270.079C815.976 270.079 816.961 270.505 817.713 271.355V265.464H820.297V281.797H817.957L817.83 280.606C817.057 281.542 816.026 282.01 814.736 282.01C813.389 282.01 812.297 281.467 811.46 280.383C810.631 279.298 810.216 277.824 810.216 275.959ZM812.8 276.183C812.8 277.352 813.024 278.267 813.47 278.926C813.924 279.578 814.565 279.904 815.395 279.904C816.451 279.904 817.224 279.433 817.713 278.49V273.578C817.238 272.656 816.472 272.195 815.416 272.195C814.58 272.195 813.934 272.528 813.481 273.195C813.027 273.854 812.8 274.85 812.8 276.183ZM829.962 280.67C829.204 281.563 828.126 282.01 826.73 282.01C825.482 282.01 824.536 281.645 823.891 280.914C823.253 280.184 822.934 279.128 822.934 277.746V270.292H825.518V277.714C825.518 279.174 826.124 279.904 827.336 279.904C828.591 279.904 829.438 279.454 829.877 278.554V270.292H832.461V281.797H830.026L829.962 280.67ZM841.967 281.797C841.854 281.577 841.754 281.219 841.669 280.723C840.847 281.581 839.841 282.01 838.65 282.01C837.494 282.01 836.551 281.68 835.821 281.021C835.091 280.362 834.726 279.546 834.726 278.575C834.726 277.349 835.18 276.41 836.087 275.757C837.001 275.098 838.306 274.768 840 274.768H841.584V274.013C841.584 273.418 841.418 272.943 841.085 272.589C840.751 272.227 840.245 272.046 839.564 272.046C838.976 272.046 838.494 272.195 838.118 272.493C837.742 272.784 837.554 273.156 837.554 273.609H834.971C834.971 272.979 835.18 272.39 835.598 271.844C836.016 271.291 836.583 270.859 837.299 270.547C838.022 270.235 838.827 270.079 839.713 270.079C841.06 270.079 842.134 270.419 842.935 271.1C843.736 271.773 844.147 272.723 844.168 273.95V279.139C844.168 280.174 844.314 281 844.604 281.616V281.797H841.967ZM839.128 279.936C839.638 279.936 840.117 279.812 840.564 279.564C841.017 279.316 841.358 278.983 841.584 278.565V276.395H840.191C839.234 276.395 838.515 276.562 838.033 276.895C837.551 277.228 837.31 277.7 837.31 278.309C837.31 278.806 837.473 279.202 837.799 279.5C838.132 279.791 838.575 279.936 839.128 279.936ZM852.898 272.652C852.558 272.596 852.207 272.567 851.845 272.567C850.662 272.567 849.864 273.021 849.453 273.928V281.797H846.869V270.292H849.336L849.4 271.578C850.024 270.579 850.888 270.079 851.994 270.079C852.363 270.079 852.668 270.129 852.909 270.228L852.898 272.652ZM853.834 275.959C853.834 274.187 854.245 272.766 855.067 271.695C855.89 270.618 856.992 270.079 858.374 270.079C859.593 270.079 860.579 270.505 861.33 271.355V265.464H863.914V281.797H861.575L861.447 280.606C860.675 281.542 859.643 282.01 858.353 282.01C857.006 282.01 855.914 281.467 855.078 280.383C854.249 279.298 853.834 277.824 853.834 275.959ZM856.418 276.183C856.418 277.352 856.641 278.267 857.088 278.926C857.541 279.578 858.183 279.904 859.012 279.904C860.068 279.904 860.841 279.433 861.33 278.49V273.578C860.855 272.656 860.09 272.195 859.033 272.195C858.197 272.195 857.552 272.528 857.098 273.195C856.645 273.854 856.418 274.85 856.418 276.183ZM866.126 275.938C866.126 274.811 866.349 273.797 866.796 272.897C867.242 271.99 867.87 271.295 868.678 270.813C869.486 270.324 870.415 270.079 871.464 270.079C873.016 270.079 874.274 270.579 875.238 271.578C876.21 272.578 876.734 273.904 876.812 275.555L876.823 276.161C876.823 277.296 876.603 278.309 876.164 279.202C875.731 280.096 875.107 280.787 874.292 281.276C873.484 281.765 872.548 282.01 871.485 282.01C869.862 282.01 868.561 281.471 867.583 280.393C866.611 279.309 866.126 277.866 866.126 276.066V275.938ZM868.71 276.161C868.71 277.345 868.954 278.274 869.443 278.947C869.932 279.614 870.613 279.947 871.485 279.947C872.357 279.947 873.034 279.607 873.516 278.926C874.005 278.246 874.25 277.25 874.25 275.938C874.25 274.776 873.998 273.854 873.495 273.173C872.998 272.493 872.321 272.153 871.464 272.153C870.62 272.153 869.95 272.489 869.454 273.163C868.958 273.829 868.71 274.829 868.71 276.161Z" fill="#1A1A1A"/>
<line x1="783.522" y1="292.17" x2="965.759" y2="292.17" stroke="black" stroke-opacity="0.67" stroke-width="1.14615"/>
<line x1="881.518" y1="258.359" x2="881.518" y2="288.158" stroke="black" stroke-width="1.14615"/>
<path d="M964.928 336.422L978.484 344.077L965.077 351.989L964.928 336.422Z" fill="#2B44FF"/>
<path d="M964.928 470.521L978.484 478.176L965.077 486.089L964.928 470.521Z" fill="#2B44FF"/>
<path d="M775.184 336.28L761.628 343.935L775.035 351.848L775.184 336.28Z" fill="#C3DCF3"/>
<path d="M775.184 470.38L761.628 478.034L775.035 485.947L775.184 470.38Z" fill="#C3DCF3"/>
<circle cx="791.784" cy="691.841" r="18.5774" transform="rotate(-90 791.784 691.841)" fill="#F3A396" fill-opacity="0.57"/>
<circle cx="844.73" cy="691.841" r="21.4427" transform="rotate(-90 844.73 691.841)" fill="#F3A396" stroke="#2B44FF" stroke-width="5.73074"/>
<circle cx="897.675" cy="691.841" r="18.5774" transform="rotate(-90 897.675 691.841)" fill="#D8A182"/>
<circle cx="950.621" cy="691.841" r="18.5774" transform="rotate(-90 950.621 691.841)" fill="#9A735E"/>
</g>
</g>
<defs>
<filter id="filter0_d" x="622.088" y="119" width="496.879" height="882.564" filterUnits="userSpaceOnUse" color-interpolation-filters="sRGB">
<feFlood flood-opacity="0" result="BackgroundImageFix"/>
<feColorMatrix in="SourceAlpha" type="matrix" values="0 0 0 0 0 0 0 0 0 0 0 0 0 0 0 0 0 0 127 0"/>
<feOffset dy="11.967"/>
<feGaussianBlur stdDeviation="5.98349"/>
<feColorMatrix type="matrix" values="0 0 0 0 0 0 0 0 0 0 0 0 0 0 0 0 0 0 0.25 0"/>
<feBlend mode="normal" in2="BackgroundImageFix" result="effect1_dropShadow"/>
<feBlend mode="normal" in="SourceGraphic" in2="effect1_dropShadow" result="shape"/>
</filter>
<clipPath id="clip0">
<rect width="1711" height="1058" fill="white"/>
</clipPath>
<clipPath id="clip1">
<rect width="299.941" height="428.532" fill="white" transform="matrix(-0.753368 -0.6576 -0.6576 0.753368 914.066 479.874)"/>
</clipPath>
<clipPath id="clip2">
<rect width="412.613" height="733.534" fill="white" transform="translate(665.469 164.375)"/>
</clipPath>
<clipPath id="clip3">
<rect width="119.841" height="318.148" fill="white" transform="translate(808.825 318.351)"/>
</clipPath>
</defs>
</svg>
